<?xml version="1.0" encoding="UTF-8" standalone="no"?>
<!DOCTYPE svg PUBLIC "-//W3C//DTD SVG 1.1//EN"
 "http://www.w3.org/Graphics/SVG/1.1/DTD/svg11.dtd">
<!-- Generated by graphviz version 2.40.1 (20161225.0304)
 -->
<!-- Title: dependencies Pages: 1 -->
<svg width="985pt" height="284pt"
 viewBox="0.00 0.00 985.00 284.00" xmlns="http://www.w3.org/2000/svg" xmlns:xlink="http://www.w3.org/1999/xlink">
<g id="graph0" class="graph" transform="scale(1 1) rotate(0) translate(4 280)">
<title>dependencies</title>
<polygon fill="#ffffff" stroke="transparent" points="-4,4 -4,-280 981,-280 981,4 -4,4"/>
<text text-anchor="start" x="467.5091" y="-42.4" font-family="sans-serif" font-weight="bold" font-size="14.00" fill="#000000">Legend</text>
<polygon fill="#ffffb3" stroke="transparent" points="254.5,-10 254.5,-30 274.5,-30 274.5,-10 254.5,-10"/>
<text text-anchor="start" x="278.129" y="-15.4" font-family="sans-serif" font-size="14.00" fill="#000000"> &#160;Declarations</text>
<polygon fill="#8dd3c7" stroke="transparent" points="367.5,-10 367.5,-30 387.5,-30 387.5,-10 367.5,-10"/>
<text text-anchor="start" x="391.2251" y="-15.4" font-family="sans-serif" font-size="14.00" fill="#000000"> &#160;Module</text>
<polygon fill="#80b1d3" stroke="transparent" points="453.5,-10 453.5,-30 473.5,-30 473.5,-10 453.5,-10"/>
<text text-anchor="start" x="477.2812" y="-15.4" font-family="sans-serif" font-size="14.00" fill="#000000"> &#160;Bootstrap</text>
<polygon fill="#fdb462" stroke="transparent" points="550.5,-10 550.5,-30 570.5,-30 570.5,-10 550.5,-10"/>
<text text-anchor="start" x="574.1732" y="-15.4" font-family="sans-serif" font-size="14.00" fill="#000000"> &#160;Providers</text>
<polygon fill="#fb8072" stroke="transparent" points="646.5,-10 646.5,-30 666.5,-30 666.5,-10 646.5,-10"/>
<text text-anchor="start" x="670.2258" y="-15.4" font-family="sans-serif" font-size="14.00" fill="#000000"> &#160;Exports</text>
<g id="clust1" class="cluster">
<title>cluster_SharedFiltersModule</title>
<polygon fill="none" stroke="#000000" stroke-dasharray="1,5" points="8,-70 8,-268 969,-268 969,-70 8,-70"/>
</g>
<g id="clust2" class="cluster">
<title>cluster_SharedFiltersModule_declarations</title>
<polygon fill="none" stroke="#000000" points="30,-78 30,-130 952,-130 952,-78 30,-78"/>
</g>
<g id="clust10" class="cluster">
<title>cluster_SharedFiltersModule_exports</title>
<polygon fill="none" stroke="#000000" points="16,-208 16,-260 961,-260 961,-208 16,-208"/>
</g>
<!-- FilterComponent -->
<g id="node1" class="node">
<title>FilterComponent</title>
<polygon fill="#ffffb3" stroke="#000000" points="943.6625,-122 832.3375,-122 832.3375,-86 943.6625,-86 943.6625,-122"/>
<text text-anchor="middle" x="888" y="-99.8" font-family="Times,serif" font-size="14.00" fill="#000000">FilterComponent</text>
</g>
<!-- SharedFiltersModule -->
<g id="node7" class="node">
<title>SharedFiltersModule</title>
<polygon fill="#8dd3c7" stroke="#000000" points="499.1965,-187 496.1965,-191 475.1965,-191 472.1965,-187 364.8035,-187 364.8035,-151 499.1965,-151 499.1965,-187"/>
<text text-anchor="middle" x="432" y="-164.8" font-family="Times,serif" font-size="14.00" fill="#000000">SharedFiltersModule</text>
</g>
<!-- FilterComponent&#45;&gt;SharedFiltersModule -->
<g id="edge1" class="edge">
<title>FilterComponent&#45;&gt;SharedFiltersModule</title>
<path fill="none" stroke="#000000" d="M908.3603,-122.2222C908.3603,-140.8285 908.3603,-167 908.3603,-167 908.3603,-167 509.2405,-167 509.2405,-167"/>
<polygon fill="#000000" stroke="#000000" points="509.2405,-163.5001 499.2405,-167 509.2404,-170.5001 509.2405,-163.5001"/>
</g>
<!-- FilterValueComponent -->
<g id="node2" class="node">
<title>FilterValueComponent</title>
<polygon fill="#ffffb3" stroke="#000000" points="814.5884,-122 669.4116,-122 669.4116,-86 814.5884,-86 814.5884,-122"/>
<text text-anchor="middle" x="742" y="-99.8" font-family="Times,serif" font-size="14.00" fill="#000000">FilterValueComponent</text>
</g>
<!-- FilterValueComponent&#45;&gt;SharedFiltersModule -->
<g id="edge2" class="edge">
<title>FilterValueComponent&#45;&gt;SharedFiltersModule</title>
<path fill="none" stroke="#000000" d="M766.5981,-122.0336C766.5981,-139.0597 766.5981,-162 766.5981,-162 766.5981,-162 509.3084,-162 509.3084,-162"/>
<polygon fill="#000000" stroke="#000000" points="509.3085,-158.5001 499.3084,-162 509.3084,-165.5001 509.3085,-158.5001"/>
</g>
<!-- FiltersComponent -->
<g id="node3" class="node">
<title>FiltersComponent</title>
<polygon fill="#ffffb3" stroke="#000000" points="651.6066,-122 534.3934,-122 534.3934,-86 651.6066,-86 651.6066,-122"/>
<text text-anchor="middle" x="593" y="-99.8" font-family="Times,serif" font-size="14.00" fill="#000000">FiltersComponent</text>
</g>
<!-- FiltersComponent&#45;&gt;SharedFiltersModule -->
<g id="edge3" class="edge">
<title>FiltersComponent&#45;&gt;SharedFiltersModule</title>
<path fill="none" stroke="#000000" d="M573.4822,-122.2396C573.4822,-137.5706 573.4822,-157 573.4822,-157 573.4822,-157 509.4262,-157 509.4262,-157"/>
<polygon fill="#000000" stroke="#000000" points="509.4262,-153.5001 499.4262,-157 509.4262,-160.5001 509.4262,-153.5001"/>
</g>
<!-- InAppDisclosureComponent -->
<g id="node4" class="node">
<title>InAppDisclosureComponent</title>
<polygon fill="#ffffb3" stroke="#000000" points="516.4664,-122 339.5336,-122 339.5336,-86 516.4664,-86 516.4664,-122"/>
<text text-anchor="middle" x="428" y="-99.8" font-family="Times,serif" font-size="14.00" fill="#000000">InAppDisclosureComponent</text>
</g>
<!-- InAppDisclosureComponent&#45;&gt;SharedFiltersModule -->
<g id="edge4" class="edge">
<title>InAppDisclosureComponent&#45;&gt;SharedFiltersModule</title>
<path fill="none" stroke="#000000" d="M432,-122.1061C432,-122.1061 432,-140.991 432,-140.991"/>
<polygon fill="#000000" stroke="#000000" points="428.5001,-140.9909 432,-150.991 435.5001,-140.991 428.5001,-140.9909"/>
</g>
<!-- SearchComponent -->
<g id="node5" class="node">
<title>SearchComponent</title>
<polygon fill="#ffffb3" stroke="#000000" points="321.9201,-122 202.0799,-122 202.0799,-86 321.9201,-86 321.9201,-122"/>
<text text-anchor="middle" x="262" y="-99.8" font-family="Times,serif" font-size="14.00" fill="#000000">SearchComponent</text>
</g>
<!-- SearchComponent&#45;&gt;SharedFiltersModule -->
<g id="edge5" class="edge">
<title>SearchComponent&#45;&gt;SharedFiltersModule</title>
<path fill="none" stroke="#000000" d="M318.0847,-122.0091C318.0847,-138.0494 318.0847,-159 318.0847,-159 318.0847,-159 354.7471,-159 354.7471,-159"/>
<polygon fill="#000000" stroke="#000000" points="354.7471,-162.5001 364.7471,-159 354.7471,-155.5001 354.7471,-162.5001"/>
</g>
<!-- SelectFilterComponent -->
<g id="node6" class="node">
<title>SelectFilterComponent</title>
<polygon fill="#ffffb3" stroke="#000000" points="183.8697,-122 38.1303,-122 38.1303,-86 183.8697,-86 183.8697,-122"/>
<text text-anchor="middle" x="111" y="-99.8" font-family="Times,serif" font-size="14.00" fill="#000000">SelectFilterComponent</text>
</g>
<!-- SelectFilterComponent&#45;&gt;SharedFiltersModule -->
<g id="edge6" class="edge">
<title>SelectFilterComponent&#45;&gt;SharedFiltersModule</title>
<path fill="none" stroke="#000000" d="M178.8098,-122.2667C178.8098,-140.5552 178.8098,-166 178.8098,-166 178.8098,-166 354.8144,-166 354.8144,-166"/>
<polygon fill="#000000" stroke="#000000" points="354.8144,-169.5001 364.8144,-166 354.8144,-162.5001 354.8144,-169.5001"/>
</g>
<!-- FilterComponent  -->
<g id="node8" class="node">
<title>FilterComponent </title>
<polygon fill="#fb8072" stroke="#000000" points="952.6621,-252 837.3379,-252 837.3379,-216 952.6621,-216 952.6621,-252"/>
<text text-anchor="middle" x="895" y="-229.8" font-family="Times,serif" font-size="14.00" fill="#000000">FilterComponent </text>
</g>
<!-- SharedFiltersModule&#45;&gt;FilterComponent  -->
<g id="edge7" class="edge">
<title>SharedFiltersModule&#45;&gt;FilterComponent </title>
<path fill="none" stroke="#000000" stroke-dasharray="5,2" d="M499.4416,-172C622.9479,-172 872.8897,-172 872.8897,-172 872.8897,-172 872.8897,-205.7333 872.8897,-205.7333"/>
<polygon fill="#000000" stroke="#000000" points="869.3898,-205.7333 872.8897,-215.7333 876.3898,-205.7333 869.3898,-205.7333"/>
</g>
<!-- FilterValueComponent  -->
<g id="node9" class="node">
<title>FilterValueComponent </title>
<polygon fill="#fb8072" stroke="#000000" points="819.089,-252 670.911,-252 670.911,-216 819.089,-216 819.089,-252"/>
<text text-anchor="middle" x="745" y="-229.8" font-family="Times,serif" font-size="14.00" fill="#000000">FilterValueComponent </text>
</g>
<!-- SharedFiltersModule&#45;&gt;FilterValueComponent  -->
<g id="edge8" class="edge">
<title>SharedFiltersModule&#45;&gt;FilterValueComponent </title>
<path fill="none" stroke="#000000" stroke-dasharray="5,2" d="M499.2071,-177C583.9328,-177 718.6519,-177 718.6519,-177 718.6519,-177 718.6519,-205.9648 718.6519,-205.9648"/>
<polygon fill="#000000" stroke="#000000" points="715.152,-205.9648 718.6519,-215.9648 722.152,-205.9649 715.152,-205.9648"/>
</g>
<!-- FiltersComponent  -->
<g id="node10" class="node">
<title>FiltersComponent </title>
<polygon fill="#fb8072" stroke="#000000" points="652.1072,-252 531.8928,-252 531.8928,-216 652.1072,-216 652.1072,-252"/>
<text text-anchor="middle" x="592" y="-229.8" font-family="Times,serif" font-size="14.00" fill="#000000">FiltersComponent </text>
</g>
<!-- SharedFiltersModule&#45;&gt;FiltersComponent  -->
<g id="edge9" class="edge">
<title>SharedFiltersModule&#45;&gt;FiltersComponent </title>
<path fill="none" stroke="#000000" stroke-dasharray="5,2" d="M499.2182,-182C550.5419,-182 612.5178,-182 612.5178,-182 612.5178,-182 612.5178,-205.8129 612.5178,-205.8129"/>
<polygon fill="#000000" stroke="#000000" points="609.0179,-205.8129 612.5178,-215.8129 616.0179,-205.813 609.0179,-205.8129"/>
</g>
<!-- InAppDisclosureComponent  -->
<g id="node11" class="node">
<title>InAppDisclosureComponent </title>
<polygon fill="#fb8072" stroke="#000000" points="513.467,-252 332.533,-252 332.533,-216 513.467,-216 513.467,-252"/>
<text text-anchor="middle" x="423" y="-229.8" font-family="Times,serif" font-size="14.00" fill="#000000">InAppDisclosureComponent </text>
</g>
<!-- SharedFiltersModule&#45;&gt;InAppDisclosureComponent  -->
<g id="edge10" class="edge">
<title>SharedFiltersModule&#45;&gt;InAppDisclosureComponent </title>
<path fill="none" stroke="#000000" stroke-dasharray="5,2" d="M432,-187.1061C432,-187.1061 432,-205.991 432,-205.991"/>
<polygon fill="#000000" stroke="#000000" points="428.5001,-205.9909 432,-215.991 435.5001,-205.991 428.5001,-205.9909"/>
</g>
<!-- SearchComponent  -->
<g id="node12" class="node">
<title>SearchComponent </title>
<polygon fill="#fb8072" stroke="#000000" points="314.4194,-252 191.5806,-252 191.5806,-216 314.4194,-216 314.4194,-252"/>
<text text-anchor="middle" x="253" y="-229.8" font-family="Times,serif" font-size="14.00" fill="#000000">SearchComponent </text>
</g>
<!-- SharedFiltersModule&#45;&gt;SearchComponent  -->
<g id="edge11" class="edge">
<title>SharedFiltersModule&#45;&gt;SearchComponent </title>
<path fill="none" stroke="#000000" stroke-dasharray="5,2" d="M364.872,-180C316.014,-180 258.375,-180 258.375,-180 258.375,-180 258.375,-205.7181 258.375,-205.7181"/>
<polygon fill="#000000" stroke="#000000" points="254.8751,-205.718 258.375,-215.7181 261.8751,-205.7181 254.8751,-205.718"/>
</g>
<!-- SelectFilterComponent  -->
<g id="node13" class="node">
<title>SelectFilterComponent </title>
<polygon fill="#fb8072" stroke="#000000" points="173.8701,-252 24.1299,-252 24.1299,-216 173.8701,-216 173.8701,-252"/>
<text text-anchor="middle" x="99" y="-229.8" font-family="Times,serif" font-size="14.00" fill="#000000">SelectFilterComponent </text>
</g>
<!-- SharedFiltersModule&#45;&gt;SelectFilterComponent  -->
<g id="edge12" class="edge">
<title>SharedFiltersModule&#45;&gt;SelectFilterComponent </title>
<path fill="none" stroke="#000000" stroke-dasharray="5,2" d="M364.8221,-173C269.3533,-173 105.875,-173 105.875,-173 105.875,-173 105.875,-205.698 105.875,-205.698"/>
<polygon fill="#000000" stroke="#000000" points="102.3751,-205.698 105.875,-215.698 109.3751,-205.698 102.3751,-205.698"/>
</g>
</g>
</svg>
