<?xml version="1.0" encoding="UTF-8" standalone="no"?>
<!DOCTYPE svg PUBLIC "-//W3C//DTD SVG 1.1//EN"
 "http://www.w3.org/Graphics/SVG/1.1/DTD/svg11.dtd">
<!-- Generated by graphviz version 2.40.1 (20161225.0304)
 -->
<!-- Title: dependencies Pages: 1 -->
<svg width="504pt" height="211pt"
 viewBox="0.00 0.00 504.00 211.00" xmlns="http://www.w3.org/2000/svg" xmlns:xlink="http://www.w3.org/1999/xlink">
<g id="graph0" class="graph" transform="scale(1 1) rotate(0) translate(4 207)">
<title>dependencies</title>
<polygon fill="#ffffff" stroke="transparent" points="-4,4 -4,-207 500,-207 500,4 -4,4"/>
<text text-anchor="start" x="227.0091" y="-42.4" font-family="sans-serif" font-weight="bold" font-size="14.00" fill="#000000">Legend</text>
<polygon fill="#ffffb3" stroke="transparent" points="14,-10 14,-30 34,-30 34,-10 14,-10"/>
<text text-anchor="start" x="37.629" y="-15.4" font-family="sans-serif" font-size="14.00" fill="#000000"> &#160;Declarations</text>
<polygon fill="#8dd3c7" stroke="transparent" points="127,-10 127,-30 147,-30 147,-10 127,-10"/>
<text text-anchor="start" x="150.7251" y="-15.4" font-family="sans-serif" font-size="14.00" fill="#000000"> &#160;Module</text>
<polygon fill="#80b1d3" stroke="transparent" points="213,-10 213,-30 233,-30 233,-10 213,-10"/>
<text text-anchor="start" x="236.7812" y="-15.4" font-family="sans-serif" font-size="14.00" fill="#000000"> &#160;Bootstrap</text>
<polygon fill="#fdb462" stroke="transparent" points="310,-10 310,-30 330,-30 330,-10 310,-10"/>
<text text-anchor="start" x="333.6732" y="-15.4" font-family="sans-serif" font-size="14.00" fill="#000000"> &#160;Providers</text>
<polygon fill="#fb8072" stroke="transparent" points="406,-10 406,-30 426,-30 426,-10 406,-10"/>
<text text-anchor="start" x="429.7258" y="-15.4" font-family="sans-serif" font-size="14.00" fill="#000000"> &#160;Exports</text>
<g id="clust1" class="cluster">
<title>cluster_TreksPageModule</title>
<polygon fill="none" stroke="#000000" stroke-dasharray="1,5" points="52,-70 52,-195 444,-195 444,-70 52,-70"/>
</g>
<g id="clust2" class="cluster">
<title>cluster_TreksPageModule_declarations</title>
<polygon fill="none" stroke="#000000" points="344,-78 344,-130 436,-130 436,-78 344,-78"/>
</g>
<g id="clust4" class="cluster">
<title>cluster_TreksPageModule_imports</title>
<polygon fill="none" stroke="#000000" points="60,-78 60,-130 336,-130 336,-78 60,-78"/>
</g>
<!-- TreksPage -->
<g id="node1" class="node">
<title>TreksPage</title>
<polygon fill="#ffffb3" stroke="#000000" points="427.5842,-122 352.4158,-122 352.4158,-86 427.5842,-86 427.5842,-122"/>
<text text-anchor="middle" x="390" y="-99.8" font-family="Times,serif" font-size="14.00" fill="#000000">TreksPage</text>
</g>
<!-- TreksPageModule -->
<g id="node2" class="node">
<title>TreksPageModule</title>
<polygon fill="#8dd3c7" stroke="#000000" points="322.1346,-187 319.1346,-191 298.1346,-191 295.1346,-187 203.8654,-187 203.8654,-151 322.1346,-151 322.1346,-187"/>
<text text-anchor="middle" x="263" y="-164.8" font-family="Times,serif" font-size="14.00" fill="#000000">TreksPageModule</text>
</g>
<!-- TreksPage&#45;&gt;TreksPageModule -->
<g id="edge1" class="edge">
<title>TreksPage&#45;&gt;TreksPageModule</title>
<path fill="none" stroke="#000000" d="M390,-122.1061C390,-141.3391 390,-169 390,-169 390,-169 332.4097,-169 332.4097,-169"/>
<polygon fill="#000000" stroke="#000000" points="332.4098,-165.5001 322.4097,-169 332.4097,-172.5001 332.4098,-165.5001"/>
</g>
<!-- SharedTreksModule -->
<g id="node3" class="node">
<title>SharedTreksModule</title>
<polygon fill="#8dd3c7" stroke="#000000" points="328.2949,-122 325.2949,-126 304.2949,-126 301.2949,-122 197.7051,-122 197.7051,-86 328.2949,-86 328.2949,-122"/>
<text text-anchor="middle" x="263" y="-99.8" font-family="Times,serif" font-size="14.00" fill="#000000">SharedTreksModule</text>
</g>
<!-- SharedTreksModule&#45;&gt;TreksPageModule -->
<g id="edge2" class="edge">
<title>SharedTreksModule&#45;&gt;TreksPageModule</title>
<path fill="none" stroke="#000000" d="M263,-122.1061C263,-122.1061 263,-140.991 263,-140.991"/>
<polygon fill="#000000" stroke="#000000" points="259.5001,-140.9909 263,-150.991 266.5001,-140.991 259.5001,-140.9909"/>
</g>
<!-- SharedUiModule -->
<g id="node4" class="node">
<title>SharedUiModule</title>
<polygon fill="#8dd3c7" stroke="#000000" points="180.4202,-122 177.4202,-126 156.4202,-126 153.4202,-122 67.5798,-122 67.5798,-86 180.4202,-86 180.4202,-122"/>
<text text-anchor="middle" x="124" y="-99.8" font-family="Times,serif" font-size="14.00" fill="#000000">SharedUiModule</text>
</g>
<!-- SharedUiModule&#45;&gt;TreksPageModule -->
<g id="edge3" class="edge">
<title>SharedUiModule&#45;&gt;TreksPageModule</title>
<path fill="none" stroke="#000000" d="M124,-122.1061C124,-141.3391 124,-169 124,-169 124,-169 193.6483,-169 193.6483,-169"/>
<polygon fill="#000000" stroke="#000000" points="193.6483,-172.5001 203.6483,-169 193.6483,-165.5001 193.6483,-172.5001"/>
</g>
</g>
</svg>
