<?xml version="1.0" encoding="UTF-8" standalone="no"?>
<!DOCTYPE svg PUBLIC "-//W3C//DTD SVG 1.1//EN"
 "http://www.w3.org/Graphics/SVG/1.1/DTD/svg11.dtd">
<!-- Generated by graphviz version 2.40.1 (20161225.0304)
 -->
<!-- Title: dependencies Pages: 1 -->
<svg width="626pt" height="284pt"
 viewBox="0.00 0.00 626.00 284.00" xmlns="http://www.w3.org/2000/svg" xmlns:xlink="http://www.w3.org/1999/xlink">
<g id="graph0" class="graph" transform="scale(1 1) rotate(0) translate(4 280)">
<title>dependencies</title>
<polygon fill="#ffffff" stroke="transparent" points="-4,4 -4,-280 622,-280 622,4 -4,4"/>
<text text-anchor="start" x="288.0091" y="-42.4" font-family="sans-serif" font-weight="bold" font-size="14.00" fill="#000000">Legend</text>
<polygon fill="#ffffb3" stroke="transparent" points="75,-10 75,-30 95,-30 95,-10 75,-10"/>
<text text-anchor="start" x="98.629" y="-15.4" font-family="sans-serif" font-size="14.00" fill="#000000"> &#160;Declarations</text>
<polygon fill="#8dd3c7" stroke="transparent" points="188,-10 188,-30 208,-30 208,-10 188,-10"/>
<text text-anchor="start" x="211.7251" y="-15.4" font-family="sans-serif" font-size="14.00" fill="#000000"> &#160;Module</text>
<polygon fill="#80b1d3" stroke="transparent" points="274,-10 274,-30 294,-30 294,-10 274,-10"/>
<text text-anchor="start" x="297.7812" y="-15.4" font-family="sans-serif" font-size="14.00" fill="#000000"> &#160;Bootstrap</text>
<polygon fill="#fdb462" stroke="transparent" points="371,-10 371,-30 391,-30 391,-10 371,-10"/>
<text text-anchor="start" x="394.6732" y="-15.4" font-family="sans-serif" font-size="14.00" fill="#000000"> &#160;Providers</text>
<polygon fill="#fb8072" stroke="transparent" points="467,-10 467,-30 487,-30 487,-10 467,-10"/>
<text text-anchor="start" x="490.7258" y="-15.4" font-family="sans-serif" font-size="14.00" fill="#000000"> &#160;Exports</text>
<g id="clust1" class="cluster">
<title>cluster_SharedModule</title>
<polygon fill="none" stroke="#000000" stroke-dasharray="1,5" points="8,-70 8,-268 610,-268 610,-70 8,-70"/>
</g>
<g id="clust2" class="cluster">
<title>cluster_SharedModule_declarations</title>
<polygon fill="none" stroke="#000000" points="21,-78 21,-130 597,-130 597,-78 21,-78"/>
</g>
<g id="clust7" class="cluster">
<title>cluster_SharedModule_exports</title>
<polygon fill="none" stroke="#000000" points="16,-208 16,-260 602,-260 602,-208 16,-208"/>
</g>
<!-- GeolocateNotificationsComponent -->
<g id="node1" class="node">
<title>GeolocateNotificationsComponent</title>
<polygon fill="#ffffb3" stroke="#000000" points="588.6727,-122 377.3273,-122 377.3273,-86 588.6727,-86 588.6727,-122"/>
<text text-anchor="middle" x="483" y="-99.8" font-family="Times,serif" font-size="14.00" fill="#000000">GeolocateNotificationsComponent</text>
</g>
<!-- SharedModule -->
<g id="node4" class="node">
<title>SharedModule</title>
<polygon fill="#8dd3c7" stroke="#000000" points="332.4231,-187 329.4231,-191 308.4231,-191 305.4231,-187 233.5769,-187 233.5769,-151 332.4231,-151 332.4231,-187"/>
<text text-anchor="middle" x="283" y="-164.8" font-family="Times,serif" font-size="14.00" fill="#000000">SharedModule</text>
</g>
<!-- GeolocateNotificationsComponent&#45;&gt;SharedModule -->
<g id="edge1" class="edge">
<title>GeolocateNotificationsComponent&#45;&gt;SharedModule</title>
<path fill="none" stroke="#000000" d="M518.9454,-122.0225C518.9454,-139.3734 518.9454,-163 518.9454,-163 518.9454,-163 342.4619,-163 342.4619,-163"/>
<polygon fill="#000000" stroke="#000000" points="342.4619,-159.5001 332.4619,-163 342.4619,-166.5001 342.4619,-159.5001"/>
</g>
<!-- MapTrekVizComponent -->
<g id="node2" class="node">
<title>MapTrekVizComponent</title>
<polygon fill="#ffffb3" stroke="#000000" points="359.6316,-122 206.3684,-122 206.3684,-86 359.6316,-86 359.6316,-122"/>
<text text-anchor="middle" x="283" y="-99.8" font-family="Times,serif" font-size="14.00" fill="#000000">MapTrekVizComponent</text>
</g>
<!-- MapTrekVizComponent&#45;&gt;SharedModule -->
<g id="edge2" class="edge">
<title>MapTrekVizComponent&#45;&gt;SharedModule</title>
<path fill="none" stroke="#000000" d="M283,-122.1061C283,-122.1061 283,-140.991 283,-140.991"/>
<polygon fill="#000000" stroke="#000000" points="279.5001,-140.9909 283,-150.991 286.5001,-140.991 279.5001,-140.9909"/>
</g>
<!-- MapTreksVizComponent -->
<g id="node3" class="node">
<title>MapTreksVizComponent</title>
<polygon fill="#ffffb3" stroke="#000000" points="188.5758,-122 29.4242,-122 29.4242,-86 188.5758,-86 188.5758,-122"/>
<text text-anchor="middle" x="109" y="-99.8" font-family="Times,serif" font-size="14.00" fill="#000000">MapTreksVizComponent</text>
</g>
<!-- MapTreksVizComponent&#45;&gt;SharedModule -->
<g id="edge3" class="edge">
<title>MapTreksVizComponent&#45;&gt;SharedModule</title>
<path fill="none" stroke="#000000" d="M134.0126,-122.0225C134.0126,-139.3734 134.0126,-163 134.0126,-163 134.0126,-163 223.3894,-163 223.3894,-163"/>
<polygon fill="#000000" stroke="#000000" points="223.3894,-166.5001 233.3894,-163 223.3893,-159.5001 223.3894,-166.5001"/>
</g>
<!-- GeolocateNotificationsComponent  -->
<g id="node5" class="node">
<title>GeolocateNotificationsComponent </title>
<polygon fill="#fb8072" stroke="#000000" points="594.1728,-252 379.8272,-252 379.8272,-216 594.1728,-216 594.1728,-252"/>
<text text-anchor="middle" x="487" y="-229.8" font-family="Times,serif" font-size="14.00" fill="#000000">GeolocateNotificationsComponent </text>
</g>
<!-- SharedModule&#45;&gt;GeolocateNotificationsComponent  -->
<g id="edge4" class="edge">
<title>SharedModule&#45;&gt;GeolocateNotificationsComponent </title>
<path fill="none" stroke="#000000" stroke-dasharray="5,2" d="M332.4466,-175C381.4686,-175 449.3046,-175 449.3046,-175 449.3046,-175 449.3046,-205.9775 449.3046,-205.9775"/>
<polygon fill="#000000" stroke="#000000" points="445.8047,-205.9774 449.3046,-215.9775 452.8047,-205.9775 445.8047,-205.9774"/>
</g>
<!-- MapTrekVizComponent  -->
<g id="node6" class="node">
<title>MapTrekVizComponent </title>
<polygon fill="#fb8072" stroke="#000000" points="361.6313,-252 204.3687,-252 204.3687,-216 361.6313,-216 361.6313,-252"/>
<text text-anchor="middle" x="283" y="-229.8" font-family="Times,serif" font-size="14.00" fill="#000000">MapTrekVizComponent </text>
</g>
<!-- SharedModule&#45;&gt;MapTrekVizComponent  -->
<g id="edge5" class="edge">
<title>SharedModule&#45;&gt;MapTrekVizComponent </title>
<path fill="none" stroke="#000000" stroke-dasharray="5,2" d="M283,-187.1061C283,-187.1061 283,-205.991 283,-205.991"/>
<polygon fill="#000000" stroke="#000000" points="279.5001,-205.9909 283,-215.991 286.5001,-205.991 279.5001,-205.9909"/>
</g>
<!-- MapTreksVizComponent  -->
<g id="node7" class="node">
<title>MapTreksVizComponent </title>
<polygon fill="#fb8072" stroke="#000000" points="186.0764,-252 23.9236,-252 23.9236,-216 186.0764,-216 186.0764,-252"/>
<text text-anchor="middle" x="105" y="-229.8" font-family="Times,serif" font-size="14.00" fill="#000000">MapTreksVizComponent </text>
</g>
<!-- SharedModule&#45;&gt;MapTreksVizComponent  -->
<g id="edge6" class="edge">
<title>SharedModule&#45;&gt;MapTreksVizComponent </title>
<path fill="none" stroke="#000000" stroke-dasharray="5,2" d="M233.7656,-175C174.1821,-175 81.7374,-175 81.7374,-175 81.7374,-175 81.7374,-205.9775 81.7374,-205.9775"/>
<polygon fill="#000000" stroke="#000000" points="78.2375,-205.9774 81.7374,-215.9775 85.2375,-205.9775 78.2375,-205.9774"/>
</g>
</g>
</svg>
