<?xml version="1.0" encoding="UTF-8" standalone="no"?>
<!DOCTYPE svg PUBLIC "-//W3C//DTD SVG 1.1//EN"
 "http://www.w3.org/Graphics/SVG/1.1/DTD/svg11.dtd">
<!-- Generated by graphviz version 2.40.1 (20161225.0304)
 -->
<!-- Title: dependencies Pages: 1 -->
<svg width="504pt" height="211pt"
 viewBox="0.00 0.00 504.00 211.00" xmlns="http://www.w3.org/2000/svg" xmlns:xlink="http://www.w3.org/1999/xlink">
<g id="graph0" class="graph" transform="scale(1 1) rotate(0) translate(4 207)">
<title>dependencies</title>
<polygon fill="#ffffff" stroke="transparent" points="-4,4 -4,-207 500,-207 500,4 -4,4"/>
<text text-anchor="start" x="227.0091" y="-42.4" font-family="sans-serif" font-weight="bold" font-size="14.00" fill="#000000">Legend</text>
<polygon fill="#ffffb3" stroke="transparent" points="14,-10 14,-30 34,-30 34,-10 14,-10"/>
<text text-anchor="start" x="37.629" y="-15.4" font-family="sans-serif" font-size="14.00" fill="#000000"> &#160;Declarations</text>
<polygon fill="#8dd3c7" stroke="transparent" points="127,-10 127,-30 147,-30 147,-10 127,-10"/>
<text text-anchor="start" x="150.7251" y="-15.4" font-family="sans-serif" font-size="14.00" fill="#000000"> &#160;Module</text>
<polygon fill="#80b1d3" stroke="transparent" points="213,-10 213,-30 233,-30 233,-10 213,-10"/>
<text text-anchor="start" x="236.7812" y="-15.4" font-family="sans-serif" font-size="14.00" fill="#000000"> &#160;Bootstrap</text>
<polygon fill="#fdb462" stroke="transparent" points="310,-10 310,-30 330,-30 330,-10 310,-10"/>
<text text-anchor="start" x="333.6732" y="-15.4" font-family="sans-serif" font-size="14.00" fill="#000000"> &#160;Providers</text>
<polygon fill="#fb8072" stroke="transparent" points="406,-10 406,-30 426,-30 426,-10 406,-10"/>
<text text-anchor="start" x="429.7258" y="-15.4" font-family="sans-serif" font-size="14.00" fill="#000000"> &#160;Exports</text>
<g id="clust1" class="cluster">
<title>cluster_TreksMapPageModule</title>
<polygon fill="none" stroke="#000000" stroke-dasharray="1,5" points="56,-70 56,-195 440,-195 440,-70 56,-70"/>
</g>
<g id="clust2" class="cluster">
<title>cluster_TreksMapPageModule_declarations</title>
<polygon fill="none" stroke="#000000" points="316,-78 316,-130 432,-130 432,-78 316,-78"/>
</g>
<g id="clust4" class="cluster">
<title>cluster_TreksMapPageModule_imports</title>
<polygon fill="none" stroke="#000000" points="64,-78 64,-130 308,-130 308,-78 64,-78"/>
</g>
<!-- TreksMapPage -->
<g id="node1" class="node">
<title>TreksMapPage</title>
<polygon fill="#ffffb3" stroke="#000000" points="424.2437,-122 323.7563,-122 323.7563,-86 424.2437,-86 424.2437,-122"/>
<text text-anchor="middle" x="374" y="-99.8" font-family="Times,serif" font-size="14.00" fill="#000000">TreksMapPage</text>
</g>
<!-- TreksMapPageModule -->
<g id="node2" class="node">
<title>TreksMapPageModule</title>
<polygon fill="#8dd3c7" stroke="#000000" points="323.2935,-187 320.2935,-191 299.2935,-191 296.2935,-187 178.7065,-187 178.7065,-151 323.2935,-151 323.2935,-187"/>
<text text-anchor="middle" x="251" y="-164.8" font-family="Times,serif" font-size="14.00" fill="#000000">TreksMapPageModule</text>
</g>
<!-- TreksMapPage&#45;&gt;TreksMapPageModule -->
<g id="edge1" class="edge">
<title>TreksMapPage&#45;&gt;TreksMapPageModule</title>
<path fill="none" stroke="#000000" d="M323.695,-104C316.6086,-104 311.6789,-104 311.6789,-104 311.6789,-104 311.6789,-140.8939 311.6789,-140.8939"/>
<polygon fill="#000000" stroke="#000000" points="308.1789,-140.8938 311.6789,-150.8939 315.1789,-140.8939 308.1789,-140.8938"/>
</g>
<!-- SharedModule -->
<g id="node3" class="node">
<title>SharedModule</title>
<polygon fill="#8dd3c7" stroke="#000000" points="300.4231,-122 297.4231,-126 276.4231,-126 273.4231,-122 201.5769,-122 201.5769,-86 300.4231,-86 300.4231,-122"/>
<text text-anchor="middle" x="251" y="-99.8" font-family="Times,serif" font-size="14.00" fill="#000000">SharedModule</text>
</g>
<!-- SharedModule&#45;&gt;TreksMapPageModule -->
<g id="edge2" class="edge">
<title>SharedModule&#45;&gt;TreksMapPageModule</title>
<path fill="none" stroke="#000000" d="M251,-122.1061C251,-122.1061 251,-140.991 251,-140.991"/>
<polygon fill="#000000" stroke="#000000" points="247.5001,-140.9909 251,-150.991 254.5001,-140.991 247.5001,-140.9909"/>
</g>
<!-- SharedUiModule -->
<g id="node4" class="node">
<title>SharedUiModule</title>
<polygon fill="#8dd3c7" stroke="#000000" points="184.4202,-122 181.4202,-126 160.4202,-126 157.4202,-122 71.5798,-122 71.5798,-86 184.4202,-86 184.4202,-122"/>
<text text-anchor="middle" x="128" y="-99.8" font-family="Times,serif" font-size="14.00" fill="#000000">SharedUiModule</text>
</g>
<!-- SharedUiModule&#45;&gt;TreksMapPageModule -->
<g id="edge3" class="edge">
<title>SharedUiModule&#45;&gt;TreksMapPageModule</title>
<path fill="none" stroke="#000000" d="M184.2332,-104C189.5468,-104 192.9993,-104 192.9993,-104 192.9993,-104 192.9993,-140.8939 192.9993,-140.8939"/>
<polygon fill="#000000" stroke="#000000" points="189.4994,-140.8938 192.9993,-150.8939 196.4994,-140.8939 189.4994,-140.8938"/>
</g>
</g>
</svg>
