<?xml version="1.0" encoding="UTF-8" standalone="no"?>
<!DOCTYPE svg PUBLIC "-//W3C//DTD SVG 1.1//EN"
 "http://www.w3.org/Graphics/SVG/1.1/DTD/svg11.dtd">
<!-- Generated by graphviz version 2.40.1 (20161225.0304)
 -->
<!-- Title: dependencies Pages: 1 -->
<svg width="568pt" height="211pt"
 viewBox="0.00 0.00 568.00 211.00" xmlns="http://www.w3.org/2000/svg" xmlns:xlink="http://www.w3.org/1999/xlink">
<g id="graph0" class="graph" transform="scale(1 1) rotate(0) translate(4 207)">
<title>dependencies</title>
<polygon fill="#ffffff" stroke="transparent" points="-4,4 -4,-207 564,-207 564,4 -4,4"/>
<text text-anchor="start" x="259.0091" y="-42.4" font-family="sans-serif" font-weight="bold" font-size="14.00" fill="#000000">Legend</text>
<polygon fill="#ffffb3" stroke="transparent" points="46,-10 46,-30 66,-30 66,-10 46,-10"/>
<text text-anchor="start" x="69.629" y="-15.4" font-family="sans-serif" font-size="14.00" fill="#000000"> &#160;Declarations</text>
<polygon fill="#8dd3c7" stroke="transparent" points="159,-10 159,-30 179,-30 179,-10 159,-10"/>
<text text-anchor="start" x="182.7251" y="-15.4" font-family="sans-serif" font-size="14.00" fill="#000000"> &#160;Module</text>
<polygon fill="#80b1d3" stroke="transparent" points="245,-10 245,-30 265,-30 265,-10 245,-10"/>
<text text-anchor="start" x="268.7812" y="-15.4" font-family="sans-serif" font-size="14.00" fill="#000000"> &#160;Bootstrap</text>
<polygon fill="#fdb462" stroke="transparent" points="342,-10 342,-30 362,-30 362,-10 342,-10"/>
<text text-anchor="start" x="365.6732" y="-15.4" font-family="sans-serif" font-size="14.00" fill="#000000"> &#160;Providers</text>
<polygon fill="#fb8072" stroke="transparent" points="438,-10 438,-30 458,-30 458,-10 438,-10"/>
<text text-anchor="start" x="461.7258" y="-15.4" font-family="sans-serif" font-size="14.00" fill="#000000"> &#160;Exports</text>
<g id="clust1" class="cluster">
<title>cluster_TreksMapPageModule</title>
<polygon fill="none" stroke="#000000" stroke-dasharray="1,5" points="8,-70 8,-195 552,-195 552,-70 8,-70"/>
</g>
<g id="clust2" class="cluster">
<title>cluster_TreksMapPageModule_declarations</title>
<polygon fill="none" stroke="#000000" points="268,-78 268,-130 544,-130 544,-78 268,-78"/>
</g>
<g id="clust5" class="cluster">
<title>cluster_TreksMapPageModule_imports</title>
<polygon fill="none" stroke="#000000" points="16,-78 16,-130 260,-130 260,-78 16,-78"/>
</g>
<!-- SelectTrekComponent -->
<g id="node1" class="node">
<title>SelectTrekComponent</title>
<polygon fill="#ffffb3" stroke="#000000" points="535.9678,-122 394.0322,-122 394.0322,-86 535.9678,-86 535.9678,-122"/>
<text text-anchor="middle" x="465" y="-99.8" font-family="Times,serif" font-size="14.00" fill="#000000">SelectTrekComponent</text>
</g>
<!-- TreksMapPageModule -->
<g id="node3" class="node">
<title>TreksMapPageModule</title>
<polygon fill="#8dd3c7" stroke="#000000" points="336.2935,-187 333.2935,-191 312.2935,-191 309.2935,-187 191.7065,-187 191.7065,-151 336.2935,-151 336.2935,-187"/>
<text text-anchor="middle" x="264" y="-164.8" font-family="Times,serif" font-size="14.00" fill="#000000">TreksMapPageModule</text>
</g>
<!-- SelectTrekComponent&#45;&gt;TreksMapPageModule -->
<g id="edge1" class="edge">
<title>SelectTrekComponent&#45;&gt;TreksMapPageModule</title>
<path fill="none" stroke="#000000" d="M465,-122.1061C465,-141.3391 465,-169 465,-169 465,-169 346.2816,-169 346.2816,-169"/>
<polygon fill="#000000" stroke="#000000" points="346.2817,-165.5001 336.2816,-169 346.2816,-172.5001 346.2817,-165.5001"/>
</g>
<!-- TreksMapPage -->
<g id="node2" class="node">
<title>TreksMapPage</title>
<polygon fill="#ffffb3" stroke="#000000" points="376.2437,-122 275.7563,-122 275.7563,-86 376.2437,-86 376.2437,-122"/>
<text text-anchor="middle" x="326" y="-99.8" font-family="Times,serif" font-size="14.00" fill="#000000">TreksMapPage</text>
</g>
<!-- TreksMapPage&#45;&gt;TreksMapPageModule -->
<g id="edge2" class="edge">
<title>TreksMapPage&#45;&gt;TreksMapPageModule</title>
<path fill="none" stroke="#000000" d="M305.8875,-122.1061C305.8875,-122.1061 305.8875,-140.991 305.8875,-140.991"/>
<polygon fill="#000000" stroke="#000000" points="302.3875,-140.9909 305.8875,-150.991 309.3875,-140.991 302.3875,-140.9909"/>
</g>
<!-- SharedModule -->
<g id="node4" class="node">
<title>SharedModule</title>
<polygon fill="#8dd3c7" stroke="#000000" points="252.4231,-122 249.4231,-126 228.4231,-126 225.4231,-122 153.5769,-122 153.5769,-86 252.4231,-86 252.4231,-122"/>
<text text-anchor="middle" x="203" y="-99.8" font-family="Times,serif" font-size="14.00" fill="#000000">SharedModule</text>
</g>
<!-- SharedModule&#45;&gt;TreksMapPageModule -->
<g id="edge3" class="edge">
<title>SharedModule&#45;&gt;TreksMapPageModule</title>
<path fill="none" stroke="#000000" d="M222.0322,-122.1061C222.0322,-122.1061 222.0322,-140.991 222.0322,-140.991"/>
<polygon fill="#000000" stroke="#000000" points="218.5323,-140.9909 222.0322,-150.991 225.5323,-140.991 218.5323,-140.9909"/>
</g>
<!-- SharedUiModule -->
<g id="node5" class="node">
<title>SharedUiModule</title>
<polygon fill="#8dd3c7" stroke="#000000" points="136.4202,-122 133.4202,-126 112.4202,-126 109.4202,-122 23.5798,-122 23.5798,-86 136.4202,-86 136.4202,-122"/>
<text text-anchor="middle" x="80" y="-99.8" font-family="Times,serif" font-size="14.00" fill="#000000">SharedUiModule</text>
</g>
<!-- SharedUiModule&#45;&gt;TreksMapPageModule -->
<g id="edge4" class="edge">
<title>SharedUiModule&#45;&gt;TreksMapPageModule</title>
<path fill="none" stroke="#000000" d="M80,-122.1061C80,-141.3391 80,-169 80,-169 80,-169 181.8064,-169 181.8064,-169"/>
<polygon fill="#000000" stroke="#000000" points="181.8065,-172.5001 191.8064,-169 181.8064,-165.5001 181.8065,-172.5001"/>
</g>
</g>
</svg>
