<?xml version="1.0" encoding="UTF-8" standalone="no"?>
<!DOCTYPE svg PUBLIC "-//W3C//DTD SVG 1.1//EN"
 "http://www.w3.org/Graphics/SVG/1.1/DTD/svg11.dtd">
<!-- Generated by graphviz version 2.40.1 (20161225.0304)
 -->
<!-- Title: dependencies Pages: 1 -->
<svg width="504pt" height="284pt"
 viewBox="0.00 0.00 504.00 284.00" xmlns="http://www.w3.org/2000/svg" xmlns:xlink="http://www.w3.org/1999/xlink">
<g id="graph0" class="graph" transform="scale(1 1) rotate(0) translate(4 280)">
<title>dependencies</title>
<polygon fill="#ffffff" stroke="transparent" points="-4,4 -4,-280 500,-280 500,4 -4,4"/>
<text text-anchor="start" x="227.0091" y="-42.4" font-family="sans-serif" font-weight="bold" font-size="14.00" fill="#000000">Legend</text>
<polygon fill="#ffffb3" stroke="transparent" points="14,-10 14,-30 34,-30 34,-10 14,-10"/>
<text text-anchor="start" x="37.629" y="-15.4" font-family="sans-serif" font-size="14.00" fill="#000000"> &#160;Declarations</text>
<polygon fill="#8dd3c7" stroke="transparent" points="127,-10 127,-30 147,-30 147,-10 127,-10"/>
<text text-anchor="start" x="150.7251" y="-15.4" font-family="sans-serif" font-size="14.00" fill="#000000"> &#160;Module</text>
<polygon fill="#80b1d3" stroke="transparent" points="213,-10 213,-30 233,-30 233,-10 213,-10"/>
<text text-anchor="start" x="236.7812" y="-15.4" font-family="sans-serif" font-size="14.00" fill="#000000"> &#160;Bootstrap</text>
<polygon fill="#fdb462" stroke="transparent" points="310,-10 310,-30 330,-30 330,-10 310,-10"/>
<text text-anchor="start" x="333.6732" y="-15.4" font-family="sans-serif" font-size="14.00" fill="#000000"> &#160;Providers</text>
<polygon fill="#fb8072" stroke="transparent" points="406,-10 406,-30 426,-30 426,-10 406,-10"/>
<text text-anchor="start" x="429.7258" y="-15.4" font-family="sans-serif" font-size="14.00" fill="#000000"> &#160;Exports</text>
<g id="clust1" class="cluster">
<title>cluster_SharedTreksModule</title>
<polygon fill="none" stroke="#000000" stroke-dasharray="1,5" points="102,-70 102,-268 394,-268 394,-70 102,-70"/>
</g>
<g id="clust2" class="cluster">
<title>cluster_SharedTreksModule_declarations</title>
<polygon fill="none" stroke="#000000" points="114,-78 114,-130 382,-130 382,-78 114,-78"/>
</g>
<g id="clust6" class="cluster">
<title>cluster_SharedTreksModule_exports</title>
<polygon fill="none" stroke="#000000" points="110,-208 110,-260 386,-260 386,-208 110,-208"/>
</g>
<!-- PoiComponent -->
<g id="node1" class="node">
<title>PoiComponent</title>
<polygon fill="#ffffb3" stroke="#000000" points="374.0056,-122 273.9944,-122 273.9944,-86 374.0056,-86 374.0056,-122"/>
<text text-anchor="middle" x="324" y="-99.8" font-family="Times,serif" font-size="14.00" fill="#000000">PoiComponent</text>
</g>
<!-- SharedTreksModule -->
<g id="node3" class="node">
<title>SharedTreksModule</title>
<polygon fill="#8dd3c7" stroke="#000000" points="255.2949,-187 252.2949,-191 231.2949,-191 228.2949,-187 124.7051,-187 124.7051,-151 255.2949,-151 255.2949,-187"/>
<text text-anchor="middle" x="190" y="-164.8" font-family="Times,serif" font-size="14.00" fill="#000000">SharedTreksModule</text>
</g>
<!-- PoiComponent&#45;&gt;SharedTreksModule -->
<g id="edge1" class="edge">
<title>PoiComponent&#45;&gt;SharedTreksModule</title>
<path fill="none" stroke="#000000" d="M340.7509,-122.0225C340.7509,-139.3734 340.7509,-163 340.7509,-163 340.7509,-163 265.2448,-163 265.2448,-163"/>
<polygon fill="#000000" stroke="#000000" points="265.2448,-159.5001 255.2448,-163 265.2447,-166.5001 265.2448,-159.5001"/>
</g>
<!-- TrekCardComponent -->
<g id="node2" class="node">
<title>TrekCardComponent</title>
<polygon fill="#ffffb3" stroke="#000000" points="256.472,-122 121.528,-122 121.528,-86 256.472,-86 256.472,-122"/>
<text text-anchor="middle" x="189" y="-99.8" font-family="Times,serif" font-size="14.00" fill="#000000">TrekCardComponent</text>
</g>
<!-- TrekCardComponent&#45;&gt;SharedTreksModule -->
<g id="edge2" class="edge">
<title>TrekCardComponent&#45;&gt;SharedTreksModule</title>
<path fill="none" stroke="#000000" d="M190,-122.1061C190,-122.1061 190,-140.991 190,-140.991"/>
<polygon fill="#000000" stroke="#000000" points="186.5001,-140.9909 190,-150.991 193.5001,-140.991 186.5001,-140.9909"/>
</g>
<!-- PoiComponent  -->
<g id="node4" class="node">
<title>PoiComponent </title>
<polygon fill="#fb8072" stroke="#000000" points="377.5068,-252 274.4932,-252 274.4932,-216 377.5068,-216 377.5068,-252"/>
<text text-anchor="middle" x="326" y="-229.8" font-family="Times,serif" font-size="14.00" fill="#000000">PoiComponent </text>
</g>
<!-- SharedTreksModule&#45;&gt;PoiComponent  -->
<g id="edge3" class="edge">
<title>SharedTreksModule&#45;&gt;PoiComponent </title>
<path fill="none" stroke="#000000" stroke-dasharray="5,2" d="M255.278,-175C282.3228,-175 307.4991,-175 307.4991,-175 307.4991,-175 307.4991,-205.9775 307.4991,-205.9775"/>
<polygon fill="#000000" stroke="#000000" points="303.9992,-205.9774 307.4991,-215.9775 310.9992,-205.9775 303.9992,-205.9774"/>
</g>
<!-- TrekCardComponent  -->
<g id="node5" class="node">
<title>TrekCardComponent </title>
<polygon fill="#fb8072" stroke="#000000" points="256.4728,-252 117.5272,-252 117.5272,-216 256.4728,-216 256.4728,-252"/>
<text text-anchor="middle" x="187" y="-229.8" font-family="Times,serif" font-size="14.00" fill="#000000">TrekCardComponent </text>
</g>
<!-- SharedTreksModule&#45;&gt;TrekCardComponent  -->
<g id="edge4" class="edge">
<title>SharedTreksModule&#45;&gt;TrekCardComponent </title>
<path fill="none" stroke="#000000" stroke-dasharray="5,2" d="M190,-187.1061C190,-187.1061 190,-205.991 190,-205.991"/>
<polygon fill="#000000" stroke="#000000" points="186.5001,-205.9909 190,-215.991 193.5001,-205.991 186.5001,-205.9909"/>
</g>
</g>
</svg>
