<?xml version="1.0" encoding="UTF-8" standalone="no"?>
<!DOCTYPE svg PUBLIC "-//W3C//DTD SVG 1.1//EN"
 "http://www.w3.org/Graphics/SVG/1.1/DTD/svg11.dtd">
<!-- Generated by graphviz version 2.40.1 (20161225.0304)
 -->
<!-- Title: dependencies Pages: 1 -->
<svg width="504pt" height="211pt"
 viewBox="0.00 0.00 504.00 211.00" xmlns="http://www.w3.org/2000/svg" xmlns:xlink="http://www.w3.org/1999/xlink">
<g id="graph0" class="graph" transform="scale(1 1) rotate(0) translate(4 207)">
<title>dependencies</title>
<polygon fill="#ffffff" stroke="transparent" points="-4,4 -4,-207 500,-207 500,4 -4,4"/>
<text text-anchor="start" x="227.0091" y="-42.4" font-family="sans-serif" font-weight="bold" font-size="14.00" fill="#000000">Legend</text>
<polygon fill="#ffffb3" stroke="transparent" points="14,-10 14,-30 34,-30 34,-10 14,-10"/>
<text text-anchor="start" x="37.629" y="-15.4" font-family="sans-serif" font-size="14.00" fill="#000000"> &#160;Declarations</text>
<polygon fill="#8dd3c7" stroke="transparent" points="127,-10 127,-30 147,-30 147,-10 127,-10"/>
<text text-anchor="start" x="150.7251" y="-15.4" font-family="sans-serif" font-size="14.00" fill="#000000"> &#160;Module</text>
<polygon fill="#80b1d3" stroke="transparent" points="213,-10 213,-30 233,-30 233,-10 213,-10"/>
<text text-anchor="start" x="236.7812" y="-15.4" font-family="sans-serif" font-size="14.00" fill="#000000"> &#160;Bootstrap</text>
<polygon fill="#fdb462" stroke="transparent" points="310,-10 310,-30 330,-30 330,-10 310,-10"/>
<text text-anchor="start" x="333.6732" y="-15.4" font-family="sans-serif" font-size="14.00" fill="#000000"> &#160;Providers</text>
<polygon fill="#fb8072" stroke="transparent" points="406,-10 406,-30 426,-30 426,-10 406,-10"/>
<text text-anchor="start" x="429.7258" y="-15.4" font-family="sans-serif" font-size="14.00" fill="#000000"> &#160;Exports</text>
<g id="clust1" class="cluster">
<title>cluster_MorePageModule</title>
<polygon fill="none" stroke="#000000" stroke-dasharray="1,5" points="127,-70 127,-195 369,-195 369,-70 127,-70"/>
</g>
<g id="clust2" class="cluster">
<title>cluster_MorePageModule_declarations</title>
<polygon fill="none" stroke="#000000" points="271,-78 271,-130 361,-130 361,-78 271,-78"/>
</g>
<g id="clust4" class="cluster">
<title>cluster_MorePageModule_imports</title>
<polygon fill="none" stroke="#000000" points="135,-78 135,-130 263,-130 263,-78 135,-78"/>
</g>
<!-- MorePage -->
<g id="node1" class="node">
<title>MorePage</title>
<polygon fill="#ffffb3" stroke="#000000" points="352.5331,-122 279.4669,-122 279.4669,-86 352.5331,-86 352.5331,-122"/>
<text text-anchor="middle" x="316" y="-99.8" font-family="Times,serif" font-size="14.00" fill="#000000">MorePage</text>
</g>
<!-- MorePageModule -->
<g id="node2" class="node">
<title>MorePageModule</title>
<polygon fill="#8dd3c7" stroke="#000000" points="308.5814,-187 305.5814,-191 284.5814,-191 281.5814,-187 191.4186,-187 191.4186,-151 308.5814,-151 308.5814,-187"/>
<text text-anchor="middle" x="250" y="-164.8" font-family="Times,serif" font-size="14.00" fill="#000000">MorePageModule</text>
</g>
<!-- MorePage&#45;&gt;MorePageModule -->
<g id="edge1" class="edge">
<title>MorePage&#45;&gt;MorePageModule</title>
<path fill="none" stroke="#000000" d="M293.8875,-122.1061C293.8875,-122.1061 293.8875,-140.991 293.8875,-140.991"/>
<polygon fill="#000000" stroke="#000000" points="290.3875,-140.9909 293.8875,-150.991 297.3875,-140.991 290.3875,-140.9909"/>
</g>
<!-- SharedUiModule -->
<g id="node3" class="node">
<title>SharedUiModule</title>
<polygon fill="#8dd3c7" stroke="#000000" points="255.4202,-122 252.4202,-126 231.4202,-126 228.4202,-122 142.5798,-122 142.5798,-86 255.4202,-86 255.4202,-122"/>
<text text-anchor="middle" x="199" y="-99.8" font-family="Times,serif" font-size="14.00" fill="#000000">SharedUiModule</text>
</g>
<!-- SharedUiModule&#45;&gt;MorePageModule -->
<g id="edge2" class="edge">
<title>SharedUiModule&#45;&gt;MorePageModule</title>
<path fill="none" stroke="#000000" d="M223.3345,-122.1061C223.3345,-122.1061 223.3345,-140.991 223.3345,-140.991"/>
<polygon fill="#000000" stroke="#000000" points="219.8346,-140.9909 223.3345,-150.991 226.8346,-140.991 219.8346,-140.9909"/>
</g>
</g>
</svg>
