<?xml version="1.0" encoding="UTF-8" standalone="no"?>
<!DOCTYPE svg PUBLIC "-//W3C//DTD SVG 1.1//EN"
 "http://www.w3.org/Graphics/SVG/1.1/DTD/svg11.dtd">
<!-- Generated by graphviz version 2.40.1 (20161225.0304)
 -->
<!-- Title: dependencies Pages: 1 -->
<svg width="5449pt" height="366pt"
 viewBox="0.00 0.00 5449.00 366.00" xmlns="http://www.w3.org/2000/svg" xmlns:xlink="http://www.w3.org/1999/xlink">
<g id="graph0" class="graph" transform="scale(1 1) rotate(0) translate(4 362)">
<title>dependencies</title>
<polygon fill="#ffffff" stroke="transparent" points="-4,4 -4,-362 5445,-362 5445,4 -4,4"/>
<text text-anchor="start" x="2699.5091" y="-42.4" font-family="sans-serif" font-weight="bold" font-size="14.00" fill="#000000">Legend</text>
<polygon fill="#ffffb3" stroke="transparent" points="2486.5,-10 2486.5,-30 2506.5,-30 2506.5,-10 2486.5,-10"/>
<text text-anchor="start" x="2510.129" y="-15.4" font-family="sans-serif" font-size="14.00" fill="#000000"> &#160;Declarations</text>
<polygon fill="#8dd3c7" stroke="transparent" points="2599.5,-10 2599.5,-30 2619.5,-30 2619.5,-10 2599.5,-10"/>
<text text-anchor="start" x="2623.2251" y="-15.4" font-family="sans-serif" font-size="14.00" fill="#000000"> &#160;Module</text>
<polygon fill="#80b1d3" stroke="transparent" points="2685.5,-10 2685.5,-30 2705.5,-30 2705.5,-10 2685.5,-10"/>
<text text-anchor="start" x="2709.2812" y="-15.4" font-family="sans-serif" font-size="14.00" fill="#000000"> &#160;Bootstrap</text>
<polygon fill="#fdb462" stroke="transparent" points="2782.5,-10 2782.5,-30 2802.5,-30 2802.5,-10 2782.5,-10"/>
<text text-anchor="start" x="2806.1732" y="-15.4" font-family="sans-serif" font-size="14.00" fill="#000000"> &#160;Providers</text>
<polygon fill="#fb8072" stroke="transparent" points="2878.5,-10 2878.5,-30 2898.5,-30 2898.5,-10 2878.5,-10"/>
<text text-anchor="start" x="2902.2258" y="-15.4" font-family="sans-serif" font-size="14.00" fill="#000000"> &#160;Exports</text>
<g id="clust1" class="cluster">
<title>cluster_AppModule</title>
<polygon fill="none" stroke="#000000" stroke-dasharray="1,5" points="1211,-138 1211,-350 3287,-350 3287,-138 1211,-138"/>
</g>
<g id="clust2" class="cluster">
<title>cluster_AppModule_declarations</title>
<polygon fill="none" stroke="#000000" points="1698,-146 1698,-198 3279,-198 3279,-146 1698,-146"/>
</g>
<g id="clust13" class="cluster">
<title>cluster_AppModule_imports</title>
<polygon fill="none" stroke="#000000" points="1219,-146 1219,-198 1494,-198 1494,-146 1219,-146"/>
</g>
<g id="clust15" class="cluster">
<title>cluster_AppModule_bootstrap</title>
<polygon fill="none" stroke="#000000" points="2276,-290 2276,-342 2400,-342 2400,-290 2276,-290"/>
</g>
<g id="clust16" class="cluster">
<title>cluster_AppModule_providers</title>
<polygon fill="none" stroke="#000000" points="1502,-146 1502,-198 1690,-198 1690,-146 1502,-146"/>
</g>
<g id="clust23" class="cluster">
<title>cluster_CustomPipesModule</title>
<polygon fill="none" stroke="#000000" stroke-dasharray="1,5" points="5283,-70 5283,-282 5433,-282 5433,-70 5283,-70"/>
</g>
<g id="clust24" class="cluster">
<title>cluster_CustomPipesModule_declarations</title>
<polygon fill="none" stroke="#000000" points="5293,-78 5293,-130 5423,-130 5423,-78 5293,-78"/>
</g>
<g id="clust27" class="cluster">
<title>cluster_CustomPipesModule_exports</title>
<polygon fill="none" stroke="#000000" points="5291,-222 5291,-274 5425,-274 5425,-222 5291,-222"/>
</g>
<g id="clust30" class="cluster">
<title>cluster_MoreItemPageModule</title>
<polygon fill="none" stroke="#000000" stroke-dasharray="1,5" points="8,-138 8,-274 166,-274 166,-138 8,-138"/>
</g>
<g id="clust31" class="cluster">
<title>cluster_MoreItemPageModule_declarations</title>
<polygon fill="none" stroke="#000000" points="29,-146 29,-198 145,-198 145,-146 29,-146"/>
</g>
<g id="clust37" class="cluster">
<title>cluster_MorePageModule</title>
<polygon fill="none" stroke="#000000" stroke-dasharray="1,5" points="3295,-138 3295,-274 3429,-274 3429,-138 3295,-138"/>
</g>
<g id="clust38" class="cluster">
<title>cluster_MorePageModule_declarations</title>
<polygon fill="none" stroke="#000000" points="3317,-146 3317,-198 3407,-198 3407,-146 3317,-146"/>
</g>
<g id="clust44" class="cluster">
<title>cluster_SharedModule</title>
<polygon fill="none" stroke="#000000" stroke-dasharray="1,5" points="4673,-70 4673,-282 5275,-282 5275,-70 4673,-70"/>
</g>
<g id="clust45" class="cluster">
<title>cluster_SharedModule_declarations</title>
<polygon fill="none" stroke="#000000" points="4681,-78 4681,-130 5257,-130 5257,-78 4681,-78"/>
</g>
<g id="clust50" class="cluster">
<title>cluster_SharedModule_exports</title>
<polygon fill="none" stroke="#000000" points="4681,-222 4681,-274 5267,-274 5267,-222 4681,-222"/>
</g>
<g id="clust53" class="cluster">
<title>cluster_SharedTreksModule</title>
<polygon fill="none" stroke="#000000" stroke-dasharray="1,5" points="4043,-70 4043,-282 4335,-282 4335,-70 4043,-70"/>
</g>
<g id="clust54" class="cluster">
<title>cluster_SharedTreksModule_declarations</title>
<polygon fill="none" stroke="#000000" points="4052,-78 4052,-130 4320,-130 4320,-78 4052,-78"/>
</g>
<g id="clust58" class="cluster">
<title>cluster_SharedTreksModule_exports</title>
<polygon fill="none" stroke="#000000" points="4051,-222 4051,-274 4327,-274 4327,-222 4051,-222"/>
</g>
<g id="clust61" class="cluster">
<title>cluster_SharedUiModule</title>
<polygon fill="none" stroke="#000000" stroke-dasharray="1,5" points="174,-214 174,-282 1203,-282 1203,-214 174,-214"/>
</g>
<g id="clust62" class="cluster">
<title>cluster_SharedUiModule_declarations</title>
<polygon fill="none" stroke="#000000" points="698,-222 698,-274 1195,-274 1195,-222 698,-222"/>
</g>
<g id="clust67" class="cluster">
<title>cluster_SharedUiModule_exports</title>
<polygon fill="none" stroke="#000000" points="182,-222 182,-274 690,-274 690,-222 182,-222"/>
</g>
<g id="clust70" class="cluster">
<title>cluster_TabsPageModule</title>
<polygon fill="none" stroke="#000000" stroke-dasharray="1,5" points="3437,-214 3437,-342 3859,-342 3859,-214 3437,-214"/>
</g>
<g id="clust71" class="cluster">
<title>cluster_TabsPageModule_declarations</title>
<polygon fill="none" stroke="#000000" points="3765,-222 3765,-274 3851,-274 3851,-222 3765,-222"/>
</g>
<g id="clust73" class="cluster">
<title>cluster_TabsPageModule_imports</title>
<polygon fill="none" stroke="#000000" points="3445,-222 3445,-274 3757,-274 3757,-222 3445,-222"/>
</g>
<g id="clust83" class="cluster">
<title>cluster_TrekDetailsPageModule</title>
<polygon fill="none" stroke="#000000" stroke-dasharray="1,5" points="3867,-138 3867,-274 4035,-274 4035,-138 3867,-138"/>
</g>
<g id="clust84" class="cluster">
<title>cluster_TrekDetailsPageModule_declarations</title>
<polygon fill="none" stroke="#000000" points="3888,-146 3888,-198 4014,-198 4014,-146 3888,-146"/>
</g>
<g id="clust90" class="cluster">
<title>cluster_TrekMapPageModule</title>
<polygon fill="none" stroke="#000000" stroke-dasharray="1,5" points="4343,-138 4343,-274 4497,-274 4497,-138 4343,-138"/>
</g>
<g id="clust91" class="cluster">
<title>cluster_TrekMapPageModule_declarations</title>
<polygon fill="none" stroke="#000000" points="4364,-146 4364,-198 4476,-198 4476,-146 4364,-146"/>
</g>
<g id="clust97" class="cluster">
<title>cluster_TreksMapPageModule</title>
<polygon fill="none" stroke="#000000" stroke-dasharray="1,5" points="4505,-138 4505,-274 4665,-274 4665,-138 4505,-138"/>
</g>
<g id="clust98" class="cluster">
<title>cluster_TreksMapPageModule_declarations</title>
<polygon fill="none" stroke="#000000" points="4527,-146 4527,-198 4643,-198 4643,-146 4527,-146"/>
</g>
<g id="clust104" class="cluster">
<title>cluster_TreksPageModule</title>
<polygon fill="none" stroke="#000000" stroke-dasharray="1,5" points="3458,-138 3458,-206 3566,-206 3566,-138 3458,-138"/>
</g>
<g id="clust105" class="cluster">
<title>cluster_TreksPageModule_declarations</title>
<polygon fill="none" stroke="#000000" points="3466,-146 3466,-198 3558,-198 3558,-146 3466,-146"/>
</g>
<!-- AppComponent -->
<g id="node1" class="node">
<title>AppComponent</title>
<polygon fill="#ffffb3" stroke="#000000" points="2663.9399,-190 2558.0601,-190 2558.0601,-154 2663.9399,-154 2663.9399,-190"/>
<text text-anchor="middle" x="2611" y="-167.8" font-family="Times,serif" font-size="14.00" fill="#000000">AppComponent</text>
</g>
<!-- AppModule -->
<g id="node11" class="node">
<title>AppModule</title>
<polygon fill="#8dd3c7" stroke="#000000" points="2379.6571,-266 2376.6571,-270 2355.6571,-270 2352.6571,-266 2296.3429,-266 2296.3429,-230 2379.6571,-230 2379.6571,-266"/>
<text text-anchor="middle" x="2338" y="-243.8" font-family="Times,serif" font-size="14.00" fill="#000000">AppModule</text>
</g>
<!-- AppComponent&#45;&gt;AppModule -->
<g id="edge1" class="edge">
<title>AppComponent&#45;&gt;AppModule</title>
<path fill="none" stroke="#000000" d="M2611,-190.1289C2611,-210.5724 2611,-241 2611,-241 2611,-241 2389.76,-241 2389.76,-241"/>
<polygon fill="#000000" stroke="#000000" points="2389.76,-237.5001 2379.76,-241 2389.76,-244.5001 2389.76,-237.5001"/>
</g>
<!-- FilterComponent -->
<g id="node2" class="node">
<title>FilterComponent</title>
<polygon fill="#ffffb3" stroke="#000000" points="2539.6625,-190 2428.3375,-190 2428.3375,-154 2539.6625,-154 2539.6625,-190"/>
<text text-anchor="middle" x="2484" y="-167.8" font-family="Times,serif" font-size="14.00" fill="#000000">FilterComponent</text>
</g>
<!-- FilterComponent&#45;&gt;AppModule -->
<g id="edge2" class="edge">
<title>FilterComponent&#45;&gt;AppModule</title>
<path fill="none" stroke="#000000" d="M2484,-190.1686C2484,-209.0898 2484,-236 2484,-236 2484,-236 2389.8377,-236 2389.8377,-236"/>
<polygon fill="#000000" stroke="#000000" points="2389.8378,-232.5001 2379.8377,-236 2389.8377,-239.5001 2389.8378,-232.5001"/>
</g>
<!-- FilterValueComponent -->
<g id="node3" class="node">
<title>FilterValueComponent</title>
<polygon fill="#ffffb3" stroke="#000000" points="2410.5884,-190 2265.4116,-190 2265.4116,-154 2410.5884,-154 2410.5884,-190"/>
<text text-anchor="middle" x="2338" y="-167.8" font-family="Times,serif" font-size="14.00" fill="#000000">FilterValueComponent</text>
</g>
<!-- FilterValueComponent&#45;&gt;AppModule -->
<g id="edge3" class="edge">
<title>FilterValueComponent&#45;&gt;AppModule</title>
<path fill="none" stroke="#000000" d="M2338,-190.0109C2338,-190.0109 2338,-219.855 2338,-219.855"/>
<polygon fill="#000000" stroke="#000000" points="2334.5001,-219.8549 2338,-229.855 2341.5001,-219.855 2334.5001,-219.8549"/>
</g>
<!-- FiltersComponent -->
<g id="node4" class="node">
<title>FiltersComponent</title>
<polygon fill="#ffffb3" stroke="#000000" points="2247.6066,-190 2130.3934,-190 2130.3934,-154 2247.6066,-154 2247.6066,-190"/>
<text text-anchor="middle" x="2189" y="-167.8" font-family="Times,serif" font-size="14.00" fill="#000000">FiltersComponent</text>
</g>
<!-- FiltersComponent&#45;&gt;AppModule -->
<g id="edge4" class="edge">
<title>FiltersComponent&#45;&gt;AppModule</title>
<path fill="none" stroke="#000000" d="M2189,-190.308C2189,-210.1455 2189,-239 2189,-239 2189,-239 2286.0987,-239 2286.0987,-239"/>
<polygon fill="#000000" stroke="#000000" points="2286.0987,-242.5001 2296.0987,-239 2286.0986,-235.5001 2286.0987,-242.5001"/>
</g>
<!-- InformationDeskDetailsComponent -->
<g id="node5" class="node">
<title>InformationDeskDetailsComponent</title>
<polygon fill="#ffffb3" stroke="#000000" points="2112.1189,-190 1895.8811,-190 1895.8811,-154 2112.1189,-154 2112.1189,-190"/>
<text text-anchor="middle" x="2004" y="-167.8" font-family="Times,serif" font-size="14.00" fill="#000000">InformationDeskDetailsComponent</text>
</g>
<!-- InformationDeskDetailsComponent&#45;&gt;AppModule -->
<g id="edge5" class="edge">
<title>InformationDeskDetailsComponent&#45;&gt;AppModule</title>
<path fill="none" stroke="#000000" d="M2004,-190.1686C2004,-211.498 2004,-244 2004,-244 2004,-244 2286.0369,-244 2286.0369,-244"/>
<polygon fill="#000000" stroke="#000000" points="2286.0369,-247.5001 2296.0369,-244 2286.0368,-240.5001 2286.0369,-247.5001"/>
</g>
<!-- LayersVisibilityComponent -->
<g id="node6" class="node">
<title>LayersVisibilityComponent</title>
<polygon fill="#ffffb3" stroke="#000000" points="1878.3145,-190 1705.6855,-190 1705.6855,-154 1878.3145,-154 1878.3145,-190"/>
<text text-anchor="middle" x="1792" y="-167.8" font-family="Times,serif" font-size="14.00" fill="#000000">LayersVisibilityComponent</text>
</g>
<!-- LayersVisibilityComponent&#45;&gt;AppModule -->
<g id="edge6" class="edge">
<title>LayersVisibilityComponent&#45;&gt;AppModule</title>
<path fill="none" stroke="#000000" d="M1792,-190.0109C1792,-212.4852 1792,-248 1792,-248 1792,-248 2286.0629,-248 2286.0629,-248"/>
<polygon fill="#000000" stroke="#000000" points="2286.0629,-251.5001 2296.0629,-248 2286.0629,-244.5001 2286.0629,-251.5001"/>
</g>
<!-- PoiDetailsComponent -->
<g id="node7" class="node">
<title>PoiDetailsComponent</title>
<polygon fill="#ffffb3" stroke="#000000" points="3270.6582,-190 3131.3418,-190 3131.3418,-154 3270.6582,-154 3270.6582,-190"/>
<text text-anchor="middle" x="3201" y="-167.8" font-family="Times,serif" font-size="14.00" fill="#000000">PoiDetailsComponent</text>
</g>
<!-- PoiDetailsComponent&#45;&gt;AppModule -->
<g id="edge7" class="edge">
<title>PoiDetailsComponent&#45;&gt;AppModule</title>
<path fill="none" stroke="#000000" d="M3201,-190.0105C3201,-216.0165 3201,-261 3201,-261 3201,-261 2389.9159,-261 2389.9159,-261"/>
<polygon fill="#000000" stroke="#000000" points="2389.916,-257.5001 2379.9159,-261 2389.9159,-264.5001 2389.916,-257.5001"/>
</g>
<!-- ProgressComponent -->
<g id="node8" class="node">
<title>ProgressComponent</title>
<polygon fill="#ffffb3" stroke="#000000" points="3112.5408,-190 2983.4592,-190 2983.4592,-154 3112.5408,-154 3112.5408,-190"/>
<text text-anchor="middle" x="3048" y="-167.8" font-family="Times,serif" font-size="14.00" fill="#000000">ProgressComponent</text>
</g>
<!-- ProgressComponent&#45;&gt;AppModule -->
<g id="edge8" class="edge">
<title>ProgressComponent&#45;&gt;AppModule</title>
<path fill="none" stroke="#000000" d="M3048,-190.2267C3048,-214.9318 3048,-256 3048,-256 3048,-256 2389.763,-256 2389.763,-256"/>
<polygon fill="#000000" stroke="#000000" points="2389.7631,-252.5001 2379.763,-256 2389.763,-259.5001 2389.7631,-252.5001"/>
</g>
<!-- SearchComponent -->
<g id="node9" class="node">
<title>SearchComponent</title>
<polygon fill="#ffffb3" stroke="#000000" points="2965.9201,-190 2846.0799,-190 2846.0799,-154 2965.9201,-154 2965.9201,-190"/>
<text text-anchor="middle" x="2906" y="-167.8" font-family="Times,serif" font-size="14.00" fill="#000000">SearchComponent</text>
</g>
<!-- SearchComponent&#45;&gt;AppModule -->
<g id="edge9" class="edge">
<title>SearchComponent&#45;&gt;AppModule</title>
<path fill="none" stroke="#000000" d="M2906,-190.3228C2906,-213.6602 2906,-251 2906,-251 2906,-251 2389.7664,-251 2389.7664,-251"/>
<polygon fill="#000000" stroke="#000000" points="2389.7664,-247.5001 2379.7664,-251 2389.7664,-254.5001 2389.7664,-247.5001"/>
</g>
<!-- TreksOrderComponent -->
<g id="node10" class="node">
<title>TreksOrderComponent</title>
<polygon fill="#ffffb3" stroke="#000000" points="2827.8473,-190 2682.1527,-190 2682.1527,-154 2827.8473,-154 2827.8473,-190"/>
<text text-anchor="middle" x="2755" y="-167.8" font-family="Times,serif" font-size="14.00" fill="#000000">TreksOrderComponent</text>
</g>
<!-- TreksOrderComponent&#45;&gt;AppModule -->
<g id="edge10" class="edge">
<title>TreksOrderComponent&#45;&gt;AppModule</title>
<path fill="none" stroke="#000000" d="M2755,-190.2921C2755,-212.2057 2755,-246 2755,-246 2755,-246 2389.8928,-246 2389.8928,-246"/>
<polygon fill="#000000" stroke="#000000" points="2389.8929,-242.5001 2379.8928,-246 2389.8928,-249.5001 2389.8929,-242.5001"/>
</g>
<!-- AppComponent  -->
<g id="node14" class="node">
<title>AppComponent </title>
<polygon fill="#80b1d3" stroke="#000000" points="2392.439,-334 2283.561,-334 2283.561,-298 2392.439,-298 2392.439,-334"/>
<text text-anchor="middle" x="2338" y="-311.8" font-family="Times,serif" font-size="14.00" fill="#000000">AppComponent </text>
</g>
<!-- AppModule&#45;&gt;AppComponent  -->
<g id="edge13" class="edge">
<title>AppModule&#45;&gt;AppComponent </title>
<path fill="none" stroke="#000000" stroke-dasharray="1,5" d="M2338,-266.2228C2338,-266.2228 2338,-287.7269 2338,-287.7269"/>
<polygon fill="#000000" stroke="#000000" points="2334.5001,-287.7269 2338,-297.7269 2341.5001,-287.727 2334.5001,-287.7269"/>
</g>
<!-- AppRoutingModule -->
<g id="node12" class="node">
<title>AppRoutingModule</title>
<polygon fill="#8dd3c7" stroke="#000000" points="1486.2744,-190 1483.2744,-194 1462.2744,-194 1459.2744,-190 1357.7256,-190 1357.7256,-154 1486.2744,-154 1486.2744,-190"/>
<text text-anchor="middle" x="1422" y="-167.8" font-family="Times,serif" font-size="14.00" fill="#000000">AppRoutingModule</text>
</g>
<!-- AppRoutingModule&#45;&gt;AppModule -->
<g id="edge11" class="edge">
<title>AppRoutingModule&#45;&gt;AppModule</title>
<path fill="none" stroke="#000000" d="M1422,-190.0263C1422,-214.9773 1422,-257 1422,-257 1422,-257 2286.2611,-257 2286.2611,-257"/>
<polygon fill="#000000" stroke="#000000" points="2286.2612,-260.5001 2296.2611,-257 2286.2611,-253.5001 2286.2612,-260.5001"/>
</g>
<!-- SharedUiModule -->
<g id="node13" class="node">
<title>SharedUiModule</title>
<polygon fill="#8dd3c7" stroke="#000000" points="1339.4202,-190 1336.4202,-194 1315.4202,-194 1312.4202,-190 1226.5798,-190 1226.5798,-154 1339.4202,-154 1339.4202,-190"/>
<text text-anchor="middle" x="1283" y="-167.8" font-family="Times,serif" font-size="14.00" fill="#000000">SharedUiModule</text>
</g>
<!-- SharedUiModule&#45;&gt;AppModule -->
<g id="edge12" class="edge">
<title>SharedUiModule&#45;&gt;AppModule</title>
<path fill="none" stroke="#000000" d="M1326.7187,-190.2128C1326.7187,-216.5111 1326.7187,-262 1326.7187,-262 1326.7187,-262 2286.1532,-262 2286.1532,-262"/>
<polygon fill="#000000" stroke="#000000" points="2286.1532,-265.5001 2296.1532,-262 2286.1531,-258.5001 2286.1532,-265.5001"/>
</g>
<!-- MoreItemPageModule -->
<g id="node20" class="node">
<title>MoreItemPageModule</title>
<polygon fill="#8dd3c7" stroke="#000000" points="158.238,-266 155.238,-270 134.238,-270 131.238,-266 15.762,-266 15.762,-230 158.238,-230 158.238,-266"/>
<text text-anchor="middle" x="87" y="-243.8" font-family="Times,serif" font-size="14.00" fill="#000000">MoreItemPageModule</text>
</g>
<!-- SharedUiModule&#45;&gt;MoreItemPageModule -->
<g id="edge18" class="edge">
<title>SharedUiModule&#45;&gt;MoreItemPageModule</title>
<path fill="none" stroke="#000000" d="M1226.6895,-160C997.5653,-160 147.4815,-160 147.4815,-160 147.4815,-160 147.4815,-219.7663 147.4815,-219.7663"/>
<polygon fill="#000000" stroke="#000000" points="143.9815,-219.7663 147.4815,-229.7663 150.9815,-219.7664 143.9815,-219.7663"/>
</g>
<!-- MorePageModule -->
<g id="node22" class="node">
<title>MorePageModule</title>
<polygon fill="#8dd3c7" stroke="#000000" points="3420.5814,-266 3417.5814,-270 3396.5814,-270 3393.5814,-266 3303.4186,-266 3303.4186,-230 3420.5814,-230 3420.5814,-266"/>
<text text-anchor="middle" x="3362" y="-243.8" font-family="Times,serif" font-size="14.00" fill="#000000">MorePageModule</text>
</g>
<!-- SharedUiModule&#45;&gt;MorePageModule -->
<g id="edge20" class="edge">
<title>SharedUiModule&#45;&gt;MorePageModule</title>
<path fill="none" stroke="#000000" d="M1264.2634,-190.4854C1264.2634,-202.1399 1264.2634,-215 1264.2634,-215 1264.2634,-215 3314.3468,-215 3314.3468,-215 3314.3468,-215 3314.3468,-219.9551 3314.3468,-219.9551"/>
<polygon fill="#000000" stroke="#000000" points="3310.8468,-219.9551 3314.3468,-229.9551 3317.8468,-219.9552 3310.8468,-219.9551"/>
</g>
<!-- CollapsibleListComponent  -->
<g id="node38" class="node">
<title>CollapsibleListComponent </title>
<polygon fill="#fb8072" stroke="#000000" points="360.384,-266 189.616,-266 189.616,-230 360.384,-230 360.384,-266"/>
<text text-anchor="middle" x="275" y="-243.8" font-family="Times,serif" font-size="14.00" fill="#000000">CollapsibleListComponent </text>
</g>
<!-- SharedUiModule&#45;&gt;CollapsibleListComponent  -->
<g id="edge34" class="edge">
<title>SharedUiModule&#45;&gt;CollapsibleListComponent </title>
<path fill="none" stroke="#000000" stroke-dasharray="5,2" d="M1226.6456,-165C1014.3666,-165 275,-165 275,-165 275,-165 275,-219.9902 275,-219.9902"/>
<polygon fill="#000000" stroke="#000000" points="271.5001,-219.9902 275,-229.9902 278.5001,-219.9903 271.5001,-219.9902"/>
</g>
<!-- ConnectErrorComponent  -->
<g id="node39" class="node">
<title>ConnectErrorComponent </title>
<polygon fill="#fb8072" stroke="#000000" points="681.5232,-266 520.4768,-266 520.4768,-230 681.5232,-230 681.5232,-266"/>
<text text-anchor="middle" x="601" y="-243.8" font-family="Times,serif" font-size="14.00" fill="#000000">ConnectErrorComponent </text>
</g>
<!-- SharedUiModule&#45;&gt;ConnectErrorComponent  -->
<g id="edge35" class="edge">
<title>SharedUiModule&#45;&gt;ConnectErrorComponent </title>
<path fill="none" stroke="#000000" stroke-dasharray="5,2" d="M1226.6089,-175C1063.2103,-175 601,-175 601,-175 601,-175 601,-219.9551 601,-219.9551"/>
<polygon fill="#000000" stroke="#000000" points="597.5001,-219.955 601,-229.9551 604.5001,-219.9551 597.5001,-219.955"/>
</g>
<!-- LoaderComponent  -->
<g id="node40" class="node">
<title>LoaderComponent </title>
<polygon fill="#fb8072" stroke="#000000" points="502.4757,-266 377.5243,-266 377.5243,-230 502.4757,-230 502.4757,-266"/>
<text text-anchor="middle" x="440" y="-243.8" font-family="Times,serif" font-size="14.00" fill="#000000">LoaderComponent </text>
</g>
<!-- SharedUiModule&#45;&gt;LoaderComponent  -->
<g id="edge36" class="edge">
<title>SharedUiModule&#45;&gt;LoaderComponent </title>
<path fill="none" stroke="#000000" stroke-dasharray="5,2" d="M1226.7079,-170C1038.0615,-170 440,-170 440,-170 440,-170 440,-219.9092 440,-219.9092"/>
<polygon fill="#000000" stroke="#000000" points="436.5001,-219.9091 440,-229.9092 443.5001,-219.9092 436.5001,-219.9091"/>
</g>
<!-- TabsPageModule -->
<g id="node42" class="node">
<title>TabsPageModule</title>
<polygon fill="#8dd3c7" stroke="#000000" points="3568.9734,-334 3565.9734,-338 3544.9734,-338 3541.9734,-334 3455.0266,-334 3455.0266,-298 3568.9734,-298 3568.9734,-334"/>
<text text-anchor="middle" x="3512" y="-311.8" font-family="Times,serif" font-size="14.00" fill="#000000">TabsPageModule</text>
</g>
<!-- SharedUiModule&#45;&gt;TabsPageModule -->
<g id="edge39" class="edge">
<title>SharedUiModule&#45;&gt;TabsPageModule</title>
<path fill="none" stroke="#000000" d="M1251.7724,-190.1643C1251.7724,-221.4073 1251.7724,-282 1251.7724,-282 1251.7724,-282 3493.0044,-282 3493.0044,-282 3493.0044,-282 3493.0044,-287.8056 3493.0044,-287.8056"/>
<polygon fill="#000000" stroke="#000000" points="3489.5045,-287.8055 3493.0044,-297.8056 3496.5045,-287.8056 3489.5045,-287.8055"/>
</g>
<!-- TreksPageModule -->
<g id="node44" class="node">
<title>TreksPageModule</title>
<polygon fill="#8dd3c7" stroke="#000000" points="3571.1346,-266 3568.1346,-270 3547.1346,-270 3544.1346,-266 3452.8654,-266 3452.8654,-230 3571.1346,-230 3571.1346,-266"/>
<text text-anchor="middle" x="3512" y="-243.8" font-family="Times,serif" font-size="14.00" fill="#000000">TreksPageModule</text>
</g>
<!-- SharedUiModule&#45;&gt;TreksPageModule -->
<g id="edge53" class="edge">
<title>SharedUiModule&#45;&gt;TreksPageModule</title>
<path fill="none" stroke="#000000" d="M1276.7545,-190.1097C1276.7545,-199.897 1276.7545,-210 1276.7545,-210 1276.7545,-210 3463.5705,-210 3463.5705,-210 3463.5705,-210 3463.5705,-219.8903 3463.5705,-219.8903"/>
<polygon fill="#000000" stroke="#000000" points="3460.0705,-219.8903 3463.5705,-229.8903 3467.0705,-219.8904 3460.0705,-219.8903"/>
</g>
<!-- TrekDetailsPageModule -->
<g id="node46" class="node">
<title>TrekDetailsPageModule</title>
<polygon fill="#8dd3c7" stroke="#000000" points="4027.3417,-266 4024.3417,-270 4003.3417,-270 4000.3417,-266 3874.6583,-266 3874.6583,-230 4027.3417,-230 4027.3417,-266"/>
<text text-anchor="middle" x="3951" y="-243.8" font-family="Times,serif" font-size="14.00" fill="#000000">TrekDetailsPageModule</text>
</g>
<!-- SharedUiModule&#45;&gt;TrekDetailsPageModule -->
<g id="edge44" class="edge">
<title>SharedUiModule&#45;&gt;TrekDetailsPageModule</title>
<path fill="none" stroke="#000000" d="M1289.2455,-190.0449C1289.2455,-197.749 1289.2455,-205 1289.2455,-205 1289.2455,-205 3885.4667,-205 3885.4667,-205 3885.4667,-205 3885.4667,-219.5146 3885.4667,-219.5146"/>
<polygon fill="#000000" stroke="#000000" points="3881.9667,-219.5145 3885.4667,-229.5146 3888.9667,-219.5146 3881.9667,-219.5145"/>
</g>
<!-- TrekMapPageModule -->
<g id="node48" class="node">
<title>TrekMapPageModule</title>
<polygon fill="#8dd3c7" stroke="#000000" points="4489.3487,-266 4486.3487,-270 4465.3487,-270 4462.3487,-266 4350.6513,-266 4350.6513,-230 4489.3487,-230 4489.3487,-266"/>
<text text-anchor="middle" x="4420" y="-243.8" font-family="Times,serif" font-size="14.00" fill="#000000">TrekMapPageModule</text>
</g>
<!-- SharedUiModule&#45;&gt;TrekMapPageModule -->
<g id="edge47" class="edge">
<title>SharedUiModule&#45;&gt;TrekMapPageModule</title>
<path fill="none" stroke="#000000" d="M1301.7366,-190.207C1301.7366,-195.5549 1301.7366,-200 1301.7366,-200 1301.7366,-200 4361.4631,-200 4361.4631,-200 4361.4631,-200 4361.4631,-219.8533 4361.4631,-219.8533"/>
<polygon fill="#000000" stroke="#000000" points="4357.9632,-219.8532 4361.4631,-229.8533 4364.9632,-219.8533 4357.9632,-219.8532"/>
</g>
<!-- TreksMapPageModule -->
<g id="node50" class="node">
<title>TreksMapPageModule</title>
<polygon fill="#8dd3c7" stroke="#000000" points="4657.2935,-266 4654.2935,-270 4633.2935,-270 4630.2935,-266 4512.7065,-266 4512.7065,-230 4657.2935,-230 4657.2935,-266"/>
<text text-anchor="middle" x="4585" y="-243.8" font-family="Times,serif" font-size="14.00" fill="#000000">TreksMapPageModule</text>
</g>
<!-- SharedUiModule&#45;&gt;TreksMapPageModule -->
<g id="edge50" class="edge">
<title>SharedUiModule&#45;&gt;TreksMapPageModule</title>
<path fill="none" stroke="#000000" d="M1314.2276,-190.1223C1314.2276,-192.9729 1314.2276,-195 1314.2276,-195 1314.2276,-195 4523.7409,-195 4523.7409,-195 4523.7409,-195 4523.7409,-219.7604 4523.7409,-219.7604"/>
<polygon fill="#000000" stroke="#000000" points="4520.2409,-219.7604 4523.7409,-229.7604 4527.2409,-219.7604 4520.2409,-219.7604"/>
</g>
<!-- LoadingInterceptor -->
<g id="node15" class="node">
<title>LoadingInterceptor</title>
<ellipse fill="#fdb462" stroke="#000000" cx="1596" cy="-172" rx="85.6551" ry="18"/>
<text text-anchor="middle" x="1596" y="-167.8" font-family="Times,serif" font-size="14.00" fill="#000000">LoadingInterceptor</text>
</g>
<!-- LoadingInterceptor&#45;&gt;AppModule -->
<g id="edge14" class="edge">
<title>LoadingInterceptor&#45;&gt;AppModule</title>
<path fill="none" stroke="#000000" d="M1596,-190.3802C1596,-214.2785 1596,-253 1596,-253 1596,-253 2286.2493,-253 2286.2493,-253"/>
<polygon fill="#000000" stroke="#000000" points="2286.2493,-256.5001 2296.2493,-253 2286.2492,-249.5001 2286.2493,-256.5001"/>
</g>
<!-- LowerRoundPipe -->
<g id="node16" class="node">
<title>LowerRoundPipe</title>
<polygon fill="#ffffb3" stroke="#000000" points="5415.2591,-122 5300.7409,-122 5300.7409,-86 5415.2591,-86 5415.2591,-122"/>
<text text-anchor="middle" x="5358" y="-99.8" font-family="Times,serif" font-size="14.00" fill="#000000">LowerRoundPipe</text>
</g>
<!-- CustomPipesModule -->
<g id="node17" class="node">
<title>CustomPipesModule</title>
<polygon fill="#8dd3c7" stroke="#000000" points="5424.9453,-190 5421.9453,-194 5400.9453,-194 5397.9453,-190 5291.0547,-190 5291.0547,-154 5424.9453,-154 5424.9453,-190"/>
<text text-anchor="middle" x="5358" y="-167.8" font-family="Times,serif" font-size="14.00" fill="#000000">CustomPipesModule</text>
</g>
<!-- LowerRoundPipe&#45;&gt;CustomPipesModule -->
<g id="edge15" class="edge">
<title>LowerRoundPipe&#45;&gt;CustomPipesModule</title>
<path fill="none" stroke="#000000" d="M5358,-122.2228C5358,-122.2228 5358,-143.7269 5358,-143.7269"/>
<polygon fill="#000000" stroke="#000000" points="5354.5001,-143.7269 5358,-153.7269 5361.5001,-143.727 5354.5001,-143.7269"/>
</g>
<!-- LowerRoundPipe  -->
<g id="node18" class="node">
<title>LowerRoundPipe </title>
<polygon fill="#fb8072" stroke="#000000" points="5417.2591,-266 5298.7409,-266 5298.7409,-230 5417.2591,-230 5417.2591,-266"/>
<text text-anchor="middle" x="5358" y="-243.8" font-family="Times,serif" font-size="14.00" fill="#000000">LowerRoundPipe </text>
</g>
<!-- CustomPipesModule&#45;&gt;LowerRoundPipe  -->
<g id="edge16" class="edge">
<title>CustomPipesModule&#45;&gt;LowerRoundPipe </title>
<path fill="none" stroke="#000000" stroke-dasharray="5,2" d="M5358,-190.0109C5358,-190.0109 5358,-219.855 5358,-219.855"/>
<polygon fill="#000000" stroke="#000000" points="5354.5001,-219.8549 5358,-229.855 5361.5001,-219.855 5354.5001,-219.8549"/>
</g>
<!-- MoreItemPage -->
<g id="node19" class="node">
<title>MoreItemPage</title>
<polygon fill="#ffffb3" stroke="#000000" points="136.6882,-190 37.3118,-190 37.3118,-154 136.6882,-154 136.6882,-190"/>
<text text-anchor="middle" x="87" y="-167.8" font-family="Times,serif" font-size="14.00" fill="#000000">MoreItemPage</text>
</g>
<!-- MoreItemPage&#45;&gt;MoreItemPageModule -->
<g id="edge17" class="edge">
<title>MoreItemPage&#45;&gt;MoreItemPageModule</title>
<path fill="none" stroke="#000000" d="M87,-190.0109C87,-190.0109 87,-219.855 87,-219.855"/>
<polygon fill="#000000" stroke="#000000" points="83.5001,-219.8549 87,-229.855 90.5001,-219.855 83.5001,-219.8549"/>
</g>
<!-- MorePage -->
<g id="node21" class="node">
<title>MorePage</title>
<polygon fill="#ffffb3" stroke="#000000" points="3398.5331,-190 3325.4669,-190 3325.4669,-154 3398.5331,-154 3398.5331,-190"/>
<text text-anchor="middle" x="3362" y="-167.8" font-family="Times,serif" font-size="14.00" fill="#000000">MorePage</text>
</g>
<!-- MorePage&#45;&gt;MorePageModule -->
<g id="edge19" class="edge">
<title>MorePage&#45;&gt;MorePageModule</title>
<path fill="none" stroke="#000000" d="M3362,-190.0109C3362,-190.0109 3362,-219.855 3362,-219.855"/>
<polygon fill="#000000" stroke="#000000" points="3358.5001,-219.8549 3362,-229.855 3365.5001,-219.855 3358.5001,-219.8549"/>
</g>
<!-- MorePageModule&#45;&gt;TabsPageModule -->
<g id="edge38" class="edge">
<title>MorePageModule&#45;&gt;TabsPageModule</title>
<path fill="none" stroke="#000000" d="M3362,-266.2228C3362,-286.3652 3362,-316 3362,-316 3362,-316 3444.8635,-316 3444.8635,-316"/>
<polygon fill="#000000" stroke="#000000" points="3444.8636,-319.5001 3454.8635,-316 3444.8635,-312.5001 3444.8636,-319.5001"/>
</g>
<!-- GeolocateNotificationsComponent -->
<g id="node23" class="node">
<title>GeolocateNotificationsComponent</title>
<polygon fill="#ffffb3" stroke="#000000" points="5248.6727,-122 5037.3273,-122 5037.3273,-86 5248.6727,-86 5248.6727,-122"/>
<text text-anchor="middle" x="5143" y="-99.8" font-family="Times,serif" font-size="14.00" fill="#000000">GeolocateNotificationsComponent</text>
</g>
<!-- SharedModule -->
<g id="node26" class="node">
<title>SharedModule</title>
<polygon fill="#8dd3c7" stroke="#000000" points="4905.4231,-190 4902.4231,-194 4881.4231,-194 4878.4231,-190 4806.5769,-190 4806.5769,-154 4905.4231,-154 4905.4231,-190"/>
<text text-anchor="middle" x="4856" y="-167.8" font-family="Times,serif" font-size="14.00" fill="#000000">SharedModule</text>
</g>
<!-- GeolocateNotificationsComponent&#45;&gt;SharedModule -->
<g id="edge21" class="edge">
<title>GeolocateNotificationsComponent&#45;&gt;SharedModule</title>
<path fill="none" stroke="#000000" d="M5041.0387,-122.2667C5041.0387,-140.5552 5041.0387,-166 5041.0387,-166 5041.0387,-166 4915.587,-166 4915.587,-166"/>
<polygon fill="#000000" stroke="#000000" points="4915.587,-162.5001 4905.587,-166 4915.5869,-169.5001 4915.587,-162.5001"/>
</g>
<!-- MapTrekVizComponent -->
<g id="node24" class="node">
<title>MapTrekVizComponent</title>
<polygon fill="#ffffb3" stroke="#000000" points="5019.6316,-122 4866.3684,-122 4866.3684,-86 5019.6316,-86 5019.6316,-122"/>
<text text-anchor="middle" x="4943" y="-99.8" font-family="Times,serif" font-size="14.00" fill="#000000">MapTrekVizComponent</text>
</g>
<!-- MapTrekVizComponent&#45;&gt;SharedModule -->
<g id="edge22" class="edge">
<title>MapTrekVizComponent&#45;&gt;SharedModule</title>
<path fill="none" stroke="#000000" d="M4885.6978,-122.2228C4885.6978,-122.2228 4885.6978,-143.7269 4885.6978,-143.7269"/>
<polygon fill="#000000" stroke="#000000" points="4882.1978,-143.7269 4885.6978,-153.7269 4889.1978,-143.727 4882.1978,-143.7269"/>
</g>
<!-- MapTreksVizComponent -->
<g id="node25" class="node">
<title>MapTreksVizComponent</title>
<polygon fill="#ffffb3" stroke="#000000" points="4848.5758,-122 4689.4242,-122 4689.4242,-86 4848.5758,-86 4848.5758,-122"/>
<text text-anchor="middle" x="4769" y="-99.8" font-family="Times,serif" font-size="14.00" fill="#000000">MapTreksVizComponent</text>
</g>
<!-- MapTreksVizComponent&#45;&gt;SharedModule -->
<g id="edge23" class="edge">
<title>MapTreksVizComponent&#45;&gt;SharedModule</title>
<path fill="none" stroke="#000000" d="M4827.6634,-122.2228C4827.6634,-122.2228 4827.6634,-143.7269 4827.6634,-143.7269"/>
<polygon fill="#000000" stroke="#000000" points="4824.1635,-143.7269 4827.6634,-153.7269 4831.1635,-143.727 4824.1635,-143.7269"/>
</g>
<!-- GeolocateNotificationsComponent  -->
<g id="node27" class="node">
<title>GeolocateNotificationsComponent </title>
<polygon fill="#fb8072" stroke="#000000" points="5259.1728,-266 5044.8272,-266 5044.8272,-230 5259.1728,-230 5259.1728,-266"/>
<text text-anchor="middle" x="5152" y="-243.8" font-family="Times,serif" font-size="14.00" fill="#000000">GeolocateNotificationsComponent </text>
</g>
<!-- SharedModule&#45;&gt;GeolocateNotificationsComponent  -->
<g id="edge24" class="edge">
<title>SharedModule&#45;&gt;GeolocateNotificationsComponent </title>
<path fill="none" stroke="#000000" stroke-dasharray="5,2" d="M4905.3006,-178C4988.2172,-178 5146.625,-178 5146.625,-178 5146.625,-178 5146.625,-219.9733 5146.625,-219.9733"/>
<polygon fill="#000000" stroke="#000000" points="5143.1251,-219.9732 5146.625,-229.9733 5150.1251,-219.9733 5143.1251,-219.9732"/>
</g>
<!-- MapTrekVizComponent  -->
<g id="node28" class="node">
<title>MapTrekVizComponent </title>
<polygon fill="#fb8072" stroke="#000000" points="5026.6313,-266 4869.3687,-266 4869.3687,-230 5026.6313,-230 5026.6313,-266"/>
<text text-anchor="middle" x="4948" y="-243.8" font-family="Times,serif" font-size="14.00" fill="#000000">MapTrekVizComponent </text>
</g>
<!-- SharedModule&#45;&gt;MapTrekVizComponent  -->
<g id="edge25" class="edge">
<title>SharedModule&#45;&gt;MapTrekVizComponent </title>
<path fill="none" stroke="#000000" stroke-dasharray="5,2" d="M4887.3228,-190.0109C4887.3228,-190.0109 4887.3228,-219.855 4887.3228,-219.855"/>
<polygon fill="#000000" stroke="#000000" points="4883.8228,-219.8549 4887.3228,-229.855 4890.8228,-219.855 4883.8228,-219.8549"/>
</g>
<!-- MapTreksVizComponent  -->
<g id="node29" class="node">
<title>MapTreksVizComponent </title>
<polygon fill="#fb8072" stroke="#000000" points="4851.0764,-266 4688.9236,-266 4688.9236,-230 4851.0764,-230 4851.0764,-266"/>
<text text-anchor="middle" x="4770" y="-243.8" font-family="Times,serif" font-size="14.00" fill="#000000">MapTreksVizComponent </text>
</g>
<!-- SharedModule&#45;&gt;MapTreksVizComponent  -->
<g id="edge26" class="edge">
<title>SharedModule&#45;&gt;MapTreksVizComponent </title>
<path fill="none" stroke="#000000" stroke-dasharray="5,2" d="M4836.4549,-190.0109C4836.4549,-190.0109 4836.4549,-219.855 4836.4549,-219.855"/>
<polygon fill="#000000" stroke="#000000" points="4832.955,-219.8549 4836.4549,-229.855 4839.955,-219.855 4832.955,-219.8549"/>
</g>
<!-- SharedModule&#45;&gt;TrekMapPageModule -->
<g id="edge46" class="edge">
<title>SharedModule&#45;&gt;TrekMapPageModule</title>
<path fill="none" stroke="#000000" d="M4821.6219,-190.2396C4821.6219,-205.5706 4821.6219,-225 4821.6219,-225 4821.6219,-225 4478.5369,-225 4478.5369,-225 4478.5369,-225 4478.5369,-225.4878 4478.5369,-225.4878"/>
<polygon fill="#000000" stroke="#000000" points="4475.0371,-219.8776 4478.5369,-229.8777 4482.0371,-219.8778 4475.0371,-219.8776"/>
</g>
<!-- SharedModule&#45;&gt;TreksMapPageModule -->
<g id="edge49" class="edge">
<title>SharedModule&#45;&gt;TreksMapPageModule</title>
<path fill="none" stroke="#000000" d="M4806.5599,-172C4744.5514,-172 4646.2592,-172 4646.2592,-172 4646.2592,-172 4646.2592,-219.9891 4646.2592,-219.9891"/>
<polygon fill="#000000" stroke="#000000" points="4642.7592,-219.989 4646.2592,-229.9891 4649.7592,-219.9891 4642.7592,-219.989"/>
</g>
<!-- PoiComponent -->
<g id="node30" class="node">
<title>PoiComponent</title>
<polygon fill="#ffffb3" stroke="#000000" points="4312.0056,-122 4211.9944,-122 4211.9944,-86 4312.0056,-86 4312.0056,-122"/>
<text text-anchor="middle" x="4262" y="-99.8" font-family="Times,serif" font-size="14.00" fill="#000000">PoiComponent</text>
</g>
<!-- SharedTreksModule -->
<g id="node32" class="node">
<title>SharedTreksModule</title>
<polygon fill="#8dd3c7" stroke="#000000" points="4192.2949,-190 4189.2949,-194 4168.2949,-194 4165.2949,-190 4061.7051,-190 4061.7051,-154 4192.2949,-154 4192.2949,-190"/>
<text text-anchor="middle" x="4127" y="-167.8" font-family="Times,serif" font-size="14.00" fill="#000000">SharedTreksModule</text>
</g>
<!-- PoiComponent&#45;&gt;SharedTreksModule -->
<g id="edge27" class="edge">
<title>PoiComponent&#45;&gt;SharedTreksModule</title>
<path fill="none" stroke="#000000" d="M4279.7509,-122.2667C4279.7509,-140.5552 4279.7509,-166 4279.7509,-166 4279.7509,-166 4202.2232,-166 4202.2232,-166"/>
<polygon fill="#000000" stroke="#000000" points="4202.2233,-162.5001 4192.2232,-166 4202.2232,-169.5001 4202.2233,-162.5001"/>
</g>
<!-- TrekCardComponent -->
<g id="node31" class="node">
<title>TrekCardComponent</title>
<polygon fill="#ffffb3" stroke="#000000" points="4194.472,-122 4059.528,-122 4059.528,-86 4194.472,-86 4194.472,-122"/>
<text text-anchor="middle" x="4127" y="-99.8" font-family="Times,serif" font-size="14.00" fill="#000000">TrekCardComponent</text>
</g>
<!-- TrekCardComponent&#45;&gt;SharedTreksModule -->
<g id="edge28" class="edge">
<title>TrekCardComponent&#45;&gt;SharedTreksModule</title>
<path fill="none" stroke="#000000" d="M4127,-122.2228C4127,-122.2228 4127,-143.7269 4127,-143.7269"/>
<polygon fill="#000000" stroke="#000000" points="4123.5001,-143.7269 4127,-153.7269 4130.5001,-143.727 4123.5001,-143.7269"/>
</g>
<!-- PoiComponent  -->
<g id="node33" class="node">
<title>PoiComponent </title>
<polygon fill="#fb8072" stroke="#000000" points="4318.5068,-266 4215.4932,-266 4215.4932,-230 4318.5068,-230 4318.5068,-266"/>
<text text-anchor="middle" x="4267" y="-243.8" font-family="Times,serif" font-size="14.00" fill="#000000">PoiComponent </text>
</g>
<!-- SharedTreksModule&#45;&gt;PoiComponent  -->
<g id="edge29" class="edge">
<title>SharedTreksModule&#45;&gt;PoiComponent </title>
<path fill="none" stroke="#000000" stroke-dasharray="5,2" d="M4192.187,-178C4220.5791,-178 4247.4991,-178 4247.4991,-178 4247.4991,-178 4247.4991,-219.9733 4247.4991,-219.9733"/>
<polygon fill="#000000" stroke="#000000" points="4243.9992,-219.9732 4247.4991,-229.9733 4250.9992,-219.9733 4243.9992,-219.9732"/>
</g>
<!-- TrekCardComponent  -->
<g id="node34" class="node">
<title>TrekCardComponent </title>
<polygon fill="#fb8072" stroke="#000000" points="4197.4728,-266 4058.5272,-266 4058.5272,-230 4197.4728,-230 4197.4728,-266"/>
<text text-anchor="middle" x="4128" y="-243.8" font-family="Times,serif" font-size="14.00" fill="#000000">TrekCardComponent </text>
</g>
<!-- SharedTreksModule&#45;&gt;TrekCardComponent  -->
<g id="edge30" class="edge">
<title>SharedTreksModule&#45;&gt;TrekCardComponent </title>
<path fill="none" stroke="#000000" stroke-dasharray="5,2" d="M4148.7158,-190.0109C4148.7158,-190.0109 4148.7158,-219.855 4148.7158,-219.855"/>
<polygon fill="#000000" stroke="#000000" points="4145.2159,-219.8549 4148.7158,-229.855 4152.2159,-219.855 4145.2159,-219.8549"/>
</g>
<!-- SharedTreksModule&#45;&gt;TreksPageModule -->
<g id="edge52" class="edge">
<title>SharedTreksModule&#45;&gt;TreksPageModule</title>
<path fill="none" stroke="#000000" d="M4105.2842,-190.1467C4105.2842,-203.7395 4105.2842,-220 4105.2842,-220 4105.2842,-220 3560.4296,-220 3560.4296,-220 3560.4296,-220 3560.4296,-220.9793 3560.4296,-220.9793"/>
<polygon fill="#000000" stroke="#000000" points="3556.9297,-219.793 3560.4296,-229.793 3563.9297,-219.7931 3556.9297,-219.793"/>
</g>
<!-- SharedTreksModule&#45;&gt;TrekDetailsPageModule -->
<g id="edge43" class="edge">
<title>SharedTreksModule&#45;&gt;TrekDetailsPageModule</title>
<path fill="none" stroke="#000000" d="M4061.7831,-172C4037.8666,-172 4016.5334,-172 4016.5334,-172 4016.5334,-172 4016.5334,-219.9891 4016.5334,-219.9891"/>
<polygon fill="#000000" stroke="#000000" points="4013.0334,-219.989 4016.5334,-229.9891 4020.0334,-219.9891 4013.0334,-219.989"/>
</g>
<!-- CollapsibleListComponent -->
<g id="node35" class="node">
<title>CollapsibleListComponent</title>
<polygon fill="#ffffb3" stroke="#000000" points="872.3836,-266 705.6164,-266 705.6164,-230 872.3836,-230 872.3836,-266"/>
<text text-anchor="middle" x="789" y="-243.8" font-family="Times,serif" font-size="14.00" fill="#000000">CollapsibleListComponent</text>
</g>
<!-- CollapsibleListComponent&#45;&gt;SharedUiModule -->
<g id="edge31" class="edge">
<title>CollapsibleListComponent&#45;&gt;SharedUiModule</title>
<path fill="none" stroke="#000000" d="M789,-229.7772C789,-209.6348 789,-180 789,-180 789,-180 1216.3319,-180 1216.3319,-180"/>
<polygon fill="#000000" stroke="#000000" points="1216.332,-183.5001 1226.3319,-180 1216.3319,-176.5001 1216.332,-183.5001"/>
</g>
<!-- ConnectErrorComponent -->
<g id="node36" class="node">
<title>ConnectErrorComponent</title>
<polygon fill="#ffffb3" stroke="#000000" points="1186.5239,-266 1029.4761,-266 1029.4761,-230 1186.5239,-230 1186.5239,-266"/>
<text text-anchor="middle" x="1108" y="-243.8" font-family="Times,serif" font-size="14.00" fill="#000000">ConnectErrorComponent</text>
</g>
<!-- ConnectErrorComponent&#45;&gt;SharedUiModule -->
<g id="edge32" class="edge">
<title>ConnectErrorComponent&#45;&gt;SharedUiModule</title>
<path fill="none" stroke="#000000" d="M1186.6406,-235C1214.6,-235 1239.2813,-235 1239.2813,-235 1239.2813,-235 1239.2813,-200.2222 1239.2813,-200.2222"/>
<polygon fill="#000000" stroke="#000000" points="1242.7814,-200.2222 1239.2813,-190.2222 1235.7814,-200.2222 1242.7814,-200.2222"/>
</g>
<!-- LoaderComponent -->
<g id="node37" class="node">
<title>LoaderComponent</title>
<polygon fill="#ffffb3" stroke="#000000" points="1011.4748,-266 890.5252,-266 890.5252,-230 1011.4748,-230 1011.4748,-266"/>
<text text-anchor="middle" x="951" y="-243.8" font-family="Times,serif" font-size="14.00" fill="#000000">LoaderComponent</text>
</g>
<!-- LoaderComponent&#45;&gt;SharedUiModule -->
<g id="edge33" class="edge">
<title>LoaderComponent&#45;&gt;SharedUiModule</title>
<path fill="none" stroke="#000000" d="M951,-229.7778C951,-211.1715 951,-185 951,-185 951,-185 1216.6807,-185 1216.6807,-185"/>
<polygon fill="#000000" stroke="#000000" points="1216.6808,-188.5001 1226.6807,-185 1216.6807,-181.5001 1216.6808,-188.5001"/>
</g>
<!-- TabsPage -->
<g id="node41" class="node">
<title>TabsPage</title>
<polygon fill="#ffffb3" stroke="#000000" points="3843.4249,-266 3772.5751,-266 3772.5751,-230 3843.4249,-230 3843.4249,-266"/>
<text text-anchor="middle" x="3808" y="-243.8" font-family="Times,serif" font-size="14.00" fill="#000000">TabsPage</text>
</g>
<!-- TabsPage&#45;&gt;TabsPageModule -->
<g id="edge37" class="edge">
<title>TabsPage&#45;&gt;TabsPageModule</title>
<path fill="none" stroke="#000000" d="M3808,-266.2921C3808,-288.2057 3808,-322 3808,-322 3808,-322 3579.0718,-322 3579.0718,-322"/>
<polygon fill="#000000" stroke="#000000" points="3579.0718,-318.5001 3569.0718,-322 3579.0717,-325.5001 3579.0718,-318.5001"/>
</g>
<!-- TabsPageRoutingModule -->
<g id="node43" class="node">
<title>TabsPageRoutingModule</title>
<polygon fill="#8dd3c7" stroke="#000000" points="3748.5912,-266 3745.5912,-270 3724.5912,-270 3721.5912,-266 3589.4088,-266 3589.4088,-230 3748.5912,-230 3748.5912,-266"/>
<text text-anchor="middle" x="3669" y="-243.8" font-family="Times,serif" font-size="14.00" fill="#000000">TabsPageRoutingModule</text>
</g>
<!-- TabsPageRoutingModule&#45;&gt;TabsPageModule -->
<g id="edge40" class="edge">
<title>TabsPageRoutingModule&#45;&gt;TabsPageModule</title>
<path fill="none" stroke="#000000" d="M3669,-266.2667C3669,-284.5552 3669,-310 3669,-310 3669,-310 3579.1247,-310 3579.1247,-310"/>
<polygon fill="#000000" stroke="#000000" points="3579.1248,-306.5001 3569.1247,-310 3579.1247,-313.5001 3579.1248,-306.5001"/>
</g>
<!-- TreksPageModule&#45;&gt;TabsPageModule -->
<g id="edge41" class="edge">
<title>TreksPageModule&#45;&gt;TabsPageModule</title>
<path fill="none" stroke="#000000" d="M3530.9956,-266.2228C3530.9956,-266.2228 3530.9956,-287.7269 3530.9956,-287.7269"/>
<polygon fill="#000000" stroke="#000000" points="3527.4957,-287.7269 3530.9956,-297.7269 3534.4957,-287.727 3527.4957,-287.7269"/>
</g>
<!-- TrekDetailsPage -->
<g id="node45" class="node">
<title>TrekDetailsPage</title>
<polygon fill="#ffffb3" stroke="#000000" points="4005.7922,-190 3896.2078,-190 3896.2078,-154 4005.7922,-154 4005.7922,-190"/>
<text text-anchor="middle" x="3951" y="-167.8" font-family="Times,serif" font-size="14.00" fill="#000000">TrekDetailsPage</text>
</g>
<!-- TrekDetailsPage&#45;&gt;TrekDetailsPageModule -->
<g id="edge42" class="edge">
<title>TrekDetailsPage&#45;&gt;TrekDetailsPageModule</title>
<path fill="none" stroke="#000000" d="M3951,-190.0109C3951,-190.0109 3951,-219.855 3951,-219.855"/>
<polygon fill="#000000" stroke="#000000" points="3947.5001,-219.8549 3951,-229.855 3954.5001,-219.855 3947.5001,-219.8549"/>
</g>
<!-- TrekMapPage -->
<g id="node47" class="node">
<title>TrekMapPage</title>
<polygon fill="#ffffb3" stroke="#000000" points="4467.7993,-190 4372.2007,-190 4372.2007,-154 4467.7993,-154 4467.7993,-190"/>
<text text-anchor="middle" x="4420" y="-167.8" font-family="Times,serif" font-size="14.00" fill="#000000">TrekMapPage</text>
</g>
<!-- TrekMapPage&#45;&gt;TrekMapPageModule -->
<g id="edge45" class="edge">
<title>TrekMapPage&#45;&gt;TrekMapPageModule</title>
<path fill="none" stroke="#000000" d="M4420,-190.0109C4420,-190.0109 4420,-219.855 4420,-219.855"/>
<polygon fill="#000000" stroke="#000000" points="4416.5001,-219.8549 4420,-229.855 4423.5001,-219.855 4416.5001,-219.8549"/>
</g>
<!-- TreksMapPage -->
<g id="node49" class="node">
<title>TreksMapPage</title>
<polygon fill="#ffffb3" stroke="#000000" points="4635.2437,-190 4534.7563,-190 4534.7563,-154 4635.2437,-154 4635.2437,-190"/>
<text text-anchor="middle" x="4585" y="-167.8" font-family="Times,serif" font-size="14.00" fill="#000000">TreksMapPage</text>
</g>
<!-- TreksMapPage&#45;&gt;TreksMapPageModule -->
<g id="edge48" class="edge">
<title>TreksMapPage&#45;&gt;TreksMapPageModule</title>
<path fill="none" stroke="#000000" d="M4585,-190.0109C4585,-190.0109 4585,-219.855 4585,-219.855"/>
<polygon fill="#000000" stroke="#000000" points="4581.5001,-219.8549 4585,-229.855 4588.5001,-219.855 4581.5001,-219.8549"/>
</g>
<!-- TreksPage -->
<g id="node51" class="node">
<title>TreksPage</title>
<polygon fill="#ffffb3" stroke="#000000" points="3549.5842,-190 3474.4158,-190 3474.4158,-154 3549.5842,-154 3549.5842,-190"/>
<text text-anchor="middle" x="3512" y="-167.8" font-family="Times,serif" font-size="14.00" fill="#000000">TreksPage</text>
</g>
<!-- TreksPage&#45;&gt;TreksPageModule -->
<g id="edge51" class="edge">
<title>TreksPage&#45;&gt;TreksPageModule</title>
<path fill="none" stroke="#000000" d="M3512,-190.0109C3512,-190.0109 3512,-219.855 3512,-219.855"/>
<polygon fill="#000000" stroke="#000000" points="3508.5001,-219.8549 3512,-229.855 3515.5001,-219.855 3508.5001,-219.8549"/>
</g>
</g>
</svg>
