<?xml version="1.0" encoding="UTF-8" standalone="no"?>
<!DOCTYPE svg PUBLIC "-//W3C//DTD SVG 1.1//EN"
 "http://www.w3.org/Graphics/SVG/1.1/DTD/svg11.dtd">
<!-- Generated by graphviz version 2.40.1 (20161225.0304)
 -->
<!-- Title: dependencies Pages: 1 -->
<svg width="5291pt" height="366pt"
 viewBox="0.00 0.00 5291.00 366.00" xmlns="http://www.w3.org/2000/svg" xmlns:xlink="http://www.w3.org/1999/xlink">
<g id="graph0" class="graph" transform="scale(1 1) rotate(0) translate(4 362)">
<title>dependencies</title>
<polygon fill="#ffffff" stroke="transparent" points="-4,4 -4,-362 5287,-362 5287,4 -4,4"/>
<text text-anchor="start" x="2620.5091" y="-42.4" font-family="sans-serif" font-weight="bold" font-size="14.00" fill="#000000">Legend</text>
<polygon fill="#ffffb3" stroke="transparent" points="2407.5,-10 2407.5,-30 2427.5,-30 2427.5,-10 2407.5,-10"/>
<text text-anchor="start" x="2431.129" y="-15.4" font-family="sans-serif" font-size="14.00" fill="#000000"> &#160;Declarations</text>
<polygon fill="#8dd3c7" stroke="transparent" points="2520.5,-10 2520.5,-30 2540.5,-30 2540.5,-10 2520.5,-10"/>
<text text-anchor="start" x="2544.2251" y="-15.4" font-family="sans-serif" font-size="14.00" fill="#000000"> &#160;Module</text>
<polygon fill="#80b1d3" stroke="transparent" points="2606.5,-10 2606.5,-30 2626.5,-30 2626.5,-10 2606.5,-10"/>
<text text-anchor="start" x="2630.2812" y="-15.4" font-family="sans-serif" font-size="14.00" fill="#000000"> &#160;Bootstrap</text>
<polygon fill="#fdb462" stroke="transparent" points="2703.5,-10 2703.5,-30 2723.5,-30 2723.5,-10 2703.5,-10"/>
<text text-anchor="start" x="2727.1732" y="-15.4" font-family="sans-serif" font-size="14.00" fill="#000000"> &#160;Providers</text>
<polygon fill="#fb8072" stroke="transparent" points="2799.5,-10 2799.5,-30 2819.5,-30 2819.5,-10 2799.5,-10"/>
<text text-anchor="start" x="2823.2258" y="-15.4" font-family="sans-serif" font-size="14.00" fill="#000000"> &#160;Exports</text>
<g id="clust1" class="cluster">
<title>cluster_AppModule</title>
<polygon fill="none" stroke="#000000" stroke-dasharray="1,5" points="1210,-138 1210,-350 3287,-350 3287,-138 1210,-138"/>
</g>
<g id="clust2" class="cluster">
<title>cluster_AppModule_declarations</title>
<polygon fill="none" stroke="#000000" points="1697,-146 1697,-198 3279,-198 3279,-146 1697,-146"/>
</g>
<g id="clust13" class="cluster">
<title>cluster_AppModule_imports</title>
<polygon fill="none" stroke="#000000" points="1218,-146 1218,-198 1493,-198 1493,-146 1218,-146"/>
</g>
<g id="clust15" class="cluster">
<title>cluster_AppModule_bootstrap</title>
<polygon fill="none" stroke="#000000" points="2247,-290 2247,-342 2371,-342 2371,-290 2247,-290"/>
</g>
<g id="clust16" class="cluster">
<title>cluster_AppModule_providers</title>
<polygon fill="none" stroke="#000000" points="1501,-146 1501,-198 1689,-198 1689,-146 1501,-146"/>
</g>
<g id="clust23" class="cluster">
<title>cluster_MoreItemPageModule</title>
<polygon fill="none" stroke="#000000" stroke-dasharray="1,5" points="8,-138 8,-274 166,-274 166,-138 8,-138"/>
</g>
<g id="clust24" class="cluster">
<title>cluster_MoreItemPageModule_declarations</title>
<polygon fill="none" stroke="#000000" points="29,-146 29,-198 145,-198 145,-146 29,-146"/>
</g>
<g id="clust30" class="cluster">
<title>cluster_MorePageModule</title>
<polygon fill="none" stroke="#000000" stroke-dasharray="1,5" points="3295,-138 3295,-274 3429,-274 3429,-138 3295,-138"/>
</g>
<g id="clust31" class="cluster">
<title>cluster_MorePageModule_declarations</title>
<polygon fill="none" stroke="#000000" points="3317,-146 3317,-198 3407,-198 3407,-146 3317,-146"/>
</g>
<g id="clust37" class="cluster">
<title>cluster_SharedModule</title>
<polygon fill="none" stroke="#000000" stroke-dasharray="1,5" points="4673,-70 4673,-282 5275,-282 5275,-70 4673,-70"/>
</g>
<g id="clust38" class="cluster">
<title>cluster_SharedModule_declarations</title>
<polygon fill="none" stroke="#000000" points="4681,-78 4681,-130 5257,-130 5257,-78 4681,-78"/>
</g>
<g id="clust43" class="cluster">
<title>cluster_SharedModule_exports</title>
<polygon fill="none" stroke="#000000" points="4681,-222 4681,-274 5267,-274 5267,-222 4681,-222"/>
</g>
<g id="clust46" class="cluster">
<title>cluster_SharedTreksModule</title>
<polygon fill="none" stroke="#000000" stroke-dasharray="1,5" points="4043,-70 4043,-282 4335,-282 4335,-70 4043,-70"/>
</g>
<g id="clust47" class="cluster">
<title>cluster_SharedTreksModule_declarations</title>
<polygon fill="none" stroke="#000000" points="4051,-78 4051,-130 4319,-130 4319,-78 4051,-78"/>
</g>
<g id="clust51" class="cluster">
<title>cluster_SharedTreksModule_exports</title>
<polygon fill="none" stroke="#000000" points="4051,-222 4051,-274 4327,-274 4327,-222 4051,-222"/>
</g>
<g id="clust54" class="cluster">
<title>cluster_SharedUiModule</title>
<polygon fill="none" stroke="#000000" stroke-dasharray="1,5" points="174,-214 174,-282 1202,-282 1202,-214 174,-214"/>
</g>
<g id="clust55" class="cluster">
<title>cluster_SharedUiModule_declarations</title>
<polygon fill="none" stroke="#000000" points="698,-222 698,-274 1194,-274 1194,-222 698,-222"/>
</g>
<g id="clust60" class="cluster">
<title>cluster_SharedUiModule_exports</title>
<polygon fill="none" stroke="#000000" points="182,-222 182,-274 690,-274 690,-222 182,-222"/>
</g>
<g id="clust63" class="cluster">
<title>cluster_TabsPageModule</title>
<polygon fill="none" stroke="#000000" stroke-dasharray="1,5" points="3437,-214 3437,-342 3859,-342 3859,-214 3437,-214"/>
</g>
<g id="clust64" class="cluster">
<title>cluster_TabsPageModule_declarations</title>
<polygon fill="none" stroke="#000000" points="3765,-222 3765,-274 3851,-274 3851,-222 3765,-222"/>
</g>
<g id="clust66" class="cluster">
<title>cluster_TabsPageModule_imports</title>
<polygon fill="none" stroke="#000000" points="3445,-222 3445,-274 3757,-274 3757,-222 3445,-222"/>
</g>
<g id="clust76" class="cluster">
<title>cluster_TrekDetailsPageModule</title>
<polygon fill="none" stroke="#000000" stroke-dasharray="1,5" points="3867,-138 3867,-274 4035,-274 4035,-138 3867,-138"/>
</g>
<g id="clust77" class="cluster">
<title>cluster_TrekDetailsPageModule_declarations</title>
<polygon fill="none" stroke="#000000" points="3888,-146 3888,-198 4014,-198 4014,-146 3888,-146"/>
</g>
<g id="clust83" class="cluster">
<title>cluster_TrekMapPageModule</title>
<polygon fill="none" stroke="#000000" stroke-dasharray="1,5" points="4343,-138 4343,-274 4497,-274 4497,-138 4343,-138"/>
</g>
<g id="clust84" class="cluster">
<title>cluster_TrekMapPageModule_declarations</title>
<polygon fill="none" stroke="#000000" points="4364,-146 4364,-198 4476,-198 4476,-146 4364,-146"/>
</g>
<g id="clust90" class="cluster">
<title>cluster_TreksMapPageModule</title>
<polygon fill="none" stroke="#000000" stroke-dasharray="1,5" points="4505,-138 4505,-274 4665,-274 4665,-138 4505,-138"/>
</g>
<g id="clust91" class="cluster">
<title>cluster_TreksMapPageModule_declarations</title>
<polygon fill="none" stroke="#000000" points="4527,-146 4527,-198 4643,-198 4643,-146 4527,-146"/>
</g>
<g id="clust97" class="cluster">
<title>cluster_TreksPageModule</title>
<polygon fill="none" stroke="#000000" stroke-dasharray="1,5" points="3458,-138 3458,-206 3566,-206 3566,-138 3458,-138"/>
</g>
<g id="clust98" class="cluster">
<title>cluster_TreksPageModule_declarations</title>
<polygon fill="none" stroke="#000000" points="3466,-146 3466,-198 3558,-198 3558,-146 3466,-146"/>
</g>
<!-- AppComponent -->
<g id="node1" class="node">
<title>AppComponent</title>
<polygon fill="#ffffb3" stroke="#000000" points="2968.9399,-190 2863.0601,-190 2863.0601,-154 2968.9399,-154 2968.9399,-190"/>
<text text-anchor="middle" x="2916" y="-167.8" font-family="Times,serif" font-size="14.00" fill="#000000">AppComponent</text>
</g>
<!-- AppModule -->
<g id="node11" class="node">
<title>AppModule</title>
<polygon fill="#8dd3c7" stroke="#000000" points="2350.6571,-266 2347.6571,-270 2326.6571,-270 2323.6571,-266 2267.3429,-266 2267.3429,-230 2350.6571,-230 2350.6571,-266"/>
<text text-anchor="middle" x="2309" y="-243.8" font-family="Times,serif" font-size="14.00" fill="#000000">AppModule</text>
</g>
<!-- AppComponent&#45;&gt;AppModule -->
<g id="edge1" class="edge">
<title>AppComponent&#45;&gt;AppModule</title>
<path fill="none" stroke="#000000" d="M2916,-190.3228C2916,-213.6602 2916,-251 2916,-251 2916,-251 2360.7216,-251 2360.7216,-251"/>
<polygon fill="#000000" stroke="#000000" points="2360.7216,-247.5001 2350.7216,-251 2360.7215,-254.5001 2360.7216,-247.5001"/>
</g>
<!-- FilterComponent -->
<g id="node2" class="node">
<title>FilterComponent</title>
<polygon fill="#ffffb3" stroke="#000000" points="2844.6625,-190 2733.3375,-190 2733.3375,-154 2844.6625,-154 2844.6625,-190"/>
<text text-anchor="middle" x="2789" y="-167.8" font-family="Times,serif" font-size="14.00" fill="#000000">FilterComponent</text>
</g>
<!-- FilterComponent&#45;&gt;AppModule -->
<g id="edge2" class="edge">
<title>FilterComponent&#45;&gt;AppModule</title>
<path fill="none" stroke="#000000" d="M2789,-190.2921C2789,-212.2057 2789,-246 2789,-246 2789,-246 2360.7572,-246 2360.7572,-246"/>
<polygon fill="#000000" stroke="#000000" points="2360.7572,-242.5001 2350.7572,-246 2360.7571,-249.5001 2360.7572,-242.5001"/>
</g>
<!-- FilterValueComponent -->
<g id="node3" class="node">
<title>FilterValueComponent</title>
<polygon fill="#ffffb3" stroke="#000000" points="2715.5884,-190 2570.4116,-190 2570.4116,-154 2715.5884,-154 2715.5884,-190"/>
<text text-anchor="middle" x="2643" y="-167.8" font-family="Times,serif" font-size="14.00" fill="#000000">FilterValueComponent</text>
</g>
<!-- FilterValueComponent&#45;&gt;AppModule -->
<g id="edge3" class="edge">
<title>FilterValueComponent&#45;&gt;AppModule</title>
<path fill="none" stroke="#000000" d="M2643,-190.1289C2643,-210.5724 2643,-241 2643,-241 2643,-241 2360.9631,-241 2360.9631,-241"/>
<polygon fill="#000000" stroke="#000000" points="2360.9632,-237.5001 2350.9631,-241 2360.9631,-244.5001 2360.9632,-237.5001"/>
</g>
<!-- FiltersComponent -->
<g id="node4" class="node">
<title>FiltersComponent</title>
<polygon fill="#ffffb3" stroke="#000000" points="2552.6066,-190 2435.3934,-190 2435.3934,-154 2552.6066,-154 2552.6066,-190"/>
<text text-anchor="middle" x="2494" y="-167.8" font-family="Times,serif" font-size="14.00" fill="#000000">FiltersComponent</text>
</g>
<!-- FiltersComponent&#45;&gt;AppModule -->
<g id="edge4" class="edge">
<title>FiltersComponent&#45;&gt;AppModule</title>
<path fill="none" stroke="#000000" d="M2494,-190.1686C2494,-209.0898 2494,-236 2494,-236 2494,-236 2360.9794,-236 2360.9794,-236"/>
<polygon fill="#000000" stroke="#000000" points="2360.9794,-232.5001 2350.9794,-236 2360.9793,-239.5001 2360.9794,-232.5001"/>
</g>
<!-- InformationDeskDetailsComponent -->
<g id="node5" class="node">
<title>InformationDeskDetailsComponent</title>
<polygon fill="#ffffb3" stroke="#000000" points="2417.1189,-190 2200.8811,-190 2200.8811,-154 2417.1189,-154 2417.1189,-190"/>
<text text-anchor="middle" x="2309" y="-167.8" font-family="Times,serif" font-size="14.00" fill="#000000">InformationDeskDetailsComponent</text>
</g>
<!-- InformationDeskDetailsComponent&#45;&gt;AppModule -->
<g id="edge5" class="edge">
<title>InformationDeskDetailsComponent&#45;&gt;AppModule</title>
<path fill="none" stroke="#000000" d="M2309,-190.0109C2309,-190.0109 2309,-219.855 2309,-219.855"/>
<polygon fill="#000000" stroke="#000000" points="2305.5001,-219.8549 2309,-229.855 2312.5001,-219.855 2305.5001,-219.8549"/>
</g>
<!-- LayersVisibilityComponent -->
<g id="node6" class="node">
<title>LayersVisibilityComponent</title>
<polygon fill="#ffffb3" stroke="#000000" points="2183.3145,-190 2010.6855,-190 2010.6855,-154 2183.3145,-154 2183.3145,-190"/>
<text text-anchor="middle" x="2097" y="-167.8" font-family="Times,serif" font-size="14.00" fill="#000000">LayersVisibilityComponent</text>
</g>
<!-- LayersVisibilityComponent&#45;&gt;AppModule -->
<g id="edge6" class="edge">
<title>LayersVisibilityComponent&#45;&gt;AppModule</title>
<path fill="none" stroke="#000000" d="M2097,-190.2222C2097,-208.8285 2097,-235 2097,-235 2097,-235 2257.1156,-235 2257.1156,-235"/>
<polygon fill="#000000" stroke="#000000" points="2257.1157,-238.5001 2267.1156,-235 2257.1156,-231.5001 2257.1157,-238.5001"/>
</g>
<!-- PoiDetailsComponent -->
<g id="node7" class="node">
<title>PoiDetailsComponent</title>
<polygon fill="#ffffb3" stroke="#000000" points="1992.6582,-190 1853.3418,-190 1853.3418,-154 1992.6582,-154 1992.6582,-190"/>
<text text-anchor="middle" x="1923" y="-167.8" font-family="Times,serif" font-size="14.00" fill="#000000">PoiDetailsComponent</text>
</g>
<!-- PoiDetailsComponent&#45;&gt;AppModule -->
<g id="edge7" class="edge">
<title>PoiDetailsComponent&#45;&gt;AppModule</title>
<path fill="none" stroke="#000000" d="M1923,-190.308C1923,-210.1455 1923,-239 1923,-239 1923,-239 2257.3245,-239 2257.3245,-239"/>
<polygon fill="#000000" stroke="#000000" points="2257.3245,-242.5001 2267.3245,-239 2257.3245,-235.5001 2257.3245,-242.5001"/>
</g>
<!-- ProgressComponent -->
<g id="node8" class="node">
<title>ProgressComponent</title>
<polygon fill="#ffffb3" stroke="#000000" points="1834.5408,-190 1705.4592,-190 1705.4592,-154 1834.5408,-154 1834.5408,-190"/>
<text text-anchor="middle" x="1770" y="-167.8" font-family="Times,serif" font-size="14.00" fill="#000000">ProgressComponent</text>
</g>
<!-- ProgressComponent&#45;&gt;AppModule -->
<g id="edge8" class="edge">
<title>ProgressComponent&#45;&gt;AppModule</title>
<path fill="none" stroke="#000000" d="M1770,-190.1686C1770,-211.498 1770,-244 1770,-244 1770,-244 2257.1541,-244 2257.1541,-244"/>
<polygon fill="#000000" stroke="#000000" points="2257.1541,-247.5001 2267.1541,-244 2257.154,-240.5001 2257.1541,-247.5001"/>
</g>
<!-- SearchComponent -->
<g id="node9" class="node">
<title>SearchComponent</title>
<polygon fill="#ffffb3" stroke="#000000" points="3270.9201,-190 3151.0799,-190 3151.0799,-154 3270.9201,-154 3270.9201,-190"/>
<text text-anchor="middle" x="3211" y="-167.8" font-family="Times,serif" font-size="14.00" fill="#000000">SearchComponent</text>
</g>
<!-- SearchComponent&#45;&gt;AppModule -->
<g id="edge9" class="edge">
<title>SearchComponent&#45;&gt;AppModule</title>
<path fill="none" stroke="#000000" d="M3211,-190.0105C3211,-216.0165 3211,-261 3211,-261 3211,-261 2360.6963,-261 2360.6963,-261"/>
<polygon fill="#000000" stroke="#000000" points="2360.6963,-257.5001 2350.6963,-261 2360.6963,-264.5001 2360.6963,-257.5001"/>
</g>
<!-- TreksOrderComponent -->
<g id="node10" class="node">
<title>TreksOrderComponent</title>
<polygon fill="#ffffb3" stroke="#000000" points="3132.8473,-190 2987.1527,-190 2987.1527,-154 3132.8473,-154 3132.8473,-190"/>
<text text-anchor="middle" x="3060" y="-167.8" font-family="Times,serif" font-size="14.00" fill="#000000">TreksOrderComponent</text>
</g>
<!-- TreksOrderComponent&#45;&gt;AppModule -->
<g id="edge10" class="edge">
<title>TreksOrderComponent&#45;&gt;AppModule</title>
<path fill="none" stroke="#000000" d="M3060,-190.2267C3060,-214.9318 3060,-256 3060,-256 3060,-256 2360.7161,-256 2360.7161,-256"/>
<polygon fill="#000000" stroke="#000000" points="2360.7162,-252.5001 2350.7161,-256 2360.7161,-259.5001 2360.7162,-252.5001"/>
</g>
<!-- AppComponent  -->
<g id="node14" class="node">
<title>AppComponent </title>
<polygon fill="#80b1d3" stroke="#000000" points="2363.439,-334 2254.561,-334 2254.561,-298 2363.439,-298 2363.439,-334"/>
<text text-anchor="middle" x="2309" y="-311.8" font-family="Times,serif" font-size="14.00" fill="#000000">AppComponent </text>
</g>
<!-- AppModule&#45;&gt;AppComponent  -->
<g id="edge13" class="edge">
<title>AppModule&#45;&gt;AppComponent </title>
<path fill="none" stroke="#000000" stroke-dasharray="1,5" d="M2309,-266.2228C2309,-266.2228 2309,-287.7269 2309,-287.7269"/>
<polygon fill="#000000" stroke="#000000" points="2305.5001,-287.7269 2309,-297.7269 2312.5001,-287.727 2305.5001,-287.7269"/>
</g>
<!-- AppRoutingModule -->
<g id="node12" class="node">
<title>AppRoutingModule</title>
<polygon fill="#8dd3c7" stroke="#000000" points="1485.2744,-190 1482.2744,-194 1461.2744,-194 1458.2744,-190 1356.7256,-190 1356.7256,-154 1485.2744,-154 1485.2744,-190"/>
<text text-anchor="middle" x="1421" y="-167.8" font-family="Times,serif" font-size="14.00" fill="#000000">AppRoutingModule</text>
</g>
<!-- AppRoutingModule&#45;&gt;AppModule -->
<g id="edge11" class="edge">
<title>AppRoutingModule&#45;&gt;AppModule</title>
<path fill="none" stroke="#000000" d="M1421,-190.3802C1421,-214.2785 1421,-253 1421,-253 1421,-253 2257.0646,-253 2257.0646,-253"/>
<polygon fill="#000000" stroke="#000000" points="2257.0646,-256.5001 2267.0646,-253 2257.0646,-249.5001 2257.0646,-256.5001"/>
</g>
<!-- SharedUiModule -->
<g id="node13" class="node">
<title>SharedUiModule</title>
<polygon fill="#8dd3c7" stroke="#000000" points="1338.4202,-190 1335.4202,-194 1314.4202,-194 1311.4202,-190 1225.5798,-190 1225.5798,-154 1338.4202,-154 1338.4202,-190"/>
<text text-anchor="middle" x="1282" y="-167.8" font-family="Times,serif" font-size="14.00" fill="#000000">SharedUiModule</text>
</g>
<!-- SharedUiModule&#45;&gt;AppModule -->
<g id="edge12" class="edge">
<title>SharedUiModule&#45;&gt;AppModule</title>
<path fill="none" stroke="#000000" d="M1325.7187,-190.0263C1325.7187,-214.9773 1325.7187,-257 1325.7187,-257 1325.7187,-257 2257.0642,-257 2257.0642,-257"/>
<polygon fill="#000000" stroke="#000000" points="2257.0642,-260.5001 2267.0642,-257 2257.0641,-253.5001 2257.0642,-260.5001"/>
</g>
<!-- MoreItemPageModule -->
<g id="node17" class="node">
<title>MoreItemPageModule</title>
<polygon fill="#8dd3c7" stroke="#000000" points="158.238,-266 155.238,-270 134.238,-270 131.238,-266 15.762,-266 15.762,-230 158.238,-230 158.238,-266"/>
<text text-anchor="middle" x="87" y="-243.8" font-family="Times,serif" font-size="14.00" fill="#000000">MoreItemPageModule</text>
</g>
<!-- SharedUiModule&#45;&gt;MoreItemPageModule -->
<g id="edge16" class="edge">
<title>SharedUiModule&#45;&gt;MoreItemPageModule</title>
<path fill="none" stroke="#000000" d="M1225.739,-160C996.8167,-160 147.4815,-160 147.4815,-160 147.4815,-160 147.4815,-219.7663 147.4815,-219.7663"/>
<polygon fill="#000000" stroke="#000000" points="143.9815,-219.7663 147.4815,-229.7663 150.9815,-219.7664 143.9815,-219.7663"/>
</g>
<!-- MorePageModule -->
<g id="node19" class="node">
<title>MorePageModule</title>
<polygon fill="#8dd3c7" stroke="#000000" points="3420.5814,-266 3417.5814,-270 3396.5814,-270 3393.5814,-266 3303.4186,-266 3303.4186,-230 3420.5814,-230 3420.5814,-266"/>
<text text-anchor="middle" x="3362" y="-243.8" font-family="Times,serif" font-size="14.00" fill="#000000">MorePageModule</text>
</g>
<!-- SharedUiModule&#45;&gt;MorePageModule -->
<g id="edge18" class="edge">
<title>SharedUiModule&#45;&gt;MorePageModule</title>
<path fill="none" stroke="#000000" d="M1263.2634,-190.4854C1263.2634,-202.1399 1263.2634,-215 1263.2634,-215 1263.2634,-215 3314.3468,-215 3314.3468,-215 3314.3468,-215 3314.3468,-219.9551 3314.3468,-219.9551"/>
<polygon fill="#000000" stroke="#000000" points="3310.8468,-219.9551 3314.3468,-229.9551 3317.8468,-219.9552 3310.8468,-219.9551"/>
</g>
<!-- CollapsibleListComponent  -->
<g id="node35" class="node">
<title>CollapsibleListComponent </title>
<polygon fill="#fb8072" stroke="#000000" points="682.384,-266 511.616,-266 511.616,-230 682.384,-230 682.384,-266"/>
<text text-anchor="middle" x="597" y="-243.8" font-family="Times,serif" font-size="14.00" fill="#000000">CollapsibleListComponent </text>
</g>
<!-- SharedUiModule&#45;&gt;CollapsibleListComponent  -->
<g id="edge32" class="edge">
<title>SharedUiModule&#45;&gt;CollapsibleListComponent </title>
<path fill="none" stroke="#000000" stroke-dasharray="5,2" d="M1225.6525,-175C1061.7943,-175 597,-175 597,-175 597,-175 597,-219.9551 597,-219.9551"/>
<polygon fill="#000000" stroke="#000000" points="593.5001,-219.955 597,-229.9551 600.5001,-219.9551 593.5001,-219.955"/>
</g>
<!-- ConnectErrorComponent  -->
<g id="node36" class="node">
<title>ConnectErrorComponent </title>
<polygon fill="#fb8072" stroke="#000000" points="493.5232,-266 332.4768,-266 332.4768,-230 493.5232,-230 493.5232,-266"/>
<text text-anchor="middle" x="413" y="-243.8" font-family="Times,serif" font-size="14.00" fill="#000000">ConnectErrorComponent </text>
</g>
<!-- SharedUiModule&#45;&gt;ConnectErrorComponent  -->
<g id="edge33" class="edge">
<title>SharedUiModule&#45;&gt;ConnectErrorComponent </title>
<path fill="none" stroke="#000000" stroke-dasharray="5,2" d="M1225.6521,-170C1033.0862,-170 413,-170 413,-170 413,-170 413,-219.9092 413,-219.9092"/>
<polygon fill="#000000" stroke="#000000" points="409.5001,-219.9091 413,-229.9092 416.5001,-219.9092 409.5001,-219.9091"/>
</g>
<!-- LoaderComponent  -->
<g id="node37" class="node">
<title>LoaderComponent </title>
<polygon fill="#fb8072" stroke="#000000" points="314.4757,-266 189.5243,-266 189.5243,-230 314.4757,-230 314.4757,-266"/>
<text text-anchor="middle" x="252" y="-243.8" font-family="Times,serif" font-size="14.00" fill="#000000">LoaderComponent </text>
</g>
<!-- SharedUiModule&#45;&gt;LoaderComponent  -->
<g id="edge34" class="edge">
<title>SharedUiModule&#45;&gt;LoaderComponent </title>
<path fill="none" stroke="#000000" stroke-dasharray="5,2" d="M1225.5239,-165C1010.0901,-165 252,-165 252,-165 252,-165 252,-219.9902 252,-219.9902"/>
<polygon fill="#000000" stroke="#000000" points="248.5001,-219.9902 252,-229.9902 255.5001,-219.9903 248.5001,-219.9902"/>
</g>
<!-- TabsPageModule -->
<g id="node39" class="node">
<title>TabsPageModule</title>
<polygon fill="#8dd3c7" stroke="#000000" points="3568.9734,-334 3565.9734,-338 3544.9734,-338 3541.9734,-334 3455.0266,-334 3455.0266,-298 3568.9734,-298 3568.9734,-334"/>
<text text-anchor="middle" x="3512" y="-311.8" font-family="Times,serif" font-size="14.00" fill="#000000">TabsPageModule</text>
</g>
<!-- SharedUiModule&#45;&gt;TabsPageModule -->
<g id="edge37" class="edge">
<title>SharedUiModule&#45;&gt;TabsPageModule</title>
<path fill="none" stroke="#000000" d="M1250.7724,-190.1643C1250.7724,-221.4073 1250.7724,-282 1250.7724,-282 1250.7724,-282 3493.0044,-282 3493.0044,-282 3493.0044,-282 3493.0044,-287.8056 3493.0044,-287.8056"/>
<polygon fill="#000000" stroke="#000000" points="3489.5045,-287.8055 3493.0044,-297.8056 3496.5045,-287.8056 3489.5045,-287.8055"/>
</g>
<!-- TreksPageModule -->
<g id="node41" class="node">
<title>TreksPageModule</title>
<polygon fill="#8dd3c7" stroke="#000000" points="3571.1346,-266 3568.1346,-270 3547.1346,-270 3544.1346,-266 3452.8654,-266 3452.8654,-230 3571.1346,-230 3571.1346,-266"/>
<text text-anchor="middle" x="3512" y="-243.8" font-family="Times,serif" font-size="14.00" fill="#000000">TreksPageModule</text>
</g>
<!-- SharedUiModule&#45;&gt;TreksPageModule -->
<g id="edge51" class="edge">
<title>SharedUiModule&#45;&gt;TreksPageModule</title>
<path fill="none" stroke="#000000" d="M1275.7545,-190.1097C1275.7545,-199.897 1275.7545,-210 1275.7545,-210 1275.7545,-210 3463.5705,-210 3463.5705,-210 3463.5705,-210 3463.5705,-219.8903 3463.5705,-219.8903"/>
<polygon fill="#000000" stroke="#000000" points="3460.0705,-219.8903 3463.5705,-229.8903 3467.0705,-219.8904 3460.0705,-219.8903"/>
</g>
<!-- TrekDetailsPageModule -->
<g id="node43" class="node">
<title>TrekDetailsPageModule</title>
<polygon fill="#8dd3c7" stroke="#000000" points="4027.3417,-266 4024.3417,-270 4003.3417,-270 4000.3417,-266 3874.6583,-266 3874.6583,-230 4027.3417,-230 4027.3417,-266"/>
<text text-anchor="middle" x="3951" y="-243.8" font-family="Times,serif" font-size="14.00" fill="#000000">TrekDetailsPageModule</text>
</g>
<!-- SharedUiModule&#45;&gt;TrekDetailsPageModule -->
<g id="edge42" class="edge">
<title>SharedUiModule&#45;&gt;TrekDetailsPageModule</title>
<path fill="none" stroke="#000000" d="M1288.2455,-190.0449C1288.2455,-197.749 1288.2455,-205 1288.2455,-205 1288.2455,-205 3885.4667,-205 3885.4667,-205 3885.4667,-205 3885.4667,-219.5146 3885.4667,-219.5146"/>
<polygon fill="#000000" stroke="#000000" points="3881.9667,-219.5145 3885.4667,-229.5146 3888.9667,-219.5146 3881.9667,-219.5145"/>
</g>
<!-- TrekMapPageModule -->
<g id="node45" class="node">
<title>TrekMapPageModule</title>
<polygon fill="#8dd3c7" stroke="#000000" points="4489.3487,-266 4486.3487,-270 4465.3487,-270 4462.3487,-266 4350.6513,-266 4350.6513,-230 4489.3487,-230 4489.3487,-266"/>
<text text-anchor="middle" x="4420" y="-243.8" font-family="Times,serif" font-size="14.00" fill="#000000">TrekMapPageModule</text>
</g>
<!-- SharedUiModule&#45;&gt;TrekMapPageModule -->
<g id="edge45" class="edge">
<title>SharedUiModule&#45;&gt;TrekMapPageModule</title>
<path fill="none" stroke="#000000" d="M1300.7366,-190.207C1300.7366,-195.5549 1300.7366,-200 1300.7366,-200 1300.7366,-200 4361.4631,-200 4361.4631,-200 4361.4631,-200 4361.4631,-219.8533 4361.4631,-219.8533"/>
<polygon fill="#000000" stroke="#000000" points="4357.9632,-219.8532 4361.4631,-229.8533 4364.9632,-219.8533 4357.9632,-219.8532"/>
</g>
<!-- TreksMapPageModule -->
<g id="node47" class="node">
<title>TreksMapPageModule</title>
<polygon fill="#8dd3c7" stroke="#000000" points="4657.2935,-266 4654.2935,-270 4633.2935,-270 4630.2935,-266 4512.7065,-266 4512.7065,-230 4657.2935,-230 4657.2935,-266"/>
<text text-anchor="middle" x="4585" y="-243.8" font-family="Times,serif" font-size="14.00" fill="#000000">TreksMapPageModule</text>
</g>
<!-- SharedUiModule&#45;&gt;TreksMapPageModule -->
<g id="edge48" class="edge">
<title>SharedUiModule&#45;&gt;TreksMapPageModule</title>
<path fill="none" stroke="#000000" d="M1313.2276,-190.1223C1313.2276,-192.9729 1313.2276,-195 1313.2276,-195 1313.2276,-195 4523.7409,-195 4523.7409,-195 4523.7409,-195 4523.7409,-219.7604 4523.7409,-219.7604"/>
<polygon fill="#000000" stroke="#000000" points="4520.2409,-219.7604 4523.7409,-229.7604 4527.2409,-219.7604 4520.2409,-219.7604"/>
</g>
<!-- LoadingInterceptor -->
<g id="node15" class="node">
<title>LoadingInterceptor</title>
<ellipse fill="#fdb462" stroke="#000000" cx="1595" cy="-172" rx="85.6551" ry="18"/>
<text text-anchor="middle" x="1595" y="-167.8" font-family="Times,serif" font-size="14.00" fill="#000000">LoadingInterceptor</text>
</g>
<!-- LoadingInterceptor&#45;&gt;AppModule -->
<g id="edge14" class="edge">
<title>LoadingInterceptor&#45;&gt;AppModule</title>
<path fill="none" stroke="#000000" d="M1595,-190.0109C1595,-212.4852 1595,-248 1595,-248 1595,-248 2257.2643,-248 2257.2643,-248"/>
<polygon fill="#000000" stroke="#000000" points="2257.2643,-251.5001 2267.2643,-248 2257.2642,-244.5001 2257.2643,-251.5001"/>
</g>
<!-- MoreItemPage -->
<g id="node16" class="node">
<title>MoreItemPage</title>
<polygon fill="#ffffb3" stroke="#000000" points="136.6882,-190 37.3118,-190 37.3118,-154 136.6882,-154 136.6882,-190"/>
<text text-anchor="middle" x="87" y="-167.8" font-family="Times,serif" font-size="14.00" fill="#000000">MoreItemPage</text>
</g>
<!-- MoreItemPage&#45;&gt;MoreItemPageModule -->
<g id="edge15" class="edge">
<title>MoreItemPage&#45;&gt;MoreItemPageModule</title>
<path fill="none" stroke="#000000" d="M87,-190.0109C87,-190.0109 87,-219.855 87,-219.855"/>
<polygon fill="#000000" stroke="#000000" points="83.5001,-219.8549 87,-229.855 90.5001,-219.855 83.5001,-219.8549"/>
</g>
<!-- MorePage -->
<g id="node18" class="node">
<title>MorePage</title>
<polygon fill="#ffffb3" stroke="#000000" points="3398.5331,-190 3325.4669,-190 3325.4669,-154 3398.5331,-154 3398.5331,-190"/>
<text text-anchor="middle" x="3362" y="-167.8" font-family="Times,serif" font-size="14.00" fill="#000000">MorePage</text>
</g>
<!-- MorePage&#45;&gt;MorePageModule -->
<g id="edge17" class="edge">
<title>MorePage&#45;&gt;MorePageModule</title>
<path fill="none" stroke="#000000" d="M3362,-190.0109C3362,-190.0109 3362,-219.855 3362,-219.855"/>
<polygon fill="#000000" stroke="#000000" points="3358.5001,-219.8549 3362,-229.855 3365.5001,-219.855 3358.5001,-219.8549"/>
</g>
<!-- MorePageModule&#45;&gt;TabsPageModule -->
<g id="edge36" class="edge">
<title>MorePageModule&#45;&gt;TabsPageModule</title>
<path fill="none" stroke="#000000" d="M3362,-266.2228C3362,-286.3652 3362,-316 3362,-316 3362,-316 3444.8635,-316 3444.8635,-316"/>
<polygon fill="#000000" stroke="#000000" points="3444.8636,-319.5001 3454.8635,-316 3444.8635,-312.5001 3444.8636,-319.5001"/>
</g>
<!-- GeolocateNotificationsComponent -->
<g id="node20" class="node">
<title>GeolocateNotificationsComponent</title>
<polygon fill="#ffffb3" stroke="#000000" points="5071.6727,-122 4860.3273,-122 4860.3273,-86 5071.6727,-86 5071.6727,-122"/>
<text text-anchor="middle" x="4966" y="-99.8" font-family="Times,serif" font-size="14.00" fill="#000000">GeolocateNotificationsComponent</text>
</g>
<!-- SharedModule -->
<g id="node23" class="node">
<title>SharedModule</title>
<polygon fill="#8dd3c7" stroke="#000000" points="4908.4231,-190 4905.4231,-194 4884.4231,-194 4881.4231,-190 4809.5769,-190 4809.5769,-154 4908.4231,-154 4908.4231,-190"/>
<text text-anchor="middle" x="4859" y="-167.8" font-family="Times,serif" font-size="14.00" fill="#000000">SharedModule</text>
</g>
<!-- GeolocateNotificationsComponent&#45;&gt;SharedModule -->
<g id="edge19" class="edge">
<title>GeolocateNotificationsComponent&#45;&gt;SharedModule</title>
<path fill="none" stroke="#000000" d="M4884.3124,-122.2228C4884.3124,-122.2228 4884.3124,-143.7269 4884.3124,-143.7269"/>
<polygon fill="#000000" stroke="#000000" points="4880.8125,-143.7269 4884.3124,-153.7269 4887.8125,-143.727 4880.8125,-143.7269"/>
</g>
<!-- MapTrekVizComponent -->
<g id="node21" class="node">
<title>MapTrekVizComponent</title>
<polygon fill="#ffffb3" stroke="#000000" points="4842.6316,-122 4689.3684,-122 4689.3684,-86 4842.6316,-86 4842.6316,-122"/>
<text text-anchor="middle" x="4766" y="-99.8" font-family="Times,serif" font-size="14.00" fill="#000000">MapTrekVizComponent</text>
</g>
<!-- MapTrekVizComponent&#45;&gt;SharedModule -->
<g id="edge20" class="edge">
<title>MapTrekVizComponent&#45;&gt;SharedModule</title>
<path fill="none" stroke="#000000" d="M4826.3023,-122.2228C4826.3023,-122.2228 4826.3023,-143.7269 4826.3023,-143.7269"/>
<polygon fill="#000000" stroke="#000000" points="4822.8023,-143.7269 4826.3023,-153.7269 4829.8023,-143.727 4822.8023,-143.7269"/>
</g>
<!-- MapTreksVizComponent -->
<g id="node22" class="node">
<title>MapTreksVizComponent</title>
<polygon fill="#ffffb3" stroke="#000000" points="5248.5758,-122 5089.4242,-122 5089.4242,-86 5248.5758,-86 5248.5758,-122"/>
<text text-anchor="middle" x="5169" y="-99.8" font-family="Times,serif" font-size="14.00" fill="#000000">MapTreksVizComponent</text>
</g>
<!-- MapTreksVizComponent&#45;&gt;SharedModule -->
<g id="edge21" class="edge">
<title>MapTreksVizComponent&#45;&gt;SharedModule</title>
<path fill="none" stroke="#000000" d="M5169,-122.2667C5169,-140.5552 5169,-166 5169,-166 5169,-166 4918.4632,-166 4918.4632,-166"/>
<polygon fill="#000000" stroke="#000000" points="4918.4632,-162.5001 4908.4632,-166 4918.4632,-169.5001 4918.4632,-162.5001"/>
</g>
<!-- GeolocateNotificationsComponent  -->
<g id="node24" class="node">
<title>GeolocateNotificationsComponent </title>
<polygon fill="#fb8072" stroke="#000000" points="5259.1728,-266 5044.8272,-266 5044.8272,-230 5259.1728,-230 5259.1728,-266"/>
<text text-anchor="middle" x="5152" y="-243.8" font-family="Times,serif" font-size="14.00" fill="#000000">GeolocateNotificationsComponent </text>
</g>
<!-- SharedModule&#45;&gt;GeolocateNotificationsComponent  -->
<g id="edge22" class="edge">
<title>SharedModule&#45;&gt;GeolocateNotificationsComponent </title>
<path fill="none" stroke="#000000" stroke-dasharray="5,2" d="M4908.2219,-178C4967.1885,-178 5058.125,-178 5058.125,-178 5058.125,-178 5058.125,-219.9733 5058.125,-219.9733"/>
<polygon fill="#000000" stroke="#000000" points="5054.6251,-219.9732 5058.125,-229.9733 5061.6251,-219.9733 5054.6251,-219.9732"/>
</g>
<!-- MapTrekVizComponent  -->
<g id="node25" class="node">
<title>MapTrekVizComponent </title>
<polygon fill="#fb8072" stroke="#000000" points="5026.6313,-266 4869.3687,-266 4869.3687,-230 5026.6313,-230 5026.6313,-266"/>
<text text-anchor="middle" x="4948" y="-243.8" font-family="Times,serif" font-size="14.00" fill="#000000">MapTrekVizComponent </text>
</g>
<!-- SharedModule&#45;&gt;MapTrekVizComponent  -->
<g id="edge23" class="edge">
<title>SharedModule&#45;&gt;MapTrekVizComponent </title>
<path fill="none" stroke="#000000" stroke-dasharray="5,2" d="M4888.8228,-190.0109C4888.8228,-190.0109 4888.8228,-219.855 4888.8228,-219.855"/>
<polygon fill="#000000" stroke="#000000" points="4885.3228,-219.8549 4888.8228,-229.855 4892.3228,-219.855 4885.3228,-219.8549"/>
</g>
<!-- MapTreksVizComponent  -->
<g id="node26" class="node">
<title>MapTreksVizComponent </title>
<polygon fill="#fb8072" stroke="#000000" points="4851.0764,-266 4688.9236,-266 4688.9236,-230 4851.0764,-230 4851.0764,-266"/>
<text text-anchor="middle" x="4770" y="-243.8" font-family="Times,serif" font-size="14.00" fill="#000000">MapTreksVizComponent </text>
</g>
<!-- SharedModule&#45;&gt;MapTreksVizComponent  -->
<g id="edge24" class="edge">
<title>SharedModule&#45;&gt;MapTreksVizComponent </title>
<path fill="none" stroke="#000000" stroke-dasharray="5,2" d="M4837.4549,-190.0109C4837.4549,-190.0109 4837.4549,-219.855 4837.4549,-219.855"/>
<polygon fill="#000000" stroke="#000000" points="4833.955,-219.8549 4837.4549,-229.855 4840.955,-219.855 4833.955,-219.8549"/>
</g>
<!-- SharedModule&#45;&gt;TrekMapPageModule -->
<g id="edge44" class="edge">
<title>SharedModule&#45;&gt;TrekMapPageModule</title>
<path fill="none" stroke="#000000" d="M4823.6219,-190.2396C4823.6219,-205.5706 4823.6219,-225 4823.6219,-225 4823.6219,-225 4478.5369,-225 4478.5369,-225 4478.5369,-225 4478.5369,-225.4878 4478.5369,-225.4878"/>
<polygon fill="#000000" stroke="#000000" points="4475.0371,-219.8776 4478.5369,-229.8777 4482.0371,-219.8778 4475.0371,-219.8776"/>
</g>
<!-- SharedModule&#45;&gt;TreksMapPageModule -->
<g id="edge47" class="edge">
<title>SharedModule&#45;&gt;TreksMapPageModule</title>
<path fill="none" stroke="#000000" d="M4809.6583,-172C4746.8124,-172 4646.2592,-172 4646.2592,-172 4646.2592,-172 4646.2592,-219.9891 4646.2592,-219.9891"/>
<polygon fill="#000000" stroke="#000000" points="4642.7592,-219.989 4646.2592,-229.9891 4649.7592,-219.9891 4642.7592,-219.989"/>
</g>
<!-- PoiComponent -->
<g id="node27" class="node">
<title>PoiComponent</title>
<polygon fill="#ffffb3" stroke="#000000" points="4311.0056,-122 4210.9944,-122 4210.9944,-86 4311.0056,-86 4311.0056,-122"/>
<text text-anchor="middle" x="4261" y="-99.8" font-family="Times,serif" font-size="14.00" fill="#000000">PoiComponent</text>
</g>
<!-- SharedTreksModule -->
<g id="node29" class="node">
<title>SharedTreksModule</title>
<polygon fill="#8dd3c7" stroke="#000000" points="4186.2949,-190 4183.2949,-194 4162.2949,-194 4159.2949,-190 4055.7051,-190 4055.7051,-154 4186.2949,-154 4186.2949,-190"/>
<text text-anchor="middle" x="4121" y="-167.8" font-family="Times,serif" font-size="14.00" fill="#000000">SharedTreksModule</text>
</g>
<!-- PoiComponent&#45;&gt;SharedTreksModule -->
<g id="edge25" class="edge">
<title>PoiComponent&#45;&gt;SharedTreksModule</title>
<path fill="none" stroke="#000000" d="M4261,-122.2667C4261,-140.5552 4261,-166 4261,-166 4261,-166 4196.4911,-166 4196.4911,-166"/>
<polygon fill="#000000" stroke="#000000" points="4196.4911,-162.5001 4186.4911,-166 4196.491,-169.5001 4196.4911,-162.5001"/>
</g>
<!-- TrekCardComponent -->
<g id="node28" class="node">
<title>TrekCardComponent</title>
<polygon fill="#ffffb3" stroke="#000000" points="4193.472,-122 4058.528,-122 4058.528,-86 4193.472,-86 4193.472,-122"/>
<text text-anchor="middle" x="4126" y="-99.8" font-family="Times,serif" font-size="14.00" fill="#000000">TrekCardComponent</text>
</g>
<!-- TrekCardComponent&#45;&gt;SharedTreksModule -->
<g id="edge26" class="edge">
<title>TrekCardComponent&#45;&gt;SharedTreksModule</title>
<path fill="none" stroke="#000000" d="M4122.3307,-122.2228C4122.3307,-122.2228 4122.3307,-143.7269 4122.3307,-143.7269"/>
<polygon fill="#000000" stroke="#000000" points="4118.8307,-143.7269 4122.3307,-153.7269 4125.8307,-143.727 4118.8307,-143.7269"/>
</g>
<!-- PoiComponent  -->
<g id="node30" class="node">
<title>PoiComponent </title>
<polygon fill="#fb8072" stroke="#000000" points="4162.5068,-266 4059.4932,-266 4059.4932,-230 4162.5068,-230 4162.5068,-266"/>
<text text-anchor="middle" x="4111" y="-243.8" font-family="Times,serif" font-size="14.00" fill="#000000">PoiComponent </text>
</g>
<!-- SharedTreksModule&#45;&gt;PoiComponent  -->
<g id="edge27" class="edge">
<title>SharedTreksModule&#45;&gt;PoiComponent </title>
<path fill="none" stroke="#000000" stroke-dasharray="5,2" d="M4128.2509,-190.0109C4128.2509,-190.0109 4128.2509,-219.855 4128.2509,-219.855"/>
<polygon fill="#000000" stroke="#000000" points="4124.751,-219.8549 4128.2509,-229.855 4131.751,-219.855 4124.751,-219.8549"/>
</g>
<!-- TrekCardComponent  -->
<g id="node31" class="node">
<title>TrekCardComponent </title>
<polygon fill="#fb8072" stroke="#000000" points="4319.4728,-266 4180.5272,-266 4180.5272,-230 4319.4728,-230 4319.4728,-266"/>
<text text-anchor="middle" x="4250" y="-243.8" font-family="Times,serif" font-size="14.00" fill="#000000">TrekCardComponent </text>
</g>
<!-- SharedTreksModule&#45;&gt;TrekCardComponent  -->
<g id="edge28" class="edge">
<title>SharedTreksModule&#45;&gt;TrekCardComponent </title>
<path fill="none" stroke="#000000" stroke-dasharray="5,2" d="M4186.4975,-178C4188.6028,-178 4189.8167,-178 4189.8167,-178 4189.8167,-178 4189.8167,-219.9733 4189.8167,-219.9733"/>
<polygon fill="#000000" stroke="#000000" points="4186.3167,-219.9732 4189.8167,-229.9733 4193.3167,-219.9733 4186.3167,-219.9732"/>
</g>
<!-- SharedTreksModule&#45;&gt;TreksPageModule -->
<g id="edge50" class="edge">
<title>SharedTreksModule&#45;&gt;TreksPageModule</title>
<path fill="none" stroke="#000000" d="M4093.7491,-190.1467C4093.7491,-203.7395 4093.7491,-220 4093.7491,-220 4093.7491,-220 3560.4296,-220 3560.4296,-220 3560.4296,-220 3560.4296,-220.9793 3560.4296,-220.9793"/>
<polygon fill="#000000" stroke="#000000" points="3556.9297,-219.793 3560.4296,-229.793 3563.9297,-219.7931 3556.9297,-219.793"/>
</g>
<!-- SharedTreksModule&#45;&gt;TrekDetailsPageModule -->
<g id="edge41" class="edge">
<title>SharedTreksModule&#45;&gt;TrekDetailsPageModule</title>
<path fill="none" stroke="#000000" d="M4055.7301,-172C4034.6133,-172 4016.5334,-172 4016.5334,-172 4016.5334,-172 4016.5334,-219.9891 4016.5334,-219.9891"/>
<polygon fill="#000000" stroke="#000000" points="4013.0334,-219.989 4016.5334,-229.9891 4020.0334,-219.9891 4013.0334,-219.989"/>
</g>
<!-- CollapsibleListComponent -->
<g id="node32" class="node">
<title>CollapsibleListComponent</title>
<polygon fill="#ffffb3" stroke="#000000" points="1186.3836,-266 1019.6164,-266 1019.6164,-230 1186.3836,-230 1186.3836,-266"/>
<text text-anchor="middle" x="1103" y="-243.8" font-family="Times,serif" font-size="14.00" fill="#000000">CollapsibleListComponent</text>
</g>
<!-- CollapsibleListComponent&#45;&gt;SharedUiModule -->
<g id="edge29" class="edge">
<title>CollapsibleListComponent&#45;&gt;SharedUiModule</title>
<path fill="none" stroke="#000000" d="M1186.7514,-262C1214.4266,-262 1238.2813,-262 1238.2813,-262 1238.2813,-262 1238.2813,-200.2128 1238.2813,-200.2128"/>
<polygon fill="#000000" stroke="#000000" points="1241.7814,-200.2128 1238.2813,-190.2128 1234.7814,-200.2129 1241.7814,-200.2128"/>
</g>
<!-- ConnectErrorComponent -->
<g id="node33" class="node">
<title>ConnectErrorComponent</title>
<polygon fill="#ffffb3" stroke="#000000" points="1001.5239,-266 844.4761,-266 844.4761,-230 1001.5239,-230 1001.5239,-266"/>
<text text-anchor="middle" x="923" y="-243.8" font-family="Times,serif" font-size="14.00" fill="#000000">ConnectErrorComponent</text>
</g>
<!-- ConnectErrorComponent&#45;&gt;SharedUiModule -->
<g id="edge30" class="edge">
<title>ConnectErrorComponent&#45;&gt;SharedUiModule</title>
<path fill="none" stroke="#000000" d="M923,-229.7778C923,-211.1715 923,-185 923,-185 923,-185 1215.5113,-185 1215.5113,-185"/>
<polygon fill="#000000" stroke="#000000" points="1215.5114,-188.5001 1225.5113,-185 1215.5113,-181.5001 1215.5114,-188.5001"/>
</g>
<!-- LoaderComponent -->
<g id="node34" class="node">
<title>LoaderComponent</title>
<polygon fill="#ffffb3" stroke="#000000" points="826.4748,-266 705.5252,-266 705.5252,-230 826.4748,-230 826.4748,-266"/>
<text text-anchor="middle" x="766" y="-243.8" font-family="Times,serif" font-size="14.00" fill="#000000">LoaderComponent</text>
</g>
<!-- LoaderComponent&#45;&gt;SharedUiModule -->
<g id="edge31" class="edge">
<title>LoaderComponent&#45;&gt;SharedUiModule</title>
<path fill="none" stroke="#000000" d="M766,-229.7772C766,-209.6348 766,-180 766,-180 766,-180 1215.3029,-180 1215.3029,-180"/>
<polygon fill="#000000" stroke="#000000" points="1215.303,-183.5001 1225.3029,-180 1215.3029,-176.5001 1215.303,-183.5001"/>
</g>
<!-- TabsPage -->
<g id="node38" class="node">
<title>TabsPage</title>
<polygon fill="#ffffb3" stroke="#000000" points="3843.4249,-266 3772.5751,-266 3772.5751,-230 3843.4249,-230 3843.4249,-266"/>
<text text-anchor="middle" x="3808" y="-243.8" font-family="Times,serif" font-size="14.00" fill="#000000">TabsPage</text>
</g>
<!-- TabsPage&#45;&gt;TabsPageModule -->
<g id="edge35" class="edge">
<title>TabsPage&#45;&gt;TabsPageModule</title>
<path fill="none" stroke="#000000" d="M3808,-266.2921C3808,-288.2057 3808,-322 3808,-322 3808,-322 3579.0718,-322 3579.0718,-322"/>
<polygon fill="#000000" stroke="#000000" points="3579.0718,-318.5001 3569.0718,-322 3579.0717,-325.5001 3579.0718,-318.5001"/>
</g>
<!-- TabsPageRoutingModule -->
<g id="node40" class="node">
<title>TabsPageRoutingModule</title>
<polygon fill="#8dd3c7" stroke="#000000" points="3748.5912,-266 3745.5912,-270 3724.5912,-270 3721.5912,-266 3589.4088,-266 3589.4088,-230 3748.5912,-230 3748.5912,-266"/>
<text text-anchor="middle" x="3669" y="-243.8" font-family="Times,serif" font-size="14.00" fill="#000000">TabsPageRoutingModule</text>
</g>
<!-- TabsPageRoutingModule&#45;&gt;TabsPageModule -->
<g id="edge38" class="edge">
<title>TabsPageRoutingModule&#45;&gt;TabsPageModule</title>
<path fill="none" stroke="#000000" d="M3669,-266.2667C3669,-284.5552 3669,-310 3669,-310 3669,-310 3579.1247,-310 3579.1247,-310"/>
<polygon fill="#000000" stroke="#000000" points="3579.1248,-306.5001 3569.1247,-310 3579.1247,-313.5001 3579.1248,-306.5001"/>
</g>
<!-- TreksPageModule&#45;&gt;TabsPageModule -->
<g id="edge39" class="edge">
<title>TreksPageModule&#45;&gt;TabsPageModule</title>
<path fill="none" stroke="#000000" d="M3530.9956,-266.2228C3530.9956,-266.2228 3530.9956,-287.7269 3530.9956,-287.7269"/>
<polygon fill="#000000" stroke="#000000" points="3527.4957,-287.7269 3530.9956,-297.7269 3534.4957,-287.727 3527.4957,-287.7269"/>
</g>
<!-- TrekDetailsPage -->
<g id="node42" class="node">
<title>TrekDetailsPage</title>
<polygon fill="#ffffb3" stroke="#000000" points="4005.7922,-190 3896.2078,-190 3896.2078,-154 4005.7922,-154 4005.7922,-190"/>
<text text-anchor="middle" x="3951" y="-167.8" font-family="Times,serif" font-size="14.00" fill="#000000">TrekDetailsPage</text>
</g>
<!-- TrekDetailsPage&#45;&gt;TrekDetailsPageModule -->
<g id="edge40" class="edge">
<title>TrekDetailsPage&#45;&gt;TrekDetailsPageModule</title>
<path fill="none" stroke="#000000" d="M3951,-190.0109C3951,-190.0109 3951,-219.855 3951,-219.855"/>
<polygon fill="#000000" stroke="#000000" points="3947.5001,-219.8549 3951,-229.855 3954.5001,-219.855 3947.5001,-219.8549"/>
</g>
<!-- TrekMapPage -->
<g id="node44" class="node">
<title>TrekMapPage</title>
<polygon fill="#ffffb3" stroke="#000000" points="4467.7993,-190 4372.2007,-190 4372.2007,-154 4467.7993,-154 4467.7993,-190"/>
<text text-anchor="middle" x="4420" y="-167.8" font-family="Times,serif" font-size="14.00" fill="#000000">TrekMapPage</text>
</g>
<!-- TrekMapPage&#45;&gt;TrekMapPageModule -->
<g id="edge43" class="edge">
<title>TrekMapPage&#45;&gt;TrekMapPageModule</title>
<path fill="none" stroke="#000000" d="M4420,-190.0109C4420,-190.0109 4420,-219.855 4420,-219.855"/>
<polygon fill="#000000" stroke="#000000" points="4416.5001,-219.8549 4420,-229.855 4423.5001,-219.855 4416.5001,-219.8549"/>
</g>
<!-- TreksMapPage -->
<g id="node46" class="node">
<title>TreksMapPage</title>
<polygon fill="#ffffb3" stroke="#000000" points="4635.2437,-190 4534.7563,-190 4534.7563,-154 4635.2437,-154 4635.2437,-190"/>
<text text-anchor="middle" x="4585" y="-167.8" font-family="Times,serif" font-size="14.00" fill="#000000">TreksMapPage</text>
</g>
<!-- TreksMapPage&#45;&gt;TreksMapPageModule -->
<g id="edge46" class="edge">
<title>TreksMapPage&#45;&gt;TreksMapPageModule</title>
<path fill="none" stroke="#000000" d="M4585,-190.0109C4585,-190.0109 4585,-219.855 4585,-219.855"/>
<polygon fill="#000000" stroke="#000000" points="4581.5001,-219.8549 4585,-229.855 4588.5001,-219.855 4581.5001,-219.8549"/>
</g>
<!-- TreksPage -->
<g id="node48" class="node">
<title>TreksPage</title>
<polygon fill="#ffffb3" stroke="#000000" points="3549.5842,-190 3474.4158,-190 3474.4158,-154 3549.5842,-154 3549.5842,-190"/>
<text text-anchor="middle" x="3512" y="-167.8" font-family="Times,serif" font-size="14.00" fill="#000000">TreksPage</text>
</g>
<!-- TreksPage&#45;&gt;TreksPageModule -->
<g id="edge49" class="edge">
<title>TreksPage&#45;&gt;TreksPageModule</title>
<path fill="none" stroke="#000000" d="M3512,-190.0109C3512,-190.0109 3512,-219.855 3512,-219.855"/>
<polygon fill="#000000" stroke="#000000" points="3508.5001,-219.8549 3512,-229.855 3515.5001,-219.855 3508.5001,-219.8549"/>
</g>
</g>
</svg>
