<svg xmlns="http://www.w3.org/2000/svg" version="1.0" width="512.000000" height="512.000000" preserveAspectRatio="xMidYMid meet"><rect id="backgroundrect" width="100%" height="100%" x="0" y="0" fill="none" stroke="none"/>


<g class="currentLayer" style=""><title>Layer 1</title><g transform="translate(0,512) scale(0.10000000149011612,-0.10000000149011612) " fill="#9d6bc9" stroke="none" id="svg_1" class="selected" fill-opacity="1">
<path d="M540 4841 c-99 -31 -187 -106 -236 -201 l-29 -55 0 -745 0 -745 29 -55 c38 -74 98 -135 171 -173 l60 -32 745 0 745 0 55 28 c73 38 135 99 173 172 l32 60 0 745 0 745 -32 60 c-38 73 -100 134 -173 172 l-55 28 -730 2 c-401 1 -741 -2 -755 -6z" id="svg_2" fill="#9d6bc9"/>
<path d="M3100 4841 c-99 -31 -187 -106 -236 -201 l-29 -55 0 -745 0 -745 29 -55 c38 -74 98 -135 171 -173 l60 -32 745 0 745 0 55 28 c73 38 135 99 173 172 l32 60 0 745 0 745 -32 60 c-38 73 -100 134 -173 172 l-55 28 -730 2 c-401 1 -741 -2 -755 -6z" id="svg_3" fill="#9d6bc9"/>
<path d="M3750 2386 c-101 -28 -119 -43 -546 -470 -449 -449 -454 -454 -476 -575 -14 -72 -2 -150 33 -227 32 -72 841 -881 913 -913 111 -51 227 -51 334 0 71 33 880 844 911 913 35 76 47 155 34 224 -23 123 -28 129 -462 565 -223 224 -426 421 -451 437 -83 53 -198 72 -290 46z" id="svg_4" fill="#9d6bc9"/>
<path d="M540 2281 c-99 -31 -187 -106 -236 -201 l-29 -55 0 -745 0 -745 29 -55 c38 -74 98 -135 171 -173 l60 -32 745 0 745 0 55 28 c73 38 135 99 173 172 l32 60 0 745 0 745 -32 60 c-38 73 -100 134 -173 172 l-55 28 -730 2 c-401 1 -741 -2 -755 -6z" id="svg_5" fill="#9d6bc9"/>
</g></g></svg>