<?xml version="1.0" encoding="utf-8"?>
<!-- Generator: Adobe Illustrator 18.0.0, SVG Export Plug-In . SVG Version: 6.00 Build 0)  -->
<!DOCTYPE svg PUBLIC "-//W3C//DTD SVG 1.1//EN" "http://www.w3.org/Graphics/SVG/1.1/DTD/svg11.dtd">
<svg version="1.1" id="Calque_1" xmlns="http://www.w3.org/2000/svg" xmlns:xlink="http://www.w3.org/1999/xlink" x="0px" y="0px"
	 viewBox="0 0 317.4 160" enable-background="new 0 0 317.4 160" xml:space="preserve">
<g>
	<g>
		
			<line fill="none" stroke="#383933" stroke-width="7" stroke-linecap="round" stroke-miterlimit="10" x1="3.5" y1="22.9" x2="59.1" y2="23"/>
		
			<line fill="none" stroke="#383933" stroke-width="7" stroke-linecap="round" stroke-miterlimit="10" x1="72.7" y1="23" x2="80.9" y2="23.1"/>
	</g>
	<g>
		
			<line fill="none" stroke="#383933" stroke-width="7" stroke-linecap="round" stroke-miterlimit="10" x1="313.9" y1="141.1" x2="258.3" y2="141"/>
		
			<line fill="none" stroke="#383933" stroke-width="7" stroke-linecap="round" stroke-miterlimit="10" x1="244.7" y1="141" x2="236.5" y2="140.9"/>
	</g>
	<g>
		<g>
			<path fill="#9D6BC9" d="M175.2,62.2c-16.5,0-30,13.5-30,30c0,16.5,13.5,30,30,30c16.5,0,30-13.5,30-30S191.7,62.2,175.2,62.2z"/>
		</g>
	</g>
	<g>
		<g>
			<path fill="#383933" d="M161,67.3c-7,0-12.7,5.7-12.7,12.7c0,7,5.7,12.7,12.7,12.7c7,0,12.7-5.7,12.7-12.7
				C173.7,73,168,67.3,161,67.3z M161,86.4c-3.5,0-6.4-2.8-6.4-6.3c0-3.5,2.8-6.4,6.3-6.4c3.5,0,6.4,2.8,6.4,6.3
				C167.4,83.5,164.5,86.4,161,86.4z"/>
			<path fill="#383933" d="M237.8,76.8l-38.1,0c-1.5-18.9-16.7-34-35.5-35.5l0-38.1c0-1.8-1.4-3.2-3.2-3.2c-1.8,0-3.2,1.4-3.2,3.2
				l0,38.1c-18.9,1.5-34,16.7-35.5,35.5l-38.1,0c-1.8,0-3.2,1.4-3.2,3.2c0,1.8,1.4,3.2,3.2,3.2l38.1,0c1.5,18.9,16.7,34,35.6,35.5
				l0,38.1c0,1.8,1.4,3.2,3.2,3.2c1.8,0,3.2-1.4,3.2-3.2l0-38.1c18.9-1.5,34-16.7,35.5-35.5l38.1,0c1.8,0,3.2-1.4,3.2-3.2
				C241,78.2,239.6,76.8,237.8,76.8z M161,112.5c-17.9,0-32.5-14.6-32.5-32.5c0-17.9,14.6-32.5,32.5-32.5
				c17.9,0,32.5,14.6,32.5,32.5C193.5,97.9,178.9,112.5,161,112.5z"/>
		</g>
	</g>
</g>
</svg>
