<svg xmlns="http://www.w3.org/2000/svg" version="1.0" width="512.000000" height="512.000000" preserveAspectRatio="xMidYMid meet" style=""><rect id="backgroundrect" width="100%" height="100%" x="0" y="0" fill="none" stroke="none"/>


<g class="currentLayer" style=""><title>Layer 1</title><g transform="translate(0,512) scale(0.10000000149011612,-0.10000000149011612) " fill="#9d6bc9" stroke="none" id="svg_1" class="selected" fill-opacity="1">
<path d="M930 5110 c-160 -21 -218 -48 -246 -117 -19 -44 -17 -77 5 -121 11 -20 113 -129 226 -242 214 -212 254 -259 274 -323 21 -62 15 -151 -12 -212 -67 -145 -230 -211 -384 -153 -52 19 -82 44 -293 253 -129 128 -245 238 -257 244 -30 15 -88 14 -121 -3 -67 -35 -94 -101 -112 -276 -31 -299 81 -609 301 -829 93 -93 172 -149 290 -205 157 -76 234 -91 439 -90 138 1 195 5 270 22 l95 21 838 -837 838 -838 -22 -94 c-18 -79 -22 -125 -22 -275 -1 -210 13 -277 87 -432 61 -126 111 -197 207 -293 152 -152 326 -245 544 -291 137 -29 429 -7 505 38 57 33 84 115 59 180 -5 15 -113 132 -238 258 -145 146 -237 246 -251 275 -15 30 -25 69 -28 115 -13 220 195 371 405 294 52 -20 81 -44 293 -255 129 -128 248 -238 263 -243 43 -17 85 -13 127 10 47 27 66 60 84 145 101 480 -142 960 -589 1167 -147 68 -216 81 -420 81 -148 -1 -197 -5 -275 -22 l-95 -22 -837 837 c-580 580 -836 843 -832 853 28 71 47 207 48 335 0 187 -26 306 -104 466 -97 200 -272 378 -467 477 -171 88 -402 127 -593 102z" id="svg_2" fill="#9d6bc9"/>
<path d="M4652 5105 c-51 -23 -804 -475 -830 -499 -60 -54 -70 -139 -23 -202 15 -21 38 -48 50 -58 l22 -20 -503 -503 -503 -503 213 -212 212 -213 503 503 503 503 34 -37 c66 -69 109 -94 160 -94 86 0 93 9 347 430 287 475 287 476 278 536 -6 43 -17 57 -138 181 -73 74 -148 148 -169 164 -44 36 -109 46 -156 24z" id="svg_3" fill="#9d6bc9"/>
<path d="M854 1698 c-723 -724 -753 -756 -788 -828 -117 -241 -74 -504 113 -691 161 -161 386 -217 601 -150 136 43 142 48 928 834 l742 742 -423 423 -422 422 -751 -752z m883 97 c51 -22 70 -40 88 -90 14 -35 15 -49 5 -86 -10 -39 -61 -93 -483 -516 -259 -260 -486 -480 -503 -488 -128 -61 -260 71 -199 199 22 46 942 962 985 980 45 19 62 20 107 1z" id="svg_4" fill="#9d6bc9"/>
</g></g></svg>