<?xml version="1.0" encoding="UTF-8" standalone="no"?>
<!DOCTYPE svg PUBLIC "-//W3C//DTD SVG 1.1//EN"
 "http://www.w3.org/Graphics/SVG/1.1/DTD/svg11.dtd">
<!-- Generated by graphviz version 2.40.1 (20161225.0304)
 -->
<!-- Title: dependencies Pages: 1 -->
<svg width="2100pt" height="284pt"
 viewBox="0.00 0.00 2100.00 284.00" xmlns="http://www.w3.org/2000/svg" xmlns:xlink="http://www.w3.org/1999/xlink">
<g id="graph0" class="graph" transform="scale(1 1) rotate(0) translate(4 280)">
<title>dependencies</title>
<polygon fill="#ffffff" stroke="transparent" points="-4,4 -4,-280 2096,-280 2096,4 -4,4"/>
<text text-anchor="start" x="1025.0091" y="-42.4" font-family="sans-serif" font-weight="bold" font-size="14.00" fill="#000000">Legend</text>
<polygon fill="#ffffb3" stroke="transparent" points="812,-10 812,-30 832,-30 832,-10 812,-10"/>
<text text-anchor="start" x="835.629" y="-15.4" font-family="sans-serif" font-size="14.00" fill="#000000"> &#160;Declarations</text>
<polygon fill="#8dd3c7" stroke="transparent" points="925,-10 925,-30 945,-30 945,-10 925,-10"/>
<text text-anchor="start" x="948.7251" y="-15.4" font-family="sans-serif" font-size="14.00" fill="#000000"> &#160;Module</text>
<polygon fill="#80b1d3" stroke="transparent" points="1011,-10 1011,-30 1031,-30 1031,-10 1011,-10"/>
<text text-anchor="start" x="1034.7812" y="-15.4" font-family="sans-serif" font-size="14.00" fill="#000000"> &#160;Bootstrap</text>
<polygon fill="#fdb462" stroke="transparent" points="1108,-10 1108,-30 1128,-30 1128,-10 1108,-10"/>
<text text-anchor="start" x="1131.6732" y="-15.4" font-family="sans-serif" font-size="14.00" fill="#000000"> &#160;Providers</text>
<polygon fill="#fb8072" stroke="transparent" points="1204,-10 1204,-30 1224,-30 1224,-10 1204,-10"/>
<text text-anchor="start" x="1227.7258" y="-15.4" font-family="sans-serif" font-size="14.00" fill="#000000"> &#160;Exports</text>
<g id="clust1" class="cluster">
<title>cluster_AppModule</title>
<polygon fill="none" stroke="#000000" stroke-dasharray="1,5" points="8,-70 8,-268 2084,-268 2084,-70 8,-70"/>
</g>
<g id="clust2" class="cluster">
<title>cluster_AppModule_declarations</title>
<polygon fill="none" stroke="#000000" points="495,-78 495,-130 2076,-130 2076,-78 495,-78"/>
</g>
<g id="clust13" class="cluster">
<title>cluster_AppModule_imports</title>
<polygon fill="none" stroke="#000000" points="212,-78 212,-130 487,-130 487,-78 212,-78"/>
</g>
<g id="clust15" class="cluster">
<title>cluster_AppModule_bootstrap</title>
<polygon fill="none" stroke="#000000" points="960,-208 960,-260 1084,-260 1084,-208 960,-208"/>
</g>
<g id="clust16" class="cluster">
<title>cluster_AppModule_providers</title>
<polygon fill="none" stroke="#000000" points="16,-78 16,-130 204,-130 204,-78 16,-78"/>
</g>
<!-- AppComponent -->
<g id="node1" class="node">
<title>AppComponent</title>
<polygon fill="#ffffb3" stroke="#000000" points="2067.9399,-122 1962.0601,-122 1962.0601,-86 2067.9399,-86 2067.9399,-122"/>
<text text-anchor="middle" x="2015" y="-99.8" font-family="Times,serif" font-size="14.00" fill="#000000">AppComponent</text>
</g>
<!-- AppModule -->
<g id="node11" class="node">
<title>AppModule</title>
<polygon fill="#8dd3c7" stroke="#000000" points="1063.6571,-187 1060.6571,-191 1039.6571,-191 1036.6571,-187 980.3429,-187 980.3429,-151 1063.6571,-151 1063.6571,-187"/>
<text text-anchor="middle" x="1022" y="-164.8" font-family="Times,serif" font-size="14.00" fill="#000000">AppModule</text>
</g>
<!-- AppComponent&#45;&gt;AppModule -->
<g id="edge1" class="edge">
<title>AppComponent&#45;&gt;AppModule</title>
<path fill="none" stroke="#000000" d="M2015,-122.0908C2015,-145.1328 2015,-182 2015,-182 2015,-182 1073.7182,-182 1073.7182,-182"/>
<polygon fill="#000000" stroke="#000000" points="1073.7182,-178.5001 1063.7182,-182 1073.7182,-185.5001 1073.7182,-178.5001"/>
</g>
<!-- FilterComponent -->
<g id="node2" class="node">
<title>FilterComponent</title>
<polygon fill="#ffffb3" stroke="#000000" points="1943.6625,-122 1832.3375,-122 1832.3375,-86 1943.6625,-86 1943.6625,-122"/>
<text text-anchor="middle" x="1888" y="-99.8" font-family="Times,serif" font-size="14.00" fill="#000000">FilterComponent</text>
</g>
<!-- FilterComponent&#45;&gt;AppModule -->
<g id="edge2" class="edge">
<title>FilterComponent&#45;&gt;AppModule</title>
<path fill="none" stroke="#000000" d="M1888,-122.0449C1888,-143.6623 1888,-177 1888,-177 1888,-177 1073.769,-177 1073.769,-177"/>
<polygon fill="#000000" stroke="#000000" points="1073.769,-173.5001 1063.769,-177 1073.7689,-180.5001 1073.769,-173.5001"/>
</g>
<!-- FilterValueComponent -->
<g id="node3" class="node">
<title>FilterValueComponent</title>
<polygon fill="#ffffb3" stroke="#000000" points="1814.5884,-122 1669.4116,-122 1669.4116,-86 1814.5884,-86 1814.5884,-122"/>
<text text-anchor="middle" x="1742" y="-99.8" font-family="Times,serif" font-size="14.00" fill="#000000">FilterValueComponent</text>
</g>
<!-- FilterValueComponent&#45;&gt;AppModule -->
<g id="edge3" class="edge">
<title>FilterValueComponent&#45;&gt;AppModule</title>
<path fill="none" stroke="#000000" d="M1742,-122.2228C1742,-142.3652 1742,-172 1742,-172 1742,-172 1073.8223,-172 1073.8223,-172"/>
<polygon fill="#000000" stroke="#000000" points="1073.8224,-168.5001 1063.8223,-172 1073.8223,-175.5001 1073.8224,-168.5001"/>
</g>
<!-- FiltersComponent -->
<g id="node4" class="node">
<title>FiltersComponent</title>
<polygon fill="#ffffb3" stroke="#000000" points="1651.6066,-122 1534.3934,-122 1534.3934,-86 1651.6066,-86 1651.6066,-122"/>
<text text-anchor="middle" x="1593" y="-99.8" font-family="Times,serif" font-size="14.00" fill="#000000">FiltersComponent</text>
</g>
<!-- FiltersComponent&#45;&gt;AppModule -->
<g id="edge4" class="edge">
<title>FiltersComponent&#45;&gt;AppModule</title>
<path fill="none" stroke="#000000" d="M1593,-122.2222C1593,-140.8285 1593,-167 1593,-167 1593,-167 1073.987,-167 1073.987,-167"/>
<polygon fill="#000000" stroke="#000000" points="1073.987,-163.5001 1063.987,-167 1073.987,-170.5001 1073.987,-163.5001"/>
</g>
<!-- InformationDeskDetailsComponent -->
<g id="node5" class="node">
<title>InformationDeskDetailsComponent</title>
<polygon fill="#ffffb3" stroke="#000000" points="1516.1189,-122 1299.8811,-122 1299.8811,-86 1516.1189,-86 1516.1189,-122"/>
<text text-anchor="middle" x="1408" y="-99.8" font-family="Times,serif" font-size="14.00" fill="#000000">InformationDeskDetailsComponent</text>
</g>
<!-- InformationDeskDetailsComponent&#45;&gt;AppModule -->
<g id="edge5" class="edge">
<title>InformationDeskDetailsComponent&#45;&gt;AppModule</title>
<path fill="none" stroke="#000000" d="M1408,-122.0336C1408,-139.0597 1408,-162 1408,-162 1408,-162 1073.6755,-162 1073.6755,-162"/>
<polygon fill="#000000" stroke="#000000" points="1073.6755,-158.5001 1063.6755,-162 1073.6755,-165.5001 1073.6755,-158.5001"/>
</g>
<!-- LayersVisibilityComponent -->
<g id="node6" class="node">
<title>LayersVisibilityComponent</title>
<polygon fill="#ffffb3" stroke="#000000" points="1282.3145,-122 1109.6855,-122 1109.6855,-86 1282.3145,-86 1282.3145,-122"/>
<text text-anchor="middle" x="1196" y="-99.8" font-family="Times,serif" font-size="14.00" fill="#000000">LayersVisibilityComponent</text>
</g>
<!-- LayersVisibilityComponent&#45;&gt;AppModule -->
<g id="edge6" class="edge">
<title>LayersVisibilityComponent&#45;&gt;AppModule</title>
<path fill="none" stroke="#000000" d="M1196,-122.2396C1196,-137.5706 1196,-157 1196,-157 1196,-157 1073.6773,-157 1073.6773,-157"/>
<polygon fill="#000000" stroke="#000000" points="1073.6774,-153.5001 1063.6773,-157 1073.6773,-160.5001 1073.6774,-153.5001"/>
</g>
<!-- PoiDetailsComponent -->
<g id="node7" class="node">
<title>PoiDetailsComponent</title>
<polygon fill="#ffffb3" stroke="#000000" points="1091.6582,-122 952.3418,-122 952.3418,-86 1091.6582,-86 1091.6582,-122"/>
<text text-anchor="middle" x="1022" y="-99.8" font-family="Times,serif" font-size="14.00" fill="#000000">PoiDetailsComponent</text>
</g>
<!-- PoiDetailsComponent&#45;&gt;AppModule -->
<g id="edge7" class="edge">
<title>PoiDetailsComponent&#45;&gt;AppModule</title>
<path fill="none" stroke="#000000" d="M1022,-122.1061C1022,-122.1061 1022,-140.991 1022,-140.991"/>
<polygon fill="#000000" stroke="#000000" points="1018.5001,-140.9909 1022,-150.991 1025.5001,-140.991 1018.5001,-140.9909"/>
</g>
<!-- ProgressComponent -->
<g id="node8" class="node">
<title>ProgressComponent</title>
<polygon fill="#ffffb3" stroke="#000000" points="933.5408,-122 804.4592,-122 804.4592,-86 933.5408,-86 933.5408,-122"/>
<text text-anchor="middle" x="869" y="-99.8" font-family="Times,serif" font-size="14.00" fill="#000000">ProgressComponent</text>
</g>
<!-- ProgressComponent&#45;&gt;AppModule -->
<g id="edge8" class="edge">
<title>ProgressComponent&#45;&gt;AppModule</title>
<path fill="none" stroke="#000000" d="M869,-122.2396C869,-137.5706 869,-157 869,-157 869,-157 970.1921,-157 970.1921,-157"/>
<polygon fill="#000000" stroke="#000000" points="970.1921,-160.5001 980.1921,-157 970.192,-153.5001 970.1921,-160.5001"/>
</g>
<!-- SearchComponent -->
<g id="node9" class="node">
<title>SearchComponent</title>
<polygon fill="#ffffb3" stroke="#000000" points="786.9201,-122 667.0799,-122 667.0799,-86 786.9201,-86 786.9201,-122"/>
<text text-anchor="middle" x="727" y="-99.8" font-family="Times,serif" font-size="14.00" fill="#000000">SearchComponent</text>
</g>
<!-- SearchComponent&#45;&gt;AppModule -->
<g id="edge9" class="edge">
<title>SearchComponent&#45;&gt;AppModule</title>
<path fill="none" stroke="#000000" d="M727,-122.0336C727,-139.0597 727,-162 727,-162 727,-162 970.047,-162 970.047,-162"/>
<polygon fill="#000000" stroke="#000000" points="970.047,-165.5001 980.047,-162 970.0469,-158.5001 970.047,-165.5001"/>
</g>
<!-- TreksOrderComponent -->
<g id="node10" class="node">
<title>TreksOrderComponent</title>
<polygon fill="#ffffb3" stroke="#000000" points="648.8473,-122 503.1527,-122 503.1527,-86 648.8473,-86 648.8473,-122"/>
<text text-anchor="middle" x="576" y="-99.8" font-family="Times,serif" font-size="14.00" fill="#000000">TreksOrderComponent</text>
</g>
<!-- TreksOrderComponent&#45;&gt;AppModule -->
<g id="edge10" class="edge">
<title>TreksOrderComponent&#45;&gt;AppModule</title>
<path fill="none" stroke="#000000" d="M576,-122.2222C576,-140.8285 576,-167 576,-167 576,-167 970.0414,-167 970.0414,-167"/>
<polygon fill="#000000" stroke="#000000" points="970.0414,-170.5001 980.0414,-167 970.0414,-163.5001 970.0414,-170.5001"/>
</g>
<!-- AppComponent  -->
<g id="node14" class="node">
<title>AppComponent </title>
<polygon fill="#80b1d3" stroke="#000000" points="1076.439,-252 967.561,-252 967.561,-216 1076.439,-216 1076.439,-252"/>
<text text-anchor="middle" x="1022" y="-229.8" font-family="Times,serif" font-size="14.00" fill="#000000">AppComponent </text>
</g>
<!-- AppModule&#45;&gt;AppComponent  -->
<g id="edge13" class="edge">
<title>AppModule&#45;&gt;AppComponent </title>
<path fill="none" stroke="#000000" stroke-dasharray="1,5" d="M1022,-187.1061C1022,-187.1061 1022,-205.991 1022,-205.991"/>
<polygon fill="#000000" stroke="#000000" points="1018.5001,-205.9909 1022,-215.991 1025.5001,-205.991 1018.5001,-205.9909"/>
</g>
<!-- AppRoutingModule -->
<g id="node12" class="node">
<title>AppRoutingModule</title>
<polygon fill="#8dd3c7" stroke="#000000" points="479.2744,-122 476.2744,-126 455.2744,-126 452.2744,-122 350.7256,-122 350.7256,-86 479.2744,-86 479.2744,-122"/>
<text text-anchor="middle" x="415" y="-99.8" font-family="Times,serif" font-size="14.00" fill="#000000">AppRoutingModule</text>
</g>
<!-- AppRoutingModule&#45;&gt;AppModule -->
<g id="edge11" class="edge">
<title>AppRoutingModule&#45;&gt;AppModule</title>
<path fill="none" stroke="#000000" d="M415,-122.2228C415,-142.3652 415,-172 415,-172 415,-172 970.2784,-172 970.2784,-172"/>
<polygon fill="#000000" stroke="#000000" points="970.2785,-175.5001 980.2784,-172 970.2784,-168.5001 970.2785,-175.5001"/>
</g>
<!-- SharedUiModule -->
<g id="node13" class="node">
<title>SharedUiModule</title>
<polygon fill="#8dd3c7" stroke="#000000" points="332.4202,-122 329.4202,-126 308.4202,-126 305.4202,-122 219.5798,-122 219.5798,-86 332.4202,-86 332.4202,-122"/>
<text text-anchor="middle" x="276" y="-99.8" font-family="Times,serif" font-size="14.00" fill="#000000">SharedUiModule</text>
</g>
<!-- SharedUiModule&#45;&gt;AppModule -->
<g id="edge12" class="edge">
<title>SharedUiModule&#45;&gt;AppModule</title>
<path fill="none" stroke="#000000" d="M276,-122.0449C276,-143.6623 276,-177 276,-177 276,-177 970.2933,-177 970.2933,-177"/>
<polygon fill="#000000" stroke="#000000" points="970.2933,-180.5001 980.2933,-177 970.2933,-173.5001 970.2933,-180.5001"/>
</g>
<!-- LoadingInterceptor -->
<g id="node15" class="node">
<title>LoadingInterceptor</title>
<ellipse fill="#fdb462" stroke="#000000" cx="110" cy="-104" rx="85.6551" ry="18"/>
<text text-anchor="middle" x="110" y="-99.8" font-family="Times,serif" font-size="14.00" fill="#000000">LoadingInterceptor</text>
</g>
<!-- LoadingInterceptor&#45;&gt;AppModule -->
<g id="edge14" class="edge">
<title>LoadingInterceptor&#45;&gt;AppModule</title>
<path fill="none" stroke="#000000" d="M110,-122.0908C110,-145.1328 110,-182 110,-182 110,-182 970.1429,-182 970.1429,-182"/>
<polygon fill="#000000" stroke="#000000" points="970.1429,-185.5001 980.1429,-182 970.1429,-178.5001 970.1429,-185.5001"/>
</g>
</g>
</svg>
