<?xml version="1.0" encoding="UTF-8" standalone="no"?>
<!DOCTYPE svg PUBLIC "-//W3C//DTD SVG 1.1//EN"
 "http://www.w3.org/Graphics/SVG/1.1/DTD/svg11.dtd">
<!-- Generated by graphviz version 2.40.1 (20161225.0304)
 -->
<!-- Title: dependencies Pages: 1 -->
<svg width="1404pt" height="284pt"
 viewBox="0.00 0.00 1404.00 284.00" xmlns="http://www.w3.org/2000/svg" xmlns:xlink="http://www.w3.org/1999/xlink">
<g id="graph0" class="graph" transform="scale(1 1) rotate(0) translate(4 280)">
<title>dependencies</title>
<polygon fill="#ffffff" stroke="transparent" points="-4,4 -4,-280 1400,-280 1400,4 -4,4"/>
<text text-anchor="start" x="677.0091" y="-42.4" font-family="sans-serif" font-weight="bold" font-size="14.00" fill="#000000">Legend</text>
<polygon fill="#ffffb3" stroke="transparent" points="464,-10 464,-30 484,-30 484,-10 464,-10"/>
<text text-anchor="start" x="487.629" y="-15.4" font-family="sans-serif" font-size="14.00" fill="#000000"> &#160;Declarations</text>
<polygon fill="#8dd3c7" stroke="transparent" points="577,-10 577,-30 597,-30 597,-10 577,-10"/>
<text text-anchor="start" x="600.7251" y="-15.4" font-family="sans-serif" font-size="14.00" fill="#000000"> &#160;Module</text>
<polygon fill="#80b1d3" stroke="transparent" points="663,-10 663,-30 683,-30 683,-10 663,-10"/>
<text text-anchor="start" x="686.7812" y="-15.4" font-family="sans-serif" font-size="14.00" fill="#000000"> &#160;Bootstrap</text>
<polygon fill="#fdb462" stroke="transparent" points="760,-10 760,-30 780,-30 780,-10 760,-10"/>
<text text-anchor="start" x="783.6732" y="-15.4" font-family="sans-serif" font-size="14.00" fill="#000000"> &#160;Providers</text>
<polygon fill="#fb8072" stroke="transparent" points="856,-10 856,-30 876,-30 876,-10 856,-10"/>
<text text-anchor="start" x="879.7258" y="-15.4" font-family="sans-serif" font-size="14.00" fill="#000000"> &#160;Exports</text>
<g id="clust1" class="cluster">
<title>cluster_AppModule</title>
<polygon fill="none" stroke="#000000" stroke-dasharray="1,5" points="8,-70 8,-268 1388,-268 1388,-70 8,-70"/>
</g>
<g id="clust2" class="cluster">
<title>cluster_AppModule_declarations</title>
<polygon fill="none" stroke="#000000" points="364,-78 364,-130 1380,-130 1380,-78 364,-78"/>
</g>
<g id="clust9" class="cluster">
<title>cluster_AppModule_imports</title>
<polygon fill="none" stroke="#000000" points="212,-78 212,-130 356,-130 356,-78 212,-78"/>
</g>
<g id="clust11" class="cluster">
<title>cluster_AppModule_bootstrap</title>
<polygon fill="none" stroke="#000000" points="615,-208 615,-260 739,-260 739,-208 615,-208"/>
</g>
<g id="clust12" class="cluster">
<title>cluster_AppModule_providers</title>
<polygon fill="none" stroke="#000000" points="16,-78 16,-130 204,-130 204,-78 16,-78"/>
</g>
<!-- AppComponent -->
<g id="node1" class="node">
<title>AppComponent</title>
<polygon fill="#ffffb3" stroke="#000000" points="1371.9399,-122 1266.0601,-122 1266.0601,-86 1371.9399,-86 1371.9399,-122"/>
<text text-anchor="middle" x="1319" y="-99.8" font-family="Times,serif" font-size="14.00" fill="#000000">AppComponent</text>
</g>
<!-- AppModule -->
<g id="node7" class="node">
<title>AppModule</title>
<polygon fill="#8dd3c7" stroke="#000000" points="718.6571,-187 715.6571,-191 694.6571,-191 691.6571,-187 635.3429,-187 635.3429,-151 718.6571,-151 718.6571,-187"/>
<text text-anchor="middle" x="677" y="-164.8" font-family="Times,serif" font-size="14.00" fill="#000000">AppModule</text>
</g>
<!-- AppComponent&#45;&gt;AppModule -->
<g id="edge1" class="edge">
<title>AppComponent&#45;&gt;AppModule</title>
<path fill="none" stroke="#000000" d="M1319,-122.2921C1319,-144.2057 1319,-178 1319,-178 1319,-178 729.1234,-178 729.1234,-178"/>
<polygon fill="#000000" stroke="#000000" points="729.1234,-174.5001 719.1234,-178 729.1234,-181.5001 729.1234,-174.5001"/>
</g>
<!-- InformationDeskDetailsComponent -->
<g id="node2" class="node">
<title>InformationDeskDetailsComponent</title>
<polygon fill="#ffffb3" stroke="#000000" points="1248.1189,-122 1031.8811,-122 1031.8811,-86 1248.1189,-86 1248.1189,-122"/>
<text text-anchor="middle" x="1140" y="-99.8" font-family="Times,serif" font-size="14.00" fill="#000000">InformationDeskDetailsComponent</text>
</g>
<!-- InformationDeskDetailsComponent&#45;&gt;AppModule -->
<g id="edge2" class="edge">
<title>InformationDeskDetailsComponent&#45;&gt;AppModule</title>
<path fill="none" stroke="#000000" d="M1140,-122.1061C1140,-141.3391 1140,-169 1140,-169 1140,-169 728.9048,-169 728.9048,-169"/>
<polygon fill="#000000" stroke="#000000" points="728.9048,-165.5001 718.9048,-169 728.9047,-172.5001 728.9048,-165.5001"/>
</g>
<!-- LayersVisibilityComponent -->
<g id="node3" class="node">
<title>LayersVisibilityComponent</title>
<polygon fill="#ffffb3" stroke="#000000" points="1014.3145,-122 841.6855,-122 841.6855,-86 1014.3145,-86 1014.3145,-122"/>
<text text-anchor="middle" x="928" y="-99.8" font-family="Times,serif" font-size="14.00" fill="#000000">LayersVisibilityComponent</text>
</g>
<!-- LayersVisibilityComponent&#45;&gt;AppModule -->
<g id="edge3" class="edge">
<title>LayersVisibilityComponent&#45;&gt;AppModule</title>
<path fill="none" stroke="#000000" d="M928,-122.027C928,-138.3976 928,-160 928,-160 928,-160 728.7293,-160 728.7293,-160"/>
<polygon fill="#000000" stroke="#000000" points="728.7293,-156.5001 718.7293,-160 728.7293,-163.5001 728.7293,-156.5001"/>
</g>
<!-- PoiDetailsComponent -->
<g id="node4" class="node">
<title>PoiDetailsComponent</title>
<polygon fill="#ffffb3" stroke="#000000" points="823.6582,-122 684.3418,-122 684.3418,-86 823.6582,-86 823.6582,-122"/>
<text text-anchor="middle" x="754" y="-99.8" font-family="Times,serif" font-size="14.00" fill="#000000">PoiDetailsComponent</text>
</g>
<!-- PoiDetailsComponent&#45;&gt;AppModule -->
<g id="edge4" class="edge">
<title>PoiDetailsComponent&#45;&gt;AppModule</title>
<path fill="none" stroke="#000000" d="M701.4997,-122.1061C701.4997,-122.1061 701.4997,-140.991 701.4997,-140.991"/>
<polygon fill="#000000" stroke="#000000" points="697.9997,-140.9909 701.4997,-150.991 704.9997,-140.991 697.9997,-140.9909"/>
</g>
<!-- ProgressComponent -->
<g id="node5" class="node">
<title>ProgressComponent</title>
<polygon fill="#ffffb3" stroke="#000000" points="665.5408,-122 536.4592,-122 536.4592,-86 665.5408,-86 665.5408,-122"/>
<text text-anchor="middle" x="601" y="-99.8" font-family="Times,serif" font-size="14.00" fill="#000000">ProgressComponent</text>
</g>
<!-- ProgressComponent&#45;&gt;AppModule -->
<g id="edge5" class="edge">
<title>ProgressComponent&#45;&gt;AppModule</title>
<path fill="none" stroke="#000000" d="M650.4709,-122.1061C650.4709,-122.1061 650.4709,-140.991 650.4709,-140.991"/>
<polygon fill="#000000" stroke="#000000" points="646.971,-140.9909 650.4709,-150.991 653.971,-140.991 646.971,-140.9909"/>
</g>
<!-- TreksOrderComponent -->
<g id="node6" class="node">
<title>TreksOrderComponent</title>
<polygon fill="#ffffb3" stroke="#000000" points="517.8473,-122 372.1527,-122 372.1527,-86 517.8473,-86 517.8473,-122"/>
<text text-anchor="middle" x="445" y="-99.8" font-family="Times,serif" font-size="14.00" fill="#000000">TreksOrderComponent</text>
</g>
<!-- TreksOrderComponent&#45;&gt;AppModule -->
<g id="edge6" class="edge">
<title>TreksOrderComponent&#45;&gt;AppModule</title>
<path fill="none" stroke="#000000" d="M445,-122.027C445,-138.3976 445,-160 445,-160 445,-160 625.2551,-160 625.2551,-160"/>
<polygon fill="#000000" stroke="#000000" points="625.2551,-163.5001 635.2551,-160 625.2551,-156.5001 625.2551,-163.5001"/>
</g>
<!-- AppComponent  -->
<g id="node9" class="node">
<title>AppComponent </title>
<polygon fill="#80b1d3" stroke="#000000" points="731.439,-252 622.561,-252 622.561,-216 731.439,-216 731.439,-252"/>
<text text-anchor="middle" x="677" y="-229.8" font-family="Times,serif" font-size="14.00" fill="#000000">AppComponent </text>
</g>
<!-- AppModule&#45;&gt;AppComponent  -->
<g id="edge8" class="edge">
<title>AppModule&#45;&gt;AppComponent </title>
<path fill="none" stroke="#000000" stroke-dasharray="1,5" d="M677,-187.1061C677,-187.1061 677,-205.991 677,-205.991"/>
<polygon fill="#000000" stroke="#000000" points="673.5001,-205.9909 677,-215.991 680.5001,-205.991 673.5001,-205.9909"/>
</g>
<!-- AppRoutingModule -->
<g id="node8" class="node">
<title>AppRoutingModule</title>
<polygon fill="#8dd3c7" stroke="#000000" points="348.2744,-122 345.2744,-126 324.2744,-126 321.2744,-122 219.7256,-122 219.7256,-86 348.2744,-86 348.2744,-122"/>
<text text-anchor="middle" x="284" y="-99.8" font-family="Times,serif" font-size="14.00" fill="#000000">AppRoutingModule</text>
</g>
<!-- AppRoutingModule&#45;&gt;AppModule -->
<g id="edge7" class="edge">
<title>AppRoutingModule&#45;&gt;AppModule</title>
<path fill="none" stroke="#000000" d="M284,-122.1061C284,-141.3391 284,-169 284,-169 284,-169 625.3142,-169 625.3142,-169"/>
<polygon fill="#000000" stroke="#000000" points="625.3142,-172.5001 635.3142,-169 625.3141,-165.5001 625.3142,-172.5001"/>
</g>
<!-- LoadingInterceptor -->
<g id="node10" class="node">
<title>LoadingInterceptor</title>
<ellipse fill="#fdb462" stroke="#000000" cx="110" cy="-104" rx="85.6551" ry="18"/>
<text text-anchor="middle" x="110" y="-99.8" font-family="Times,serif" font-size="14.00" fill="#000000">LoadingInterceptor</text>
</g>
<!-- LoadingInterceptor&#45;&gt;AppModule -->
<g id="edge9" class="edge">
<title>LoadingInterceptor&#45;&gt;AppModule</title>
<path fill="none" stroke="#000000" d="M110,-122.2921C110,-144.2057 110,-178 110,-178 110,-178 625.3071,-178 625.3071,-178"/>
<polygon fill="#000000" stroke="#000000" points="625.3072,-181.5001 635.3071,-178 625.3071,-174.5001 625.3072,-181.5001"/>
</g>
</g>
</svg>
