<?xml version="1.0" encoding="UTF-8" standalone="no"?>
<!DOCTYPE svg PUBLIC "-//W3C//DTD SVG 1.1//EN"
 "http://www.w3.org/Graphics/SVG/1.1/DTD/svg11.dtd">
<!-- Generated by graphviz version 2.40.1 (20161225.0304)
 -->
<!-- Title: dependencies Pages: 1 -->
<svg width="1746pt" height="284pt"
 viewBox="0.00 0.00 1746.00 284.00" xmlns="http://www.w3.org/2000/svg" xmlns:xlink="http://www.w3.org/1999/xlink">
<g id="graph0" class="graph" transform="scale(1 1) rotate(0) translate(4 280)">
<title>dependencies</title>
<polygon fill="#ffffff" stroke="transparent" points="-4,4 -4,-280 1742,-280 1742,4 -4,4"/>
<text text-anchor="start" x="848.0091" y="-42.4" font-family="sans-serif" font-weight="bold" font-size="14.00" fill="#000000">Legend</text>
<polygon fill="#ffffb3" stroke="transparent" points="635,-10 635,-30 655,-30 655,-10 635,-10"/>
<text text-anchor="start" x="658.629" y="-15.4" font-family="sans-serif" font-size="14.00" fill="#000000"> &#160;Declarations</text>
<polygon fill="#8dd3c7" stroke="transparent" points="748,-10 748,-30 768,-30 768,-10 748,-10"/>
<text text-anchor="start" x="771.7251" y="-15.4" font-family="sans-serif" font-size="14.00" fill="#000000"> &#160;Module</text>
<polygon fill="#80b1d3" stroke="transparent" points="834,-10 834,-30 854,-30 854,-10 834,-10"/>
<text text-anchor="start" x="857.7812" y="-15.4" font-family="sans-serif" font-size="14.00" fill="#000000"> &#160;Bootstrap</text>
<polygon fill="#fdb462" stroke="transparent" points="931,-10 931,-30 951,-30 951,-10 931,-10"/>
<text text-anchor="start" x="954.6732" y="-15.4" font-family="sans-serif" font-size="14.00" fill="#000000"> &#160;Providers</text>
<polygon fill="#fb8072" stroke="transparent" points="1027,-10 1027,-30 1047,-30 1047,-10 1027,-10"/>
<text text-anchor="start" x="1050.7258" y="-15.4" font-family="sans-serif" font-size="14.00" fill="#000000"> &#160;Exports</text>
<g id="clust1" class="cluster">
<title>cluster_AppModule</title>
<polygon fill="none" stroke="#000000" stroke-dasharray="1,5" points="8,-70 8,-268 1730,-268 1730,-70 8,-70"/>
</g>
<g id="clust2" class="cluster">
<title>cluster_AppModule_declarations</title>
<polygon fill="none" stroke="#000000" points="495,-78 495,-130 1722,-130 1722,-78 495,-78"/>
</g>
<g id="clust11" class="cluster">
<title>cluster_AppModule_imports</title>
<polygon fill="none" stroke="#000000" points="212,-78 212,-130 487,-130 487,-78 212,-78"/>
</g>
<g id="clust13" class="cluster">
<title>cluster_AppModule_bootstrap</title>
<polygon fill="none" stroke="#000000" points="796,-208 796,-260 920,-260 920,-208 796,-208"/>
</g>
<g id="clust14" class="cluster">
<title>cluster_AppModule_providers</title>
<polygon fill="none" stroke="#000000" points="16,-78 16,-130 204,-130 204,-78 16,-78"/>
</g>
<!-- AppComponent -->
<g id="node1" class="node">
<title>AppComponent</title>
<polygon fill="#ffffb3" stroke="#000000" points="1713.9399,-122 1608.0601,-122 1608.0601,-86 1713.9399,-86 1713.9399,-122"/>
<text text-anchor="middle" x="1661" y="-99.8" font-family="Times,serif" font-size="14.00" fill="#000000">AppComponent</text>
</g>
<!-- AppModule -->
<g id="node9" class="node">
<title>AppModule</title>
<polygon fill="#8dd3c7" stroke="#000000" points="899.6571,-187 896.6571,-191 875.6571,-191 872.6571,-187 816.3429,-187 816.3429,-151 899.6571,-151 899.6571,-187"/>
<text text-anchor="middle" x="858" y="-164.8" font-family="Times,serif" font-size="14.00" fill="#000000">AppModule</text>
</g>
<!-- AppComponent&#45;&gt;AppModule -->
<g id="edge1" class="edge">
<title>AppComponent&#45;&gt;AppModule</title>
<path fill="none" stroke="#000000" d="M1661,-122.2479C1661,-145.0179 1661,-181 1661,-181 1661,-181 909.7616,-181 909.7616,-181"/>
<polygon fill="#000000" stroke="#000000" points="909.7616,-177.5001 899.7616,-181 909.7616,-184.5001 909.7616,-177.5001"/>
</g>
<!-- FilterComponent -->
<g id="node2" class="node">
<title>FilterComponent</title>
<polygon fill="#ffffb3" stroke="#000000" points="1589.6625,-122 1478.3375,-122 1478.3375,-86 1589.6625,-86 1589.6625,-122"/>
<text text-anchor="middle" x="1534" y="-99.8" font-family="Times,serif" font-size="14.00" fill="#000000">FilterComponent</text>
</g>
<!-- FilterComponent&#45;&gt;AppModule -->
<g id="edge2" class="edge">
<title>FilterComponent&#45;&gt;AppModule</title>
<path fill="none" stroke="#000000" d="M1534,-122.2843C1534,-143.3211 1534,-175 1534,-175 1534,-175 909.7767,-175 909.7767,-175"/>
<polygon fill="#000000" stroke="#000000" points="909.7767,-171.5001 899.7767,-175 909.7766,-178.5001 909.7767,-171.5001"/>
</g>
<!-- FilterValueComponent -->
<g id="node3" class="node">
<title>FilterValueComponent</title>
<polygon fill="#ffffb3" stroke="#000000" points="1460.5884,-122 1315.4116,-122 1315.4116,-86 1460.5884,-86 1460.5884,-122"/>
<text text-anchor="middle" x="1388" y="-99.8" font-family="Times,serif" font-size="14.00" fill="#000000">FilterValueComponent</text>
</g>
<!-- FilterValueComponent&#45;&gt;AppModule -->
<g id="edge3" class="edge">
<title>FilterValueComponent&#45;&gt;AppModule</title>
<path fill="none" stroke="#000000" d="M1388,-122.1061C1388,-141.3391 1388,-169 1388,-169 1388,-169 910.0312,-169 910.0312,-169"/>
<polygon fill="#000000" stroke="#000000" points="910.0313,-165.5001 900.0312,-169 910.0312,-172.5001 910.0313,-165.5001"/>
</g>
<!-- FiltersComponent -->
<g id="node4" class="node">
<title>FiltersComponent</title>
<polygon fill="#ffffb3" stroke="#000000" points="1297.6066,-122 1180.3934,-122 1180.3934,-86 1297.6066,-86 1297.6066,-122"/>
<text text-anchor="middle" x="1239" y="-99.8" font-family="Times,serif" font-size="14.00" fill="#000000">FiltersComponent</text>
</g>
<!-- FiltersComponent&#45;&gt;AppModule -->
<g id="edge4" class="edge">
<title>FiltersComponent&#45;&gt;AppModule</title>
<path fill="none" stroke="#000000" d="M1239,-122.0225C1239,-139.3734 1239,-163 1239,-163 1239,-163 909.8635,-163 909.8635,-163"/>
<polygon fill="#000000" stroke="#000000" points="909.8636,-159.5001 899.8635,-163 909.8635,-166.5001 909.8636,-159.5001"/>
</g>
<!-- InformationDeskDetailsComponent -->
<g id="node5" class="node">
<title>InformationDeskDetailsComponent</title>
<polygon fill="#ffffb3" stroke="#000000" points="1162.1189,-122 945.8811,-122 945.8811,-86 1162.1189,-86 1162.1189,-122"/>
<text text-anchor="middle" x="1054" y="-99.8" font-family="Times,serif" font-size="14.00" fill="#000000">InformationDeskDetailsComponent</text>
</g>
<!-- InformationDeskDetailsComponent&#45;&gt;AppModule -->
<g id="edge5" class="edge">
<title>InformationDeskDetailsComponent&#45;&gt;AppModule</title>
<path fill="none" stroke="#000000" d="M1054,-122.2396C1054,-137.5706 1054,-157 1054,-157 1054,-157 910.0469,-157 910.0469,-157"/>
<polygon fill="#000000" stroke="#000000" points="910.047,-153.5001 900.0469,-157 910.0469,-160.5001 910.047,-153.5001"/>
</g>
<!-- PoiDetailsComponent -->
<g id="node6" class="node">
<title>PoiDetailsComponent</title>
<polygon fill="#ffffb3" stroke="#000000" points="927.6582,-122 788.3418,-122 788.3418,-86 927.6582,-86 927.6582,-122"/>
<text text-anchor="middle" x="858" y="-99.8" font-family="Times,serif" font-size="14.00" fill="#000000">PoiDetailsComponent</text>
</g>
<!-- PoiDetailsComponent&#45;&gt;AppModule -->
<g id="edge6" class="edge">
<title>PoiDetailsComponent&#45;&gt;AppModule</title>
<path fill="none" stroke="#000000" d="M858,-122.1061C858,-122.1061 858,-140.991 858,-140.991"/>
<polygon fill="#000000" stroke="#000000" points="854.5001,-140.9909 858,-150.991 861.5001,-140.991 854.5001,-140.9909"/>
</g>
<!-- ProgressComponent -->
<g id="node7" class="node">
<title>ProgressComponent</title>
<polygon fill="#ffffb3" stroke="#000000" points="769.5408,-122 640.4592,-122 640.4592,-86 769.5408,-86 769.5408,-122"/>
<text text-anchor="middle" x="705" y="-99.8" font-family="Times,serif" font-size="14.00" fill="#000000">ProgressComponent</text>
</g>
<!-- ProgressComponent&#45;&gt;AppModule -->
<g id="edge7" class="edge">
<title>ProgressComponent&#45;&gt;AppModule</title>
<path fill="none" stroke="#000000" d="M705,-122.2396C705,-137.5706 705,-157 705,-157 705,-157 806.1921,-157 806.1921,-157"/>
<polygon fill="#000000" stroke="#000000" points="806.1921,-160.5001 816.1921,-157 806.192,-153.5001 806.1921,-160.5001"/>
</g>
<!-- SearchComponent -->
<g id="node8" class="node">
<title>SearchComponent</title>
<polygon fill="#ffffb3" stroke="#000000" points="622.9201,-122 503.0799,-122 503.0799,-86 622.9201,-86 622.9201,-122"/>
<text text-anchor="middle" x="563" y="-99.8" font-family="Times,serif" font-size="14.00" fill="#000000">SearchComponent</text>
</g>
<!-- SearchComponent&#45;&gt;AppModule -->
<g id="edge8" class="edge">
<title>SearchComponent&#45;&gt;AppModule</title>
<path fill="none" stroke="#000000" d="M563,-122.0225C563,-139.3734 563,-163 563,-163 563,-163 806.047,-163 806.047,-163"/>
<polygon fill="#000000" stroke="#000000" points="806.047,-166.5001 816.047,-163 806.0469,-159.5001 806.047,-166.5001"/>
</g>
<!-- AppComponent  -->
<g id="node12" class="node">
<title>AppComponent </title>
<polygon fill="#80b1d3" stroke="#000000" points="912.439,-252 803.561,-252 803.561,-216 912.439,-216 912.439,-252"/>
<text text-anchor="middle" x="858" y="-229.8" font-family="Times,serif" font-size="14.00" fill="#000000">AppComponent </text>
</g>
<!-- AppModule&#45;&gt;AppComponent  -->
<g id="edge11" class="edge">
<title>AppModule&#45;&gt;AppComponent </title>
<path fill="none" stroke="#000000" stroke-dasharray="1,5" d="M858,-187.1061C858,-187.1061 858,-205.991 858,-205.991"/>
<polygon fill="#000000" stroke="#000000" points="854.5001,-205.9909 858,-215.991 861.5001,-205.991 854.5001,-205.9909"/>
</g>
<!-- AppRoutingModule -->
<g id="node10" class="node">
<title>AppRoutingModule</title>
<polygon fill="#8dd3c7" stroke="#000000" points="479.2744,-122 476.2744,-126 455.2744,-126 452.2744,-122 350.7256,-122 350.7256,-86 479.2744,-86 479.2744,-122"/>
<text text-anchor="middle" x="415" y="-99.8" font-family="Times,serif" font-size="14.00" fill="#000000">AppRoutingModule</text>
</g>
<!-- AppRoutingModule&#45;&gt;AppModule -->
<g id="edge9" class="edge">
<title>AppRoutingModule&#45;&gt;AppModule</title>
<path fill="none" stroke="#000000" d="M415,-122.1061C415,-141.3391 415,-169 415,-169 415,-169 806.3236,-169 806.3236,-169"/>
<polygon fill="#000000" stroke="#000000" points="806.3237,-172.5001 816.3236,-169 806.3236,-165.5001 806.3237,-172.5001"/>
</g>
<!-- SharedUiModule -->
<g id="node11" class="node">
<title>SharedUiModule</title>
<polygon fill="#8dd3c7" stroke="#000000" points="332.4202,-122 329.4202,-126 308.4202,-126 305.4202,-122 219.5798,-122 219.5798,-86 332.4202,-86 332.4202,-122"/>
<text text-anchor="middle" x="276" y="-99.8" font-family="Times,serif" font-size="14.00" fill="#000000">SharedUiModule</text>
</g>
<!-- SharedUiModule&#45;&gt;AppModule -->
<g id="edge10" class="edge">
<title>SharedUiModule&#45;&gt;AppModule</title>
<path fill="none" stroke="#000000" d="M276,-122.2843C276,-143.3211 276,-175 276,-175 276,-175 806.144,-175 806.144,-175"/>
<polygon fill="#000000" stroke="#000000" points="806.144,-178.5001 816.144,-175 806.144,-171.5001 806.144,-178.5001"/>
</g>
<!-- LoadingInterceptor -->
<g id="node13" class="node">
<title>LoadingInterceptor</title>
<ellipse fill="#fdb462" stroke="#000000" cx="110" cy="-104" rx="85.6551" ry="18"/>
<text text-anchor="middle" x="110" y="-99.8" font-family="Times,serif" font-size="14.00" fill="#000000">LoadingInterceptor</text>
</g>
<!-- LoadingInterceptor&#45;&gt;AppModule -->
<g id="edge12" class="edge">
<title>LoadingInterceptor&#45;&gt;AppModule</title>
<path fill="none" stroke="#000000" d="M110,-122.2479C110,-145.0179 110,-181 110,-181 110,-181 806.1815,-181 806.1815,-181"/>
<polygon fill="#000000" stroke="#000000" points="806.1815,-184.5001 816.1815,-181 806.1814,-177.5001 806.1815,-184.5001"/>
</g>
</g>
</svg>
