<?xml version="1.0" encoding="utf-8"?>
<!-- Generator: Adobe Illustrator 17.1.0, SVG Export Plug-In . SVG Version: 6.00 Build 0)  -->
<!DOCTYPE svg PUBLIC "-//W3C//DTD SVG 1.1//EN" "http://www.w3.org/Graphics/SVG/1.1/DTD/svg11.dtd">
<svg version="1.1" id="Your_Icon" xmlns="http://www.w3.org/2000/svg" xmlns:xlink="http://www.w3.org/1999/xlink" x="0px" y="0px"
	 viewBox="205.1 5.1 549.6 549.8" enable-background="new 205.1 5.1 549.6 549.8" xml:space="preserve">
<path fill="none" d="M361.3,57.7c7.3,13.4,10.6,25.8,6.2,28c-3.9,2.2-17.9-14.6-20.7-19.6c-26.3,16.2-49.3,37-67.8,61.6
	c-4.5,6.2-9,12.3-12.9,19c0,0,0,0-0.6,0l-8.4,14.6c0,0,0,0,0.6,0c2.8-5,5.6-9.5,8.4-14.6c5,2.8,21.8,17.4,19.6,21.3
	c-2.2,3.9-15.1,1.1-28-6.7c-9,16.8-16.2,34.7-21.3,53.2c-5,19-7.8,38.1-8.4,57.7c6.2,0.6,27.4,3.9,27.4,8.4c0,4.5-12.3,8.4-27.4,8.4
	c0,7.3,1.1,15.1,1.7,22.4c3.9,30.8,13.4,60.5,28,88.5c5.6-2.8,25.2-10.1,27.4-6.2c2.2,3.9-6.2,12.9-19,20.7
	c10.1,16.2,22.4,31.4,35.8,44.8c13.4,13.4,28.6,25.2,44.2,35.3c7.8-13.4,17.4-21.8,21.3-19.6c3.9,2.2,1.1,15.1-6.7,28
	c33.6,17.9,71.7,28,109.8,29.7c0-15.1,3.9-27.4,8.4-27.4c4.5,0,7.8,20.7,8.4,27.4c18.5-0.6,37-3.4,54.9-7.8
	c19.6-5,38.1-12.3,56-21.8c-7.8-13.4-10.6-25.8-6.7-28c3.9-2.2,18.5,15.1,21.3,19.6c26.3-16.2,48.7-37,67.2-61.6
	c4.5-6.2,9-12.3,12.9-18.5c-13.4-7.8-21.8-17.4-19.6-21.3c2.2-3.9,23,3.9,28,6.7c9-16.8,16.2-35.3,21.3-53.8
	c4.5-16.8,7.3-34.2,8.4-51H461.5V28.6c-15.1,1.1-30.2,3.4-44.8,7.3C397.7,40.9,379.2,48.2,361.3,57.7z"/>
<polygon stroke="#000000" stroke-miterlimit="10" points="257.7,161.3 257.7,161.3 257.7,161.3 "/>
<path stroke="#000000" stroke-miterlimit="10" d="M285.7,168c2.2-3.9-15.1-17.9-19.6-21.3c-2.8,5-5.6,9.5-8.4,14.6l0,0l0,0
	C271.1,169.1,283.4,171.9,285.7,168z"/>
<path stroke="#000000" stroke-miterlimit="10" d="M723.6,345c-5,19-12.3,37-21.3,53.8c-5-2.8-25.8-10.6-28-6.7
	c-2.2,3.9,6.7,13.4,19.6,21.3c-3.9,6.2-8.4,12.3-12.9,18.5c-18.5,24.6-41.4,45.4-67.2,61.6c-2.8-4.5-17.4-21.8-21.3-19.6
	c-3.9,2.2-1.1,15.1,6.7,28c-17.9,9.5-36.4,16.8-56,21.8c-17.9,4.5-36.4,7.3-54.9,7.8c-0.6-6.2-3.9-27.4-8.4-27.4
	c-4.5,0-8.4,12.3-8.4,27.4c-38.1-1.1-76.2-11.2-109.8-29.7c7.8-13.4,10.6-25.8,6.7-28c-3.9-2.2-13.4,6.7-21.3,19.6
	c-16.2-10.1-30.8-21.8-44.2-35.3s-25.8-28.6-35.8-44.8c12.9-7.8,21.3-16.8,19-20.7c-2.2-3.9-21.8,3.4-27.4,6.2
	c-15.1-27.4-24.6-57.1-28-88.5c-1.1-7.3-1.7-15.1-1.7-22.4c15.1,0,27.4-3.9,27.4-8.4c0-4.5-20.7-7.8-27.4-8.4
	c0.6-19,3.4-38.6,8.4-57.1c5-18.5,12.3-36.4,21.3-53.2l0,0l0,0c0,0,0,0-0.6,0l8.4-14.6c0,0,0,0,0.6,0c3.9-6.2,8.4-12.9,12.9-19
	c18.5-24.6,41.4-45.4,67.8-61.6c3.4,5,17.4,21.8,20.7,19.6c3.9-2.2,1.1-14.6-6.2-28c17.9-9.5,36.4-16.8,55.4-21.8
	c14.6-3.9,29.7-6.2,44.8-7.3V5.6C421.8,8.4,381.4,20.2,343.9,42c-132.2,76.2-177.5,244.2-101.4,375.2
	c25.2,43.1,59.9,77.3,100.2,100.2c82.3,47.6,186.5,51,274.4,0c83.4-48.2,132.2-133.8,136.6-223.4h-22.4
	C730.3,311.4,728.1,328.2,723.6,345z"/>
<path stroke="#000000" stroke-miterlimit="10" d="M731.4,294c0-1.7,0-3.4,0.6-5c-5.6,0-28-3.9-28-8.4c0-4.5,12.3-8.4,28-8.4
	c0-7.8-0.6-15.7-1.7-23.5c-3.9-30.2-13.4-59.4-28-86.8c-5.6,2.8-25.8,10.1-28,6.2c-2.2-3.9,6.2-13.4,19.6-20.7
	c-10.6-16.8-23-32.5-37-46.5c-13.4-13.4-28-25.2-44.2-34.7c-7.8,13.4-17.4,21.8-21.3,19.6c-3.9-2.2-1.1-15.1,6.7-28
	c-33-17.9-71.1-28-109.8-29.7c0,15.1-3.9,27.4-8.4,27.4c-4.5,0-7.8-20.7-8.4-27.4c-3.4,0-6.7,0.6-10.1,0.6V294H731.4z"/>
<path stroke="#000000" stroke-miterlimit="10" d="M717.4,142.8c-24.6-43.1-59.9-77.3-100.2-100.2c-47-26.9-101.4-39.8-155.7-36.4
	v22.4c3.4,0,6.7-0.6,10.1-0.6c0.6,6.2,3.9,27.4,8.4,27.4c4.5,0,8.4-12.3,8.4-27.4c38.6,1.1,76.2,11.8,110.3,29.7
	c-7.8,13.4-10.6,25.8-6.7,28c3.9,2.2,13.4-6.7,21.3-19.6c15.7,10.1,30.8,21.8,44.2,34.7c14,14,26.3,29.7,37,46.5
	c-12.9,7.8-21.8,16.8-19.6,20.7c2.2,3.9,22.4-3.4,28-6.2c14.6,27.4,23.5,56.6,27.4,86.8c1.1,7.8,1.7,15.7,1.7,23.5
	c-15.1,0-28,3.9-28,8.4c0,4.5,22.4,8.4,28,8.4c0,1.7,0,3.4-0.6,5h22.4C756.6,243,744.9,190.4,717.4,142.8z"/>
</svg>
