<?xml version="1.0" encoding="utf-8"?>
<!-- Generator: Adobe Illustrator 16.0.0, SVG Export Plug-In . SVG Version: 6.00 Build 0)  -->
<!DOCTYPE svg PUBLIC "-//W3C//DTD SVG 1.1//EN" "http://www.w3.org/Graphics/SVG/1.1/DTD/svg11.dtd">
<svg version="1.1" id="start-end-flag" xmlns="http://www.w3.org/2000/svg" xmlns:xlink="http://www.w3.org/1999/xlink" x="0px" y="0px"
	 width="60px" height="50px" viewBox="0 0 60 50" enable-background="new 0 0 60 50" xml:space="preserve">
<g>
	<path d="M29.93,44.121c0.565,0,1.023-0.444,1.023-0.993V1.993C30.953,1.444,30.495,1,29.93,1s-1.023,0.444-1.023,0.993v41.135
		C28.906,43.677,29.364,44.121,29.93,44.121z"/>
	<polygon points="32.96,2.389 32.96,24.274 59.5,14.096 	"/>
	<polygon points="27.039,6.747 0.5,16.926 27.039,28.634 	"/>
	<path d="M32.511,39.219v1.796c1.32,0.411,2.196,1.113,2.196,1.916c0,1.271-2.194,2.3-4.897,2.3c-2.704,0-4.897-1.028-4.897-2.3
		c0-0.643,0.561-1.22,1.461-1.637v-1.967c-4.161,0.673-7.172,2.506-7.172,4.691c0,2.754,4.75,4.981,10.608,4.981
		s10.607-2.228,10.607-4.981C40.417,41.707,37.052,39.783,32.511,39.219z"/>
</g>
</svg>
