<?xml version="1.0" encoding="utf-8"?>
<!-- Generator: Adobe Illustrator 16.0.0, SVG Export Plug-In . SVG Version: 6.00 Build 0)  -->
<!DOCTYPE svg PUBLIC "-//W3C//DTD SVG 1.1//EN" "http://www.w3.org/Graphics/SVG/1.1/DTD/svg11.dtd">
<svg version="1.1" id="Calque_1" xmlns="http://www.w3.org/2000/svg" xmlns:xlink="http://www.w3.org/1999/xlink" x="0px" y="0px"
	 width="60px" height="50px" viewBox="0 0 60 50" enable-background="new 0 0 60 50" xml:space="preserve">
<g>
	<g>
		<polygon fill="#FFFFFF" points="22.058,5.983 38.597,5.983 38.597,9.916 46.865,9.916 51,9.916 51,21.713 46.865,21.713 
			46.865,25.645 26.192,25.645 26.192,21.713 22.058,21.713 		"/>
	</g>
	<g>
		<path d="M22.058,35.315v1.778c2.068,0.407,2.609,1.103,2.609,1.897c0,1.259-2.018,2.276-4.748,2.276
			c-2.734,0-5.244-1.018-5.244-2.276c0-0.634,1.182-1.206,1.182-1.621v-1.946C11.722,36.092,9,37.904,9,40.07
			C9,42.796,14,45,19.919,45c5.918,0,10.422-2.204,10.422-4.93C30.341,37.781,26.192,35.877,22.058,35.315z"/>
	</g>
	<g>
		<path d="M18.958,38.425c-0.571,0-1.034-0.44-1.034-0.983V5.983C17.924,5.439,18.386,5,18.958,5c0.571,0,1.034,0.439,1.034,0.983
			v31.458C19.991,37.984,19.528,38.425,18.958,38.425z"/>
	</g>
	<g>
		<rect x="22.058" y="5.983" width="4.135" height="3.933"/>
	</g>
	<g>
		<rect x="30.327" y="5.983" width="4.135" height="3.933"/>
	</g>
	<g>
		<rect x="26.192" y="9.916" width="4.135" height="3.932"/>
	</g>
	<g>
		<rect x="34.462" y="9.916" width="4.135" height="3.932"/>
	</g>
	<g>
		<rect x="22.058" y="13.848" width="4.135" height="3.933"/>
	</g>
	<g>
		<rect x="30.327" y="13.848" width="4.135" height="3.933"/>
	</g>
	<g>
		<rect x="26.192" y="17.78" width="4.135" height="3.933"/>
	</g>
	<g>
		<rect x="30.327" y="21.713" width="4.135" height="3.932"/>
	</g>
	<g>
		<rect x="46.865" y="13.848" width="4.135" height="3.933"/>
	</g>
	<g>
		<rect x="34.462" y="17.78" width="4.135" height="3.933"/>
	</g>
	<g>
		<rect x="42.73" y="17.78" width="4.135" height="3.933"/>
	</g>
	<g>
		<rect x="42.73" y="9.916" width="4.135" height="3.932"/>
	</g>
	<g>
		<rect x="38.597" y="13.848" width="4.134" height="3.933"/>
	</g>
	<g>
		<rect x="38.597" y="21.713" width="4.134" height="3.932"/>
	</g>
</g>
</svg>
