<?xml version="1.0" encoding="UTF-8" standalone="no"?>
<!-- Generator: Adobe Illustrator 17.1.0, SVG Export Plug-In . SVG Version: 6.00 Build 0)  -->

<svg
   xmlns:dc="http://purl.org/dc/elements/1.1/"
   xmlns:cc="http://creativecommons.org/ns#"
   xmlns:rdf="http://www.w3.org/1999/02/22-rdf-syntax-ns#"
   xmlns:svg="http://www.w3.org/2000/svg"
   xmlns="http://www.w3.org/2000/svg"
   xmlns:sodipodi="http://sodipodi.sourceforge.net/DTD/sodipodi-0.dtd"
   xmlns:inkscape="http://www.inkscape.org/namespaces/inkscape"
   width="32"
   height="32"
   viewBox="0 0 32 32"
   id="svg2"
   version="1.1"
   inkscape:version="0.48.4 r9939"
   sodipodi:docname="binocular-2.svg">
  <metadata
     id="metadata10">
    <rdf:RDF>
      <cc:Work
         rdf:about="">
        <dc:format>image/svg+xml</dc:format>
        <dc:type
           rdf:resource="http://purl.org/dc/dcmitype/StillImage" />
        <dc:title></dc:title>
      </cc:Work>
    </rdf:RDF>
  </metadata>
  <defs
     id="defs8" />
  <sodipodi:namedview
     pagecolor="#ffffff"
     bordercolor="#666666"
     borderopacity="1"
     objecttolerance="10"
     gridtolerance="10"
     guidetolerance="10"
     inkscape:pageopacity="0"
     inkscape:pageshadow="2"
     inkscape:window-width="1535"
     inkscape:window-height="876"
     id="namedview6"
     showgrid="false"
     inkscape:zoom="16"
     inkscape:cx="22.369904"
     inkscape:cy="27.994409"
     inkscape:window-x="65"
     inkscape:window-y="24"
     inkscape:window-maximized="1"
     inkscape:current-layer="svg2"
     fit-margin-top="0"
     fit-margin-left="0"
     fit-margin-right="0"
     fit-margin-bottom="0" />
  <path
     d="m 28.561697,11.888004 c 0,0 -2.114812,-2.9234055 -5.473634,-2.7368154 -3.483222,-4.7894207 -6.15784,-0.62199 -6.15784,-0.62199 -0.2488,-0.1244099 -0.559803,-0.24881 -0.933005,-0.24881 -0.311002,0 -0.622005,0.1243999 -0.870805,0.2488101 0,0 -2.736818,-4.167431 -6.2200387,0.62199 -3.2966205,-0.1865907 -5.473634,2.7368153 -5.473634,2.7368153 -2.052613,1.244 -3.42102155,3.48321 -3.42102155,6.09564 0,3.9186 3.17221995,7.15304 7.15304465,7.15304 3.5454216,0 6.5310406,-2.67462 7.0286426,-6.09564 0,0 0.497603,0.6842 1.679411,0.6842 1.181808,0 1.928212,-0.6842 1.928212,-0.6842 0.497603,3.42102 3.483221,6.03343 7.028645,6.03343 3.980824,0 7.153043,-3.17223 7.153043,-7.15304 0.0622,-2.55022 -1.368409,-4.78943 -3.42102,-6.03343 z M 6.9159619,23.084064 c -2.6746168,0 -4.8516302,-2.23921 -4.8516302,-4.91384 0,-2.6746 2.1148131,-4.85162 4.8516302,-4.85162 2.7368169,0 4.8516301,2.17702 4.8516301,4.85162 0,2.67463 -2.1770137,4.91384 -4.8516302,4.91384 z m 9.0812561,-5.41143 c -0.933006,0 -1.74161,-0.8086 -1.74161,-1.74161 0,-0.99521 0.808604,-1.74161 1.74161,-1.74161 0.995207,0 1.803811,0.7464 1.803811,1.74161 0,0.93301 -0.808604,1.74161 -1.803811,1.74161 z m 8.894656,5.41143 c -2.674617,0 -4.85163,-2.23921 -4.85163,-4.91384 0,-2.6746 2.177013,-4.85162 4.85163,-4.85162 2.674617,0 4.85163,2.17702 4.85163,4.85162 0,2.67463 -2.177013,4.91384 -4.85163,4.91384 z"
     id="path4"
     inkscape:connector-curvature="0"
     style="fill:#ffffff;fill-opacity:1" />
</svg>
