<?xml version="1.0" encoding="utf-8"?>
<!-- Generator: Adobe Illustrator 16.0.0, SVG Export Plug-In . SVG Version: 6.00 Build 0)  -->
<!DOCTYPE svg PUBLIC "-//W3C//DTD SVG 1.1//EN" "http://www.w3.org/Graphics/SVG/1.1/DTD/svg11.dtd">
<svg version="1.1" id="Calque_1" xmlns="http://www.w3.org/2000/svg" xmlns:xlink="http://www.w3.org/1999/xlink" x="0px" y="0px"
	 width="60px" height="50px" viewBox="0 0 60 50" enable-background="new 0 0 60 50" xml:space="preserve">
<g>
	<path d="M39.353,43.723c-0.562,0-1.016-0.435-1.016-0.973V2.473c0-0.537,0.454-0.973,1.016-0.973c0.561,0,1.015,0.436,1.015,0.973
		V42.75C40.367,43.288,39.913,43.723,39.353,43.723z"/>
	<polygon points="36.343,2.859 36.343,24.289 10,14.323 	"/>
	<path d="M36.79,38.922v1.759c-1.312,0.402-2.18,1.09-2.18,1.876c0,1.246,2.177,2.252,4.861,2.252c2.684,0,4.859-1.006,4.859-2.252
		c0-0.628-0.556-1.194-1.449-1.603v-1.926C47.013,39.688,50,41.482,50,43.622c0,2.696-4.714,4.878-10.528,4.878
		s-10.53-2.182-10.53-4.878C28.941,41.358,32.282,39.475,36.79,38.922z"/>
</g>
</svg>
