<?xml version="1.0" encoding="utf-8"?>
<!-- Generator: Adobe Illustrator 17.1.0, SVG Export Plug-In . SVG Version: 6.00 Build 0)  -->
<!DOCTYPE svg PUBLIC "-//W3C//DTD SVG 1.1//EN" "http://www.w3.org/Graphics/SVG/1.1/DTD/svg11.dtd">
<svg version="1.1" id="Layer_1" xmlns="http://www.w3.org/2000/svg" xmlns:xlink="http://www.w3.org/1999/xlink" x="0px" y="0px"
	 viewBox="0 0 100 86.4" enable-background="new 0 0 100 86.4" xml:space="preserve">
<path fill="#FFFFFF" d="M27.7,7.4c0,4-3.3,7.3-7.3,7.3c-4.1,0-7.3-3.3-7.3-7.3c0-4,3.3-7.3,7.3-7.3C24.4,0,27.7,3.3,27.7,7.4z"/>
<path fill="#FFFFFF" d="M21.1,57.6l1.6,27.1c0,0.9,0.8,1.7,1.7,1.7c1,0,1.7-0.8,1.7-1.7l1.5-27.1h4.8l-4.9-30.3l10,19.8c0.4,0.9,1.4,1.3,2.3,0.9
	c0.9-0.4,1.3-1.4,0.9-2.3c0,0-7.3-19.7-9.1-23.4c-1.8-3.7-3.6-5.9-10.4-5.9h-1.4c-6.8,0-8.6,2.2-10.4,5.9C7.4,26,0.1,45.7,0.1,45.7
	c-0.4,0.9,0,1.9,0.9,2.3c0.9,0.4,1.9,0,2.3-0.9l10-19.8l-5,30.3h4.8l1.5,27.1c0,0.9,0.8,1.7,1.7,1.7c1,0,1.7-0.8,1.7-1.7l1.5-27.1
	H21.1z"/>
<path fill="#FFFFFF" d="M79.6,0c-4.1,0-7.4,3.3-7.4,7.3c0,4.1,3.3,7.3,7.4,7.3c4,0,7.3-3.3,7.3-7.3C87,3.3,83.7,0,79.6,0z"/>
<path fill="#FFFFFF" d="M87.2,43.2l0.5-16l9,19.8c0.4,0.9,1.4,1.3,2.3,0.9c0.9-0.4,1.3-1.4,0.9-2.3c0,0-6.3-19.7-8.1-23.4
	c-1.8-3.7-4.6-5.9-11.4-5.9h-1.4c-6.8,0-9.6,2.2-11.4,5.9c-1.8,3.7-8.1,23.4-8.1,23.4c-0.4,0.9,0,1.9,0.9,2.3c0.9,0.4,1.9,0,2.2-0.9
	l9-19.8l0.5,16l-1.4,40.1c-0.1,1.6,1.1,3,2.7,3.1c0.1,0,0.2,0,0.2,0c1.5,0,2.8-1.2,2.9-2.7l3.2-33l3.3,33c0.1,1.5,1.4,2.7,2.9,2.7
	c0.1,0,0.1,0,0.2,0c1.6-0.1,2.8-1.5,2.7-3.1L87.2,43.2L87.2,43.2z"/>
<path fill="#FFFFFF" d="M50,44.6c-2.5,0-4.5,2-4.5,4.5c0,2.5,2,4.5,4.5,4.5c2.5,0,4.5-2,4.5-4.5C54.5,46.6,52.5,44.6,50,44.6z"/>
<path fill="#FFFFFF" d="M50,71.1c0,0,2,14.1,2,14.1c0.3,0.7,0.9,1.2,1.7,1.2c0.8,0,1.5-0.5,1.7-1.3c0,0,0.1-0.9,0-1l-0.8-17.3l0.3-5.9
	c0.2-2,0.3-1.4,2.6-2.8c2.4-1.4,6.3-7.6,6.5-7.9c0.2-0.3,0.6-0.9,0.6-1.2c0.1-0.6-0.3-1.2-0.9-1.3c-0.5-0.1-0.9,0.2-1.2,0.5
	c-0.3,0.3-4.9,6.4-8.3,7c-0.8-0.1-1.6-0.5-3.8-0.5h-0.9c-2.2,0-3,0.4-3.8,0.5c-3.4-0.6-8-6.7-8.4-7c-0.3-0.3-0.7-0.6-1.2-0.5
	c-0.6,0.1-1,0.7-0.9,1.3c0.1,0.3,0.4,0.9,0.6,1.2c0.2,0.3,4.2,6.5,6.5,7.9c2.3,1.4,2.4,0.8,2.6,2.8l0.3,5.9l-0.8,17.3c0,0.1,0,1,0,1
	c0.2,0.7,0.9,1.3,1.7,1.3c0.8,0,1.4-0.5,1.7-1.2C48,85.2,50,71.1,50,71.1"/>
</svg>
