<?xml version="1.0" encoding="utf-8"?>
<!-- Generator: Adobe Illustrator 17.1.0, SVG Export Plug-In . SVG Version: 6.00 Build 0)  -->
<!DOCTYPE svg PUBLIC "-//W3C//DTD SVG 1.1//EN" "http://www.w3.org/Graphics/SVG/1.1/DTD/svg11.dtd">
<svg version="1.1"
	 id="svg5268" xmlns:dc="http://purl.org/dc/elements/1.1/" xmlns:cc="http://creativecommons.org/ns#" xmlns:rdf="http://www.w3.org/1999/02/22-rdf-syntax-ns#"
	 xmlns="http://www.w3.org/2000/svg" xmlns:xlink="http://www.w3.org/1999/xlink" x="0px" y="0px" viewBox="818.1 -742.8 54 47"
	 enable-background="new 818.1 -742.8 54 47" xml:space="preserve">
<g id="layer1" transform="translate(-636.6158,-746.30547)">
	<path fill="#FFFFFF" id="path239-5-3_1_" d="M1492.9,7.3c0,2.1-1.7,3.8-3.8,3.8c-2.1,0-3.8-1.7-3.8-3.8s1.7-3.8,3.8-3.8
		C1491.2,3.5,1492.9,5.2,1492.9,7.3z"/>
	<path fill="#FFFFFF" id="path241-1-6_1_" d="M1497.2,23.4l-6.2-2.2l-2.8-7.7c-0.7-1.3-1.8-2.3-3.1-2.5c-3.1-0.6-4.2,2.9-4.2,2.9l-2.3,9.6l6.5-3.8
		l-0.6-1.3c-0.1-0.3,0-0.6,0.3-0.7c0.3-0.1,0.6,0,0.7,0.3l0.8,1.7c0,0,0,0,0,0c0,0,0,0,0,0l1.5,3.2l0.2,0.3c0.1,0.2,0.4,0.5,0.7,0.6
		l6,2.3l-3.9,6.6l-5.1-4.7l1-4.7l-1.2-2.7l-7.3,4.3l-2.8,11.9l-6,9.4c-0.2,0.3-0.3,0.7-0.3,1.1c-0.1,0.8,0.1,1.4,0.6,2
		c0.5,0.6,1.1,0.9,1.9,1c1.1,0.1,2-0.4,2.5-1.3l6.4-10.1c0.1-0.3,0.3-0.6,0.5-1.1l1.3-5.4l5.9,4.9l-7,12c-0.2,0.3-0.1,0.8,0.3,0.9
		c0.1,0.1,0.2,0.1,0.3,0.1c0.2,0,0.5-0.1,0.6-0.3l6-10.3l0,8.2c0.3,1.3,1.1,2,2.5,2.1c0.8,0,1.4-0.2,2-0.7c0.6-0.5,0.9-1.1,0.9-1.8
		v-0.6l-0.1-10.2c0-0.8-0.2-1.6-0.7-2.1l-1-1l4.2-7.2c1.1,0.1,1.9-0.6,2.1-1.7C1498.3,24.3,1497.8,23.6,1497.2,23.4L1497.2,23.4z"/>
	<path fill="#FFFFFF" id="path243-2-3_1_" d="M1475.7,4.5c-3-0.7-6,1.1-6.8,4.1l-2.4,10.1l8.2,2l-0.3,1.1l-8.2-2l-0.8,3.3c-0.6,2.4,0.4,3.6,2.8,4.2
		c0.4,0.1,4.2,1,5.8,1.3l-0.6,2.4c-0.1,0.4,0.1,0.8,0.5,0.8c0.1,0,0.2,0.1,0.3,0.1c0.3,0,0.6-0.2,0.7-0.5l4.9-20.2
		C1480.6,8.2,1478.7,5.2,1475.7,4.5L1475.7,4.5z M1476.1,16.1l-6-1.5l1.2-5l1,0.2l-1,4l4,1l1-4l1,0.3
		C1477.3,11.1,1476.1,16.1,1476.1,16.1z"/>
</g>
</svg>
