<?xml version="1.0" encoding="utf-8"?>
<!-- Generator: Adobe Illustrator 16.0.0, SVG Export Plug-In . SVG Version: 6.00 Build 0)  -->
<!DOCTYPE svg PUBLIC "-//W3C//DTD SVG 1.1//EN" "http://www.w3.org/Graphics/SVG/1.1/DTD/svg11.dtd">
<svg version="1.1" id="Layer_1" xmlns="http://www.w3.org/2000/svg" xmlns:xlink="http://www.w3.org/1999/xlink" x="0px" y="0px"
	 width="23.876px" height="33.424px" viewBox="65.75 -5.25 23.876 33.424" enable-background="new 65.75 -5.25 23.876 33.424"
	 xml:space="preserve">
<g>
	<path fill="#FFFFFF" d="M85.727-2.537c0,1.5-1.229,2.714-2.744,2.714s-2.743-1.214-2.743-2.714c0-1.5,1.228-2.713,2.743-2.713
		C84.499-5.25,85.727-4.037,85.727-2.537z"/>
	<path fill="#FFFFFF" d="M88.83,8.959l-4.477-1.572L82.333,1.89c-0.505-0.928-1.301-1.642-2.238-1.785
		c-2.237-0.428-3.032,2.071-3.032,2.071l-1.659,6.855l4.692-2.713l-0.434-0.929c-0.071-0.214,0-0.428,0.218-0.5
		c0.216-0.071,0.433,0,0.505,0.215l0.579,1.214l1.082,2.285l0.145,0.214c0.072,0.144,0.288,0.357,0.506,0.427l4.33,1.643
		l-2.813,4.713l-3.684-3.356l0.723-3.357l-0.866-1.927l-5.27,3.068l-2.021,8.499l-4.332,6.71c-0.145,0.216-0.217,0.502-0.217,0.786
		c-0.072,0.57,0.072,0.998,0.434,1.427c0.36,0.43,0.793,0.646,1.372,0.715c0.794,0.071,1.442-0.285,1.805-0.928l4.62-7.212
		l0.361-0.785l0.938-3.856l4.26,3.499l-5.053,8.569c-0.145,0.214-0.072,0.57,0.217,0.645c0.071,0.071,0.144,0.071,0.215,0.071
		c0.145,0,0.361-0.071,0.434-0.215l4.331-7.354v5.854c0.217,0.928,0.794,1.428,1.807,1.5c0.577,0,1.012-0.144,1.443-0.501
		c0.432-0.355,0.648-0.785,0.648-1.285v-0.426l-0.071-7.284c0-0.57-0.146-1.144-0.506-1.5l-0.722-0.713l3.031-5.139
		c0.795,0.07,1.373-0.431,1.517-1.215C89.624,9.601,89.263,9.102,88.83,8.959L88.83,8.959z"/>
	<path fill="#FFFFFF" d="M73.309-4.535c-2.165-0.5-4.331,0.784-4.909,2.927l-1.732,7.211l5.92,1.429L72.37,7.817l-5.92-1.428
		l-0.578,2.356c-0.433,1.712,0.289,2.57,2.022,2.999c0.289,0.073,3.032,0.713,4.188,0.928l-0.433,1.714
		c-0.071,0.287,0.071,0.572,0.361,0.572l0.216,0.071c0.218,0,0.433-0.143,0.505-0.356l3.537-14.424
		C76.846-1.894,75.476-4.037,73.309-4.535z M73.597,3.746l-4.33-1.071l0.865-3.569l0.723,0.143l-0.723,2.855l2.888,0.714
		l0.722-2.856l0.723,0.214L73.597,3.746z"/>
</g>
</svg>
