<?xml version="1.0" encoding="utf-8"?>
<!-- Generator: Adobe Illustrator 16.0.0, SVG Export Plug-In . SVG Version: 6.00 Build 0)  -->
<!DOCTYPE svg PUBLIC "-//W3C//DTD SVG 1.1//EN" "http://www.w3.org/Graphics/SVG/1.1/DTD/svg11.dtd">
<svg version="1.1" id="Layer_1" xmlns="http://www.w3.org/2000/svg" xmlns:xlink="http://www.w3.org/1999/xlink" x="0px" y="0px"
	 width="33.167px" height="29.02px" viewBox="-60.606 -1.363 33.167 29.02" enable-background="new -60.606 -1.363 33.167 29.02"
	 xml:space="preserve">
<g>
	<path fill="#FFFFFF" d="M-51.411,1.122c0,1.344-1.094,2.453-2.418,2.453c-1.359,0-2.418-1.108-2.418-2.453
		c0-1.343,1.093-2.452,2.418-2.452C-52.503-1.363-51.411-0.254-51.411,1.122z"/>
	<path fill="#FFFFFF" d="M-53.598,17.984l0.531,9.103c0,0.304,0.265,0.57,0.562,0.57c0.332,0,0.563-0.267,0.563-0.57l0.497-9.103
		h1.59l-1.623-10.177l3.313,6.65c0.132,0.303,0.463,0.436,0.762,0.303c0.299-0.135,0.431-0.471,0.299-0.772
		c0,0-2.418-6.618-3.015-7.86c-0.596-1.243-1.192-1.982-3.446-1.982h-0.463c-2.253,0-2.849,0.739-3.445,1.982
		c-0.663,1.243-3.081,7.86-3.081,7.86c-0.132,0.302,0,0.637,0.298,0.772c0.298,0.133,0.63,0,0.762-0.303l3.313-6.65l-1.656,10.177
		h1.591l0.497,9.103c0,0.304,0.265,0.57,0.562,0.57c0.331,0,0.563-0.267,0.563-0.57l0.497-9.103H-53.598z"/>
	<path fill="#FFFFFF" d="M-34.217-1.363c-1.358,0-2.451,1.108-2.451,2.452c0,1.377,1.093,2.452,2.451,2.452
		c1.325,0,2.419-1.108,2.419-2.452C-31.764-0.254-32.857-1.363-34.217-1.363z"/>
	<path fill="#FFFFFF" d="M-31.697,13.147l0.165-5.375l2.981,6.651c0.132,0.302,0.464,0.436,0.763,0.302
		c0.297-0.133,0.43-0.469,0.297-0.771c0,0-2.087-6.617-2.683-7.86c-0.597-1.244-1.524-1.982-3.778-1.982h-0.464
		c-2.253,0-3.181,0.738-3.776,1.982c-0.596,1.243-2.684,7.86-2.684,7.86c-0.131,0.303,0,0.638,0.298,0.771
		c0.299,0.134,0.63,0,0.73-0.302l2.981-6.651l0.166,5.375l-0.465,13.47c-0.033,0.537,0.366,1.009,0.895,1.04h0.066
		c0.498,0,0.929-0.401,0.962-0.905l1.06-11.085l1.094,11.085c0.035,0.504,0.463,0.905,0.96,0.905h0.067
		c0.531-0.031,0.928-0.503,0.895-1.04L-31.697,13.147z"/>
	<path fill="#FFFFFF" d="M-44.023,13.619c-0.829,0-1.49,0.67-1.49,1.51c0,0.841,0.662,1.513,1.49,1.513
		c0.828,0,1.491-0.672,1.491-1.513C-42.532,14.289-43.195,13.619-44.023,13.619z"/>
	<path fill="#FFFFFF" d="M-44.023,22.519l0.664,4.737c0.1,0.235,0.298,0.4,0.562,0.4c0.265,0,0.497-0.165,0.563-0.436
		c0,0,0.034-0.303,0-0.335l-0.265-5.811l0.099-1.981c0.067-0.672,0.1-0.471,0.862-0.941c0.796-0.47,2.087-2.553,2.153-2.653
		c0.067-0.102,0.199-0.304,0.199-0.404c0.033-0.203-0.099-0.403-0.299-0.438c-0.165-0.033-0.298,0.067-0.397,0.167
		c-0.101,0.101-1.623,2.151-2.75,2.352c-0.266-0.035-0.531-0.167-1.258-0.167h-0.299c-0.729,0-0.994,0.132-1.258,0.167
		c-1.127-0.201-2.651-2.252-2.783-2.352c-0.1-0.101-0.232-0.201-0.398-0.167c-0.199,0.034-0.331,0.235-0.299,0.438
		c0.033,0.1,0.133,0.302,0.199,0.404c0.067,0.1,1.392,2.183,2.154,2.653s0.795,0.269,0.862,0.941l0.1,1.981l-0.265,5.811v0.335
		c0.065,0.237,0.298,0.436,0.562,0.436c0.266,0,0.464-0.165,0.564-0.4C-44.685,27.256-44.023,22.519-44.023,22.519"/>
</g>
</svg>
