<?xml version="1.0" encoding="utf-8"?>
<!-- Generator: Adobe Illustrator 17.1.0, SVG Export Plug-In . SVG Version: 6.00 Build 0)  -->
<!DOCTYPE svg PUBLIC "-//W3C//DTD SVG 1.1//EN" "http://www.w3.org/Graphics/SVG/1.1/DTD/svg11.dtd">
<svg version="1.1" id="Your_Icon" xmlns="http://www.w3.org/2000/svg" xmlns:xlink="http://www.w3.org/1999/xlink" x="0px" y="0px"
	 viewBox="400.8 4.1 54 47" enable-background="new 400.8 4.1 54 47" xml:space="preserve">
<path stroke="#000000" stroke-width="7.876873e-02" stroke-miterlimit="10" d="M428.7,14.4c0-0.3-0.3-1.6-0.7-1.6h-0.3
	c-0.4,0-0.7,1.3-0.7,1.6v13.2h1.8L428.7,14.4z"/>
<path fill="none" d="M418.3,9.8c0.6,1.1,0.9,2.1,0.5,2.2c-0.3,0.2-1.4-1.2-1.7-1.6c-2.1,1.3-4,3-5.4,4.9c-0.4,0.5-0.7,1-1,1.5
	c0,0,0,0,0,0l-0.7,1.2c0,0,0,0,0,0c0.2-0.4,0.4-0.8,0.7-1.2c0.4,0.2,1.7,1.4,1.6,1.7c-0.2,0.3-1.2,0.1-2.2-0.5
	c-0.7,1.3-1.3,2.8-1.7,4.3c-0.4,1.5-0.6,3.1-0.7,4.6c0.5,0,2.2,0.3,2.2,0.7s-1,0.7-2.2,0.7c0,0.6,0.1,1.2,0.1,1.8
	c0.3,2.5,1.1,4.9,2.2,7.1c0.4-0.2,2-0.8,2.2-0.5c0.2,0.3-0.5,1-1.5,1.7c0.8,1.3,1.8,2.5,2.9,3.6c1.1,1.1,2.3,2,3.5,2.8
	c0.6-1.1,1.4-1.7,1.7-1.6s0.1,1.2-0.5,2.2c2.7,1.4,5.8,2.2,8.8,2.4c0-1.2,0.3-2.2,0.7-2.2s0.6,1.7,0.7,2.2c1.5,0,3-0.3,4.4-0.6
	c1.6-0.4,3.1-1,4.5-1.7c-0.6-1.1-0.9-2.1-0.5-2.2c0.3-0.2,1.5,1.2,1.7,1.6c2.1-1.3,3.9-3,5.4-4.9c0.4-0.5,0.7-1,1-1.5
	c-1.1-0.6-1.7-1.4-1.6-1.7c0.2-0.3,1.8,0.3,2.2,0.5c0.7-1.3,1.3-2.8,1.7-4.3c0.4-1.3,0.6-2.7,0.7-4.1h-21.6V7.5
	c-1.2,0.1-2.4,0.3-3.6,0.6C421.2,8.4,419.7,9,418.3,9.8z"/>
<path fill="#FFFFFF" stroke="#FFFFFF" stroke-width="7.876873e-02" stroke-miterlimit="10" d="M410,18.1L410,18.1L410,18.1z"/>
<path fill="#FFFFFF" stroke="#FFFFFF" stroke-width="7.876873e-02" stroke-miterlimit="10" d="M412.2,18.6c0.2-0.3-1.2-1.4-1.6-1.7
	c-0.2,0.4-0.4,0.8-0.7,1.2l0,0l0,0C411,18.7,412,18.9,412.2,18.6z"/>
<path fill="#FFFFFF" stroke="#FFFFFF" stroke-width="7.876873e-02" stroke-miterlimit="10" d="M447.3,32.8c-0.4,1.5-1,3-1.7,4.3
	c-0.4-0.2-2.1-0.9-2.2-0.5c-0.2,0.3,0.5,1.1,1.6,1.7c-0.3,0.5-0.7,1-1,1.5c-1.5,2-3.3,3.6-5.4,4.9c-0.2-0.4-1.4-1.7-1.7-1.6
	c-0.3,0.2-0.1,1.2,0.5,2.2c-1.4,0.8-2.9,1.3-4.5,1.7c-1.4,0.4-2.9,0.6-4.4,0.6c0-0.5-0.3-2.2-0.7-2.2s-0.7,1-0.7,2.2
	c-3.1-0.1-6.1-0.9-8.8-2.4c0.6-1.1,0.9-2.1,0.5-2.2c-0.3-0.2-1.1,0.5-1.7,1.6c-1.3-0.8-2.5-1.7-3.5-2.8c-1.1-1.1-2.1-2.3-2.9-3.6
	c1-0.6,1.7-1.3,1.5-1.7c-0.2-0.3-1.7,0.3-2.2,0.5c-1.2-2.2-2-4.6-2.2-7.1c-0.1-0.6-0.1-1.2-0.1-1.8c1.2,0,2.2-0.3,2.2-0.7
	c0-0.4-1.7-0.6-2.2-0.7c0-1.5,0.3-3.1,0.7-4.6c0.4-1.5,1-2.9,1.7-4.3l0,0l0,0c0,0,0,0,0,0l0.7-1.2c0,0,0,0,0,0c0.3-0.5,0.7-1,1-1.5
	c1.5-2,3.3-3.6,5.4-4.9c0.3,0.4,1.4,1.7,1.7,1.6c0.3-0.2,0.1-1.2-0.5-2.2c1.4-0.8,2.9-1.3,4.4-1.7c1.2-0.3,2.4-0.5,3.6-0.6V5.6
	c-3.3,0.2-6.5,1.2-9.5,2.9c-10.6,6.1-14.2,19.6-8.1,30.1c2,3.5,4.8,6.2,8,8c6.6,3.8,15,4.1,22,0c6.7-3.9,10.6-10.7,11-17.9H448
	C447.9,30.1,447.7,31.5,447.3,32.8z"/>
<path fill="#FFFFFF" stroke="#FFFFFF" stroke-width="7.876873e-02" stroke-miterlimit="10" d="M448.4,28.8c0-0.1,0-0.3,0-0.4
	c-0.4,0-2.2-0.3-2.2-0.7c0-0.4,1-0.7,2.2-0.7c0-0.6,0-1.3-0.1-1.9c-0.4-2.5-1.1-4.8-2.2-7c-0.4,0.2-2.1,0.8-2.2,0.5s0.5-1.1,1.6-1.7
	c-0.9-1.3-1.8-2.6-3-3.7c-1.1-1.1-2.2-2-3.5-2.8c-0.6,1.1-1.4,1.7-1.7,1.6c-0.3-0.2-0.1-1.2,0.5-2.2c-2.7-1.4-5.8-2.3-8.8-2.4
	c0,1.2-0.3,2.2-0.7,2.2s-0.6-1.7-0.7-2.2c-0.3,0-0.5,0-0.8,0v21.3L448.4,28.8L448.4,28.8z"/>
<path fill="#FFFFFF" stroke="#FFFFFF" stroke-width="7.876873e-02" stroke-miterlimit="10" d="M426.4,49.3c0.1,0,0.3,0,0.4,0c0-0.4,0.3-2.2,0.7-2.2
	c0.4,0,0.7,1,0.7,2.2c0.6,0,1.3,0,1.9-0.1c2.4-0.3,4.8-1,7-2.2c-0.2-0.4-0.2-2.4-0.5-2.2c-4.6,2.6,0.5-0.4,1.7,1.6
	c1.3-0.9,2.6-1.8,3.7-3c1.1-1.1,2-2.2,2.8-3.5c-1.1-0.6,0.9-0.1,1.1-0.4s-1.5-1.3-0.4-0.7c1.4-2.7,2.3-5.8,2.4-8.8
	c-1.2,0,1.2,0,1.2-0.4c0-0.4-1.7-0.9-1.2-0.9c0-0.3,0-0.5,0-0.8h-21.3V49.3z"/>
<path fill="#FFFFFF" stroke="#FFFFFF" stroke-width="7.876873e-02" stroke-miterlimit="10" d="M429.4,49.6c-0.1,0-0.3,0-0.4,0
	c0-0.4-0.3-2.2-0.7-2.2c-0.4,0-0.7,1-0.7,2.2c-0.7,0-1.3,0-2-0.1c-2.6-0.3-5.1-1-7.5-2.2c0.2-0.4,0.2-2.4,0.5-2.2
	c4.9,2.6-0.5-0.4-1.8,1.6c-1.4-0.9-2.8-1.8-4-3c-1.1-1.1-2.2-2.2-3-3.5c1.1-0.6,0-0.4-0.6-0.4c-0.8,0,1-1.3-0.1-0.8
	c-1.5-2.7-2.4-5.8-2.5-8.8c1.3,0,0.4-0.5-0.1-0.4c-0.4,0,0.6-0.9,0.1-0.9c0-0.3,0-0.5,0-0.8h22.7L429.4,49.6L429.4,49.6z"/>
<path fill="#FFFFFF" stroke="#FFFFFF" stroke-width="7.876873e-02" stroke-miterlimit="10" d="M446.8,16.6c-2-3.5-4.8-6.2-8-8
	c-3.8-2.2-8.1-3.2-12.5-2.9v1.8c0.3,0,0.5,0,0.8,0c0,0.5,0.3,2.2,0.7,2.2c0.4,0,0.7-1,0.7-2.2c3.1,0.1,6.1,0.9,8.8,2.4
	c-0.6,1.1-0.9,2.1-0.5,2.2s1.1-0.5,1.7-1.6c1.3,0.8,2.5,1.7,3.5,2.8c1.1,1.1,2.1,2.4,3,3.7c-1,0.6-1.7,1.3-1.6,1.7
	c0.2,0.3,1.8-0.3,2.2-0.5c1.2,2.2,1.9,4.5,2.2,7c0.1,0.6,0.1,1.3,0.1,1.9c-1.2,0-2.2,0.3-2.2,0.7s1.8,0.7,2.2,0.7c0,0.1,0,0.3,0,0.4
	h1.8C450,24.6,449,20.4,446.8,16.6z"/>
</svg>
