<svg xmlns="http://www.w3.org/2000/svg" viewBox="614 20.5 54 47" enable-background="new 614 20.5 54 47"><path stroke="#000" stroke-width=".007" stroke-miterlimit="10" d="M641.8 30.8c0-.3-.3-1.6-.7-1.6h-.3c-.4 0-.7 1.3-.7 1.6v13.2h1.8l-.1-13.2z"/><path d="M631.4 26.2c.6 1.1.9 2.1.5 2.2-.3.2-1.4-1.2-1.7-1.6-2.1 1.3-4 3-5.4 4.9-.4.5-.7 1-1 1.5l-.7 1.2c.2-.4.4-.8.7-1.2.4.2 1.7 1.4 1.6 1.7-.2.3-1.2.1-2.2-.5-.7 1.3-1.3 2.8-1.7 4.3-.4 1.5-.6 3.1-.7 4.6.5 0 2.2.3 2.2.7s-1 .7-2.2.7l.1 1.8c.3 2.5 1.1 4.9 2.2 7.1.4-.2 2-.8 2.2-.5.2.3-.5 1-1.5 1.7.8 1.3 1.8 2.5 2.9 3.6s2.3 2 3.5 2.8c.6-1.1 1.4-1.7 1.7-1.6.3.2.1 1.2-.5 2.2 2.7 1.4 5.8 2.2 8.8 2.4 0-1.2.3-2.2.7-2.2s.6 1.7.7 2.2c1.5 0 3-.3 4.4-.6 1.6-.4 3.1-1 4.5-1.7-.6-1.1-.9-2.1-.5-2.2.3-.2 1.5 1.2 1.7 1.6 2.1-1.3 3.9-3 5.4-4.9.4-.5.7-1 1-1.5-1.1-.6-1.7-1.4-1.6-1.7.2-.3 1.8.3 2.2.5.7-1.3 1.3-2.8 1.7-4.3.4-1.3.6-2.7.7-4.1h-21.6v-21.4c-1.2.1-2.4.3-3.6.6-1.6.3-3.1.9-4.5 1.7z" fill="none"/><path fill="#fff" stroke="#fff" stroke-width=".007" stroke-miterlimit="10" d="M623.1 34.5z"/><path fill="#fff" stroke="#fff" stroke-width=".007" stroke-miterlimit="10" d="M625.3 35c.2-.3-1.2-1.4-1.6-1.7-.2.4-.4.8-.7 1.2 1.1.6 2.1.8 2.3.5z"/><path fill="#fff" stroke="#fff" stroke-width=".007" stroke-miterlimit="10" d="M660.5 49.2c-.4 1.5-1 3-1.7 4.3-.4-.2-2.1-.9-2.2-.5-.2.3.5 1.1 1.6 1.7l-1 1.5c-1.5 2-3.3 3.6-5.4 4.9-.2-.4-1.4-1.7-1.7-1.6-.3.1-.1 1.2.5 2.2-1.4.8-2.9 1.3-4.5 1.7-1.4.4-2.9.6-4.4.6 0-.5-.3-2.2-.7-2.2s-.7 1-.7 2.2c-3.1-.1-6.1-.9-8.8-2.4.6-1.1.9-2.1.5-2.2-.3-.2-1.1.5-1.7 1.6-1.3-.8-2.5-1.7-3.5-2.8-1.1-1.1-2.1-2.3-2.9-3.6 1-.6 1.7-1.3 1.5-1.7-.2-.3-1.7.3-2.2.5-1.2-2.2-2-4.6-2.2-7.1-.1-.6-.1-1.2-.1-1.8 1.2 0 2.2-.3 2.2-.7 0-.4-1.7-.6-2.2-.7 0-1.5.3-3.1.7-4.6.4-1.5 1-2.9 1.7-4.3l.7-1.2 1-1.5c1.5-2 3.3-3.6 5.4-4.9.3.4 1.4 1.7 1.7 1.6.3-.2.1-1.2-.5-2.2 1.4-.8 2.9-1.3 4.4-1.7 1.2-.3 2.4-.5 3.6-.6v-1.7c-3.3.2-6.5 1.2-9.5 2.9-10.6 6.1-14.2 19.6-8.1 30.1 2 3.5 4.8 6.2 8 8 6.6 3.8 15 4.1 22 0 6.7-3.9 10.6-10.7 11-17.9h-1.8c-.1 1.4-.3 2.8-.7 4.1z"/><path fill="#fff" stroke="#fff" stroke-width=".007" stroke-miterlimit="10" d="M661.2 45.1v-.4c-.4 0-2.2-.3-2.2-.7 0-.4 1-.7 2.2-.7 0-.6 0-1.3-.1-1.9-.3-2.4-1.1-4.8-2.2-7-.4.2-2.1.8-2.2.5-.2-.3.5-1.1 1.6-1.7-.9-1.3-1.8-2.6-3-3.7-1.1-1.1-2.2-2-3.5-2.8-.6 1.1-1.4 1.7-1.7 1.6-.3-.1-.1-1.2.5-2.2-2.6-1.4-5.7-2.2-8.8-2.4 0 1.2-.3 2.2-.7 2.2-.4 0-.7-1.5-.8-2.1h-.8v21.3h21.7z"/><path fill="#fff" stroke="#fff" stroke-width=".007" stroke-miterlimit="10" d="M639.5 65.7h.4c0-.4.3-2.2.7-2.2.4 0 .7 1 .7 2.2.6 0 1.3 0 1.9-.1 2.4-.3 4.8-1 7-2.2-.2-.4-.2-2.4-.5-2.2-4.6 2.6.5-.4 1.7 1.6 1.3-.9 2.6-1.8 3.7-3 1.1-1.1 2-2.2 2.8-3.5-1.1-.6.9-.1 1.1-.4.2-.3-1.5-1.3-.4-.7 1.4-2.7 2.3-5.8 2.4-8.8-1.2 0 1.2 0 1.2-.4s-1.7-.9-1.2-.9v-.8h-21.3v21.4h-.2z"/><path fill="#fff" stroke="#fff" stroke-width=".007" stroke-miterlimit="10" d="M660 33c-2-3.5-4.8-6.2-8-8-3.8-2.2-8.1-3.2-12.5-2.9v1.8h.8c0 .5.3 2.2.7 2.2.4 0 .7-1 .7-2.2 3.1.1 6.1.9 8.8 2.4-.6 1.1-.9 2.1-.5 2.2.3.2 1.1-.5 1.7-1.6 1.3.8 2.5 1.7 3.5 2.8 1.1 1.1 2.1 2.4 3 3.7-1 .6-1.7 1.3-1.6 1.7.2.3 1.8-.3 2.2-.5 1.2 2.2 1.9 4.5 2.2 7 .1.6.1 1.3.1 1.9-1.2 0-2.2.3-2.2.7 0 .4 1.8.7 2.2.7v.4h1.8c.3-4.3-.7-8.5-2.9-12.3z"/></svg>