<?xml version="1.0" encoding="utf-8"?>
<!-- Generator: Adobe Illustrator 17.1.0, SVG Export Plug-In . SVG Version: 6.00 Build 0)  -->
<!DOCTYPE svg PUBLIC "-//W3C//DTD SVG 1.1//EN" "http://www.w3.org/Graphics/SVG/1.1/DTD/svg11.dtd">
<svg version="1.1" id="Your_Icon" xmlns="http://www.w3.org/2000/svg" xmlns:xlink="http://www.w3.org/1999/xlink" x="0px" y="0px"
	 viewBox="614 20.5 54 47" enable-background="new 614 20.5 54 47" xml:space="preserve">
<path stroke="#000000" stroke-width="6.613496e-03" stroke-miterlimit="10" d="M641.8,30.8c0-0.3-0.3-1.6-0.7-1.6h-0.3
	c-0.4,0-0.7,1.3-0.7,1.6V44h1.8L641.8,30.8z"/>
<path fill="none" d="M631.4,26.2c0.6,1.1,0.9,2.1,0.5,2.2c-0.3,0.2-1.4-1.2-1.7-1.6c-2.1,1.3-4,3-5.4,4.9c-0.4,0.5-0.7,1-1,1.5l0,0
	l-0.7,1.2l0,0c0.2-0.4,0.4-0.8,0.7-1.2c0.4,0.2,1.7,1.4,1.6,1.7c-0.2,0.3-1.2,0.1-2.2-0.5c-0.7,1.3-1.3,2.8-1.7,4.3
	c-0.4,1.5-0.6,3.1-0.7,4.6c0.5,0,2.2,0.3,2.2,0.7s-1,0.7-2.2,0.7c0,0.6,0.1,1.2,0.1,1.8c0.3,2.5,1.1,4.9,2.2,7.1
	c0.4-0.2,2-0.8,2.2-0.5c0.2,0.3-0.5,1-1.5,1.7c0.8,1.3,1.8,2.5,2.9,3.6s2.3,2,3.5,2.8c0.6-1.1,1.4-1.7,1.7-1.6
	c0.3,0.2,0.1,1.2-0.5,2.2c2.7,1.4,5.8,2.2,8.8,2.4c0-1.2,0.3-2.2,0.7-2.2s0.6,1.7,0.7,2.2c1.5,0,3-0.3,4.4-0.6
	c1.6-0.4,3.1-1,4.5-1.7c-0.6-1.1-0.9-2.1-0.5-2.2c0.3-0.2,1.5,1.2,1.7,1.6c2.1-1.3,3.9-3,5.4-4.9c0.4-0.5,0.7-1,1-1.5
	c-1.1-0.6-1.7-1.4-1.6-1.7c0.2-0.3,1.8,0.3,2.2,0.5c0.7-1.3,1.3-2.8,1.7-4.3c0.4-1.3,0.6-2.7,0.7-4.1h-21.6V23.9
	c-1.2,0.1-2.4,0.3-3.6,0.6C634.3,24.8,632.8,25.4,631.4,26.2z"/>
<path fill="#FFFFFF" stroke="#FFFFFF" stroke-width="6.613496e-03" stroke-miterlimit="10" d="M623.1,34.5L623.1,34.5L623.1,34.5z"/>
<path fill="#FFFFFF" stroke="#FFFFFF" stroke-width="6.613496e-03" stroke-miterlimit="10" d="M625.3,35c0.2-0.3-1.2-1.4-1.6-1.7
	c-0.2,0.4-0.4,0.8-0.7,1.2l0,0l0,0C624.1,35.1,625.1,35.3,625.3,35z"/>
<path fill="#FFFFFF" stroke="#FFFFFF" stroke-width="6.613496e-03" stroke-miterlimit="10" d="M660.5,49.2c-0.4,1.5-1,3-1.7,4.3
	c-0.4-0.2-2.1-0.9-2.2-0.5c-0.2,0.3,0.5,1.1,1.6,1.7c-0.3,0.5-0.7,1-1,1.5c-1.5,2-3.3,3.6-5.4,4.9c-0.2-0.4-1.4-1.7-1.7-1.6
	c-0.3,0.1-0.1,1.2,0.5,2.2c-1.4,0.8-2.9,1.3-4.5,1.7c-1.4,0.4-2.9,0.6-4.4,0.6c0-0.5-0.3-2.2-0.7-2.2s-0.7,1-0.7,2.2
	c-3.1-0.1-6.1-0.9-8.8-2.4c0.6-1.1,0.9-2.1,0.5-2.2c-0.3-0.2-1.1,0.5-1.7,1.6c-1.3-0.8-2.5-1.7-3.5-2.8c-1.1-1.1-2.1-2.3-2.9-3.6
	c1-0.6,1.7-1.3,1.5-1.7c-0.2-0.3-1.7,0.3-2.2,0.5c-1.2-2.2-2-4.6-2.2-7.1c-0.1-0.6-0.1-1.2-0.1-1.8c1.2,0,2.2-0.3,2.2-0.7
	c0-0.4-1.7-0.6-2.2-0.7c0-1.5,0.3-3.1,0.7-4.6c0.4-1.5,1-2.9,1.7-4.3l0,0l0,0l0,0l0.7-1.2l0,0c0.3-0.5,0.7-1,1-1.5
	c1.5-2,3.3-3.6,5.4-4.9c0.3,0.4,1.4,1.7,1.7,1.6c0.3-0.2,0.1-1.2-0.5-2.2c1.4-0.8,2.9-1.3,4.4-1.7c1.2-0.3,2.4-0.5,3.6-0.6V22
	c-3.3,0.2-6.5,1.2-9.5,2.9c-10.6,6.1-14.2,19.6-8.1,30.1c2,3.5,4.8,6.2,8,8c6.6,3.8,15,4.1,22,0c6.7-3.9,10.6-10.7,11-17.9h-1.8
	C661.1,46.5,660.9,47.9,660.5,49.2z"/>
<path fill="#FFFFFF" stroke="#FFFFFF" stroke-width="6.613496e-03" stroke-miterlimit="10" d="M661.2,45.1c0-0.1,0-0.3,0-0.4
	c-0.4,0-2.2-0.3-2.2-0.7c0-0.4,1-0.7,2.2-0.7c0-0.6,0-1.3-0.1-1.9c-0.3-2.4-1.1-4.8-2.2-7c-0.4,0.2-2.1,0.8-2.2,0.5
	c-0.2-0.3,0.5-1.1,1.6-1.7c-0.9-1.3-1.8-2.6-3-3.7c-1.1-1.1-2.2-2-3.5-2.8c-0.6,1.1-1.4,1.7-1.7,1.6c-0.3-0.1-0.1-1.2,0.5-2.2
	c-2.6-1.4-5.7-2.2-8.8-2.4c0,1.2-0.3,2.2-0.7,2.2c-0.4,0-0.7-1.5-0.8-2.1c-0.3,0-0.5,0-0.8,0v21.3L661.2,45.1L661.2,45.1z"/>
<path fill="#FFFFFF" stroke="#FFFFFF" stroke-width="6.613496e-03" stroke-miterlimit="10" d="M639.5,65.7c0.1,0,0.3,0,0.4,0c0-0.4,0.3-2.2,0.7-2.2
	c0.4,0,0.7,1,0.7,2.2c0.6,0,1.3,0,1.9-0.1c2.4-0.3,4.8-1,7-2.2c-0.2-0.4-0.2-2.4-0.5-2.2c-4.6,2.6,0.5-0.4,1.7,1.6
	c1.3-0.9,2.6-1.8,3.7-3c1.1-1.1,2-2.2,2.8-3.5c-1.1-0.6,0.9-0.1,1.1-0.4c0.2-0.3-1.5-1.3-0.4-0.7c1.4-2.7,2.3-5.8,2.4-8.8
	c-1.2,0,1.2,0,1.2-0.4s-1.7-0.9-1.2-0.9c0-0.3,0-0.5,0-0.8h-21.3v21.4H639.5z"/>
<path fill="#FFFFFF" stroke="#FFFFFF" stroke-width="6.613496e-03" stroke-miterlimit="10" d="M660,33c-2-3.5-4.8-6.2-8-8
	c-3.8-2.2-8.1-3.2-12.5-2.9v1.8c0.3,0,0.5,0,0.8,0c0,0.5,0.3,2.2,0.7,2.2c0.4,0,0.7-1,0.7-2.2c3.1,0.1,6.1,0.9,8.8,2.4
	c-0.6,1.1-0.9,2.1-0.5,2.2c0.3,0.2,1.1-0.5,1.7-1.6c1.3,0.8,2.5,1.7,3.5,2.8c1.1,1.1,2.1,2.4,3,3.7c-1,0.6-1.7,1.3-1.6,1.7
	c0.2,0.3,1.8-0.3,2.2-0.5c1.2,2.2,1.9,4.5,2.2,7c0.1,0.6,0.1,1.3,0.1,1.9c-1.2,0-2.2,0.3-2.2,0.7c0,0.4,1.8,0.7,2.2,0.7
	c0,0.1,0,0.3,0,0.4h1.8C663.2,41,662.2,36.8,660,33z"/>
</svg>
