<?xml version="1.0" encoding="UTF-8" standalone="no"?>
<svg
   xmlns:dc="http://purl.org/dc/elements/1.1/"
   xmlns:cc="http://creativecommons.org/ns#"
   xmlns:rdf="http://www.w3.org/1999/02/22-rdf-syntax-ns#"
   xmlns:svg="http://www.w3.org/2000/svg"
   xmlns="http://www.w3.org/2000/svg"
   xmlns:sodipodi="http://sodipodi.sourceforge.net/DTD/sodipodi-0.dtd"
   xmlns:inkscape="http://www.inkscape.org/namespaces/inkscape"
   version="1.1"
   id="Layer_1"
   x="0px"
   y="0px"
   width="41.573803"
   height="41.573803"
   viewBox="0 0 56.298811 56.298811"
   enable-background="new 0 0 60 100"
   xml:space="preserve"
   inkscape:version="0.48.4 r9939"
   sodipodi:docname="icon_offline.svg"><metadata
     id="metadata9"><rdf:RDF><cc:Work
         rdf:about=""><dc:format>image/svg+xml</dc:format><dc:type
           rdf:resource="http://purl.org/dc/dcmitype/StillImage" /><dc:title /></cc:Work></rdf:RDF></metadata><defs
     id="defs7" /><sodipodi:namedview
     pagecolor="#ffffff"
     bordercolor="#666666"
     borderopacity="1"
     objecttolerance="10"
     gridtolerance="10"
     guidetolerance="10"
     inkscape:pageopacity="0"
     inkscape:pageshadow="2"
     inkscape:window-width="1535"
     inkscape:window-height="876"
     id="namedview5"
     showgrid="false"
     showguides="true"
     inkscape:guide-bbox="true"
     inkscape:zoom="6.675088"
     inkscape:cx="61.066541"
     inkscape:cy="51.431136"
     inkscape:window-x="65"
     inkscape:window-y="24"
     inkscape:window-maximized="1"
     inkscape:current-layer="Layer_1"
     fit-margin-top="0"
     fit-margin-left="0"
     fit-margin-right="0"
     fit-margin-bottom="0"><sodipodi:guide
       orientation="-0.70710678,0.70710678"
       position="32.526912,74.953318"
       id="guide3004" /></sodipodi:namedview><path
     d="m 28.515205,40.130398 7.643251,-7.643253 c 0.649383,-0.649377 0.649383,-1.702384 0,-2.35177 -0.649382,-0.649377 -1.702387,-0.649377 -2.35177,0 l -7.64325,7.643253 -7.643251,-7.643253 7.643251,-7.643249 c 0.649382,-0.649382 0.649382,-1.702388 0,-2.351769 -0.649382,-0.649383 -1.702388,-0.649383 -2.351769,0 l -7.643252,7.64325 -2.64574,-2.645741 -4.703539,4.703542 C 4.552438,34.108104 4.0238776,40.696587 7.2322791,45.538878 L 0,52.771158 l 3.5276543,3.527655 7.2322797,-7.23228 c 4.842293,3.208401 11.430775,2.679838 15.697473,-1.586858 l 4.703539,-4.70354 -2.645741,-2.645737 z"
     id="path3"
     inkscape:connector-curvature="0"
     style="fill:#ffffff" /><path
     d="m 42.776135,31.160947 4.703544,-4.70354 c 4.266699,-4.266698 4.79526,-10.855181 1.586855,-15.697474 L 56.298813,3.527654 52.771159,0 45.538881,7.232278 C 40.696585,4.023879 34.108102,4.552435 29.841403,8.819135 l -4.703535,4.703539 c 17.253996,17.253997 0.137197,0.137203 17.638267,17.638273 z"
     id="path3-7"
     inkscape:connector-curvature="0"
     sodipodi:nodetypes="csccccscc"
     style="fill:#ffffff" /></svg>