<?xml version="1.0" encoding="iso-8859-1"?>
<!-- Generator: Adobe Illustrator 16.0.0, SVG Export Plug-In . SVG Version: 6.00 Build 0)  -->
<!DOCTYPE svg PUBLIC "-//W3C//DTD SVG 1.1//EN" "http://www.w3.org/Graphics/SVG/1.1/DTD/svg11.dtd">
<svg version="1.1" id="Capa_1" xmlns="http://www.w3.org/2000/svg" xmlns:xlink="http://www.w3.org/1999/xlink" x="0px" y="0px"
	 width="27.24px" height="27.24px" viewBox="0 0 27.24 27.24" style="enable-background:new 0 0 27.24 27.24;" xml:space="preserve"
	>
<g>
	<path fill="#FFFFFF" d="M21.828,0.152L0,21.57l5.414,5.518L27.24,5.669L21.828,0.152z M23.486,7.469l-0.748,0.735l-1.09-1.11l-0.69,0.679
		l1.089,1.109L21.02,9.89l-1.677-1.709L18.65,8.86l1.678,1.708l-0.748,0.734l-1.088-1.109l-0.691,0.678l1.088,1.11l-1.01,0.99
		l-1.854-1.888l-0.692,0.679l1.854,1.888l-0.748,0.732l-1.266-1.289l-0.691,0.679l1.265,1.289l-1.026,1.007l-1.853-1.888
		l-0.692,0.679l1.854,1.888l-0.747,0.734l-1.265-1.29l-0.691,0.679l1.265,1.29l-0.948,0.931L9.79,17.201l-0.692,0.68l1.854,1.889
		l-0.748,0.732l-1.265-1.289l-0.69,0.68l1.264,1.289l-1.026,1.008l-1.854-1.889l-0.691,0.679l1.853,1.889l-0.749,0.734l-1.265-1.29
		l-0.69,0.679l1.265,1.29l-0.924,0.906l-3.53-3.598L21.811,2.053L25.34,5.65l-1.163,1.142L22.5,5.083l-0.691,0.678L23.486,7.469z"/>
</g>
</svg>