<?xml version="1.0" encoding="utf-8"?>
<!-- Generator: Adobe Illustrator 18.0.0, SVG Export Plug-In . SVG Version: 6.00 Build 0)  -->
<!DOCTYPE svg PUBLIC "-//W3C//DTD SVG 1.1//EN" "http://www.w3.org/Graphics/SVG/1.1/DTD/svg11.dtd">
<svg version="1.1"
	 id="compas" sodipodi:docname="length.svg" inkscape:version="0.48.4 r9939" xmlns:inkscape="http://www.inkscape.org/namespaces/inkscape" xmlns:sodipodi="http://sodipodi.sourceforge.net/DTD/sodipodi-0.dtd" xmlns:cc="http://creativecommons.org/ns#" xmlns:dc="http://purl.org/dc/elements/1.1/" xmlns:rdf="http://www.w3.org/1999/02/22-rdf-syntax-ns#" xmlns:svg="http://www.w3.org/2000/svg"
	 xmlns="http://www.w3.org/2000/svg" xmlns:xlink="http://www.w3.org/1999/xlink" x="0px" y="0px" width="32.4px" height="47.1px"
	 viewBox="63 -0.1 32.4 47.1" enable-background="new 63 -0.1 32.4 47.1" xml:space="preserve">
<path id="path7" inkscape:connector-curvature="0" fill="#FFFFFF" d="M70.1,28c-1.1,0-2.2,0-3.3,0c-0.4,0-0.8,0-1.2-0.1
	c-0.6-0.1-0.9-0.7-0.9-1.4c0.1-0.8,0.4-1.1,1.1-1.2c1.5,0,3,0,4.4,0c0.7,0,0.9-0.1,1.1-0.8c0.5-1.2,0.9-2.4,1.4-3.6
	c0.1-0.3,0.1-0.5-0.1-0.8c-2-2-2.9-4.4-2.7-7.2c0.3-3.8,2.9-6.8,6.2-7.9C77.3,4.8,77.1,5,77.1,4c0-0.9,0-1.8,0-2.7
	c0-1,0.5-1.4,1.5-1.4c0.4,0,0.9,0,1.3,0c0.9,0,1.3,0.4,1.3,1.3c0,1,0,2,0,3c0,0.4,0.1,0.7,0.6,0.8c3.5,1,6.1,4.2,6.5,7.9
	c0.2,2.8-0.6,5.2-2.6,7.3c-0.3,0.3-0.3,0.5-0.2,0.8c0.5,1.2,1,2.4,1.4,3.7c0.2,0.5,0.5,0.7,1,0.7c1.4,0,2.8,0,4.2,0
	c1.1,0,1.7,0.8,1.3,1.9c-0.2,0.5-0.6,0.8-1.2,0.8c-1.2,0-2.3,0-3.5,0c-0.2,0-0.3,0-0.6,0c0.2,0.6,0.4,1.1,0.6,1.6
	c1.6,4.1,3.2,8.2,4.8,12.3c0.6,1.4,1.1,2.9,1.7,4.3c0,0.1,0.1,0.2,0.1,0.3c0,0.2-0.1,0.4-0.2,0.6c-0.2-0.1-0.4-0.1-0.6-0.2
	c-0.2-0.1-0.2-0.3-0.3-0.5c-2.6-4.8-5.1-9.7-7.7-14.5c-0.5-1-1.1-2.1-1.7-3.1c-0.2-0.5-0.6-0.6-1.1-0.6c-1.1-0.1-1.9,0.1-2.5,1.1
	c-0.4,0.6-1.1,1.1-1.8,1.2c-0.8,0.1-1.5-0.2-2.1-0.7c-0.4-0.3-0.7-0.7-1-1.1c-0.3-0.3-0.6-0.5-1-0.5c-1.9,0-1.7-0.2-2.5,1.5
	c-2.9,5.4-5.7,10.8-8.6,16.2c-0.2,0.3-0.3,0.6-0.5,0.9c-0.2,0.3-0.3,0.6-0.7,0.4c-0.4-0.2-0.2-0.5-0.1-0.8c0.4-1.2,0.9-2.3,1.3-3.5
	c1.6-4.2,3.3-8.3,4.9-12.5c0.2-0.6,0.4-1.1,0.7-1.7C70,28.4,70.1,28.2,70.1,28z M79.2,9c-2.6-0.1-4.8,2.2-4.8,4.8
	c0,2.6,2.3,4.8,4.8,4.8c2.6,0,4.7-2.2,4.8-4.8C84,11.2,81.8,8.9,79.2,9z M75.2,25.3c0.3,0,0.5,0.1,0.7,0c0.4-0.1,0.7-0.3,1-0.6
	c0.6-0.5,1.3-1,2.1-1c1-0.1,1.8,0.5,2.5,1.1c0.5,0.4,1,0.6,1.7,0.5c-0.1-0.2-0.2-0.4-0.2-0.5c-0.3-0.6-0.7-1.2-1-1.9
	c-0.2-0.3-0.4-0.4-0.7-0.3c-1.1,0.3-2.3,0.3-3.5,0.2c-0.4-0.1-0.9-0.3-1.1-0.1c-0.3,0.2-0.4,0.7-0.6,1
	C75.8,24.2,75.5,24.7,75.2,25.3z"/>
</svg>
