<?xml version="1.0" encoding="utf-8"?>
<!-- Generator: Adobe Illustrator 18.0.0, SVG Export Plug-In . SVG Version: 6.00 Build 0)  -->
<!DOCTYPE svg PUBLIC "-//W3C//DTD SVG 1.1//EN" "http://www.w3.org/Graphics/SVG/1.1/DTD/svg11.dtd">
<svg version="1.1" id="Calque_1" xmlns="http://www.w3.org/2000/svg" xmlns:xlink="http://www.w3.org/1999/xlink" x="0px" y="0px"
	 width="292.4px" height="40.7px" viewBox="-142 48.5 292.4 40.7" enable-background="new -142 48.5 292.4 40.7"
	 xml:space="preserve">
<g>
	<path fill="#AEC90E" d="M-128.1,60.4v3.2h0.1c0.2-0.5,0.5-1,0.9-1.5s0.8-0.8,1.3-1.2c0.5-0.3,1-0.6,1.5-0.8
		c0.6-0.2,1.2-0.3,1.7-0.3c0.3,0,0.6,0.1,1,0.2v4.4c-0.2-0.1-0.5-0.1-0.8-0.1c-0.3-0.1-0.6-0.1-0.9-0.1c-0.8,0-1.6,0.1-2.2,0.4
		c-0.6,0.3-1.1,0.7-1.4,1.2c-0.4,0.5-0.6,1.1-0.8,1.7c-0.1,0.6-0.3,1.4-0.3,2.2v7.7h-4.8V60.4H-128.1z"/>
	<path fill="#AEC90E" d="M-119,62.9c0.5-0.7,1.1-1.3,1.9-1.7c0.8-0.4,1.6-0.8,2.6-1s1.9-0.3,2.8-0.3c0.8,0,1.7,0.1,2.6,0.2
		c0.9,0.1,1.7,0.4,2.4,0.7c0.7,0.4,1.3,0.8,1.8,1.5c0.4,0.6,0.7,1.5,0.7,2.5v8.9c0,0.8,0.1,1.5,0.1,2.2c0.1,0.7,0.3,1.2,0.4,1.6
		h-4.8c-0.1-0.3-0.2-0.5-0.2-0.8c-0.1-0.3-0.1-0.6-0.1-0.8c-0.8,0.8-1.7,1.3-2.6,1.6c-1,0.3-2.1,0.4-3.1,0.4c-0.8,0-1.6-0.1-2.3-0.3
		s-1.3-0.5-1.9-0.9c-0.5-0.4-1-1-1.2-1.6c-0.3-0.6-0.4-1.4-0.4-2.3c0-1,0.2-1.8,0.5-2.4c0.3-0.6,0.8-1.2,1.3-1.5
		c0.5-0.4,1.2-0.6,1.9-0.8c0.7-0.2,1.4-0.3,2.1-0.4s1.4-0.2,2.1-0.3c0.7-0.1,1.3-0.2,1.8-0.3c0.5-0.1,1-0.3,1.3-0.6
		c0.3-0.3,0.4-0.6,0.4-1.1c0-0.5-0.1-0.9-0.3-1.2c-0.2-0.3-0.4-0.5-0.6-0.7s-0.6-0.3-1-0.3c-0.4-0.1-0.8-0.1-1.2-0.1
		c-0.9,0-1.7,0.2-2.2,0.6c-0.5,0.4-0.8,1.1-0.9,2h-4.7C-119.7,64.6-119.4,63.6-119,62.9z M-109.6,69.6c-0.3,0.1-0.6,0.2-1,0.3
		c-0.3,0.1-0.7,0.1-1.1,0.2c-0.4,0.1-0.8,0.1-1.2,0.2c-0.4,0.1-0.7,0.1-1,0.3c-0.3,0.1-0.6,0.3-0.9,0.4c-0.3,0.2-0.4,0.4-0.6,0.7
		c-0.1,0.3-0.3,0.6-0.3,1.1c0,0.4,0.1,0.8,0.3,1.1c0.1,0.3,0.4,0.5,0.6,0.7c0.3,0.2,0.6,0.3,0.9,0.3c0.4,0.1,0.7,0.1,1.1,0.1
		c0.9,0,1.7-0.1,2.2-0.4c0.5-0.3,0.9-0.7,1.2-1.1c0.3-0.4,0.4-0.9,0.4-1.3c0.1-0.4,0.1-0.8,0.1-1.1v-1.7
		C-109.1,69.3-109.3,69.5-109.6,69.6z"/>
	<path fill="#AEC90E" d="M-96.5,60.4v2.4h0.1c0.6-1,1.3-1.7,2.3-2.2c1-0.4,1.9-0.7,2.9-0.7c1.3,0,2.3,0.2,3.1,0.5
		c0.8,0.3,1.4,0.8,1.9,1.4c0.4,0.6,0.8,1.3,1,2.2C-85,65-85,65.9-85,67v10.5h-4.7v-9.6c0-1.4-0.2-2.4-0.6-3.1c-0.4-0.7-1.2-1-2.4-1
		c-1.3,0-2.2,0.4-2.8,1.2c-0.6,0.8-0.8,2-0.8,3.8v9h-4.7V60.4H-96.5z"/>
	<path fill="#AEC90E" d="M-70.3,75.4c-0.6,0.9-1.3,1.6-2.2,2c-0.9,0.4-1.9,0.6-3,0.6c-1.3,0-2.4-0.3-3.4-0.8s-1.8-1.2-2.4-2.1
		c-0.6-0.8-1.1-1.8-1.4-3c-0.3-1.1-0.5-2.2-0.5-3.5c0-1.2,0.2-2.2,0.5-3.3s0.8-2,1.4-2.8c0.6-0.8,1.4-1.5,2.4-2
		c1-0.5,2.1-0.8,3.3-0.8c1,0,2,0.2,2.9,0.6s1.7,1.1,2.2,1.9h0.1v-8.5h4.7v23.7h-4.5L-70.3,75.4L-70.3,75.4z M-70.5,66.9
		c-0.1-0.6-0.4-1.2-0.7-1.7c-0.3-0.5-0.7-0.9-1.2-1.2c-0.5-0.3-1.2-0.4-1.9-0.4s-1.4,0.1-1.9,0.4c-0.5,0.3-1,0.7-1.3,1.2
		s-0.6,1.1-0.7,1.7c-0.1,0.6-0.2,1.3-0.2,2.1c0,0.6,0.1,1.3,0.3,2c0.1,0.6,0.4,1.3,0.8,1.8c0.3,0.5,0.8,1,1.3,1.3
		c0.5,0.3,1.2,0.4,1.9,0.4c0.8,0,1.4-0.1,1.9-0.4c0.5-0.3,1-0.7,1.2-1.2c0.3-0.5,0.5-1.1,0.6-1.8c0.1-0.6,0.2-1.3,0.2-2.1
		C-70.3,68.2-70.4,67.5-70.5,66.9z"/>
	<path fill="#AEC90E" d="M-63.9,65.2c0.4-1.1,1-2.1,1.8-2.8c0.8-0.8,1.7-1.4,2.8-1.8c1.1-0.4,2.3-0.6,3.7-0.6c1.3,0,2.6,0.2,3.7,0.6
		s2.1,1,2.8,1.8c0.8,0.8,1.3,1.7,1.8,2.8s0.6,2.4,0.6,3.7c0,1.3-0.2,2.6-0.6,3.7s-1,2.1-1.8,2.8c-0.8,0.8-1.7,1.4-2.8,1.8
		c-1.1,0.4-2.3,0.6-3.7,0.6c-1.3,0-2.6-0.2-3.7-0.6c-1.1-0.4-2-1-2.8-1.8c-0.8-0.8-1.3-1.7-1.8-2.8c-0.4-1.1-0.6-2.4-0.6-3.7
		C-64.5,67.6-64.3,66.4-63.9,65.2z M-59.6,71c0.1,0.6,0.4,1.2,0.7,1.7c0.3,0.5,0.8,1,1.3,1.2c0.5,0.3,1.2,0.4,2,0.4
		c0.8,0,1.5-0.1,2-0.4c0.5-0.3,1-0.7,1.3-1.2c0.3-0.5,0.6-1.1,0.7-1.7c0.1-0.6,0.2-1.3,0.2-2c0-0.7-0.1-1.3-0.2-2.1
		c-0.1-0.6-0.4-1.2-0.7-1.7c-0.3-0.5-0.8-0.9-1.3-1.2s-1.2-0.4-2-0.4c-0.8,0-1.5,0.2-2,0.4c-0.5,0.3-1,0.7-1.3,1.2
		c-0.3,0.5-0.6,1.1-0.7,1.7c-0.1,0.6-0.2,1.3-0.2,2.1C-59.8,69.6-59.7,70.4-59.6,71z"/>
	<path fill="#1E1E1C" d="M-36.3,53.8v23.7h-1.3V53.8H-36.3z"/>
	<path fill="#1E1E1C" d="M-34,69c0-1.2,0.2-2.4,0.5-3.4c0.3-1.1,0.8-2,1.5-2.8c0.6-0.8,1.5-1.5,2.4-1.9s2.1-0.7,3.3-0.7
		c1.2,0,2.4,0.3,3.3,0.7c1,0.4,1.8,1.1,2.4,1.9s1.2,1.7,1.5,2.8c0.3,1.1,0.5,2.2,0.5,3.4c0,1.2-0.2,2.4-0.5,3.5s-0.8,2.1-1.5,2.8
		c-0.6,0.8-1.5,1.5-2.4,1.9c-1,0.4-2.1,0.7-3.3,0.7c-1.2,0-2.4-0.3-3.3-0.7s-1.8-1.1-2.4-1.9c-0.6-0.8-1.2-1.7-1.5-2.8
		C-33.8,71.4-34,70.2-34,69z M-32.7,69c0,1,0.1,2,0.4,3c0.3,1,0.7,1.8,1.3,2.5c0.6,0.7,1.2,1.3,2.1,1.7c0.8,0.4,1.7,0.6,2.8,0.6
		s2-0.2,2.8-0.6c0.8-0.4,1.5-1,2.1-1.7c0.6-0.7,1-1.5,1.3-2.5c0.3-1,0.4-1.9,0.4-3c0-1-0.1-2-0.4-3c-0.3-1-0.7-1.8-1.3-2.5
		c-0.6-0.7-1.2-1.3-2.1-1.7s-1.7-0.6-2.8-0.6s-2,0.2-2.8,0.6c-0.8,0.4-1.5,1-2.1,1.7c-0.6,0.7-1,1.5-1.3,2.5
		C-32.6,67-32.7,68-32.7,69z"/>
	<path fill="#1E1E1C" d="M-17.1,57.3v-3.4h1.3v3.4H-17.1z M-17.1,77.6V60.5h1.3v17.1H-17.1z"/>
	<path fill="#1E1E1C" d="M-11.5,64.3h0.1c0.1-0.6,0.4-1.1,0.8-1.5c0.4-0.5,0.9-0.9,1.5-1.3s1.2-0.6,1.9-0.8s1.5-0.3,2.2-0.3v1.3
		c-0.6-0.1-1.4,0-2.2,0.2s-1.7,0.7-2.4,1.5c-0.3,0.3-0.6,0.6-0.8,1c-0.3,0.3-0.4,0.6-0.6,1c-0.1,0.4-0.3,0.8-0.4,1.3
		c-0.1,0.4-0.1,1-0.2,1.7v9.3h-1.3V60.5h1.3L-11.5,64.3L-11.5,64.3z"/>
	<path fill="#1E1E1C" d="M-4.8,69.2v0.2c0,1,0.1,1.9,0.4,2.8c0.3,0.9,0.6,1.7,1.2,2.4c0.5,0.7,1.2,1.2,2,1.6
		c0.8,0.4,1.7,0.6,2.8,0.6c1.7,0,3.1-0.4,4-1.3c1-0.9,1.7-2.1,2.1-3.7h1.3c-0.4,2-1.2,3.5-2.4,4.6c-1.2,1.1-2.9,1.6-4.9,1.6
		c-1.3,0-2.4-0.3-3.3-0.7c-1-0.4-1.7-1.1-2.4-1.9c-0.6-0.8-1.1-1.7-1.4-2.8C-5.9,71.4-6,70.3-6,69.1s0.2-2.3,0.5-3.4
		c0.3-1.1,0.8-2.1,1.4-2.9s1.4-1.5,2.4-2S0.4,60,1.7,60c1.2,0,2.2,0.2,3.1,0.6c0.9,0.4,1.7,1,2.3,1.8s1.1,1.7,1.4,2.6
		c0.3,1,0.5,2.1,0.5,3.2c0,0.1,0,0.3,0,0.4s0,0.3,0,0.3H-4.8V69.2z M7.7,68.1c-0.1-0.9-0.2-1.8-0.4-2.6c-0.3-0.8-0.6-1.5-1.2-2.2
		c-0.5-0.6-1.2-1.2-1.9-1.5c-0.8-0.4-1.6-0.6-2.6-0.6c-1,0-1.9,0.2-2.7,0.6c-0.8,0.4-1.4,0.9-2,1.5c-0.5,0.6-1,1.3-1.2,2.2
		c-0.3,0.8-0.4,1.7-0.5,2.6L7.7,68.1L7.7,68.1z"/>
	<path fill="#1E1E1C" d="M10.9,67.9h7.1v1.3h-7.1V67.9z"/>
	<path fill="#1E1E1C" d="M32.1,74.1L32.1,74.1c-0.3,0.5-0.6,1-0.9,1.4c-0.4,0.4-0.8,0.8-1.3,1.2c-0.5,0.4-1.2,0.6-1.9,0.8
		c-0.7,0.2-1.4,0.3-2.2,0.3c-1.8,0-3.2-0.4-4.2-1.2c-1-0.8-1.5-2-1.5-3.7c0-1,0.2-1.8,0.6-2.4c0.4-0.6,0.9-1.2,1.5-1.5
		c0.6-0.4,1.3-0.6,2.1-0.8c0.8-0.1,1.5-0.3,2.1-0.3l1.9-0.2c0.9-0.1,1.6-0.2,2.1-0.3c0.5-0.1,0.9-0.3,1.2-0.6c0.3-0.3,0.4-0.6,0.5-1
		c0.1-0.4,0.1-0.9,0.1-1.5c0-0.4-0.1-0.9-0.3-1.3c-0.2-0.4-0.4-0.8-0.8-1.1c-0.4-0.3-0.8-0.6-1.5-0.7c-0.6-0.1-1.3-0.3-2.2-0.3
		c-1.5,0-2.8,0.4-3.7,1.2c-1,0.8-1.5,1.9-1.5,3.4h-1.3c0.1-1.9,0.7-3.3,1.8-4.2c1.1-1,2.7-1.4,4.8-1.4s3.5,0.4,4.5,1.2
		s1.4,1.9,1.4,3.1v9.9c0,0.3,0,0.5,0,0.7c0,0.3,0.1,0.4,0.1,0.6c0.1,0.2,0.2,0.4,0.3,0.5c0.1,0.1,0.4,0.2,0.6,0.2
		c0.2,0,0.5-0.1,0.9-0.1v1.1c-0.3,0.1-0.7,0.1-1,0.1c-0.5,0-0.9-0.1-1.2-0.2s-0.5-0.3-0.7-0.5c-0.1-0.2-0.3-0.4-0.3-0.8
		c-0.1-0.3-0.1-0.6-0.1-1v-1H32.1z M32.1,67.9c-0.3,0.4-0.8,0.6-1.4,0.8c-0.6,0.1-1.3,0.3-2.1,0.3l-2.1,0.2
		c-0.6,0.1-1.2,0.2-1.9,0.3c-0.6,0.1-1.2,0.3-1.7,0.6c-0.5,0.3-0.9,0.7-1.2,1.2c-0.3,0.5-0.4,1.2-0.4,1.9c0,1.3,0.4,2.2,1.2,2.8
		c0.8,0.6,1.9,0.9,3.3,0.9s2.6-0.3,3.4-0.8c0.8-0.5,1.5-1.1,1.9-1.8c0.4-0.6,0.7-1.3,0.8-1.9c0.1-0.6,0.2-1,0.2-1.3
		C32.1,71.1,32.1,67.9,32.1,67.9z"/>
	<path fill="#1E1E1C" d="M42.8,61.6h-3.7v11.9c0,0.7,0.1,1.2,0.3,1.6c0.1,0.4,0.4,0.7,0.7,0.9c0.3,0.2,0.7,0.3,1.2,0.4
		c0.4,0.1,1,0.1,1.6,0.1v1.1c-0.6,0.1-1.3,0.1-1.9,0s-1.2-0.2-1.6-0.5c-0.4-0.3-0.8-0.7-1.1-1.2c-0.3-0.6-0.4-1.3-0.3-2.3V61.6h-3.1
		v-1.1h3.1v-5.3h1.3v5.3h3.7v1.1H42.8z"/>
	<path fill="#1E1E1C" d="M45.6,53.8v23.7h-1.3V53.8H45.6z"/>
	<path fill="#1E1E1C" d="M60,74.1L60,74.1c-0.3,0.5-0.6,1-0.9,1.4c-0.4,0.4-0.8,0.8-1.3,1.2c-0.5,0.4-1.2,0.6-1.9,0.8
		c-0.7,0.2-1.4,0.3-2.2,0.3c-1.8,0-3.2-0.4-4.2-1.2c-1-0.8-1.5-2-1.5-3.7c0-1,0.2-1.8,0.6-2.4c0.4-0.6,0.9-1.2,1.5-1.5
		c0.6-0.4,1.3-0.6,2.1-0.8s1.5-0.3,2.1-0.3l1.9-0.2c0.9-0.1,1.6-0.2,2.1-0.3c0.5-0.1,0.9-0.3,1.2-0.6c0.3-0.3,0.4-0.6,0.5-1
		c0.1-0.4,0.1-0.9,0.1-1.5c0-0.4-0.1-0.9-0.3-1.3c-0.2-0.4-0.4-0.8-0.8-1.1c-0.4-0.3-0.8-0.6-1.5-0.7c-0.6-0.1-1.3-0.3-2.2-0.3
		c-1.5,0-2.8,0.4-3.7,1.2c-1,0.8-1.5,1.9-1.5,3.4h-1.3c0.1-1.9,0.7-3.3,1.8-4.2c1.1-1,2.7-1.4,4.8-1.4c2.1,0,3.5,0.4,4.5,1.2
		c1,0.8,1.4,1.9,1.4,3.1v9.9c0,0.3,0,0.5,0,0.7c0,0.3,0.1,0.4,0.1,0.6s0.2,0.4,0.3,0.5c0.1,0.1,0.4,0.2,0.6,0.2
		c0.2,0,0.5-0.1,0.9-0.1v1.1c-0.3,0.1-0.7,0.1-1,0.1c-0.5,0-0.9-0.1-1.2-0.2c-0.3-0.1-0.5-0.3-0.7-0.5c-0.1-0.2-0.3-0.4-0.3-0.8
		c-0.1-0.3-0.1-0.6-0.1-1v-1H60z M60,67.9c-0.3,0.4-0.8,0.6-1.4,0.8c-0.6,0.1-1.3,0.3-2.1,0.3l-2.1,0.2c-0.6,0.1-1.2,0.2-1.9,0.3
		c-0.6,0.1-1.2,0.3-1.7,0.6c-0.5,0.3-0.9,0.7-1.2,1.2c-0.3,0.5-0.4,1.2-0.4,1.9c0,1.3,0.4,2.2,1.2,2.8c0.8,0.6,1.9,0.9,3.3,0.9
		s2.6-0.3,3.4-0.8c0.8-0.5,1.5-1.1,1.9-1.8c0.4-0.6,0.7-1.3,0.8-1.9c0.1-0.6,0.2-1,0.2-1.3C60,71.1,60,67.9,60,67.9z"/>
	<path fill="#1E1E1C" d="M64.4,60.5h1.3v3.7h0.1c0.2-0.6,0.5-1.2,1-1.7c0.4-0.5,0.9-0.9,1.4-1.3c0.5-0.3,1.2-0.6,1.8-0.8
		c0.6-0.2,1.3-0.3,1.9-0.3c1,0,1.9,0.1,2.6,0.4c0.7,0.3,1.3,0.6,1.7,1c0.4,0.4,0.8,0.8,1,1.3c0.3,0.5,0.4,1,0.6,1.5
		c0.1,0.5,0.2,1,0.2,1.5c0,0.4,0.1,0.9,0.1,1.2v10.5h-1.3V66.8c0-0.4-0.1-1-0.1-1.6c-0.1-0.6-0.3-1.3-0.6-1.9
		c-0.3-0.6-0.8-1.1-1.5-1.5c-0.6-0.4-1.5-0.6-2.7-0.6c-1,0-1.9,0.2-2.6,0.5c-0.8,0.4-1.4,0.8-1.9,1.5s-1,1.4-1.2,2.2
		c-0.3,0.9-0.4,1.9-0.4,2.9v9.3h-1.3L64.4,60.5L64.4,60.5z"/>
	<path fill="#1E1E1C" d="M86.5,61.6h-3.7v11.9c0,0.7,0.1,1.2,0.3,1.6c0.1,0.4,0.4,0.7,0.7,0.9c0.3,0.2,0.7,0.3,1.2,0.4
		c0.4,0.1,1,0.1,1.6,0.1v1.1c-0.6,0.1-1.3,0.1-1.9,0S83.5,77.4,83,77c-0.4-0.3-0.8-0.7-1.1-1.2c-0.3-0.6-0.4-1.3-0.3-2.3V61.6h-3.1
		v-1.1h3.1v-5.3h1.3v5.3h3.7v1.1H86.5z"/>
	<path fill="#1E1E1C" d="M88,57.3v-3.4h1.3v3.4H88z M88,77.6V60.5h1.3v17.1H88z"/>
	<path fill="#1E1E1C" d="M105.6,73.8L105.6,73.8c-0.3,0.6-0.6,1.3-1,1.8c-0.4,0.5-0.9,1-1.5,1.3c-0.6,0.4-1.2,0.6-1.9,0.8
		c-0.6,0.2-1.3,0.3-2,0.3c-1.3,0-2.4-0.3-3.3-0.7c-1-0.4-1.7-1.1-2.4-1.9c-0.6-0.8-1.1-1.7-1.4-2.8s-0.4-2.2-0.4-3.5
		c0-1.2,0.1-2.3,0.4-3.3c0.3-1.1,0.7-2,1.3-2.8c0.6-0.8,1.3-1.5,2.3-1.9c0.9-0.5,2.1-0.7,3.3-0.7c1.5,0,2.8,0.3,3.9,1
		c1.1,0.7,1.9,1.7,2.6,3h0.1v-3.7h1.2v23.2h-1.2L105.6,73.8L105.6,73.8z M99.2,76.8c1.1,0,2.1-0.2,2.8-0.6c0.8-0.4,1.5-1,2-1.8
		c0.5-0.8,0.9-1.6,1.2-2.5c0.3-1,0.4-1.9,0.4-2.9c0-1-0.1-1.9-0.4-2.9c-0.3-1-0.6-1.8-1.2-2.5c-0.5-0.7-1.2-1.3-1.9-1.7
		c-0.8-0.4-1.7-0.6-2.8-0.6c-1.1,0-2.1,0.2-2.8,0.6c-0.8,0.4-1.5,1-2,1.7c-0.5,0.7-0.9,1.5-1.2,2.5c-0.3,1-0.4,1.9-0.4,2.9
		c0,1,0.1,2.1,0.3,3c0.3,1,0.6,1.8,1.2,2.5c0.5,0.7,1.2,1.3,2,1.7C97.1,76.7,98,76.8,99.2,76.8z"/>
	<path fill="#1E1E1C" d="M124.4,77.6h-1.3v-3.7h-0.1c-0.2,0.6-0.5,1.2-1,1.7c-0.4,0.5-0.9,0.9-1.4,1.3c-0.5,0.4-1.2,0.6-1.8,0.8
		c-0.6,0.2-1.3,0.3-1.9,0.3c-1,0-1.9-0.1-2.6-0.4s-1.3-0.6-1.7-1c-0.4-0.4-0.8-0.8-1-1.3c-0.3-0.5-0.4-1-0.6-1.5
		c-0.1-0.5-0.2-1-0.2-1.5c0-0.4-0.1-0.9-0.1-1.2V60.5h1.3v10.8c0,0.4,0.1,1,0.1,1.6c0.1,0.6,0.3,1.2,0.6,1.8
		c0.3,0.6,0.8,1.1,1.4,1.5c0.6,0.4,1.5,0.6,2.7,0.6c1,0,1.8-0.2,2.6-0.5c0.8-0.3,1.4-0.8,1.9-1.5c0.5-0.6,1-1.4,1.2-2.2
		c0.3-0.9,0.4-1.9,0.4-2.9v-9.3h1.3v17.1H124.4z"/>
	<path fill="#1E1E1C" d="M127.1,69.2v0.2c0,1,0.1,1.9,0.4,2.8c0.3,0.9,0.6,1.7,1.2,2.4c0.5,0.7,1.2,1.2,2,1.6
		c0.8,0.4,1.7,0.6,2.8,0.6c1.7,0,3.1-0.4,4-1.3c1-0.9,1.7-2.1,2.1-3.7h1.3c-0.4,2-1.2,3.5-2.4,4.6c-1.2,1.1-2.9,1.6-4.9,1.6
		c-1.3,0-2.4-0.3-3.3-0.7c-1-0.4-1.7-1.1-2.4-1.9c-0.6-0.8-1.1-1.7-1.4-2.8c-0.3-1.1-0.4-2.2-0.4-3.5s0.2-2.3,0.5-3.4
		c0.3-1.1,0.8-2.1,1.4-2.9s1.4-1.5,2.4-2c1-0.5,2.1-0.8,3.4-0.8c1.2,0,2.2,0.2,3.1,0.6c0.9,0.4,1.7,1,2.3,1.8s1.1,1.7,1.4,2.6
		c0.3,1,0.5,2.1,0.5,3.2c0,0.1,0,0.3,0,0.4s0,0.3,0,0.3h-13.9V69.2z M139.7,68.1c-0.1-0.9-0.2-1.8-0.4-2.6c-0.3-0.8-0.6-1.5-1.2-2.2
		c-0.5-0.6-1.2-1.2-1.9-1.5c-0.8-0.4-1.6-0.6-2.6-0.6c-1,0-1.9,0.2-2.7,0.6c-0.8,0.4-1.4,0.9-2,1.5c-0.6,0.6-1,1.3-1.2,2.2
		c-0.3,0.8-0.4,1.7-0.5,2.6L139.7,68.1L139.7,68.1z"/>
</g>
</svg>
