<?xml version="1.0" encoding="utf-8"?>
<!-- Generator: Adobe Illustrator 18.0.0, SVG Export Plug-In . SVG Version: 6.00 Build 0)  -->
<!DOCTYPE svg PUBLIC "-//W3C//DTD SVG 1.1//EN" "http://www.w3.org/Graphics/SVG/1.1/DTD/svg11.dtd">
<svg version="1.1" id="Calque_1" xmlns="http://www.w3.org/2000/svg" xmlns:xlink="http://www.w3.org/1999/xlink" x="0px" y="0px"
	 width="340.5px" height="40.7px" viewBox="0 0 340.5 40.7" enable-background="new 0 0 340.5 40.7" xml:space="preserve">
<g>
	<path fill="#AEC900" d="M20.8,6.9c1.1,0,2.2,0.2,3.1,0.6c0.9,0.4,1.7,0.9,2.3,1.5c0.7,0.6,1.1,1.4,1.5,2.2c0.3,0.8,0.5,1.7,0.5,2.7
		c0,1.5-0.3,2.8-0.9,3.9c-0.6,1.1-1.7,1.9-3.1,2.5v0.1c0.7,0.2,1.3,0.5,1.7,0.9c0.4,0.4,0.8,0.9,1.1,1.4c0.3,0.5,0.5,1.1,0.6,1.8
		c0.1,0.6,0.2,1.3,0.3,1.9c0,0.4,0,0.9,0.1,1.4c0,0.5,0.1,1.1,0.1,1.7s0.2,1.1,0.3,1.6c0.1,0.5,0.3,0.9,0.6,1.3h-5.6
		c-0.3-0.8-0.5-1.8-0.6-2.9c-0.1-1.1-0.2-2.2-0.3-3.2c-0.2-1.3-0.6-2.3-1.2-2.9c-0.6-0.6-1.6-0.9-3-0.9h-5.6v9.9H7.2V6.9H20.8z
		 M18.8,18.4c1.3,0,2.2-0.3,2.9-0.9c0.6-0.6,1-1.5,1-2.8c0-1.2-0.3-2.1-1-2.7c-0.6-0.6-1.6-0.8-2.9-0.8h-6.1v7.1H18.8z"/>
	<path fill="#AEC900" d="M32.4,16.6c0.5-0.8,1.2-1.4,2-1.9c0.8-0.5,1.7-0.8,2.7-1c1-0.2,2-0.3,3-0.3c0.9,0,1.9,0.1,2.8,0.2
		c0.9,0.1,1.8,0.4,2.6,0.8c0.8,0.4,1.4,0.9,1.9,1.6c0.5,0.7,0.7,1.6,0.7,2.7v9.6c0,0.8,0,1.6,0.1,2.4c0.1,0.8,0.3,1.3,0.5,1.7h-5.1
		c-0.1-0.3-0.2-0.6-0.2-0.9c-0.1-0.3-0.1-0.6-0.1-0.9c-0.8,0.8-1.8,1.4-2.8,1.7c-1.1,0.3-2.2,0.5-3.3,0.5c-0.9,0-1.7-0.1-2.4-0.3
		c-0.8-0.2-1.4-0.5-2-1c-0.6-0.4-1-1-1.3-1.7c-0.3-0.7-0.5-1.5-0.5-2.4c0-1,0.2-1.9,0.6-2.6c0.4-0.7,0.8-1.2,1.4-1.6s1.2-0.7,2-0.9
		s1.5-0.4,2.3-0.5c0.8-0.1,1.5-0.2,2.2-0.3c0.7-0.1,1.4-0.2,2-0.3c0.6-0.1,1-0.3,1.3-0.6s0.5-0.7,0.5-1.2c0-0.5-0.1-1-0.3-1.3
		c-0.2-0.3-0.4-0.6-0.7-0.7c-0.3-0.2-0.6-0.3-1-0.4c-0.4-0.1-0.8-0.1-1.3-0.1c-1,0-1.8,0.2-2.3,0.6c-0.6,0.4-0.9,1.1-1,2.1h-5
		C31.6,18.4,31.9,17.4,32.4,16.6z M42.4,23.7c-0.3,0.1-0.7,0.2-1,0.3c-0.4,0.1-0.8,0.1-1.2,0.2c-0.4,0-0.8,0.1-1.2,0.2
		c-0.4,0.1-0.8,0.2-1.1,0.3c-0.4,0.1-0.7,0.3-1,0.5c-0.3,0.2-0.5,0.5-0.7,0.8C36.1,26.2,36,26.6,36,27c0,0.4,0.1,0.8,0.2,1.1
		c0.2,0.3,0.4,0.6,0.7,0.7c0.3,0.2,0.6,0.3,1,0.4c0.4,0.1,0.8,0.1,1.2,0.1c1,0,1.8-0.2,2.3-0.5c0.5-0.3,0.9-0.7,1.2-1.2
		c0.3-0.5,0.4-0.9,0.5-1.4c0.1-0.5,0.1-0.9,0.1-1.1v-1.9C42.9,23.5,42.7,23.6,42.4,23.7z"/>
	<path fill="#AEC900" d="M55.6,13.9v2.6h0.1c0.6-1.1,1.5-1.8,2.5-2.3c1-0.5,2.1-0.7,3.1-0.7c1.3,0,2.5,0.2,3.3,0.6
		c0.9,0.4,1.5,0.9,2,1.5c0.5,0.7,0.8,1.4,1,2.4c0.2,0.9,0.3,2,0.3,3.1v11.3h-5V21.9c0-1.5-0.2-2.6-0.7-3.4c-0.5-0.7-1.3-1.1-2.5-1.1
		c-1.4,0-2.4,0.4-3,1.2c-0.6,0.8-0.9,2.2-0.9,4v9.6h-5V13.9H55.6z"/>
	<path fill="#AEC900" d="M84,29.9c-0.6,1-1.4,1.7-2.3,2.1s-2,0.7-3.2,0.7c-1.4,0-2.6-0.3-3.6-0.8c-1-0.5-1.9-1.3-2.6-2.2
		c-0.7-0.9-1.2-2-1.5-3.1c-0.3-1.2-0.5-2.4-0.5-3.7c0-1.2,0.2-2.4,0.5-3.6c0.3-1.1,0.9-2.2,1.5-3c0.7-0.9,1.5-1.6,2.5-2.1
		c1-0.5,2.2-0.8,3.6-0.8c1.1,0,2.1,0.2,3.1,0.7c1,0.5,1.8,1.1,2.3,2h0.1V6.9h5v25.3h-4.8L84,29.9L84,29.9z M83.8,20.8
		c-0.1-0.7-0.4-1.3-0.7-1.8c-0.3-0.5-0.8-1-1.3-1.3c-0.5-0.3-1.2-0.5-2.1-0.5c-0.8,0-1.5,0.2-2.1,0.5c-0.6,0.3-1,0.8-1.4,1.3
		s-0.6,1.2-0.7,1.9s-0.2,1.4-0.2,2.2c0,0.7,0.1,1.4,0.2,2.1c0.2,0.7,0.4,1.3,0.8,1.9c0.4,0.6,0.8,1,1.4,1.3c0.6,0.3,1.2,0.5,2,0.5
		c0.8,0,1.5-0.2,2.1-0.5c0.6-0.3,1-0.8,1.3-1.3c0.3-0.6,0.6-1.2,0.7-1.9c0.1-0.7,0.2-1.4,0.2-2.2C84,22.3,83.9,21.5,83.8,20.8z"/>
	<path fill="#AEC900" d="M92.2,19.1c0.4-1.2,1.1-2.2,1.9-3.1c0.8-0.8,1.8-1.5,3-2c1.2-0.5,2.5-0.7,3.9-0.7c1.4,0,2.8,0.2,3.9,0.7
		c1.2,0.5,2.2,1.1,3,2c0.8,0.8,1.5,1.9,1.9,3.1c0.4,1.2,0.7,2.5,0.7,4c0,1.5-0.2,2.8-0.7,4s-1.1,2.2-1.9,3c-0.8,0.8-1.8,1.5-3,1.9
		c-1.2,0.4-2.5,0.7-3.9,0.7c-1.4,0-2.7-0.2-3.9-0.7c-1.2-0.4-2.2-1.1-3-1.9c-0.8-0.8-1.5-1.9-1.9-3c-0.5-1.2-0.7-2.5-0.7-4
		C91.5,21.6,91.7,20.3,92.2,19.1z M96.8,25.2c0.1,0.7,0.4,1.3,0.7,1.9c0.3,0.6,0.8,1,1.4,1.3c0.6,0.3,1.3,0.5,2.1,0.5
		s1.6-0.2,2.1-0.5c0.6-0.3,1-0.8,1.4-1.3c0.3-0.6,0.6-1.2,0.7-1.9c0.1-0.7,0.2-1.4,0.2-2.1c0-0.7-0.1-1.5-0.2-2.2
		c-0.1-0.7-0.4-1.3-0.7-1.9c-0.3-0.5-0.8-1-1.4-1.3c-0.6-0.3-1.3-0.5-2.1-0.5s-1.6,0.2-2.1,0.5c-0.6,0.3-1,0.8-1.4,1.3
		c-0.3,0.5-0.6,1.2-0.7,1.9c-0.1,0.7-0.2,1.4-0.2,2.2C96.5,23.8,96.6,24.5,96.8,25.2z"/>
	<path fill="#1D1D1B" d="M122.6,6.9h1.6v24h14.4v1.3h-15.9V6.9z"/>
	<path fill="#1D1D1B" d="M137.6,23.1c0-1.3,0.2-2.5,0.6-3.7c0.4-1.1,0.9-2.2,1.6-3c0.7-0.9,1.6-1.6,2.6-2.1c1-0.5,2.2-0.8,3.6-0.8
		s2.5,0.3,3.6,0.8c1,0.5,1.9,1.2,2.6,2.1c0.7,0.9,1.2,1.9,1.6,3c0.4,1.1,0.6,2.4,0.6,3.7s-0.2,2.5-0.6,3.7c-0.4,1.2-0.9,2.2-1.6,3
		c-0.7,0.9-1.6,1.6-2.6,2.1c-1,0.5-2.2,0.8-3.6,0.8s-2.5-0.3-3.6-0.8c-1-0.5-1.9-1.2-2.6-2.1c-0.7-0.9-1.2-1.9-1.6-3
		C137.8,25.7,137.6,24.4,137.6,23.1z M139,23.1c0,1.1,0.2,2.1,0.5,3.1c0.3,1,0.8,1.9,1.3,2.7c0.6,0.8,1.3,1.4,2.2,1.9
		c0.9,0.5,1.9,0.7,3,0.7s2.1-0.2,3-0.7c0.9-0.5,1.6-1.1,2.2-1.9c0.6-0.8,1-1.7,1.3-2.7s0.5-2.1,0.5-3.1s-0.2-2.1-0.5-3.1
		c-0.3-1-0.8-1.9-1.3-2.7c-0.6-0.8-1.3-1.4-2.2-1.9c-0.9-0.5-1.9-0.7-3-0.7s-2.1,0.2-3,0.7c-0.9,0.5-1.6,1.1-2.2,1.9
		c-0.6,0.8-1,1.7-1.3,2.7C139.1,21,139,22,139,23.1z"/>
	<path fill="#1D1D1B" d="M156.9,10.6V6.9h1.3v3.7H156.9z M156.9,32.3V14h1.3v18.2H156.9z"/>
	<path fill="#1D1D1B" d="M163,18.1h0.1c0.2-0.6,0.5-1.1,0.9-1.7c0.4-0.5,1-1,1.6-1.3c0.6-0.4,1.3-0.7,2.1-0.9
		c0.8-0.2,1.6-0.3,2.4-0.3v1.3c-0.7-0.1-1.5,0-2.4,0.2c-0.9,0.2-1.8,0.8-2.6,1.6c-0.3,0.4-0.6,0.7-0.9,1c-0.2,0.3-0.5,0.7-0.6,1.1
		c-0.2,0.4-0.3,0.9-0.4,1.3s-0.2,1.1-0.2,1.8v10h-1.3V14h1.3V18.1z"/>
	<path fill="#1D1D1B" d="M170.3,23.3v0.2c0,1.1,0.1,2.1,0.4,3.1c0.3,1,0.7,1.8,1.3,2.6c0.6,0.7,1.3,1.3,2.1,1.7
		c0.8,0.4,1.8,0.6,2.9,0.6c1.8,0,3.3-0.5,4.3-1.4c1.1-1,1.8-2.3,2.2-4h1.3c-0.4,2.1-1.3,3.8-2.6,4.9c-1.3,1.1-3.1,1.7-5.3,1.7
		c-1.3,0-2.5-0.2-3.5-0.7c-1-0.5-1.8-1.1-2.5-2c-0.7-0.8-1.2-1.8-1.5-3c-0.3-1.1-0.5-2.4-0.5-3.7c0-1.3,0.2-2.5,0.5-3.7
		c0.3-1.2,0.9-2.2,1.5-3.1c0.7-0.9,1.5-1.6,2.6-2.1c1-0.5,2.2-0.8,3.6-0.8c1.3,0,2.4,0.2,3.4,0.7c1,0.5,1.8,1.1,2.5,1.9
		c0.7,0.8,1.2,1.8,1.5,2.8c0.3,1.1,0.5,2.2,0.5,3.5c0,0.1,0,0.3,0,0.4s0,0.3,0,0.4H170.3z M183.7,22.1c0-1-0.2-1.9-0.5-2.8
		c-0.3-0.9-0.7-1.7-1.3-2.3c-0.6-0.7-1.2-1.2-2-1.6c-0.8-0.4-1.7-0.6-2.7-0.6c-1.1,0-2.1,0.2-2.9,0.6s-1.5,1-2.1,1.6
		c-0.6,0.7-1,1.5-1.3,2.4s-0.5,1.8-0.6,2.8H183.7z"/>
	<path fill="#1D1D1B" d="M187.4,21.9h7.6v1.3h-7.6V21.9z"/>
	<path fill="#1D1D1B" d="M205.8,6.9h1.7l10,25.3h-1.7l-3.2-8.1h-12.1l-3.2,8.1h-1.7L205.8,6.9z M212.2,22.8l-5.4-14.3h-0.1L201,22.8
		H212.2z"/>
	<path fill="#1D1D1B" d="M224.9,15.2h-4v12.7c0,0.7,0.1,1.3,0.2,1.7c0.2,0.4,0.4,0.8,0.8,1c0.3,0.2,0.8,0.4,1.2,0.4
		c0.5,0,1,0.1,1.7,0v1.2c-0.7,0-1.4,0-2,0c-0.7-0.1-1.2-0.2-1.7-0.5c-0.5-0.3-0.9-0.7-1.2-1.3c-0.3-0.6-0.4-1.4-0.4-2.4V15.2h-3.4
		V14h3.4V8.3h1.3V14h4V15.2z"/>
	<path fill="#1D1D1B" d="M227.9,6.9v25.3h-1.3V6.9H227.9z"/>
	<path fill="#1D1D1B" d="M243.5,28.6L243.5,28.6c-0.3,0.5-0.6,1.1-1,1.5c-0.4,0.5-0.9,0.9-1.5,1.3c-0.6,0.4-1.2,0.7-2,0.9
		c-0.7,0.2-1.5,0.3-2.4,0.3c-1.9,0-3.4-0.4-4.5-1.3c-1.1-0.8-1.6-2.1-1.6-3.9c0-1.1,0.2-1.9,0.6-2.6c0.4-0.7,1-1.2,1.6-1.6
		c0.7-0.4,1.4-0.7,2.2-0.8c0.8-0.2,1.6-0.3,2.3-0.4l2.1-0.2c1-0.1,1.7-0.2,2.3-0.3c0.6-0.2,1-0.4,1.3-0.6c0.3-0.3,0.5-0.6,0.5-1
		c0.1-0.4,0.1-1,0.1-1.6c0-0.5-0.1-1-0.3-1.4c-0.2-0.4-0.5-0.8-0.9-1.1c-0.4-0.3-0.9-0.6-1.6-0.8c-0.6-0.2-1.4-0.3-2.3-0.3
		c-1.6,0-3,0.4-4,1.2c-1,0.8-1.6,2-1.7,3.7h-1.3c0.1-2,0.7-3.5,1.9-4.5c1.2-1,2.9-1.5,5.1-1.5c2.2,0,3.8,0.4,4.8,1.3
		c1,0.9,1.5,2,1.5,3.4v10.6c0,0.3,0,0.5,0,0.8c0,0.3,0.1,0.5,0.1,0.7c0.1,0.2,0.2,0.4,0.4,0.5c0.2,0.1,0.4,0.2,0.7,0.2
		c0.2,0,0.6,0,1-0.1v1.1c-0.4,0.1-0.7,0.1-1.1,0.1c-0.5,0-1-0.1-1.3-0.2c-0.3-0.1-0.6-0.3-0.7-0.6c-0.2-0.2-0.3-0.5-0.3-0.8
		c-0.1-0.3-0.1-0.7-0.1-1V28.6z M243.5,21.9c-0.3,0.4-0.8,0.7-1.5,0.8c-0.7,0.1-1.4,0.2-2.3,0.3l-2.3,0.2c-0.7,0.1-1.3,0.2-2,0.3
		c-0.7,0.1-1.3,0.3-1.8,0.7c-0.5,0.3-1,0.7-1.3,1.3c-0.3,0.5-0.5,1.2-0.5,2.1c0,1.3,0.4,2.3,1.3,3c0.9,0.7,2,1,3.5,1
		c1.5,0,2.8-0.3,3.7-0.8c0.9-0.6,1.6-1.2,2.1-1.9c0.5-0.7,0.8-1.4,0.9-2.1s0.2-1.1,0.2-1.4V21.9z"/>
	<path fill="#1D1D1B" d="M248.5,14h1.3v3.9h0.1c0.2-0.7,0.6-1.3,1-1.8c0.4-0.5,0.9-1,1.5-1.4c0.6-0.4,1.2-0.7,1.9-0.9
		c0.7-0.2,1.4-0.3,2.1-0.3c1.1,0,2,0.1,2.7,0.4c0.7,0.3,1.4,0.6,1.8,1c0.5,0.4,0.8,0.9,1.1,1.4s0.5,1.1,0.6,1.6
		c0.1,0.5,0.2,1.1,0.2,1.6c0,0.5,0,1,0,1.3v11.3h-1.3V20.7c0-0.4,0-1-0.1-1.7s-0.3-1.3-0.6-2c-0.3-0.6-0.9-1.2-1.6-1.6
		s-1.7-0.7-2.9-0.7c-1,0-2,0.2-2.8,0.6c-0.8,0.4-1.5,0.9-2.1,1.6c-0.6,0.7-1,1.5-1.3,2.4s-0.4,2-0.4,3.1v9.9h-1.3V14z"/>
	<path fill="#1D1D1B" d="M272.3,15.2h-4v12.7c0,0.7,0.1,1.3,0.2,1.7c0.2,0.4,0.4,0.8,0.8,1c0.3,0.2,0.8,0.4,1.2,0.4
		c0.5,0,1,0.1,1.7,0v1.2c-0.7,0-1.4,0-2,0c-0.7-0.1-1.2-0.2-1.7-0.5c-0.5-0.3-0.9-0.7-1.2-1.3c-0.3-0.6-0.4-1.4-0.4-2.4V15.2h-3.4
		V14h3.4V8.3h1.3V14h4V15.2z"/>
	<path fill="#1D1D1B" d="M274,10.6V6.9h1.3v3.7H274z M274,32.3V14h1.3v18.2H274z"/>
	<path fill="#1D1D1B" d="M292.9,28.2h-0.1c-0.2,0.7-0.6,1.3-1,1.9c-0.4,0.6-1,1-1.6,1.4s-1.3,0.7-2,0.9c-0.7,0.2-1.4,0.3-2.2,0.3
		c-1.4,0-2.6-0.2-3.6-0.7c-1-0.5-1.9-1.2-2.5-2c-0.7-0.9-1.2-1.9-1.5-3c-0.3-1.2-0.5-2.4-0.5-3.8c0-1.3,0.2-2.5,0.5-3.6
		c0.3-1.1,0.8-2.2,1.4-3c0.6-0.9,1.5-1.6,2.5-2.1c1-0.5,2.2-0.8,3.5-0.8c1.6,0,3,0.4,4.2,1.1c1.1,0.7,2.1,1.8,2.8,3.2h0.1V14h1.3
		v24.8h-1.3V28.2z M286.1,31.5c1.2,0,2.2-0.2,3-0.7c0.9-0.5,1.6-1.1,2.1-1.9c0.5-0.8,1-1.7,1.2-2.7c0.3-1,0.4-2,0.4-3.1
		c0-1-0.1-2.1-0.4-3.1c-0.3-1-0.7-1.9-1.2-2.7c-0.6-0.8-1.3-1.4-2.1-1.9c-0.8-0.5-1.8-0.7-3-0.7c-1.2,0-2.2,0.2-3.1,0.7
		c-0.9,0.5-1.6,1.1-2.1,1.9c-0.6,0.8-1,1.7-1.2,2.7c-0.3,1-0.4,2-0.4,3.1c0,1.1,0.1,2.2,0.4,3.2c0.2,1,0.7,1.9,1.2,2.7
		c0.6,0.8,1.3,1.4,2.1,1.9C283.9,31.3,284.9,31.5,286.1,31.5z"/>
	<path fill="#1D1D1B" d="M312.4,32.3H311v-3.9H311c-0.2,0.7-0.6,1.3-1,1.8c-0.4,0.5-0.9,1-1.5,1.4s-1.2,0.7-1.9,0.9
		c-0.7,0.2-1.4,0.3-2.1,0.3c-1.1,0-2-0.1-2.7-0.4c-0.7-0.3-1.4-0.6-1.8-1c-0.5-0.4-0.8-0.9-1.1-1.4c-0.3-0.5-0.5-1.1-0.6-1.6
		c-0.1-0.5-0.2-1.1-0.2-1.6s0-1,0-1.3V14h1.3v11.5c0,0.5,0,1,0.1,1.7c0.1,0.7,0.3,1.3,0.6,2c0.3,0.6,0.9,1.2,1.5,1.6
		s1.7,0.7,2.9,0.7c1,0,1.9-0.2,2.8-0.6s1.5-0.9,2.1-1.6c0.6-0.7,1-1.5,1.3-2.4c0.3-0.9,0.4-2,0.4-3.1V14h1.3V32.3z"/>
	<path fill="#1D1D1B" d="M315.5,23.3v0.2c0,1.1,0.1,2.1,0.4,3.1c0.3,1,0.7,1.8,1.3,2.6s1.3,1.3,2.1,1.7c0.8,0.4,1.8,0.6,2.9,0.6
		c1.8,0,3.3-0.5,4.3-1.4c1.1-1,1.8-2.3,2.2-4h1.3c-0.4,2.1-1.3,3.8-2.6,4.9c-1.3,1.1-3.1,1.7-5.3,1.7c-1.3,0-2.5-0.2-3.5-0.7
		c-1-0.5-1.8-1.1-2.5-2c-0.7-0.8-1.2-1.8-1.5-3c-0.3-1.1-0.5-2.4-0.5-3.7c0-1.3,0.2-2.5,0.5-3.7c0.3-1.2,0.9-2.2,1.5-3.1
		c0.7-0.9,1.5-1.6,2.6-2.1c1-0.5,2.2-0.8,3.6-0.8c1.3,0,2.4,0.2,3.4,0.7c1,0.5,1.8,1.1,2.5,1.9c0.7,0.8,1.2,1.8,1.5,2.8
		s0.5,2.2,0.5,3.5c0,0.1,0,0.3,0,0.4s0,0.3,0,0.4H315.5z M329,22.1c0-1-0.2-1.9-0.5-2.8c-0.3-0.9-0.7-1.7-1.3-2.3
		c-0.6-0.7-1.2-1.2-2-1.6c-0.8-0.4-1.7-0.6-2.7-0.6c-1.1,0-2.1,0.2-2.9,0.6c-0.8,0.4-1.5,1-2.1,1.6c-0.6,0.7-1,1.5-1.3,2.4
		s-0.5,1.8-0.6,2.8H329z"/>
</g>
</svg>
