<?xml version="1.0" encoding="utf-8"?>
<!-- Generator: Adobe Illustrator 18.0.0, SVG Export Plug-In . SVG Version: 6.00 Build 0)  -->
<!DOCTYPE svg PUBLIC "-//W3C//DTD SVG 1.1//EN" "http://www.w3.org/Graphics/SVG/1.1/DTD/svg11.dtd">
<svg version="1.1" id="Calque_1" xmlns="http://www.w3.org/2000/svg" xmlns:xlink="http://www.w3.org/1999/xlink" x="0px" y="0px"
	 width="340.5px" height="40.7px" viewBox="0 0 340.5 40.7" enable-background="new 0 0 340.5 40.7" xml:space="preserve">
<g>
	<path fill="#AEC900" d="M20.6,6.8c1.2,0,2.2,0.2,3.1,0.6c0.9,0.4,1.7,0.9,2.4,1.5s1.2,1.4,1.5,2.3c0.3,0.9,0.5,1.8,0.5,2.8
		c0,1.5-0.3,2.8-1,3.9c-0.6,1.1-1.7,2-3.1,2.5v0.1c0.7,0.2,1.3,0.5,1.7,0.9c0.5,0.4,0.8,0.9,1.1,1.4c0.3,0.5,0.5,1.1,0.6,1.8
		c0.1,0.7,0.2,1.3,0.3,2c0,0.4,0,0.9,0.1,1.4c0,0.6,0.1,1.1,0.1,1.7c0.1,0.6,0.2,1.1,0.3,1.6c0.1,0.5,0.3,1,0.6,1.3h-5.7
		c-0.3-0.8-0.5-1.8-0.6-2.9c-0.1-1.1-0.2-2.2-0.3-3.3c-0.2-1.4-0.6-2.3-1.2-3c-0.6-0.6-1.7-0.9-3.1-0.9h-5.7v10.1H6.7V6.8H20.6z
		 M18.6,18.5c1.3,0,2.3-0.3,2.9-0.9c0.7-0.6,1-1.5,1-2.8c0-1.3-0.3-2.2-1-2.7s-1.6-0.8-2.9-0.8h-6.2v7.3H18.6z"/>
	<path fill="#AEC900" d="M31.9,16.7c0.5-0.8,1.2-1.4,2-1.9c0.8-0.5,1.7-0.8,2.8-1c1-0.2,2.1-0.3,3.1-0.3c0.9,0,1.9,0.1,2.9,0.2
		c1,0.1,1.8,0.4,2.6,0.8s1.4,0.9,2,1.6c0.5,0.7,0.8,1.6,0.8,2.7v9.7c0,0.8,0,1.7,0.1,2.4c0.1,0.8,0.3,1.3,0.5,1.7h-5.2
		c-0.1-0.3-0.2-0.6-0.2-0.9c-0.1-0.3-0.1-0.6-0.1-0.9c-0.8,0.8-1.8,1.4-2.9,1.8c-1.1,0.3-2.2,0.5-3.4,0.5c-0.9,0-1.7-0.1-2.5-0.3
		s-1.4-0.6-2-1c-0.6-0.5-1-1-1.4-1.7c-0.3-0.7-0.5-1.5-0.5-2.5c0-1.1,0.2-1.9,0.6-2.6c0.4-0.7,0.9-1.2,1.4-1.6
		c0.6-0.4,1.3-0.7,2-0.9c0.8-0.2,1.5-0.4,2.3-0.5c0.8-0.1,1.5-0.2,2.3-0.3c0.7-0.1,1.4-0.2,2-0.3s1-0.4,1.4-0.6
		c0.3-0.3,0.5-0.7,0.5-1.2c0-0.6-0.1-1-0.3-1.3s-0.4-0.6-0.7-0.8c-0.3-0.2-0.7-0.3-1-0.4c-0.4-0.1-0.8-0.1-1.3-0.1
		c-1,0-1.8,0.2-2.4,0.7s-0.9,1.2-1,2.2H31C31.1,18.5,31.4,17.5,31.9,16.7z M42.1,23.9c-0.3,0.1-0.7,0.2-1,0.3
		c-0.4,0.1-0.8,0.1-1.2,0.2c-0.4,0-0.8,0.1-1.2,0.2c-0.4,0.1-0.8,0.2-1.1,0.3c-0.4,0.1-0.7,0.3-1,0.5c-0.3,0.2-0.5,0.5-0.7,0.8
		c-0.2,0.3-0.3,0.7-0.3,1.2c0,0.5,0.1,0.8,0.3,1.2c0.2,0.3,0.4,0.6,0.7,0.7c0.3,0.2,0.6,0.3,1,0.4c0.4,0.1,0.8,0.1,1.2,0.1
		c1,0,1.8-0.2,2.4-0.5c0.6-0.3,1-0.7,1.2-1.2c0.3-0.5,0.4-0.9,0.5-1.4s0.1-0.9,0.1-1.2v-1.9C42.7,23.7,42.4,23.8,42.1,23.9z"/>
	<path fill="#AEC900" d="M56.2,13.9v2.6h0.1c0.7-1.1,1.5-1.9,2.5-2.4c1-0.5,2.1-0.7,3.2-0.7c1.4,0,2.5,0.2,3.4,0.6
		c0.9,0.4,1.6,0.9,2.1,1.6c0.5,0.7,0.9,1.5,1.1,2.4c0.2,1,0.3,2,0.3,3.2v11.5h-5.1V22c0-1.5-0.2-2.7-0.7-3.5
		c-0.5-0.8-1.3-1.1-2.6-1.1c-1.4,0-2.4,0.4-3,1.2c-0.6,0.8-0.9,2.2-0.9,4.1v9.8h-5.1V13.9H56.2z"/>
	<path fill="#AEC900" d="M84.7,30.2c-0.6,1-1.4,1.7-2.4,2.2c-1,0.4-2.1,0.7-3.3,0.7c-1.4,0-2.6-0.3-3.7-0.8
		c-1.1-0.5-1.9-1.3-2.6-2.2s-1.2-2-1.6-3.2c-0.3-1.2-0.5-2.5-0.5-3.8c0-1.3,0.2-2.5,0.5-3.6c0.3-1.2,0.9-2.2,1.6-3.1
		c0.7-0.9,1.5-1.6,2.6-2.2c1-0.5,2.2-0.8,3.6-0.8c1.1,0,2.2,0.2,3.2,0.7c1,0.5,1.8,1.2,2.4,2.1h0.1V6.8h5.1v25.8h-4.9L84.7,30.2
		L84.7,30.2z M84.5,21c-0.1-0.7-0.4-1.3-0.7-1.9c-0.3-0.5-0.8-1-1.4-1.3c-0.6-0.3-1.3-0.5-2.1-0.5c-0.8,0-1.6,0.2-2.1,0.5
		c-0.6,0.3-1,0.8-1.4,1.3c-0.3,0.6-0.6,1.2-0.8,1.9c-0.2,0.7-0.2,1.5-0.2,2.2c0,0.7,0.1,1.4,0.3,2.2c0.2,0.7,0.4,1.4,0.8,1.9
		c0.4,0.6,0.8,1,1.4,1.4c0.6,0.3,1.2,0.5,2,0.5c0.8,0,1.5-0.2,2.1-0.5c0.6-0.3,1-0.8,1.4-1.4s0.6-1.2,0.7-1.9
		c0.1-0.7,0.2-1.5,0.2-2.2C84.7,22.4,84.7,21.7,84.5,21z"/>
	<path fill="#AEC900" d="M92.7,19.2c0.5-1.2,1.1-2.3,2-3.1c0.8-0.9,1.9-1.5,3-2c1.2-0.5,2.5-0.7,4-0.7c1.5,0,2.8,0.2,4,0.7
		c1.2,0.5,2.2,1.1,3.1,2c0.8,0.9,1.5,1.9,2,3.1c0.5,1.2,0.7,2.6,0.7,4.1c0,1.5-0.2,2.8-0.7,4c-0.5,1.2-1.1,2.2-2,3.1
		c-0.8,0.9-1.9,1.5-3.1,2c-1.2,0.5-2.5,0.7-4,0.7c-1.5,0-2.8-0.2-4-0.7c-1.2-0.5-2.2-1.1-3-2c-0.8-0.9-1.5-1.9-2-3.1
		c-0.5-1.2-0.7-2.6-0.7-4C92,21.8,92.2,20.4,92.7,19.2z M97.3,25.5c0.1,0.7,0.4,1.4,0.7,1.9c0.3,0.6,0.8,1,1.4,1.4
		c0.6,0.3,1.3,0.5,2.2,0.5s1.6-0.2,2.2-0.5c0.6-0.3,1.1-0.8,1.4-1.4c0.3-0.6,0.6-1.2,0.7-1.9c0.1-0.7,0.2-1.4,0.2-2.2
		c0-0.7-0.1-1.5-0.2-2.2c-0.1-0.7-0.4-1.4-0.7-1.9c-0.3-0.6-0.8-1-1.4-1.4c-0.6-0.3-1.3-0.5-2.2-0.5s-1.6,0.2-2.2,0.5
		s-1,0.8-1.4,1.4c-0.4,0.6-0.6,1.2-0.7,1.9c-0.1,0.7-0.2,1.5-0.2,2.2C97.1,24,97.2,24.8,97.3,25.5z"/>
	<path fill="#1D1D1B" d="M123.1,6.8h1.6v24.4h14.6v1.4h-16.2V6.8z"/>
	<path fill="#1D1D1B" d="M138,23.3c0-1.3,0.2-2.6,0.6-3.7c0.4-1.2,0.9-2.2,1.6-3.1c0.7-0.9,1.6-1.6,2.7-2.1c1.1-0.5,2.3-0.8,3.7-0.8
		c1.4,0,2.6,0.3,3.7,0.8c1.1,0.5,2,1.2,2.7,2.1c0.7,0.9,1.3,1.9,1.6,3.1c0.4,1.2,0.6,2.4,0.6,3.7c0,1.3-0.2,2.6-0.6,3.8
		c-0.4,1.2-0.9,2.2-1.6,3.1s-1.6,1.6-2.7,2.1c-1.1,0.5-2.3,0.8-3.7,0.8c-1.4,0-2.6-0.3-3.7-0.8c-1.1-0.5-2-1.2-2.7-2.1
		s-1.3-1.9-1.6-3.1C138.2,25.9,138,24.6,138,23.3z M139.4,23.3c0,1.1,0.2,2.2,0.5,3.2c0.3,1,0.8,1.9,1.4,2.7
		c0.6,0.8,1.3,1.4,2.2,1.9c0.9,0.5,1.9,0.7,3.1,0.7c1.2,0,2.2-0.2,3.1-0.7c0.9-0.5,1.6-1.1,2.2-1.9c0.6-0.8,1.1-1.7,1.4-2.7
		c0.3-1,0.5-2.1,0.5-3.2c0-1.1-0.2-2.2-0.5-3.2c-0.3-1-0.8-1.9-1.4-2.7c-0.6-0.8-1.3-1.4-2.2-1.9c-0.9-0.5-1.9-0.7-3.1-0.7
		c-1.2,0-2.2,0.2-3.1,0.7c-0.9,0.5-1.6,1.1-2.2,1.9c-0.6,0.8-1.1,1.7-1.4,2.7C139.6,21.1,139.4,22.2,139.4,23.3z"/>
	<path fill="#1D1D1B" d="M157.3,10.5V6.8h1.4v3.7H157.3z M157.3,32.6V14h1.4v18.6H157.3z"/>
	<path fill="#1D1D1B" d="M163.5,18.1h0.1c0.2-0.6,0.5-1.2,0.9-1.7c0.4-0.5,1-1,1.6-1.4c0.6-0.4,1.3-0.7,2.1-0.9
		c0.8-0.2,1.6-0.3,2.4-0.3v1.4c-0.7-0.1-1.5,0-2.5,0.2s-1.8,0.8-2.7,1.6c-0.3,0.4-0.6,0.7-0.9,1c-0.3,0.3-0.5,0.7-0.6,1.1
		c-0.2,0.4-0.3,0.9-0.4,1.4c-0.1,0.5-0.2,1.1-0.2,1.8v10.2h-1.4V14h1.4V18.1z"/>
	<path fill="#1D1D1B" d="M171.7,23.5v0.2c0,1.1,0.1,2.1,0.4,3.1s0.7,1.9,1.3,2.6s1.3,1.3,2.1,1.8c0.9,0.4,1.9,0.7,3,0.7
		c1.9,0,3.3-0.5,4.4-1.5s1.8-2.3,2.2-4.1h1.4c-0.4,2.2-1.3,3.8-2.7,5c-1.4,1.2-3.2,1.7-5.4,1.7c-1.4,0-2.6-0.2-3.6-0.7
		c-1-0.5-1.9-1.2-2.6-2c-0.7-0.9-1.2-1.9-1.5-3s-0.5-2.4-0.5-3.8c0-1.3,0.2-2.5,0.5-3.7c0.3-1.2,0.9-2.2,1.6-3.1s1.6-1.6,2.6-2.2
		c1-0.5,2.3-0.8,3.7-0.8c1.3,0,2.5,0.2,3.5,0.7c1,0.5,1.8,1.1,2.5,2c0.7,0.8,1.2,1.8,1.5,2.9s0.5,2.3,0.5,3.5c0,0.1,0,0.3,0,0.4
		c0,0.2,0,0.3,0,0.4H171.7z M185.4,22.3c0-1-0.2-2-0.5-2.9c-0.3-0.9-0.7-1.7-1.3-2.4c-0.6-0.7-1.3-1.2-2.1-1.6
		c-0.8-0.4-1.7-0.6-2.8-0.6c-1.1,0-2.1,0.2-2.9,0.6c-0.8,0.4-1.6,1-2.1,1.7c-0.6,0.7-1,1.5-1.3,2.4c-0.3,0.9-0.5,1.9-0.6,2.8H185.4z
		"/>
	<path fill="#1D1D1B" d="M206.3,6.8h1.7l10.2,25.8h-1.7l-3.3-8.3h-12.4l-3.3,8.3h-1.7L206.3,6.8z M212.8,23l-5.5-14.6h-0.1L201.4,23
		H212.8z"/>
	<path fill="#1D1D1B" d="M225.3,15.2h-4v13c0,0.7,0.1,1.3,0.3,1.8c0.2,0.4,0.4,0.8,0.8,1c0.3,0.2,0.8,0.4,1.3,0.4
		c0.5,0,1.1,0.1,1.7,0v1.2c-0.7,0-1.4,0-2,0c-0.7-0.1-1.2-0.2-1.8-0.5c-0.5-0.3-0.9-0.8-1.2-1.4c-0.3-0.6-0.4-1.4-0.4-2.5v-13h-3.4
		V14h3.4V8.2h1.4V14h4V15.2z"/>
	<path fill="#1D1D1B" d="M228.3,6.8v25.8h-1.4V6.8H228.3z"/>
	<path fill="#1D1D1B" d="M244,28.9L244,28.9c-0.3,0.6-0.6,1.1-1,1.6s-0.9,0.9-1.5,1.3c-0.6,0.4-1.3,0.7-2,0.9
		c-0.7,0.2-1.6,0.3-2.5,0.3c-2,0-3.5-0.4-4.6-1.3c-1.1-0.9-1.6-2.2-1.6-4c0-1.1,0.2-2,0.7-2.7c0.4-0.7,1-1.2,1.6-1.6
		c0.7-0.4,1.4-0.7,2.2-0.8s1.6-0.3,2.3-0.4l2.1-0.2c1-0.1,1.8-0.2,2.3-0.3c0.6-0.2,1-0.4,1.3-0.7c0.3-0.3,0.5-0.6,0.5-1.1
		c0.1-0.4,0.1-1,0.1-1.6c0-0.5-0.1-1-0.3-1.4c-0.2-0.4-0.5-0.8-0.9-1.2c-0.4-0.3-0.9-0.6-1.6-0.8c-0.7-0.2-1.4-0.3-2.4-0.3
		c-1.7,0-3,0.4-4,1.2c-1,0.8-1.6,2.1-1.7,3.7h-1.4c0.1-2,0.8-3.6,2-4.6c1.2-1,2.9-1.5,5.2-1.5c2.2,0,3.9,0.4,4.9,1.3
		c1,0.9,1.5,2,1.5,3.5v10.8c0,0.3,0,0.5,0,0.8c0,0.3,0.1,0.5,0.1,0.7c0.1,0.2,0.2,0.4,0.4,0.5c0.2,0.1,0.4,0.2,0.7,0.2
		c0.2,0,0.6,0,1-0.1v1.2c-0.4,0.1-0.7,0.1-1.1,0.1c-0.6,0-1-0.1-1.3-0.2c-0.3-0.1-0.6-0.3-0.7-0.6c-0.2-0.2-0.3-0.5-0.3-0.8
		c-0.1-0.3-0.1-0.7-0.1-1.1V28.9z M244,22c-0.3,0.4-0.9,0.7-1.5,0.8s-1.5,0.3-2.3,0.3l-2.3,0.2c-0.7,0.1-1.3,0.2-2,0.3
		c-0.7,0.1-1.3,0.4-1.8,0.7c-0.5,0.3-1,0.7-1.3,1.3c-0.3,0.5-0.5,1.2-0.5,2.1c0,1.4,0.4,2.4,1.3,3.1c0.9,0.7,2.1,1,3.6,1
		c1.6,0,2.8-0.3,3.7-0.8c0.9-0.6,1.6-1.2,2.1-2c0.5-0.7,0.8-1.4,0.9-2.1c0.1-0.7,0.2-1.2,0.2-1.4V22z"/>
	<path fill="#1D1D1B" d="M248.8,14h1.4v4h0.1c0.2-0.7,0.6-1.3,1-1.9c0.4-0.5,1-1,1.6-1.4c0.6-0.4,1.2-0.7,1.9-0.9
		c0.7-0.2,1.4-0.3,2.1-0.3c1.1,0,2,0.1,2.8,0.4c0.8,0.3,1.4,0.6,1.9,1c0.5,0.4,0.9,0.9,1.1,1.5s0.5,1.1,0.6,1.6
		c0.1,0.6,0.2,1.1,0.2,1.6c0,0.5,0,1,0,1.4v11.5h-1.4V20.9c0-0.5,0-1-0.1-1.7c-0.1-0.7-0.3-1.4-0.6-2c-0.3-0.6-0.9-1.2-1.6-1.6
		c-0.7-0.5-1.7-0.7-2.9-0.7c-1.1,0-2,0.2-2.8,0.6c-0.8,0.4-1.5,0.9-2.1,1.6c-0.6,0.7-1,1.5-1.3,2.5c-0.3,1-0.5,2-0.5,3.1v10.1h-1.4
		V14z"/>
	<path fill="#1D1D1B" d="M273.7,15.2h-4.1v13c0,0.7,0.1,1.3,0.3,1.8c0.2,0.4,0.4,0.8,0.8,1c0.3,0.2,0.8,0.4,1.3,0.4
		c0.5,0,1.1,0.1,1.7,0v1.2c-0.7,0-1.4,0-2,0c-0.7-0.1-1.2-0.2-1.8-0.5c-0.5-0.3-0.9-0.8-1.2-1.4s-0.4-1.4-0.4-2.5v-13h-3.4V14h3.4
		V8.2h1.4V14h4.1V15.2z"/>
	<path fill="#1D1D1B" d="M275.3,10.5V6.8h1.4v3.7H275.3z M275.3,32.6V14h1.4v18.6H275.3z"/>
	<path fill="#1D1D1B" d="M294.4,28.4h-0.1c-0.2,0.7-0.6,1.4-1,2c-0.5,0.6-1,1.1-1.6,1.4c-0.6,0.4-1.3,0.7-2,0.9
		c-0.7,0.2-1.5,0.3-2.2,0.3c-1.4,0-2.6-0.3-3.6-0.8c-1-0.5-1.9-1.2-2.6-2.1c-0.7-0.9-1.2-1.9-1.5-3.1c-0.3-1.2-0.5-2.5-0.5-3.9
		c0-1.3,0.2-2.5,0.5-3.7c0.3-1.2,0.8-2.2,1.4-3.1c0.7-0.9,1.5-1.6,2.5-2.1c1-0.5,2.2-0.8,3.6-0.8c1.7,0,3.1,0.4,4.2,1.1
		c1.2,0.7,2.1,1.8,2.9,3.3h0.1v-4h1.3v25.2h-1.3V28.4z M287.5,31.8c1.2,0,2.2-0.2,3.1-0.7c0.9-0.5,1.6-1.1,2.2-1.9
		c0.6-0.8,1-1.7,1.2-2.7c0.3-1,0.4-2.1,0.4-3.2c0-1.1-0.1-2.1-0.4-3.1s-0.7-1.9-1.3-2.7c-0.6-0.8-1.3-1.4-2.1-1.9s-1.9-0.7-3.1-0.7
		c-1.2,0-2.2,0.2-3.1,0.7c-0.9,0.5-1.6,1.1-2.2,1.9c-0.6,0.8-1,1.7-1.3,2.7s-0.4,2.1-0.4,3.2c0,1.1,0.1,2.2,0.4,3.2
		c0.3,1,0.7,1.9,1.2,2.7c0.6,0.8,1.3,1.4,2.2,1.9C285.2,31.6,286.2,31.8,287.5,31.8z"/>
	<path fill="#1D1D1B" d="M313.9,32.6h-1.4v-4h-0.1c-0.2,0.7-0.6,1.3-1,1.9c-0.4,0.5-1,1-1.6,1.4c-0.6,0.4-1.2,0.7-1.9,0.9
		c-0.7,0.2-1.4,0.3-2.1,0.3c-1.1,0-2-0.1-2.8-0.4c-0.8-0.3-1.4-0.6-1.9-1c-0.5-0.4-0.9-0.9-1.1-1.5c-0.3-0.5-0.5-1.1-0.6-1.6
		c-0.1-0.6-0.2-1.1-0.2-1.6c0-0.5,0-1,0-1.4V14h1.4v11.8c0,0.5,0,1.1,0.1,1.8c0.1,0.7,0.3,1.4,0.6,2c0.3,0.6,0.9,1.2,1.6,1.6
		s1.7,0.7,3,0.7c1,0,2-0.2,2.8-0.6c0.8-0.4,1.5-0.9,2.1-1.6c0.6-0.7,1-1.5,1.3-2.5s0.5-2,0.5-3.1V14h1.4V32.6z"/>
	<path fill="#1D1D1B" d="M317.8,23.5v0.2c0,1.1,0.1,2.1,0.4,3.1s0.7,1.9,1.3,2.6s1.3,1.3,2.1,1.8c0.9,0.4,1.9,0.7,3,0.7
		c1.9,0,3.3-0.5,4.4-1.5c1.1-1,1.8-2.3,2.2-4.1h1.4c-0.4,2.2-1.3,3.8-2.7,5c-1.4,1.2-3.2,1.7-5.4,1.7c-1.4,0-2.6-0.2-3.6-0.7
		c-1-0.5-1.9-1.2-2.6-2c-0.7-0.9-1.2-1.9-1.5-3s-0.5-2.4-0.5-3.8c0-1.3,0.2-2.5,0.5-3.7c0.3-1.2,0.9-2.2,1.6-3.1s1.6-1.6,2.6-2.2
		c1-0.5,2.3-0.8,3.7-0.8c1.3,0,2.5,0.2,3.5,0.7c1,0.5,1.8,1.1,2.5,2c0.7,0.8,1.2,1.8,1.5,2.9c0.3,1.1,0.5,2.3,0.5,3.5
		c0,0.1,0,0.3,0,0.4c0,0.2,0,0.3,0,0.4H317.8z M331.4,22.3c0-1-0.2-2-0.5-2.9s-0.7-1.7-1.3-2.4c-0.6-0.7-1.3-1.2-2.1-1.6
		c-0.8-0.4-1.7-0.6-2.8-0.6c-1.1,0-2.1,0.2-2.9,0.6c-0.8,0.4-1.6,1-2.1,1.7c-0.6,0.7-1,1.5-1.3,2.4s-0.5,1.9-0.6,2.8H331.4z"/>
</g>
</svg>
