<?xml version="1.0" encoding="utf-8"?>
<!-- Generator: Adobe Illustrator 18.0.0, SVG Export Plug-In . SVG Version: 6.00 Build 0)  -->
<!DOCTYPE svg PUBLIC "-//W3C//DTD SVG 1.1//EN" "http://www.w3.org/Graphics/SVG/1.1/DTD/svg11.dtd">
<svg version="1.1" id="Calque_1" xmlns="http://www.w3.org/2000/svg" xmlns:xlink="http://www.w3.org/1999/xlink" x="0px" y="0px"
	 width="44px" height="45.4px" viewBox="0 0 44 45.4" enable-background="new 0 0 44 45.4" xml:space="preserve">
<g>
	<circle id="base" fill="#f39400" cx="22.1" cy="23.6" r="21.8"/>
	<path id="top-shadow" opacity="0.2" enable-background="new    " d="M21.9,2.2c11.9,0,21.6,9.2,22.1,21c0-0.4,0-0.9,0-1.3
		C44,9.7,34.1,0,21.9,0S0.1,10,0.1,22.2c0,0.4,0,0.8,0.1,1.1C0.7,11.6,10,2.2,21.9,2.2z"/>
	<circle id="center-shadow" opacity="0.4" enable-background="new    " cx="21.9" cy="23.1" r="15.5"/>
</g>
<g>
	<path fill="#FFFFFF" d="M22.1,17.2c-5.3,0-9.6,5.3-9.6,5.3s4.3,5.3,9.6,5.3c5.3,0,9.6-5.3,9.6-5.3S27.3,17.2,22.1,17.2z M22.1,26.2
		c-3.1,0-5.9-2.3-7.4-3.7c1.4-1.4,4.3-3.7,7.4-3.7c3.1,0,5.9,2.3,7.4,3.7C28,23.9,25.2,26.2,22.1,26.2z"/>
	<circle fill="#FFFFFF" cx="22.1" cy="22.5" r="3"/>
</g>
</svg>
