<?xml version="1.0" encoding="utf-8"?>
<!-- Generator: Adobe Illustrator 18.0.0, SVG Export Plug-In . SVG Version: 6.00 Build 0)  -->
<!DOCTYPE svg PUBLIC "-//W3C//DTD SVG 1.1//EN" "http://www.w3.org/Graphics/SVG/1.1/DTD/svg11.dtd">
<svg version="1.1" id="Calque_1" xmlns="http://www.w3.org/2000/svg" xmlns:xlink="http://www.w3.org/1999/xlink" x="0px" y="0px"
	 width="44px" height="63px" viewBox="0 0 44 63" enable-background="new 0 0 44 63" xml:space="preserve">
<g>
	<path id="base" fill="#7DA013" d="M44,21.9C44,9.7,34.1,0,21.9,0S0.1,10,0.1,22.2c0,4.6,1.7,9.1,3.9,12.6c0,0,16.4,26.7,18.2,26.7
		c1.9,0,18.1-27.4,18.1-27.4C42.7,30.7,44,26.4,44,21.9z"/>
	<path id="top-shadow" opacity="0.2" enable-background="new    " d="M21.9,2.2c11.9,0,21.6,9.2,22.1,21c0-0.4,0-0.9,0-1.3
		C44,9.7,34.1,0,21.9,0S0.1,10,0.1,22.2c0,0.4,0,0.8,0.1,1.1C0.7,11.6,10,2.2,21.9,2.2z"/>
	<circle id="center-shadow" opacity="0.4" enable-background="new    " cx="21.9" cy="23.1" r="15.5"/>
</g>
<g id="icon">
	<ellipse fill="#FFFFFF" cx="24" cy="14.1" rx="2.2" ry="2"/>
	<path fill="#FFFFFF" d="M27.1,20.8c-0.2-0.1-0.5,0.1-0.5,0.2l-0.3,1l-2.4-1.1l0.1-3.2c0-0.1,0-0.2-0.1-0.2v-0.2
		c0.1-0.6-0.4-1.1-1-1.2l-1.1-0.2c-0.6-0.1-1.2,0.3-1.3,0.9c-0.7,0.4-2.2,1.3-2.4,2.6c-0.3,1.6,0.5,3,1.5,3.3l-0.2,1.6l0,0l-0.6,4.6
		l-1.9,4.4c-0.2,0.5,0.1,1.2,0.7,1.4c0.2,0.1,0.3,0.1,0.5,0.1c0.5,0,0.9-0.2,1.1-0.7l2-4.6l0.5-3.1l1.6,4.9l-0.9,2.6
		c-0.1,0.2,0.1,0.5,0.3,0.5c0.1,0,0.1,0,0.2,0c0.2,0,0.4-0.1,0.4-0.3l0.5-1.5l0.2,0.8c0.2,0.5,0.6,0.8,1.1,0.8c0.1,0,0.2,0,0.3-0.1
		c0.6-0.2,1-0.8,0.8-1.4l-1.2-3.8l1.7-5c0.3-0.1,0.6-0.2,0.8-0.5c0.2-0.4,0.1-0.8-0.2-1.1l0.4-1.1C27.5,21.1,27.3,20.9,27.1,20.8z
		 M22.9,23.3l0.1-0.8l2.6,1.2l-1.4,3.8L22.9,23.3z"/>
</g>
</svg>
