<?xml version="1.0" encoding="utf-8"?>
<!-- Generator: Adobe Illustrator 18.0.0, SVG Export Plug-In . SVG Version: 6.00 Build 0)  -->
<!DOCTYPE svg PUBLIC "-//W3C//DTD SVG 1.1//EN" "http://www.w3.org/Graphics/SVG/1.1/DTD/svg11.dtd">
<svg version="1.1" id="Calque_1" xmlns="http://www.w3.org/2000/svg" xmlns:xlink="http://www.w3.org/1999/xlink" x="0px" y="0px"
	 width="44px" height="63px" viewBox="0 0 44 63" enable-background="new 0 0 44 63" xml:space="preserve">
<g>
	<path id="base" fill="#F39400" d="M44,21.9C44,9.7,34.1,0,21.9,0S0.1,10,0.1,22.2c0,4.6,1.7,9.1,3.9,12.6c0,0,16.4,26.7,18.2,26.7
		c1.9,0,18.1-27.4,18.1-27.4C42.7,30.7,44,26.4,44,21.9z"/>
	<path id="top-shadow" opacity="0.2" enable-background="new    " d="M21.9,2.2c11.9,0,21.6,9.2,22.1,21c0-0.4,0-0.9,0-1.3
		C44,9.7,34.1,0,21.9,0S0.1,10,0.1,22.2c0,0.4,0,0.8,0.1,1.1C0.7,11.6,10,2.2,21.9,2.2z"/>
	<circle id="center-shadow" opacity="0.4" enable-background="new    " cx="21.9" cy="23.1" r="15.5"/>
</g>
</svg>
