<?xml version="1.0" encoding="utf-8"?>
<!-- Generator: Adobe Illustrator 16.0.0, SVG Export Plug-In . SVG Version: 6.00 Build 0)  -->
<!DOCTYPE svg PUBLIC "-//W3C//DTD SVG 1.1//EN" "http://www.w3.org/Graphics/SVG/1.1/DTD/svg11.dtd">
<svg version="1.1" id="Calque_1" xmlns="http://www.w3.org/2000/svg" xmlns:xlink="http://www.w3.org/1999/xlink" x="0px" y="0px"
	 width="44px" height="63px" viewBox="0 0 44 63" enable-background="new 0 0 44 63" xml:space="preserve">
<g>
	<path fill="#DE007D" d="M21.993,62C21.443,61.996,21,61.55,21,61c0-8.149-4.761-13.476-9.801-19.114C6.185,36.276,1,30.476,1,21.75
		C1,10.309,10.42,1,22,1c11.579,0,21,9.309,21,20.75c0,7.208-4.639,12.711-9.55,18.537C28.374,46.309,23.126,52.535,23,61.015
		C22.992,61.562,22.546,62,22,62C21.998,62,21.995,62,21.993,62z"/>
	<path d="M22,2c11.045,0,20,8.843,20,19.75C42,36,22.253,44,22,61C22,44,2,38.5,2,21.75C2,10.843,10.954,2,22,2 M22,0
		C9.869,0,0,9.757,0,21.75c0,9.107,5.314,15.053,10.453,20.802C15.363,48.044,20,53.232,20,61c0,1.099,0.886,1.992,1.985,2
		c0.005,0,0.01,0,0.015,0c1.091,0,1.983-0.877,2-1.971c0.121-8.123,5.252-14.21,10.215-20.098C39.025,35.225,44,29.323,44,21.75
		C44,9.757,34.131,0,22,0L22,0z"/>
</g>
<g>
	<path fill="#FFFFFF" d="M13.51,16.944c-0.018,0.064-0.016,0.13-0.018,0.196c-0.002,0.043-0.017,0.082-0.012,0.126
		c0,0.005,0.003,0.009,0.004,0.014c0.006,0.055,0.031,0.107,0.048,0.16c0.019,0.057,0.028,0.117,0.056,0.167
		c0.003,0.005,0.002,0.009,0.005,0.013l1.911,3.347l0.47,3.82c0.058,0.475,0.476,0.811,0.931,0.75
		c0.059-0.008,0.113-0.021,0.168-0.041c0.363-0.132,0.602-0.516,0.551-0.931l-0.434-3.523c0.146,0.29,0.439,0.485,0.773,0.469
		c0.082-0.005,0.16-0.021,0.233-0.047c0.339-0.123,0.576-0.468,0.558-0.861l-0.174-3.838c-0.011-0.238-0.115-0.461-0.289-0.617
		c-0.173-0.154-0.4-0.229-0.627-0.205l-0.841,0.092l1.304-2.234l3.131,3.374c0.172,0.185,0.41,0.259,0.635,0.222
		c0.145-0.023,0.283-0.091,0.395-0.205c0.289-0.291,0.297-0.771,0.017-1.072l-3.883-4.185c-0.076-0.082-0.167-0.138-0.263-0.177
		l-0.54-0.342c-0.393-0.248-0.904-0.119-1.143,0.291l-3.004,5.15l0.056,0.035C13.521,16.909,13.515,16.927,13.51,16.944z
		 M16.96,17.763l0.12,2.65c-0.019-0.061-0.027-0.125-0.059-0.18l-1.311-2.293l0.026-0.045L16.96,17.763z"/>
	<path fill="#FFFFFF" d="M20.49,12.006c0.814-0.294,1.245-1.22,0.963-2.068c-0.281-0.849-1.17-1.299-1.984-1.005
		c-0.813,0.295-1.244,1.221-0.963,2.069C18.788,11.851,19.676,12.3,20.49,12.006z"/>
	<path fill="#FFFFFF" d="M8.015,32.843H36.5c0,0-1.768-2.231-2.853-2.975c-1.085-0.744-2.759-0.712-4.526-0.194
		s-3.081-0.355-5.271-2.393c-0.394-0.366-0.834-0.617-1.297-0.787c0.536,0.159,1.108,0.214,1.695,0.119
		c2.169-0.351,3.655-2.469,3.319-4.73c-0.336-2.263-2.367-3.812-4.536-3.462c-2.169,0.352-3.655,2.469-3.319,4.73
		c0.239,1.614,1.349,2.851,2.748,3.308c-2.091-0.714-4.608,0.237-5.431,0.37c-0.865,0.139-2.138,0.558-3.459,1.176
		c1.313-0.851,2.084-2.463,1.832-4.157c-0.336-2.262-2.366-3.812-4.535-3.462c-2.17,0.352-3.655,2.469-3.319,4.73
		c0.336,2.263,2.366,3.812,4.536,3.461c0.25-0.04,0.488-0.109,0.719-0.194C10.674,29.492,8.588,31.081,8.015,32.843z"/>
</g>
</svg>
