<?xml version="1.0" encoding="utf-8"?>
<!-- Generator: Adobe Illustrator 16.0.0, SVG Export Plug-In . SVG Version: 6.00 Build 0)  -->
<!DOCTYPE svg PUBLIC "-//W3C//DTD SVG 1.1//EN" "http://www.w3.org/Graphics/SVG/1.1/DTD/svg11.dtd">
<svg version="1.1" id="Calque_1" xmlns="http://www.w3.org/2000/svg" xmlns:xlink="http://www.w3.org/1999/xlink" x="0px" y="0px"
	 width="44px" height="63px" viewBox="0 0 44 63" enable-background="new 0 0 44 63" xml:space="preserve">
<g>
	<g>
		<path fill="#AEC900" d="M21.993,62C21.443,61.996,21,61.55,21,61c0-8.149-4.761-13.476-9.801-19.114
			C6.185,36.276,1,30.476,1,21.75C1,10.309,10.42,1,22,1c11.579,0,21,9.309,21,20.75c0,7.208-4.639,12.711-9.55,18.537
			C28.374,46.309,23.126,52.535,23,61.015C22.992,61.562,22.546,62,22,62C21.998,62,21.995,62,21.993,62z"/>
		<path d="M22,2c11.045,0,20,8.843,20,19.75C42,36,22.253,44,22,61C22,44,2,38.5,2,21.75C2,10.843,10.954,2,22,2 M22,0
			C9.869,0,0,9.757,0,21.75c0,9.107,5.314,15.053,10.453,20.802C15.363,48.044,20,53.232,20,61c0,1.099,0.886,1.992,1.985,2
			c0.005,0,0.01,0,0.015,0c1.091,0,1.983-0.877,2-1.971c0.121-8.123,5.252-14.21,10.215-20.098C39.025,35.225,44,29.323,44,21.75
			C44,9.757,34.131,0,22,0L22,0z"/>
	</g>
	<g>
		<ellipse fill="#FFFFFF" cx="23.16" cy="11.486" rx="2.459" ry="2.493"/>
		<path fill="#FFFFFF" d="M26.66,19.81c-0.259-0.086-0.536,0.057-0.62,0.318l-0.382,1.188l-2.782-1.387l0.059-3.901
			c0.002-0.097-0.029-0.183-0.05-0.272l0.037-0.273c0.099-0.728-0.402-1.398-1.121-1.498l-1.235-0.173
			c-0.698-0.097-1.341,0.384-1.466,1.081c-0.812,0.45-2.5,1.562-2.746,3.138c-0.305,1.959,0.475,3.714,1.756,4.114L17.843,24.1
			l0.031,0.004l-0.689,5.659l-2.094,5.415c-0.265,0.684,0.068,1.456,0.743,1.724c0.158,0.062,0.319,0.092,0.479,0.092
			c0.524,0,1.02-0.32,1.223-0.846l2.215-5.726l0.473-3.874l1.787,6.094l-1.057,3.281c-0.084,0.262,0.057,0.543,0.314,0.629
			c0.051,0.017,0.103,0.024,0.153,0.024c0.208,0,0.4-0.134,0.468-0.344l0.615-1.909l0.284,0.97c0.17,0.577,0.691,0.951,1.258,0.951
			c0.124,0,0.25-0.018,0.374-0.056c0.695-0.209,1.092-0.95,0.885-1.653l-1.368-4.662l1.979-6.145
			c0.349-0.053,0.669-0.263,0.837-0.608c0.218-0.447,0.106-0.96-0.226-1.292l0.448-1.391C27.06,20.176,26.919,19.895,26.66,19.81z
			 M21.906,22.953l0.125-0.927l2.928,1.459l-1.516,4.706L21.906,22.953z"/>
	</g>
</g>
</svg>
