<?xml version="1.0" encoding="utf-8"?>
<!-- Generator: Adobe Illustrator 16.0.0, SVG Export Plug-In . SVG Version: 6.00 Build 0)  -->
<!DOCTYPE svg PUBLIC "-//W3C//DTD SVG 1.1//EN" "http://www.w3.org/Graphics/SVG/1.1/DTD/svg11.dtd">
<svg version="1.1" id="Calque_1" xmlns="http://www.w3.org/2000/svg" xmlns:xlink="http://www.w3.org/1999/xlink" x="0px" y="0px"
	 width="44px" height="63px" viewBox="0 0 44 63" enable-background="new 0 0 44 63" xml:space="preserve">
<g>
	<path fill="#F7A500" d="M21.993,62C21.443,61.996,21,61.55,21,61c0-8.149-4.761-13.476-9.801-19.114C6.185,36.276,1,30.476,1,21.75
		C1,10.309,10.42,1,22,1c11.579,0,21,9.309,21,20.75c0,7.208-4.639,12.711-9.55,18.537C28.374,46.309,23.126,52.535,23,61.015
		C22.992,61.562,22.546,62,22,62C21.998,62,21.995,62,21.993,62z"/>
	<path d="M22,2c11.045,0,20,8.843,20,19.75C42,36,22.253,44,22,61C22,44,2,38.5,2,21.75C2,10.843,10.954,2,22,2 M22,0
		C9.869,0,0,9.757,0,21.75c0,9.107,5.314,15.053,10.453,20.802C15.363,48.044,20,53.232,20,61c0,1.099,0.886,1.992,1.985,2
		c0.005,0,0.01,0,0.015,0c1.091,0,1.983-0.877,2-1.971c0.121-8.123,5.252-14.21,10.215-20.098C39.025,35.225,44,29.323,44,21.75
		C44,9.757,34.131,0,22,0L22,0z"/>
</g>
<g>
	<path fill="#FFFFFF" d="M36.052,17.101c-0.053-0.041-1.441-1.019-3.59-0.779c-0.068,0.008-0.137,0.029-0.205,0.039l-0.621-0.639
		c-0.248-0.256-0.666-0.27-0.932-0.028c-0.266,0.24-0.279,0.644-0.031,0.899l0.135,0.139c-0.314,0.113-0.631,0.25-0.947,0.406
		l-0.703-0.606c-0.271-0.234-0.689-0.212-0.932,0.05c-0.244,0.263-0.221,0.666,0.051,0.9l0.398,0.342
		c-0.342,0.227-0.686,0.479-1.029,0.755l-0.697-0.539c-0.285-0.22-0.699-0.175-0.928,0.1c-0.227,0.274-0.182,0.675,0.104,0.896
		l0.529,0.408c-0.791,0.74-1.586,1.6-2.383,2.597l-2.969-3.666c0,0-0.722-0.872-1.845-0.729c0,0-0.675,0.151-1.513,0.813
		l-6.091,4.098c-0.106,0.132-0.21,0.271-0.254,0.441c-0.192,0.751,0.056,1.514,0.601,2.016l1.027,0.941
		c-2.029-0.107-4.064-0.023-5.831,1.334c-0.327,0.25-0.381,0.711-0.12,1.025c0.148,0.182,0.369,0.277,0.592,0.277
		c0.166,0,0.331-0.053,0.471-0.16c1.624-1.248,3.691-1.104,5.88-0.951l0.096,0.008c0.022,0.002,0.042,0.002,0.064,0.002
		c0.175-0.004,0.333-0.014,0.5-0.02l1.894,1.738l-1.441,5.387c-0.205,0.764,0.266,1.543,1.055,1.74s1.594-0.266,1.798-1.027
		l1.802-6.73c0,0,0.396-0.887-0.439-1.738c0.491-0.135,0.966-0.283,1.408-0.463c1.216-0.488,2.238-1.157,3.133-1.992
		c0.035,0.021,0.07,0.043,0.105,0.065v0.001l3.273,1.213c1.332,0.734,2.324-0.943,0.992-1.678l-2.951-1.173
		c3.08-3.81,5.451-4.847,6.955-5.032c1.025-0.127,1.994,0.113,1.994,0.291v5.377c0,0.404,0.582,0.73,1,0.73s1-0.326,1-0.73v-5.783
		C36.456,17.446,36.226,17.239,36.052,17.101z M18.218,25.653l-1.524-1.336l4.403-2.594l1.787,1.796
		C21.667,24.571,20.148,25.27,18.218,25.653z"/>
	<ellipse fill="#FFFFFF" cx="33.345" cy="20.098" rx="0.545" ry="0.526"/>
	<path fill="#FFFFFF" d="M23.333,18.297c1.402-0.179,2.391-1.415,2.205-2.767c-0.184-1.354-1.473-2.307-2.875-2.128
		c-1.399,0.179-2.387,1.423-2.203,2.774C20.646,17.529,21.935,18.476,23.333,18.297z"/>
</g>
</svg>
