<?xml version="1.0" encoding="utf-8"?>
<!-- Generator: Adobe Illustrator 16.0.0, SVG Export Plug-In . SVG Version: 6.00 Build 0)  -->
<!DOCTYPE svg PUBLIC "-//W3C//DTD SVG 1.1//EN" "http://www.w3.org/Graphics/SVG/1.1/DTD/svg11.dtd">
<svg version="1.1" id="Calque_1" xmlns="http://www.w3.org/2000/svg" xmlns:xlink="http://www.w3.org/1999/xlink" x="0px" y="0px"
	 width="37px" height="54px" viewBox="0 0 37 54" enable-background="new 0 0 37 54" xml:space="preserve">
<g>
	<path fill="#145D7C" d="M18.493,53c-0.549-0.004-0.993-0.45-0.993-1c0-6.855-3.911-11.35-8.05-16.107
		C5.295,31.119,1,26.183,1,18.738C1,8.958,8.851,1,18.5,1S36,8.958,36,18.738c0,6.156-3.843,10.839-7.911,15.797
		c-4.172,5.084-8.485,10.34-8.589,17.479C19.492,52.562,19.046,53,18.5,53C18.498,53,18.495,53,18.493,53z"/>
	<path d="M18.5,2C27.613,2,35,9.494,35,18.738C35,30.813,18.709,37.594,18.5,52C18.5,37.594,2,32.932,2,18.738
		C2,9.494,9.387,2,18.5,2 M18.5,0C8.299,0,0,8.406,0,18.738c0,7.819,4.42,12.898,8.695,17.811C12.709,41.162,16.5,45.519,16.5,52
		c0,1.099,0.887,1.992,1.985,2c0.005,0,0.01,0,0.015,0c1.092,0,1.984-0.877,2-1.971c0.099-6.79,4.299-11.909,8.361-16.859
		C32.862,30.294,37,25.252,37,18.738C37,8.406,28.701,0,18.5,0L18.5,0z"/>
</g>
<g>
	<path fill="#FFFFFF" d="M23.145,20.82h0.002V9.791c-3.355,0-2.68,11.029-2.68,11.029h0.578c-0.105,3.198-0.246,7.388-0.258,7.768
		c-0.021,0.62,0.705,1.203,1.34,1.203s1.367-0.6,1.34-1.203C23.451,28.218,23.277,24.022,23.145,20.82z"/>
	<path fill="#FFFFFF" d="M17.914,10.607c-0.289,0-0.523,0.232-0.523,0.52v4.939c0,0.352-0.195,0.614-0.371,0.614h-0.394v-5.554
		c0-0.287-0.234-0.52-0.522-0.52c-0.289,0-0.523,0.232-0.523,0.52v5.554H15.1v-5.554c0-0.287-0.234-0.52-0.522-0.52
		c-0.29,0-0.523,0.232-0.523,0.52v5.554h-0.167c-0.176,0-0.372-0.263-0.372-0.614v-4.939c0-0.287-0.234-0.52-0.522-0.52
		c-0.289,0-0.523,0.232-0.523,0.52v4.939c0,0.912,0.636,1.654,1.418,1.654h0.57c-0.074,2.23-0.344,10.332-0.361,10.867
		c-0.021,0.62,0.705,1.203,1.341,1.203s1.366-0.6,1.341-1.203c-0.022-0.521-0.359-8.636-0.453-10.867h0.695
		c0.781,0,1.418-0.742,1.418-1.654v-4.939C18.438,10.84,18.203,10.607,17.914,10.607z"/>
</g>
</svg>
