<svg xmlns="http://www.w3.org/2000/svg" width="63.007" height="63.007"><g transform="translate(-239.211 -636.573)"><path d="M454.286 589.505c0 74.164-60.122 134.286-134.286 134.286s-134.286-60.122-134.286-134.286 60.122-134.286 134.286-134.286 134.286 60.122 134.286 134.286z" transform="matrix(.227 0 0 .227 198.025 534.168)" fill="#bd1726" stroke="#009fda" stroke-width="8.805" stroke-linecap="round" stroke-linejoin="round"/><g fill="#fff" transform="translate(245.493 644.073)"><path d="M15.804 19.365c-.032.238-.054.477-.054.713l2.511 10.921-6.11 8.129c-.13.24-.226.519-.267.814-.208 1.346.714 2.593 2.056 2.799 1.041.16 2.038-.372 2.516-1.247l6.488-8.886c.089-.209.164-.423.196-.665l.023-.334-.805-6.066 5.522-.303 1.251 5.029c.205.965.996 1.732 2.026 1.895 1.343.196 2.59-.724 2.795-2.058.034-.229.034-.459.011-.672l-1.723-7.266c-.152-.774-.66-1.434-1.375-1.768l-5.479-.46 2.937-5.112 1.8 2.29c.183.201.422.377.694.483l6.859 2.008c.91.193 1.842-.281 2.201-1.163.401-.993-.076-2.123-1.063-2.521l-.097-.035-5.96-1.756-3.289-4.464c-.674-.714-1.572-1.225-2.611-1.385-6.285-.832-10.977 10.605-11.053 11.083" fill="#fff"/><path d="M32.567 8.516c2.025 0 3.675-1.643 3.675-3.671 0-2.029-1.649-3.675-3.675-3.675-2.028 0-3.675 1.648-3.675 3.675s1.649 3.671 3.675 3.671" fill="#fff"/><path d="M21.086 8.197c.356-.449.296-1.115-.165-1.471l-2.882-2.595c-.46-.355-1.117-.295-1.485.166l-6.881 8.5c-.353.451-.293 1.104.166 1.475l2.896 2.583c.446.364 1.104.293 1.472-.157l6.88-8.5z" fill="#fff"/><path d="M8.635 47.989c-.192 0-.38-.096-.491-.271-.169-.271-.088-.628.182-.798.311-.194 31.012-19.478 33.107-21.265.244-.207.609-.178.816.065.207.243.178.609-.065.816-2.16 1.841-31.974 20.568-33.242 21.364-.097.06-.203.088-.309.088" fill="#fff"/><path d="M36.069 5.393c-.925 1.35-2.665 1.984-4.294 1.435-1.971-.664-3.031-2.794-2.367-4.767l-.175 1.573s3.955 1.041 6.837 1.759" fill="#fff"/><path d="M36.538 4.46l-.056.153c-.106.281-.249.543-.414.78-2.882-.716-6.837-1.759-6.837-1.759l.175-1.574c.46-1.368 2.794-2.513 4.767-1.85 1.969.663 2.538 2.663 2.365 4.249" fill="#fff"/><path d="M36.069 5.393c-2.882-.716-6.837-1.759-6.837-1.759l.175-1.574 6.673 2.245.402.306c.496.354 1.395.95 2.4 1.353.617.249-.847-.085-2.814-.571" fill="#fff"/></g></g></svg>