<?xml version="1.0" encoding="UTF-8" standalone="no"?>
<!-- Created with Inkscape (http://www.inkscape.org/) -->

<svg
   xmlns:dc="http://purl.org/dc/elements/1.1/"
   xmlns:cc="http://creativecommons.org/ns#"
   xmlns:rdf="http://www.w3.org/1999/02/22-rdf-syntax-ns#"
   xmlns:svg="http://www.w3.org/2000/svg"
   xmlns="http://www.w3.org/2000/svg"
   xmlns:sodipodi="http://sodipodi.sourceforge.net/DTD/sodipodi-0.dtd"
   xmlns:inkscape="http://www.inkscape.org/namespaces/inkscape"
   width="63.007103"
   height="63.007103"
   id="svg2"
   version="1.1"
   inkscape:version="0.48.4 r9939"
   sodipodi:docname="trek-icon.svg">
  <defs
     id="defs4" />
  <sodipodi:namedview
     id="base"
     pagecolor="#ffffff"
     bordercolor="#666666"
     borderopacity="1.0"
     inkscape:pageopacity="0.0"
     inkscape:pageshadow="2"
     inkscape:zoom="1.4"
     inkscape:cx="-27.34231"
     inkscape:cy="41.426944"
     inkscape:document-units="px"
     inkscape:current-layer="layer1"
     showgrid="false"
     fit-margin-top="0"
     fit-margin-left="0"
     fit-margin-right="0"
     fit-margin-bottom="0"
     inkscape:window-width="1535"
     inkscape:window-height="876"
     inkscape:window-x="65"
     inkscape:window-y="24"
     inkscape:window-maximized="1" />
  <metadata
     id="metadata7">
    <rdf:RDF>
      <cc:Work
         rdf:about="">
        <dc:format>image/svg+xml</dc:format>
        <dc:type
           rdf:resource="http://purl.org/dc/dcmitype/StillImage" />
        <dc:title></dc:title>
      </cc:Work>
    </rdf:RDF>
  </metadata>
  <g
     inkscape:label="Calque 1"
     inkscape:groupmode="layer"
     id="layer1"
     transform="translate(-239.21074,-636.57295)">
    <path
       sodipodi:type="arc"
       style="fill:#bd1726;fill-opacity:1;stroke:#009fda;stroke-width:8.80459594999999950;stroke-linecap:round;stroke-linejoin:round;stroke-miterlimit:4;stroke-opacity:1;stroke-dasharray:none;stroke-dashoffset:0"
       id="path2985"
       sodipodi:cx="320"
       sodipodi:cy="589.50507"
       sodipodi:rx="134.28572"
       sodipodi:ry="134.28572"
       d="m 454.28572,589.50507 c 0,74.16395 -60.12176,134.28572 -134.28572,134.28572 -74.16396,0 -134.28572,-60.12177 -134.28572,-134.28572 0,-74.16396 60.12176,-134.28572 134.28572,-134.28572 74.16396,0 134.28572,60.12176 134.28572,134.28572 z"
       transform="matrix(0.22715409,0,0,0.22715409,198.02498,534.16801)" />
    <g
       transform="translate(245.49266,644.07336)"
       id="layer1-2">
      <g
         transform="matrix(0.38597382,0,0,-0.38597382,182.5271,63.905004)"
         id="g13318"
         style="fill:#ffffff">
        <g
           transform="translate(-431.95486,115.39626)"
           id="g3344-0-1"
           style="fill:#ffffff">
          <path
             inkscape:connector-curvature="0"
             d="m 0,0 c -0.084,-0.617 -0.141,-1.235 -0.141,-1.846 l 6.504,-28.293 -15.828,-21.06 c -0.338,-0.621 -0.586,-1.345 -0.693,-2.108 -0.539,-3.488 1.85,-6.717 5.326,-7.251 2.697,-0.414 5.281,0.963 6.517,3.23 l 16.809,23.022 c 0.23,0.542 0.425,1.097 0.508,1.724 0.023,0.271 0.06,0.577 0.06,0.864 l -2.086,15.716 14.306,0.784 3.242,-13.028 c 0.532,-2.499 2.581,-4.486 5.25,-4.91 3.478,-0.509 6.709,1.875 7.241,5.332 0.089,0.592 0.089,1.188 0.028,1.742 L 42.58,-7.257 c -0.395,2.005 -1.709,3.716 -3.561,4.58 l -14.195,1.193 7.61,13.244 4.663,-5.932 C 37.571,5.307 38.19,4.851 38.894,4.577 l 17.77,-5.202 c 2.358,-0.5 4.773,0.729 5.702,3.012 1.038,2.572 -0.197,5.499 -2.755,6.532 -0.08,0.038 -0.164,0.064 -0.251,0.091 L 43.92,13.56 35.4,25.125 c -1.746,1.849 -4.073,3.174 -6.764,3.588 C 12.354,30.869 0.197,1.24 0,0"
             id="path3346-2-9"
             style="fill:#ffffff;fill-opacity:1;fill-rule:nonzero;stroke:none" />
        </g>
        <g
           transform="translate(-388.52515,143.50554)"
           id="g3348-0-7"
           style="fill:#ffffff">
          <path
             inkscape:connector-curvature="0"
             d="m 0,0 c 5.247,0 9.52,4.256 9.52,9.511 0,5.256 -4.271,9.52 -9.52,9.52 -5.254,0 -9.521,-4.269 -9.521,-9.52 C -9.521,4.26 -5.249,0 0,0"
             id="path3350-7-9"
             style="fill:#ffffff;fill-opacity:1;fill-rule:nonzero;stroke:none" />
        </g>
        <g
           transform="translate(-418.26926,144.32978)"
           id="g3352-0-6"
           style="fill:#ffffff">
          <path
             inkscape:connector-curvature="0"
             d="m 0,0 c 0.921,1.162 0.767,2.888 -0.427,3.812 l -7.466,6.724 c -1.193,0.919 -2.895,0.763 -3.848,-0.431 l -17.826,-22.021 c -0.914,-1.169 -0.759,-2.861 0.429,-3.821 l 7.502,-6.691 c 1.155,-0.944 2.861,-0.758 3.813,0.408 L 0,0 z"
             id="path3354-2-8"
             style="fill:#ffffff;fill-opacity:1;fill-rule:nonzero;stroke:none" />
        </g>
        <g
           transform="translate(-450.52706,41.235056)"
           id="g3356-9-3"
           style="fill:#ffffff">
          <path
             inkscape:connector-curvature="0"
             d="M 0,0 C -0.498,0 -0.985,0.249 -1.271,0.702 -1.709,1.403 -1.5,2.33 -0.799,2.77 c 0.806,0.503 80.342,50.46 85.77,55.09 0.632,0.536 1.578,0.461 2.115,-0.168 0.537,-0.63 0.462,-1.577 -0.168,-2.115 C 81.321,50.808 4.085,2.293 0.8,0.229 0.548,0.073 0.273,0 0,0"
             id="path3358-9-3"
             style="fill:#ffffff;fill-opacity:1;fill-rule:nonzero;stroke:none" />
        </g>
        <g
           transform="translate(-379.45095,151.59546)"
           id="g3360-1-7"
           style="fill:#ffffff">
          <path
             inkscape:connector-curvature="0"
             d="m 0,0 c -2.397,-3.497 -6.905,-5.139 -11.125,-3.717 -5.106,1.719 -7.852,7.238 -6.133,12.35 L -17.712,4.557 C -17.712,4.557 -7.467,1.859 0,0"
             id="path3362-3-7"
             style="fill:#ffffff;fill-opacity:1;fill-rule:nonzero;stroke:none" />
        </g>
        <g
           transform="translate(-378.23605,154.01434)"
           id="g3364-3-3"
           style="fill:#ffffff">
          <path
             inkscape:connector-curvature="0"
             d="M 0,0 C -0.019,-0.142 -0.093,-0.268 -0.146,-0.396 -0.42,-1.125 -0.79,-1.803 -1.218,-2.418 -8.685,-0.563 -18.93,2.139 -18.93,2.139 l 0.454,4.077 c 1.192,3.545 7.238,6.511 12.349,4.792 C -1.027,9.291 0.449,4.11 0,0"
             id="path3366-1-3"
             style="fill:#ffffff;fill-opacity:1;fill-rule:nonzero;stroke:none" />
        </g>
        <g
           transform="translate(-379.45095,151.59546)"
           id="g3368-5-8"
           style="fill:#ffffff">
          <path
             inkscape:connector-curvature="0"
             d="M 0,0 C -7.467,1.855 -17.712,4.557 -17.712,4.557 L -17.258,8.634 0.03,2.818 c 0,0 0.378,-0.313 1.042,-0.793 C 2.356,1.107 4.685,-0.435 7.289,-1.479 8.887,-2.124 5.094,-1.259 0,0"
             id="path3370-8-0"
             style="fill:#ffffff;fill-opacity:1;fill-rule:nonzero;stroke:none" />
        </g>
      </g>
    </g>
  </g>
</svg>
