<?xml version="1.0" encoding="UTF-8" standalone="no"?>
<!DOCTYPE svg PUBLIC "-//W3C//DTD SVG 1.1//EN"
 "http://www.w3.org/Graphics/SVG/1.1/DTD/svg11.dtd">
<!-- Generated by graphviz version 2.40.1 (20161225.0304)
 -->
<!-- Title: dependencies Pages: 1 -->
<svg width="504pt" height="211pt"
 viewBox="0.00 0.00 504.00 211.00" xmlns="http://www.w3.org/2000/svg" xmlns:xlink="http://www.w3.org/1999/xlink">
<g id="graph0" class="graph" transform="scale(1 1) rotate(0) translate(4 207)">
<title>dependencies</title>
<polygon fill="#ffffff" stroke="transparent" points="-4,4 -4,-207 500,-207 500,4 -4,4"/>
<text text-anchor="start" x="227.0091" y="-42.4" font-family="sans-serif" font-weight="bold" font-size="14.00" fill="#000000">Legend</text>
<polygon fill="#ffffb3" stroke="transparent" points="14,-10 14,-30 34,-30 34,-10 14,-10"/>
<text text-anchor="start" x="37.629" y="-15.4" font-family="sans-serif" font-size="14.00" fill="#000000"> &#160;Declarations</text>
<polygon fill="#8dd3c7" stroke="transparent" points="127,-10 127,-30 147,-30 147,-10 127,-10"/>
<text text-anchor="start" x="150.7251" y="-15.4" font-family="sans-serif" font-size="14.00" fill="#000000"> &#160;Module</text>
<polygon fill="#80b1d3" stroke="transparent" points="213,-10 213,-30 233,-30 233,-10 213,-10"/>
<text text-anchor="start" x="236.7812" y="-15.4" font-family="sans-serif" font-size="14.00" fill="#000000"> &#160;Bootstrap</text>
<polygon fill="#fdb462" stroke="transparent" points="310,-10 310,-30 330,-30 330,-10 310,-10"/>
<text text-anchor="start" x="333.6732" y="-15.4" font-family="sans-serif" font-size="14.00" fill="#000000"> &#160;Providers</text>
<polygon fill="#fb8072" stroke="transparent" points="406,-10 406,-30 426,-30 426,-10 406,-10"/>
<text text-anchor="start" x="429.7258" y="-15.4" font-family="sans-serif" font-size="14.00" fill="#000000"> &#160;Exports</text>
<g id="clust1" class="cluster">
<title>cluster_TrekMapPageModule</title>
<polygon fill="none" stroke="#000000" stroke-dasharray="1,5" points="58,-70 58,-195 438,-195 438,-70 58,-70"/>
</g>
<g id="clust2" class="cluster">
<title>cluster_TrekMapPageModule_declarations</title>
<polygon fill="none" stroke="#000000" points="318,-78 318,-130 430,-130 430,-78 318,-78"/>
</g>
<g id="clust4" class="cluster">
<title>cluster_TrekMapPageModule_imports</title>
<polygon fill="none" stroke="#000000" points="66,-78 66,-130 310,-130 310,-78 66,-78"/>
</g>
<!-- TrekMapPage -->
<g id="node1" class="node">
<title>TrekMapPage</title>
<polygon fill="#ffffb3" stroke="#000000" points="421.7993,-122 326.2007,-122 326.2007,-86 421.7993,-86 421.7993,-122"/>
<text text-anchor="middle" x="374" y="-99.8" font-family="Times,serif" font-size="14.00" fill="#000000">TrekMapPage</text>
</g>
<!-- TrekMapPageModule -->
<g id="node2" class="node">
<title>TrekMapPageModule</title>
<polygon fill="#8dd3c7" stroke="#000000" points="322.3487,-187 319.3487,-191 298.3487,-191 295.3487,-187 183.6513,-187 183.6513,-151 322.3487,-151 322.3487,-187"/>
<text text-anchor="middle" x="253" y="-164.8" font-family="Times,serif" font-size="14.00" fill="#000000">TrekMapPageModule</text>
</g>
<!-- TrekMapPage&#45;&gt;TrekMapPageModule -->
<g id="edge1" class="edge">
<title>TrekMapPage&#45;&gt;TrekMapPageModule</title>
<path fill="none" stroke="#000000" d="M326.3144,-104C318.1917,-104 312.3177,-104 312.3177,-104 312.3177,-104 312.3177,-140.8939 312.3177,-140.8939"/>
<polygon fill="#000000" stroke="#000000" points="308.8178,-140.8938 312.3177,-150.8939 315.8178,-140.8939 308.8178,-140.8938"/>
</g>
<!-- SharedModule -->
<g id="node3" class="node">
<title>SharedModule</title>
<polygon fill="#8dd3c7" stroke="#000000" points="302.4231,-122 299.4231,-126 278.4231,-126 275.4231,-122 203.5769,-122 203.5769,-86 302.4231,-86 302.4231,-122"/>
<text text-anchor="middle" x="253" y="-99.8" font-family="Times,serif" font-size="14.00" fill="#000000">SharedModule</text>
</g>
<!-- SharedModule&#45;&gt;TrekMapPageModule -->
<g id="edge2" class="edge">
<title>SharedModule&#45;&gt;TrekMapPageModule</title>
<path fill="none" stroke="#000000" d="M253,-122.1061C253,-122.1061 253,-140.991 253,-140.991"/>
<polygon fill="#000000" stroke="#000000" points="249.5001,-140.9909 253,-150.991 256.5001,-140.991 249.5001,-140.9909"/>
</g>
<!-- SharedUiModule -->
<g id="node4" class="node">
<title>SharedUiModule</title>
<polygon fill="#8dd3c7" stroke="#000000" points="186.4202,-122 183.4202,-126 162.4202,-126 159.4202,-122 73.5798,-122 73.5798,-86 186.4202,-86 186.4202,-122"/>
<text text-anchor="middle" x="130" y="-99.8" font-family="Times,serif" font-size="14.00" fill="#000000">SharedUiModule</text>
</g>
<!-- SharedUiModule&#45;&gt;TrekMapPageModule -->
<g id="edge3" class="edge">
<title>SharedUiModule&#45;&gt;TrekMapPageModule</title>
<path fill="none" stroke="#000000" d="M186.2332,-104C191.5468,-104 194.9993,-104 194.9993,-104 194.9993,-104 194.9993,-140.8939 194.9993,-140.8939"/>
<polygon fill="#000000" stroke="#000000" points="191.4994,-140.8938 194.9993,-150.8939 198.4994,-140.8939 191.4994,-140.8938"/>
</g>
</g>
</svg>
