<?xml version="1.0" encoding="UTF-8" standalone="no"?>
<!DOCTYPE svg PUBLIC "-//W3C//DTD SVG 1.1//EN"
 "http://www.w3.org/Graphics/SVG/1.1/DTD/svg11.dtd">
<!-- Generated by graphviz version 2.40.1 (20161225.0304)
 -->
<!-- Title: dependencies Pages: 1 -->
<svg width="548pt" height="284pt"
 viewBox="0.00 0.00 548.00 284.00" xmlns="http://www.w3.org/2000/svg" xmlns:xlink="http://www.w3.org/1999/xlink">
<g id="graph0" class="graph" transform="scale(1 1) rotate(0) translate(4 280)">
<title>dependencies</title>
<polygon fill="#ffffff" stroke="transparent" points="-4,4 -4,-280 544,-280 544,4 -4,4"/>
<text text-anchor="start" x="249.0091" y="-42.4" font-family="sans-serif" font-weight="bold" font-size="14.00" fill="#000000">Legend</text>
<polygon fill="#ffffb3" stroke="transparent" points="36,-10 36,-30 56,-30 56,-10 36,-10"/>
<text text-anchor="start" x="59.629" y="-15.4" font-family="sans-serif" font-size="14.00" fill="#000000"> &#160;Declarations</text>
<polygon fill="#8dd3c7" stroke="transparent" points="149,-10 149,-30 169,-30 169,-10 149,-10"/>
<text text-anchor="start" x="172.7251" y="-15.4" font-family="sans-serif" font-size="14.00" fill="#000000"> &#160;Module</text>
<polygon fill="#80b1d3" stroke="transparent" points="235,-10 235,-30 255,-30 255,-10 235,-10"/>
<text text-anchor="start" x="258.7812" y="-15.4" font-family="sans-serif" font-size="14.00" fill="#000000"> &#160;Bootstrap</text>
<polygon fill="#fdb462" stroke="transparent" points="332,-10 332,-30 352,-30 352,-10 332,-10"/>
<text text-anchor="start" x="355.6732" y="-15.4" font-family="sans-serif" font-size="14.00" fill="#000000"> &#160;Providers</text>
<polygon fill="#fb8072" stroke="transparent" points="428,-10 428,-30 448,-30 448,-10 428,-10"/>
<text text-anchor="start" x="451.7258" y="-15.4" font-family="sans-serif" font-size="14.00" fill="#000000"> &#160;Exports</text>
<g id="clust1" class="cluster">
<title>cluster_SharedUiModule</title>
<polygon fill="none" stroke="#000000" stroke-dasharray="1,5" points="8,-70 8,-268 532,-268 532,-70 8,-70"/>
</g>
<g id="clust2" class="cluster">
<title>cluster_SharedUiModule_declarations</title>
<polygon fill="none" stroke="#000000" points="22,-78 22,-130 518,-130 518,-78 22,-78"/>
</g>
<g id="clust7" class="cluster">
<title>cluster_SharedUiModule_exports</title>
<polygon fill="none" stroke="#000000" points="16,-208 16,-260 524,-260 524,-208 16,-208"/>
</g>
<!-- CollapsibleListComponent -->
<g id="node1" class="node">
<title>CollapsibleListComponent</title>
<polygon fill="#ffffb3" stroke="#000000" points="510.3836,-122 343.6164,-122 343.6164,-86 510.3836,-86 510.3836,-122"/>
<text text-anchor="middle" x="427" y="-99.8" font-family="Times,serif" font-size="14.00" fill="#000000">CollapsibleListComponent</text>
</g>
<!-- SharedUiModule -->
<g id="node4" class="node">
<title>SharedUiModule</title>
<polygon fill="#8dd3c7" stroke="#000000" points="303.4202,-187 300.4202,-191 279.4202,-191 276.4202,-187 190.5798,-187 190.5798,-151 303.4202,-151 303.4202,-187"/>
<text text-anchor="middle" x="247" y="-164.8" font-family="Times,serif" font-size="14.00" fill="#000000">SharedUiModule</text>
</g>
<!-- CollapsibleListComponent&#45;&gt;SharedUiModule -->
<g id="edge1" class="edge">
<title>CollapsibleListComponent&#45;&gt;SharedUiModule</title>
<path fill="none" stroke="#000000" d="M455.5639,-122.0225C455.5639,-139.3734 455.5639,-163 455.5639,-163 455.5639,-163 313.4404,-163 313.4404,-163"/>
<polygon fill="#000000" stroke="#000000" points="313.4404,-159.5001 303.4404,-163 313.4404,-166.5001 313.4404,-159.5001"/>
</g>
<!-- ConnectErrorComponent -->
<g id="node2" class="node">
<title>ConnectErrorComponent</title>
<polygon fill="#ffffb3" stroke="#000000" points="325.5239,-122 168.4761,-122 168.4761,-86 325.5239,-86 325.5239,-122"/>
<text text-anchor="middle" x="247" y="-99.8" font-family="Times,serif" font-size="14.00" fill="#000000">ConnectErrorComponent</text>
</g>
<!-- ConnectErrorComponent&#45;&gt;SharedUiModule -->
<g id="edge2" class="edge">
<title>ConnectErrorComponent&#45;&gt;SharedUiModule</title>
<path fill="none" stroke="#000000" d="M247,-122.1061C247,-122.1061 247,-140.991 247,-140.991"/>
<polygon fill="#000000" stroke="#000000" points="243.5001,-140.9909 247,-150.991 250.5001,-140.991 243.5001,-140.9909"/>
</g>
<!-- LoaderComponent -->
<g id="node3" class="node">
<title>LoaderComponent</title>
<polygon fill="#ffffb3" stroke="#000000" points="150.4748,-122 29.5252,-122 29.5252,-86 150.4748,-86 150.4748,-122"/>
<text text-anchor="middle" x="90" y="-99.8" font-family="Times,serif" font-size="14.00" fill="#000000">LoaderComponent</text>
</g>
<!-- LoaderComponent&#45;&gt;SharedUiModule -->
<g id="edge3" class="edge">
<title>LoaderComponent&#45;&gt;SharedUiModule</title>
<path fill="none" stroke="#000000" d="M108.6625,-122.0225C108.6625,-139.3734 108.6625,-163 108.6625,-163 108.6625,-163 180.7328,-163 180.7328,-163"/>
<polygon fill="#000000" stroke="#000000" points="180.7329,-166.5001 190.7328,-163 180.7328,-159.5001 180.7329,-166.5001"/>
</g>
<!-- CollapsibleListComponent  -->
<g id="node5" class="node">
<title>CollapsibleListComponent </title>
<polygon fill="#fb8072" stroke="#000000" points="516.384,-252 345.616,-252 345.616,-216 516.384,-216 516.384,-252"/>
<text text-anchor="middle" x="431" y="-229.8" font-family="Times,serif" font-size="14.00" fill="#000000">CollapsibleListComponent </text>
</g>
<!-- SharedUiModule&#45;&gt;CollapsibleListComponent  -->
<g id="edge4" class="edge">
<title>SharedUiModule&#45;&gt;CollapsibleListComponent </title>
<path fill="none" stroke="#000000" stroke-dasharray="5,2" d="M303.3543,-175C347.2163,-175 400.6861,-175 400.6861,-175 400.6861,-175 400.6861,-205.9775 400.6861,-205.9775"/>
<polygon fill="#000000" stroke="#000000" points="397.1862,-205.9774 400.6861,-215.9775 404.1862,-205.9775 397.1862,-205.9774"/>
</g>
<!-- ConnectErrorComponent  -->
<g id="node6" class="node">
<title>ConnectErrorComponent </title>
<polygon fill="#fb8072" stroke="#000000" points="327.5232,-252 166.4768,-252 166.4768,-216 327.5232,-216 327.5232,-252"/>
<text text-anchor="middle" x="247" y="-229.8" font-family="Times,serif" font-size="14.00" fill="#000000">ConnectErrorComponent </text>
</g>
<!-- SharedUiModule&#45;&gt;ConnectErrorComponent  -->
<g id="edge5" class="edge">
<title>SharedUiModule&#45;&gt;ConnectErrorComponent </title>
<path fill="none" stroke="#000000" stroke-dasharray="5,2" d="M247,-187.1061C247,-187.1061 247,-205.991 247,-205.991"/>
<polygon fill="#000000" stroke="#000000" points="243.5001,-205.9909 247,-215.991 250.5001,-205.991 243.5001,-205.9909"/>
</g>
<!-- LoaderComponent  -->
<g id="node7" class="node">
<title>LoaderComponent </title>
<polygon fill="#fb8072" stroke="#000000" points="148.4757,-252 23.5243,-252 23.5243,-216 148.4757,-216 148.4757,-252"/>
<text text-anchor="middle" x="86" y="-229.8" font-family="Times,serif" font-size="14.00" fill="#000000">LoaderComponent </text>
</g>
<!-- SharedUiModule&#45;&gt;LoaderComponent  -->
<g id="edge6" class="edge">
<title>SharedUiModule&#45;&gt;LoaderComponent </title>
<path fill="none" stroke="#000000" stroke-dasharray="5,2" d="M190.7074,-175C138.5846,-175 69.0875,-175 69.0875,-175 69.0875,-175 69.0875,-205.9775 69.0875,-205.9775"/>
<polygon fill="#000000" stroke="#000000" points="65.5876,-205.9774 69.0875,-215.9775 72.5876,-205.9775 65.5876,-205.9774"/>
</g>
</g>
</svg>
