<?xml version="1.0" encoding="UTF-8" standalone="no"?>
<!DOCTYPE svg PUBLIC "-//W3C//DTD SVG 1.1//EN"
 "http://www.w3.org/Graphics/SVG/1.1/DTD/svg11.dtd">
<!-- Generated by graphviz version 2.40.1 (20161225.0304)
 -->
<!-- Title: dependencies Pages: 1 -->
<svg width="712pt" height="211pt"
 viewBox="0.00 0.00 712.00 211.00" xmlns="http://www.w3.org/2000/svg" xmlns:xlink="http://www.w3.org/1999/xlink">
<g id="graph0" class="graph" transform="scale(1 1) rotate(0) translate(4 207)">
<title>dependencies</title>
<polygon fill="#ffffff" stroke="transparent" points="-4,4 -4,-207 708,-207 708,4 -4,4"/>
<text text-anchor="start" x="331.0091" y="-42.4" font-family="sans-serif" font-weight="bold" font-size="14.00" fill="#000000">Legend</text>
<polygon fill="#ffffb3" stroke="transparent" points="118,-10 118,-30 138,-30 138,-10 118,-10"/>
<text text-anchor="start" x="141.629" y="-15.4" font-family="sans-serif" font-size="14.00" fill="#000000"> &#160;Declarations</text>
<polygon fill="#8dd3c7" stroke="transparent" points="231,-10 231,-30 251,-30 251,-10 231,-10"/>
<text text-anchor="start" x="254.7251" y="-15.4" font-family="sans-serif" font-size="14.00" fill="#000000"> &#160;Module</text>
<polygon fill="#80b1d3" stroke="transparent" points="317,-10 317,-30 337,-30 337,-10 317,-10"/>
<text text-anchor="start" x="340.7812" y="-15.4" font-family="sans-serif" font-size="14.00" fill="#000000"> &#160;Bootstrap</text>
<polygon fill="#fdb462" stroke="transparent" points="414,-10 414,-30 434,-30 434,-10 414,-10"/>
<text text-anchor="start" x="437.6732" y="-15.4" font-family="sans-serif" font-size="14.00" fill="#000000"> &#160;Providers</text>
<polygon fill="#fb8072" stroke="transparent" points="510,-10 510,-30 530,-30 530,-10 510,-10"/>
<text text-anchor="start" x="533.7258" y="-15.4" font-family="sans-serif" font-size="14.00" fill="#000000"> &#160;Exports</text>
<g id="clust1" class="cluster">
<title>cluster_TabsPageModule</title>
<polygon fill="none" stroke="#000000" stroke-dasharray="1,5" points="8,-70 8,-195 696,-195 696,-70 8,-70"/>
</g>
<g id="clust2" class="cluster">
<title>cluster_TabsPageModule_declarations</title>
<polygon fill="none" stroke="#000000" points="602,-78 602,-130 688,-130 688,-78 602,-78"/>
</g>
<g id="clust4" class="cluster">
<title>cluster_TabsPageModule_imports</title>
<polygon fill="none" stroke="#000000" points="16,-78 16,-130 594,-130 594,-78 16,-78"/>
</g>
<!-- TabsPage -->
<g id="node1" class="node">
<title>TabsPage</title>
<polygon fill="#ffffb3" stroke="#000000" points="680.4249,-122 609.5751,-122 609.5751,-86 680.4249,-86 680.4249,-122"/>
<text text-anchor="middle" x="645" y="-99.8" font-family="Times,serif" font-size="14.00" fill="#000000">TabsPage</text>
</g>
<!-- TabsPageModule -->
<g id="node2" class="node">
<title>TabsPageModule</title>
<polygon fill="#8dd3c7" stroke="#000000" points="450.9734,-187 447.9734,-191 426.9734,-191 423.9734,-187 337.0266,-187 337.0266,-151 450.9734,-151 450.9734,-187"/>
<text text-anchor="middle" x="394" y="-164.8" font-family="Times,serif" font-size="14.00" fill="#000000">TabsPageModule</text>
</g>
<!-- TabsPage&#45;&gt;TabsPageModule -->
<g id="edge1" class="edge">
<title>TabsPage&#45;&gt;TabsPageModule</title>
<path fill="none" stroke="#000000" d="M645,-122.2843C645,-143.3211 645,-175 645,-175 645,-175 461.2699,-175 461.2699,-175"/>
<polygon fill="#000000" stroke="#000000" points="461.2699,-171.5001 451.2699,-175 461.2698,-178.5001 461.2699,-171.5001"/>
</g>
<!-- MorePageModule -->
<g id="node3" class="node">
<title>MorePageModule</title>
<polygon fill="#8dd3c7" stroke="#000000" points="585.5814,-122 582.5814,-126 561.5814,-126 558.5814,-122 468.4186,-122 468.4186,-86 585.5814,-86 585.5814,-122"/>
<text text-anchor="middle" x="527" y="-99.8" font-family="Times,serif" font-size="14.00" fill="#000000">MorePageModule</text>
</g>
<!-- MorePageModule&#45;&gt;TabsPageModule -->
<g id="edge2" class="edge">
<title>MorePageModule&#45;&gt;TabsPageModule</title>
<path fill="none" stroke="#000000" d="M527,-122.0225C527,-139.3734 527,-163 527,-163 527,-163 461.1758,-163 461.1758,-163"/>
<polygon fill="#000000" stroke="#000000" points="461.1759,-159.5001 451.1758,-163 461.1758,-166.5001 461.1759,-159.5001"/>
</g>
<!-- SharedUiModule -->
<g id="node4" class="node">
<title>SharedUiModule</title>
<polygon fill="#8dd3c7" stroke="#000000" points="450.4202,-122 447.4202,-126 426.4202,-126 423.4202,-122 337.5798,-122 337.5798,-86 450.4202,-86 450.4202,-122"/>
<text text-anchor="middle" x="394" y="-99.8" font-family="Times,serif" font-size="14.00" fill="#000000">SharedUiModule</text>
</g>
<!-- SharedUiModule&#45;&gt;TabsPageModule -->
<g id="edge3" class="edge">
<title>SharedUiModule&#45;&gt;TabsPageModule</title>
<path fill="none" stroke="#000000" d="M394,-122.1061C394,-122.1061 394,-140.991 394,-140.991"/>
<polygon fill="#000000" stroke="#000000" points="390.5001,-140.9909 394,-150.991 397.5001,-140.991 390.5001,-140.9909"/>
</g>
<!-- TabsPageRoutingModule -->
<g id="node5" class="node">
<title>TabsPageRoutingModule</title>
<polygon fill="#8dd3c7" stroke="#000000" points="319.5912,-122 316.5912,-126 295.5912,-126 292.5912,-122 160.4088,-122 160.4088,-86 319.5912,-86 319.5912,-122"/>
<text text-anchor="middle" x="240" y="-99.8" font-family="Times,serif" font-size="14.00" fill="#000000">TabsPageRoutingModule</text>
</g>
<!-- TabsPageRoutingModule&#45;&gt;TabsPageModule -->
<g id="edge4" class="edge">
<title>TabsPageRoutingModule&#45;&gt;TabsPageModule</title>
<path fill="none" stroke="#000000" d="M240,-122.0225C240,-139.3734 240,-163 240,-163 240,-163 326.6561,-163 326.6561,-163"/>
<polygon fill="#000000" stroke="#000000" points="326.6561,-166.5001 336.6561,-163 326.656,-159.5001 326.6561,-166.5001"/>
</g>
<!-- TreksPageModule -->
<g id="node6" class="node">
<title>TreksPageModule</title>
<polygon fill="#8dd3c7" stroke="#000000" points="142.1346,-122 139.1346,-126 118.1346,-126 115.1346,-122 23.8654,-122 23.8654,-86 142.1346,-86 142.1346,-122"/>
<text text-anchor="middle" x="83" y="-99.8" font-family="Times,serif" font-size="14.00" fill="#000000">TreksPageModule</text>
</g>
<!-- TreksPageModule&#45;&gt;TabsPageModule -->
<g id="edge5" class="edge">
<title>TreksPageModule&#45;&gt;TabsPageModule</title>
<path fill="none" stroke="#000000" d="M83,-122.2843C83,-143.3211 83,-175 83,-175 83,-175 326.9578,-175 326.9578,-175"/>
<polygon fill="#000000" stroke="#000000" points="326.9578,-178.5001 336.9578,-175 326.9578,-171.5001 326.9578,-178.5001"/>
</g>
</g>
</svg>
