<?xml version="1.0" encoding="UTF-8" standalone="no"?>
<!DOCTYPE svg PUBLIC "-//W3C//DTD SVG 1.1//EN"
 "http://www.w3.org/Graphics/SVG/1.1/DTD/svg11.dtd">
<!-- Generated by graphviz version 2.40.1 (20161225.0304)
 -->
<!-- Title: dependencies Pages: 1 -->
<svg width="504pt" height="211pt"
 viewBox="0.00 0.00 504.00 211.00" xmlns="http://www.w3.org/2000/svg" xmlns:xlink="http://www.w3.org/1999/xlink">
<g id="graph0" class="graph" transform="scale(1 1) rotate(0) translate(4 207)">
<title>dependencies</title>
<polygon fill="#ffffff" stroke="transparent" points="-4,4 -4,-207 500,-207 500,4 -4,4"/>
<text text-anchor="start" x="227.0091" y="-42.4" font-family="sans-serif" font-weight="bold" font-size="14.00" fill="#000000">Legend</text>
<polygon fill="#ffffb3" stroke="transparent" points="14,-10 14,-30 34,-30 34,-10 14,-10"/>
<text text-anchor="start" x="37.629" y="-15.4" font-family="sans-serif" font-size="14.00" fill="#000000"> &#160;Declarations</text>
<polygon fill="#8dd3c7" stroke="transparent" points="127,-10 127,-30 147,-30 147,-10 127,-10"/>
<text text-anchor="start" x="150.7251" y="-15.4" font-family="sans-serif" font-size="14.00" fill="#000000"> &#160;Module</text>
<polygon fill="#80b1d3" stroke="transparent" points="213,-10 213,-30 233,-30 233,-10 213,-10"/>
<text text-anchor="start" x="236.7812" y="-15.4" font-family="sans-serif" font-size="14.00" fill="#000000"> &#160;Bootstrap</text>
<polygon fill="#fdb462" stroke="transparent" points="310,-10 310,-30 330,-30 330,-10 310,-10"/>
<text text-anchor="start" x="333.6732" y="-15.4" font-family="sans-serif" font-size="14.00" fill="#000000"> &#160;Providers</text>
<polygon fill="#fb8072" stroke="transparent" points="406,-10 406,-30 426,-30 426,-10 406,-10"/>
<text text-anchor="start" x="429.7258" y="-15.4" font-family="sans-serif" font-size="14.00" fill="#000000"> &#160;Exports</text>
<g id="clust1" class="cluster">
<title>cluster_TrekDetailsPageModule</title>
<polygon fill="none" stroke="#000000" stroke-dasharray="1,5" points="35,-70 35,-195 461,-195 461,-70 35,-70"/>
</g>
<g id="clust2" class="cluster">
<title>cluster_TrekDetailsPageModule_declarations</title>
<polygon fill="none" stroke="#000000" points="327,-78 327,-130 453,-130 453,-78 327,-78"/>
</g>
<g id="clust4" class="cluster">
<title>cluster_TrekDetailsPageModule_imports</title>
<polygon fill="none" stroke="#000000" points="43,-78 43,-130 319,-130 319,-78 43,-78"/>
</g>
<!-- TrekDetailsPage -->
<g id="node1" class="node">
<title>TrekDetailsPage</title>
<polygon fill="#ffffb3" stroke="#000000" points="444.7922,-122 335.2078,-122 335.2078,-86 444.7922,-86 444.7922,-122"/>
<text text-anchor="middle" x="390" y="-99.8" font-family="Times,serif" font-size="14.00" fill="#000000">TrekDetailsPage</text>
</g>
<!-- TrekDetailsPageModule -->
<g id="node2" class="node">
<title>TrekDetailsPageModule</title>
<polygon fill="#8dd3c7" stroke="#000000" points="322.3417,-187 319.3417,-191 298.3417,-191 295.3417,-187 169.6583,-187 169.6583,-151 322.3417,-151 322.3417,-187"/>
<text text-anchor="middle" x="246" y="-164.8" font-family="Times,serif" font-size="14.00" fill="#000000">TrekDetailsPageModule</text>
</g>
<!-- TrekDetailsPage&#45;&gt;TrekDetailsPageModule -->
<g id="edge1" class="edge">
<title>TrekDetailsPage&#45;&gt;TrekDetailsPageModule</title>
<path fill="none" stroke="#000000" d="M335.2595,-104C324.6669,-104 316.7841,-104 316.7841,-104 316.7841,-104 316.7841,-140.8939 316.7841,-140.8939"/>
<polygon fill="#000000" stroke="#000000" points="313.2841,-140.8938 316.7841,-150.8939 320.2841,-140.8939 313.2841,-140.8938"/>
</g>
<!-- SharedTreksModule -->
<g id="node3" class="node">
<title>SharedTreksModule</title>
<polygon fill="#8dd3c7" stroke="#000000" points="311.2949,-122 308.2949,-126 287.2949,-126 284.2949,-122 180.7051,-122 180.7051,-86 311.2949,-86 311.2949,-122"/>
<text text-anchor="middle" x="246" y="-99.8" font-family="Times,serif" font-size="14.00" fill="#000000">SharedTreksModule</text>
</g>
<!-- SharedTreksModule&#45;&gt;TrekDetailsPageModule -->
<g id="edge2" class="edge">
<title>SharedTreksModule&#45;&gt;TrekDetailsPageModule</title>
<path fill="none" stroke="#000000" d="M246,-122.1061C246,-122.1061 246,-140.991 246,-140.991"/>
<polygon fill="#000000" stroke="#000000" points="242.5001,-140.9909 246,-150.991 249.5001,-140.991 242.5001,-140.9909"/>
</g>
<!-- SharedUiModule -->
<g id="node4" class="node">
<title>SharedUiModule</title>
<polygon fill="#8dd3c7" stroke="#000000" points="163.4202,-122 160.4202,-126 139.4202,-126 136.4202,-122 50.5798,-122 50.5798,-86 163.4202,-86 163.4202,-122"/>
<text text-anchor="middle" x="107" y="-99.8" font-family="Times,serif" font-size="14.00" fill="#000000">SharedUiModule</text>
</g>
<!-- SharedUiModule&#45;&gt;TrekDetailsPageModule -->
<g id="edge3" class="edge">
<title>SharedUiModule&#45;&gt;TrekDetailsPageModule</title>
<path fill="none" stroke="#000000" d="M163.3336,-104C170.4029,-104 175.216,-104 175.216,-104 175.216,-104 175.216,-140.8939 175.216,-140.8939"/>
<polygon fill="#000000" stroke="#000000" points="171.716,-140.8938 175.216,-150.8939 178.716,-140.8939 171.716,-140.8938"/>
</g>
</g>
</svg>
