<?xml version="1.0" encoding="UTF-8" standalone="no"?>
<!DOCTYPE svg PUBLIC "-//W3C//DTD SVG 1.1//EN"
 "http://www.w3.org/Graphics/SVG/1.1/DTD/svg11.dtd">
<!-- Generated by graphviz version 2.40.1 (20161225.0304)
 -->
<!-- Title: dependencies Pages: 1 -->
<svg width="504pt" height="211pt"
 viewBox="0.00 0.00 504.00 211.00" xmlns="http://www.w3.org/2000/svg" xmlns:xlink="http://www.w3.org/1999/xlink">
<g id="graph0" class="graph" transform="scale(1 1) rotate(0) translate(4 207)">
<title>dependencies</title>
<polygon fill="#ffffff" stroke="transparent" points="-4,4 -4,-207 500,-207 500,4 -4,4"/>
<text text-anchor="start" x="227.0091" y="-42.4" font-family="sans-serif" font-weight="bold" font-size="14.00" fill="#000000">Legend</text>
<polygon fill="#ffffb3" stroke="transparent" points="14,-10 14,-30 34,-30 34,-10 14,-10"/>
<text text-anchor="start" x="37.629" y="-15.4" font-family="sans-serif" font-size="14.00" fill="#000000"> &#160;Declarations</text>
<polygon fill="#8dd3c7" stroke="transparent" points="127,-10 127,-30 147,-30 147,-10 127,-10"/>
<text text-anchor="start" x="150.7251" y="-15.4" font-family="sans-serif" font-size="14.00" fill="#000000"> &#160;Module</text>
<polygon fill="#80b1d3" stroke="transparent" points="213,-10 213,-30 233,-30 233,-10 213,-10"/>
<text text-anchor="start" x="236.7812" y="-15.4" font-family="sans-serif" font-size="14.00" fill="#000000"> &#160;Bootstrap</text>
<polygon fill="#fdb462" stroke="transparent" points="310,-10 310,-30 330,-30 330,-10 310,-10"/>
<text text-anchor="start" x="333.6732" y="-15.4" font-family="sans-serif" font-size="14.00" fill="#000000"> &#160;Providers</text>
<polygon fill="#fb8072" stroke="transparent" points="406,-10 406,-30 426,-30 426,-10 406,-10"/>
<text text-anchor="start" x="429.7258" y="-15.4" font-family="sans-serif" font-size="14.00" fill="#000000"> &#160;Exports</text>
<g id="clust1" class="cluster">
<title>cluster_MoreItemPageModule</title>
<polygon fill="none" stroke="#000000" stroke-dasharray="1,5" points="114,-70 114,-195 382,-195 382,-70 114,-70"/>
</g>
<g id="clust2" class="cluster">
<title>cluster_MoreItemPageModule_declarations</title>
<polygon fill="none" stroke="#000000" points="258,-78 258,-130 374,-130 374,-78 258,-78"/>
</g>
<g id="clust4" class="cluster">
<title>cluster_MoreItemPageModule_imports</title>
<polygon fill="none" stroke="#000000" points="122,-78 122,-130 250,-130 250,-78 122,-78"/>
</g>
<!-- MoreItemPage -->
<g id="node1" class="node">
<title>MoreItemPage</title>
<polygon fill="#ffffb3" stroke="#000000" points="365.6882,-122 266.3118,-122 266.3118,-86 365.6882,-86 365.6882,-122"/>
<text text-anchor="middle" x="316" y="-99.8" font-family="Times,serif" font-size="14.00" fill="#000000">MoreItemPage</text>
</g>
<!-- MoreItemPageModule -->
<g id="node2" class="node">
<title>MoreItemPageModule</title>
<polygon fill="#8dd3c7" stroke="#000000" points="319.238,-187 316.238,-191 295.238,-191 292.238,-187 176.762,-187 176.762,-151 319.238,-151 319.238,-187"/>
<text text-anchor="middle" x="248" y="-164.8" font-family="Times,serif" font-size="14.00" fill="#000000">MoreItemPageModule</text>
</g>
<!-- MoreItemPage&#45;&gt;MoreItemPageModule -->
<g id="edge1" class="edge">
<title>MoreItemPage&#45;&gt;MoreItemPageModule</title>
<path fill="none" stroke="#000000" d="M292.8875,-122.1061C292.8875,-122.1061 292.8875,-140.991 292.8875,-140.991"/>
<polygon fill="#000000" stroke="#000000" points="289.3875,-140.9909 292.8875,-150.991 296.3875,-140.991 289.3875,-140.9909"/>
</g>
<!-- SharedUiModule -->
<g id="node3" class="node">
<title>SharedUiModule</title>
<polygon fill="#8dd3c7" stroke="#000000" points="242.4202,-122 239.4202,-126 218.4202,-126 215.4202,-122 129.5798,-122 129.5798,-86 242.4202,-86 242.4202,-122"/>
<text text-anchor="middle" x="186" y="-99.8" font-family="Times,serif" font-size="14.00" fill="#000000">SharedUiModule</text>
</g>
<!-- SharedUiModule&#45;&gt;MoreItemPageModule -->
<g id="edge2" class="edge">
<title>SharedUiModule&#45;&gt;MoreItemPageModule</title>
<path fill="none" stroke="#000000" d="M209.4204,-122.1061C209.4204,-122.1061 209.4204,-140.991 209.4204,-140.991"/>
<polygon fill="#000000" stroke="#000000" points="205.9205,-140.9909 209.4204,-150.991 212.9205,-140.991 205.9205,-140.9909"/>
</g>
</g>
</svg>
